<svg width="18" height="13" viewBox="0 0 18 13" fill="none" xmlns="http://www.w3.org/2000/svg">
<path fill-rule="evenodd" clip-rule="evenodd" d="M8.97105 2.84599C11.4376 2.8461 13.8098 3.81668 15.5975 5.55712C15.7321 5.69149 15.9472 5.68979 16.0798 5.55332L17.3666 4.2234C17.4337 4.15418 17.4711 4.06042 17.4706 3.96287C17.47 3.86531 17.4315 3.77201 17.3636 3.7036C12.6717 -0.901199 5.26966 -0.901199 0.577744 3.7036C0.509778 3.77196 0.471216 3.86523 0.470589 3.96279C0.469962 4.06034 0.507323 4.15413 0.574405 4.2234L1.86154 5.55332C1.99404 5.69 2.20937 5.6917 2.3439 5.55712C4.13174 3.81656 6.50425 2.84598 8.97105 2.84599ZM8.97103 7.17266C10.3262 7.17257 11.6331 7.68843 12.6377 8.61999C12.7735 8.7522 12.9876 8.74933 13.12 8.61353L14.4053 7.28361C14.473 7.21386 14.5105 7.11922 14.5096 7.02089C14.5086 6.92255 14.4691 6.82872 14.4001 6.76039C11.341 3.84629 6.60364 3.84629 3.54457 6.76039C3.47547 6.82872 3.43604 6.9226 3.43514 7.02097C3.43423 7.11933 3.47192 7.21396 3.53974 7.28361L4.82466 8.61353C4.9571 8.74933 5.17114 8.7522 5.30701 8.61999C6.3109 7.68905 7.61671 7.17323 8.97103 7.17266ZM11.5457 10.084C11.5476 10.1826 11.5098 10.2777 11.441 10.3468L9.21777 12.6445C9.1526 12.712 9.06374 12.75 8.97103 12.75C8.87831 12.75 8.78946 12.712 8.72429 12.6445L6.50064 10.3468C6.43195 10.2776 6.39416 10.1825 6.3962 10.0839C6.39823 9.98529 6.43992 9.89191 6.5114 9.82581C7.93127 8.59595 10.0108 8.59595 11.4307 9.82581C11.5021 9.89196 11.5437 9.98537 11.5457 10.084Z" fill="white"/>
</svg>
