<svg width="266" height="250" viewBox="0 0 266 250" fill="none" xmlns="http://www.w3.org/2000/svg">
<g clip-path="url(#clip0_34_8374)">
<path d="M153.202 60.3307V201.133C153.202 207.249 148.246 212.205 142.149 212.205H11.5949C5.47952 212.205 0.523651 207.249 0.523651 201.133V60.3307C0.523651 54.2154 5.47952 49.2782 11.5949 49.2782H142.149C148.246 49.2782 153.202 54.2341 153.202 60.3307Z" fill="white"/>
<path d="M142.149 212.747H11.5949C5.19898 212.747 0 207.548 0 201.152V60.3307C0 53.9348 5.19898 48.7358 11.5949 48.7358H142.149C148.545 48.7358 153.744 53.9348 153.744 60.3307V201.133C153.725 207.548 148.526 212.747 142.149 212.747ZM11.5949 49.8018C5.79743 49.8018 1.06598 54.5333 1.06598 60.3307V201.133C1.06598 206.931 5.79743 211.662 11.5949 211.662H142.149C147.947 211.662 152.678 206.931 152.678 201.133V60.3307C152.678 54.5333 147.965 49.8018 142.149 49.8018H11.5949Z" fill="#030047"/>
<path d="M153.202 61.378V60.3494C153.202 54.234 148.246 49.2969 142.149 49.2969H11.5949C5.47952 49.2969 0.523651 54.2527 0.523651 60.3494V61.378H153.202Z" fill="#030047"/>
<path d="M153.202 61.9016H0.523639C0.224417 61.9016 0 61.6585 0 61.3779V60.3494C0 53.9535 5.19898 48.7545 11.5949 48.7545H142.149C148.545 48.7545 153.744 53.9535 153.744 60.3494V61.3779C153.725 61.6585 153.501 61.9016 153.202 61.9016ZM1.06598 60.8356H152.678V60.3307C152.678 54.5332 147.965 49.8018 142.149 49.8018H11.5949C5.79743 49.8018 1.06598 54.5332 1.06598 60.3307V60.8356Z" fill="#030047"/>
<path d="M13.7268 56.1416C13.7268 57.2449 12.8292 58.1426 11.7258 58.1426C10.6224 58.1426 9.72473 57.2449 9.72473 56.1416C9.72473 55.0382 10.6224 54.1405 11.7258 54.1405C12.8292 54.1405 13.7268 55.0382 13.7268 56.1416Z" fill="white"/>
<path d="M21.2074 56.1416C21.2074 57.2449 20.3097 58.1426 19.2063 58.1426C18.1029 58.1426 17.2053 57.2449 17.2053 56.1416C17.2053 55.0382 18.1029 54.1405 19.2063 54.1405C20.3097 54.1405 21.2074 55.0382 21.2074 56.1416Z" fill="white"/>
<path d="M28.6879 56.1416C28.6879 57.2449 27.7902 58.1426 26.6869 58.1426C25.5835 58.1426 24.6858 57.2449 24.6858 56.1416C24.6858 55.0382 25.5835 54.1405 26.6869 54.1405C27.809 54.1405 28.6879 55.0382 28.6879 56.1416Z" fill="white"/>
<path d="M142.71 157.971L120.586 174.671L117.258 170.183L99.1173 145.609C98.1074 144.244 98.1074 142.299 99.2482 141.046C100.8 139.381 103.362 139.587 104.653 141.326C103.512 139.774 101.118 136.539 104.092 134.687C105.738 133.659 107.832 133.864 108.973 135.417L106.878 132.593C105.513 130.723 106.261 127.955 108.692 127.151C110.095 126.683 111.628 127.244 112.507 128.441V128.46L114.284 130.891C113.256 128.983 114.228 126.403 116.603 125.785C117.95 125.43 119.39 125.991 120.212 127.132H120.231L132.761 144.244" fill="white"/>
<path d="M120.586 175.195C120.568 175.195 120.53 175.195 120.512 175.195C120.381 175.176 120.25 175.101 120.156 174.989L98.6872 145.927C97.4903 144.3 97.5464 142.093 98.8555 140.691C99.697 139.793 100.857 139.325 102.053 139.381C102.315 139.4 102.558 139.438 102.801 139.494C102.297 138.54 101.96 137.455 102.166 136.427C102.334 135.548 102.876 134.8 103.793 134.239C104.803 133.603 105.925 133.397 106.934 133.584L106.43 132.892C105.663 131.845 105.438 130.498 105.831 129.264C106.243 128.011 107.196 127.057 108.505 126.646C110.095 126.122 111.872 126.721 112.919 128.123C112.938 128.142 112.938 128.161 112.956 128.179L113.368 128.759C113.424 128.366 113.517 127.992 113.686 127.618C114.191 126.459 115.2 125.599 116.472 125.281C117.968 124.888 119.633 125.468 120.605 126.758C120.624 126.777 120.643 126.795 120.661 126.814L133.191 143.926C133.36 144.169 133.322 144.487 133.079 144.674C132.836 144.842 132.518 144.805 132.331 144.562L119.838 127.506C119.82 127.487 119.801 127.469 119.782 127.45C119.072 126.478 117.837 126.01 116.734 126.309C115.78 126.552 115.051 127.169 114.658 128.048C114.284 128.89 114.322 129.862 114.733 130.648C114.864 130.891 114.789 131.209 114.546 131.359C114.303 131.508 114.004 131.452 113.835 131.228L112.059 128.796C112.04 128.778 112.04 128.759 112.021 128.74C111.254 127.731 109.983 127.319 108.823 127.693C107.851 128.011 107.14 128.722 106.841 129.638C106.542 130.554 106.71 131.546 107.271 132.312L109.366 135.136C109.534 135.379 109.497 135.697 109.253 135.884C109.01 136.053 108.692 136.015 108.505 135.772C107.57 134.519 105.812 134.257 104.335 135.192C103.68 135.604 103.306 136.09 103.194 136.67C102.914 138.147 104.298 140.017 105.046 141.046C105.046 141.046 105.046 141.046 105.046 141.065C105.214 141.308 105.158 141.626 104.933 141.794C104.69 141.962 104.372 141.925 104.204 141.682C103.68 140.971 102.876 140.522 101.979 140.485C101.081 140.429 100.239 140.784 99.6222 141.439C98.6872 142.448 98.6311 144.132 99.5287 145.328L120.68 173.942L142.374 157.578C142.617 157.41 142.935 157.447 143.122 157.69C143.29 157.933 143.253 158.251 143.009 158.438L120.886 175.138C120.811 175.157 120.699 175.195 120.586 175.195Z" fill="#030047"/>
<path d="M114.078 142.86C113.91 142.86 113.76 142.785 113.648 142.635L108.524 135.716C108.356 135.473 108.393 135.155 108.636 134.968C108.879 134.8 109.197 134.837 109.384 135.08L114.509 142C114.677 142.243 114.639 142.561 114.396 142.748C114.303 142.822 114.191 142.86 114.078 142.86Z" fill="#030047"/>
<path d="M119.689 138.708C119.521 138.708 119.371 138.633 119.259 138.484L113.854 131.172C113.686 130.928 113.723 130.61 113.966 130.423C114.209 130.255 114.527 130.293 114.714 130.536L120.119 137.848C120.287 138.091 120.25 138.409 120.007 138.596C119.913 138.689 119.801 138.708 119.689 138.708Z" fill="#030047"/>
<path d="M108.468 147.012C108.3 147.012 108.15 146.937 108.038 146.787L102.932 139.886C102.764 139.643 102.801 139.325 103.045 139.138C103.288 138.97 103.606 139.007 103.793 139.251L108.898 146.151C109.066 146.394 109.029 146.712 108.786 146.899C108.674 146.993 108.561 147.012 108.468 147.012Z" fill="#030047"/>
<path d="M154.96 146.114H86.5126C81.1827 146.114 76.8627 141.794 76.8627 136.464V84.6986C76.8627 79.3687 81.1827 75.0487 86.5126 75.0487H154.96C160.29 75.0487 164.61 79.3687 164.61 84.6986V136.483C164.61 141.794 160.29 146.114 154.96 146.114Z" fill="#0045DF"/>
<path d="M129.9 148.508L135.491 139.12C136.782 136.688 139.905 135.903 142.187 137.437C143.047 138.016 143.664 138.839 144.001 139.755C144.375 140.803 144.375 141.981 143.926 143.084L141.682 148.545C141.121 149.836 139.381 152.566 141.308 155.315" fill="white"/>
<path d="M141.308 155.839C141.139 155.839 140.971 155.764 140.877 155.614C139.007 152.921 140.279 150.247 140.971 148.807C141.064 148.62 141.139 148.452 141.195 148.321L143.44 142.86C143.832 141.925 143.851 140.878 143.514 139.905C143.215 139.064 142.654 138.353 141.906 137.848C140.934 137.193 139.737 136.988 138.615 137.287C137.493 137.567 136.52 138.334 135.978 139.363L130.349 148.77C130.199 149.013 129.862 149.106 129.619 148.957C129.376 148.807 129.283 148.489 129.432 148.227L135.024 138.839C135.697 137.567 136.913 136.614 138.334 136.258C139.755 135.903 141.27 136.165 142.486 136.969C143.421 137.605 144.132 138.502 144.506 139.55C144.936 140.765 144.898 142.074 144.412 143.253L142.168 148.713C142.093 148.882 142.018 149.05 141.925 149.256C141.251 150.677 140.223 152.809 141.756 154.997C141.925 155.24 141.869 155.577 141.626 155.745C141.513 155.801 141.401 155.839 141.308 155.839Z" fill="#030047"/>
<path d="M116.603 174.559L139.755 205.023C143.383 211.139 149.667 215.234 156.718 216.076L157.409 216.151C163.749 216.917 170.108 214.991 174.97 210.858L205.341 185.05L206.575 163.731L194.494 161.131C194.457 161.131 194.438 161.112 194.401 161.112C189.987 160.177 185.387 161.318 181.796 164.03L161.206 179.515L142.112 154.062L116.603 174.559Z" fill="#605EFD"/>
<path d="M136.389 200.797C136.221 200.797 136.071 200.722 135.959 200.591L116.173 174.877C116.005 174.652 116.042 174.316 116.266 174.129L141.775 153.632C141.887 153.538 142.037 153.501 142.168 153.52C142.317 153.538 142.448 153.613 142.523 153.725L166.424 186.041C166.592 186.284 166.554 186.602 166.311 186.789C166.068 186.958 165.75 186.92 165.563 186.677L142 154.81L117.332 174.634L136.801 199.936C136.988 200.161 136.931 200.498 136.707 200.685C136.614 200.759 136.501 200.797 136.389 200.797Z" fill="#030047"/>
<g opacity="0.4">
<path d="M171.043 199.749C170.351 199.749 169.696 199.282 169.584 198.627C169.528 198.347 169.715 198.066 169.996 198.01C170.295 197.954 170.557 198.141 170.613 198.422C170.65 198.571 170.893 198.702 171.118 198.665C171.379 198.627 171.641 198.403 171.81 198.085C171.978 197.804 172.071 197.449 172.165 197.094L172.221 196.869C172.296 196.626 172.501 195.897 173.175 195.71C173.511 195.616 173.904 195.691 174.241 195.934C174.39 196.028 174.521 196.159 174.633 196.271C174.69 196.327 174.727 196.364 174.783 196.402C175.064 196.645 175.4 196.813 175.737 196.832C176.073 196.851 176.373 196.739 176.578 196.533C176.784 196.308 176.896 195.916 176.896 195.336C176.896 194.438 176.709 193.541 176.354 192.718C176.242 192.456 176.354 192.138 176.635 192.026C176.896 191.914 177.214 192.026 177.326 192.306C177.738 193.26 177.962 194.326 177.962 195.355C177.962 195.897 177.906 196.682 177.364 197.262C176.952 197.711 176.335 197.935 175.681 197.898C175.12 197.861 174.559 197.617 174.11 197.206C174.054 197.15 173.979 197.094 173.923 197.038C173.829 196.963 173.754 196.869 173.661 196.813C173.567 196.739 173.493 196.739 173.474 196.739C173.474 196.739 173.38 196.776 173.268 197.15L173.212 197.356C173.1 197.767 172.988 198.179 172.763 198.571C172.427 199.17 171.884 199.581 171.305 199.675C171.211 199.749 171.118 199.749 171.043 199.749Z" fill="white"/>
</g>
<g opacity="0.4">
<path d="M141.794 194.307C141.551 194.307 141.308 194.289 141.064 194.27C140.522 194.214 139.737 194.083 139.213 193.485C138.82 193.036 138.633 192.381 138.746 191.745C138.839 191.203 139.138 190.661 139.587 190.249C139.643 190.193 139.718 190.137 139.774 190.081C139.868 190.006 139.961 189.931 140.036 189.838C140.111 189.744 140.129 189.669 140.129 189.651C140.129 189.651 140.111 189.557 139.737 189.408L139.531 189.333C139.138 189.183 138.727 189.015 138.353 188.753C137.773 188.36 137.436 187.781 137.399 187.201C137.343 186.397 137.923 185.667 138.652 185.611C138.951 185.574 139.213 185.798 139.232 186.097C139.269 186.397 139.045 186.659 138.746 186.677C138.596 186.696 138.428 186.939 138.446 187.145C138.465 187.407 138.652 187.687 138.951 187.893C139.232 188.08 139.55 188.211 139.905 188.342L140.111 188.416C140.335 188.51 141.046 188.79 141.158 189.482C141.214 189.838 141.102 190.212 140.821 190.53C140.709 190.661 140.578 190.773 140.447 190.904C140.391 190.941 140.335 190.997 140.298 191.035C140.017 191.296 139.83 191.614 139.774 191.932C139.718 192.25 139.793 192.587 139.98 192.793C140.186 193.036 140.56 193.167 141.139 193.223C142.018 193.316 142.953 193.204 143.814 192.942C144.094 192.849 144.393 192.998 144.487 193.279C144.58 193.559 144.431 193.859 144.15 193.952C143.402 194.195 142.598 194.307 141.794 194.307Z" fill="white"/>
</g>
<g opacity="0.4">
<path d="M126.851 179.832C126.253 179.832 125.692 179.496 125.486 178.954C125.374 178.673 125.524 178.374 125.785 178.262C126.066 178.149 126.365 178.299 126.477 178.561C126.534 178.71 126.814 178.785 127.02 178.729C127.263 178.636 127.487 178.392 127.618 178.037C127.73 177.719 127.768 177.383 127.805 177.009L127.824 176.784C127.843 176.541 127.936 175.774 128.572 175.494C128.89 175.344 129.283 175.363 129.657 175.531C129.825 175.606 129.956 175.699 130.105 175.793C130.162 175.83 130.218 175.868 130.274 175.905C130.592 176.111 130.966 176.204 131.284 176.167C131.602 176.13 131.901 175.98 132.05 175.737C132.219 175.475 132.256 175.082 132.163 174.521C132.013 173.642 131.676 172.782 131.171 172.034C131.003 171.791 131.078 171.454 131.321 171.305C131.564 171.136 131.901 171.211 132.05 171.454C132.63 172.333 133.023 173.324 133.191 174.353C133.285 174.895 133.36 175.681 132.929 176.335C132.593 176.84 132.013 177.177 131.377 177.233C130.816 177.289 130.236 177.139 129.713 176.822C129.638 176.784 129.563 176.728 129.507 176.691C129.414 176.616 129.32 176.56 129.208 176.504C129.096 176.448 129.021 176.448 129.002 176.466C129.002 176.466 128.909 176.504 128.871 176.915L128.852 177.121C128.815 177.532 128.759 177.981 128.609 178.411C128.366 179.066 127.917 179.552 127.356 179.739C127.188 179.814 127.02 179.832 126.851 179.832Z" fill="white"/>
</g>
<g opacity="0.4">
<path d="M157.185 207.398C156.942 207.398 156.699 207.38 156.456 207.361C155.913 207.305 155.147 207.174 154.604 206.576C154.212 206.127 154.025 205.472 154.137 204.836C154.23 204.294 154.529 203.752 154.978 203.34C155.034 203.284 155.109 203.228 155.165 203.172C155.259 203.097 155.352 203.022 155.427 202.929C155.502 202.835 155.521 202.76 155.521 202.742C155.521 202.742 155.502 202.648 155.128 202.499L154.922 202.424C154.529 202.274 154.118 202.125 153.744 201.844C153.164 201.451 152.828 200.872 152.79 200.292C152.734 199.488 153.314 198.758 154.043 198.702C154.342 198.684 154.604 198.889 154.623 199.188C154.66 199.488 154.436 199.749 154.137 199.768C153.987 199.787 153.819 200.03 153.838 200.236C153.856 200.498 154.043 200.778 154.342 200.984C154.604 201.171 154.941 201.302 155.296 201.433L155.502 201.507C155.726 201.601 156.437 201.881 156.549 202.573C156.605 202.929 156.493 203.303 156.213 203.621C156.1 203.752 155.969 203.864 155.839 203.995C155.782 204.032 155.726 204.088 155.689 204.126C155.408 204.387 155.221 204.705 155.165 205.023C155.109 205.341 155.184 205.678 155.371 205.884C155.577 206.127 155.951 206.258 156.531 206.314C157.409 206.407 158.345 206.295 159.205 206.033C159.485 205.94 159.785 206.089 159.878 206.37C159.972 206.65 159.822 206.95 159.541 207.043C158.775 207.267 157.971 207.398 157.185 207.398Z" fill="white"/>
</g>
<g opacity="0.4">
<path d="M153.445 190.511C153.22 190.511 153.015 190.455 152.828 190.361C152.566 190.212 152.472 189.894 152.622 189.632C152.772 189.37 153.089 189.277 153.351 189.426C153.482 189.501 153.763 189.389 153.875 189.202C154.006 188.978 154.025 188.641 153.894 188.304C153.781 187.986 153.576 187.706 153.37 187.388L153.239 187.201C153.108 186.995 152.678 186.359 152.977 185.723C153.127 185.406 153.445 185.162 153.838 185.05C154.006 185.013 154.174 184.975 154.361 184.957C154.436 184.957 154.492 184.938 154.567 184.938C154.941 184.882 155.278 184.714 155.502 184.489C155.726 184.265 155.857 183.947 155.82 183.666C155.782 183.348 155.558 183.03 155.128 182.656C154.455 182.077 153.632 181.628 152.772 181.366C152.491 181.273 152.341 180.992 152.416 180.711C152.51 180.431 152.79 180.263 153.071 180.356C154.062 180.655 155.016 181.179 155.801 181.852C156.213 182.208 156.774 182.769 156.867 183.554C156.942 184.153 156.699 184.788 156.25 185.256C155.857 185.649 155.315 185.91 154.716 186.004C154.642 186.023 154.548 186.023 154.473 186.041C154.361 186.06 154.23 186.06 154.118 186.097C154.006 186.135 153.95 186.172 153.931 186.191C153.931 186.191 153.894 186.285 154.118 186.621L154.23 186.789C154.473 187.145 154.716 187.5 154.866 187.93C155.109 188.585 155.072 189.258 154.754 189.763C154.473 190.23 153.95 190.511 153.445 190.511Z" fill="white"/>
</g>
<g opacity="0.4">
<path d="M139.624 177.457C139.456 177.457 139.288 177.383 139.194 177.233C138.596 176.373 138.166 175.382 137.96 174.372C137.848 173.848 137.754 173.063 138.166 172.371C138.484 171.847 139.045 171.492 139.699 171.417C140.242 171.342 140.84 171.473 141.382 171.772C141.457 171.81 141.532 171.866 141.588 171.903C141.682 171.959 141.794 172.034 141.906 172.071C142.018 172.128 142.093 172.109 142.112 172.109C142.112 172.109 142.205 172.053 142.224 171.66L142.243 171.454C142.28 171.024 142.299 170.594 142.448 170.164C142.654 169.491 143.103 169.004 143.645 168.78C144.393 168.499 145.254 168.836 145.553 169.509C145.665 169.771 145.534 170.089 145.272 170.201C144.992 170.314 144.693 170.183 144.58 169.921C144.524 169.771 144.244 169.696 144.038 169.771C143.795 169.865 143.589 170.126 143.477 170.482C143.383 170.8 143.346 171.155 143.327 171.529L143.309 171.754C143.29 171.997 143.234 172.763 142.598 173.081C142.28 173.25 141.887 173.231 141.513 173.081C141.345 173.007 141.195 172.932 141.046 172.838C140.99 172.801 140.934 172.763 140.877 172.726C140.541 172.539 140.186 172.464 139.868 172.502C139.55 172.539 139.25 172.726 139.12 172.95C138.951 173.212 138.933 173.624 139.045 174.185C139.232 175.064 139.587 175.905 140.111 176.653C140.279 176.896 140.223 177.233 139.98 177.401C139.83 177.42 139.718 177.457 139.624 177.457Z" fill="white"/>
</g>
<path d="M249.364 249.458L255.199 185.088C255.423 181.721 253.441 178.617 250.299 177.383C250.299 177.383 235.899 169.528 229.503 167.77C223.051 165.975 203.134 163.244 203.134 163.244C199.319 162.59 195.616 164.853 194.476 168.537L172.146 249.458H249.364Z" fill="#605EFD"/>
<g opacity="0.4">
<path d="M206.987 205.192C206.762 205.192 206.557 205.042 206.482 204.836C206.388 204.556 206.538 204.257 206.819 204.163C206.968 204.107 207.062 203.845 207.006 203.639C206.931 203.396 206.688 203.153 206.351 203.022C206.052 202.891 205.696 202.854 205.322 202.798L205.098 202.76C204.855 202.723 204.088 202.611 203.826 201.956C203.695 201.638 203.733 201.246 203.92 200.872C203.995 200.722 204.107 200.572 204.2 200.423C204.238 200.367 204.275 200.311 204.313 200.254C204.518 199.937 204.63 199.581 204.612 199.263C204.593 198.945 204.443 198.627 204.219 198.478C203.957 198.291 203.564 198.235 203.003 198.309C202.124 198.422 201.246 198.721 200.46 199.188C200.217 199.338 199.88 199.263 199.731 199.001C199.581 198.74 199.656 198.422 199.918 198.272C200.815 197.73 201.844 197.393 202.873 197.262C203.415 197.187 204.2 197.15 204.836 197.618C205.322 197.973 205.64 198.571 205.678 199.207C205.715 199.768 205.528 200.348 205.191 200.853C205.135 200.928 205.098 200.984 205.042 201.059C204.967 201.152 204.892 201.246 204.855 201.358C204.799 201.47 204.799 201.545 204.799 201.564C204.799 201.564 204.836 201.657 205.248 201.713L205.453 201.751C205.865 201.807 206.295 201.881 206.725 202.05C207.38 202.312 207.828 202.798 207.997 203.359C208.221 204.126 207.828 204.967 207.118 205.192C207.099 205.192 207.043 205.192 206.987 205.192Z" fill="white"/>
</g>
<path d="M176.373 236.741C176.335 236.741 176.279 236.741 176.242 236.722C175.961 236.647 175.793 236.348 175.868 236.068L191.745 175.382C191.82 175.101 192.101 174.933 192.4 175.008C192.68 175.082 192.849 175.382 192.774 175.662L176.896 236.348C176.822 236.591 176.616 236.741 176.373 236.741Z" fill="#030047"/>
<path d="M218.675 145.347L216.786 164.834C216.786 164.834 203.976 174.634 215.758 179.889C232.626 187.407 236.516 171.08 236.516 171.08L239.471 146.133L218.675 145.347Z" fill="white"/>
<path d="M223.912 182.395C221.35 182.395 218.563 181.721 215.515 180.375C212.298 178.935 210.54 177.027 210.26 174.671C209.717 170.07 215.159 165.451 216.263 164.553L218.133 145.291C218.152 145.011 218.395 144.805 218.675 144.805L239.452 145.59C239.602 145.59 239.733 145.665 239.845 145.777C239.939 145.889 239.995 146.039 239.976 146.189L237.021 171.136C236.946 171.492 235.263 178.28 229.429 181.16C227.764 181.983 225.913 182.395 223.912 182.395ZM219.143 145.889L217.291 164.89C217.273 165.04 217.198 165.171 217.086 165.264C217.03 165.32 210.783 170.145 211.307 174.559C211.531 176.504 213.102 178.149 215.945 179.421C221.05 181.703 225.426 181.964 228.942 180.225C234.328 177.57 235.955 171.024 235.974 170.968L238.854 146.656L219.143 145.889Z" fill="#030047"/>
<path d="M230.158 118.866C229.746 121.97 226.343 124.084 222.584 123.56C218.825 123.055 216.113 120.119 216.543 117.015C216.955 113.91 222.902 107.514 226.661 108.038C230.42 108.543 230.569 115.762 230.158 118.866Z" fill="#030047"/>
<path d="M239.845 150.34C240.705 149.574 241.528 148.732 242.276 147.834C245.643 143.776 248.298 138.839 251.851 133.958L227.82 113.162C227.24 113.424 215.533 120.381 209.923 136.258C206.07 147.161 209.736 153.052 217.815 155.352C221.63 156.437 225.576 156.512 229.298 155.689" fill="white"/>
<path d="M224.23 156.792C222.004 156.792 219.797 156.493 217.665 155.876C213.514 154.698 210.634 152.603 209.119 149.686C207.342 146.264 207.454 141.7 209.418 136.09C215.272 119.483 227.465 112.751 227.596 112.695C227.783 112.601 228.007 112.638 228.157 112.769L252.188 133.565C252.394 133.752 252.431 134.051 252.263 134.276C250.785 136.314 249.439 138.372 248.149 140.373C246.335 143.159 244.633 145.796 242.65 148.19C241.884 149.106 241.061 149.966 240.163 150.771C239.939 150.958 239.602 150.939 239.415 150.733C239.228 150.509 239.247 150.172 239.452 149.985C240.294 149.237 241.098 148.395 241.828 147.535C243.754 145.198 245.456 142.598 247.251 139.83C248.466 137.96 249.719 136.015 251.103 134.089L227.727 113.873C225.875 114.995 215.589 121.783 210.409 136.501C208.539 141.813 208.408 146.095 210.054 149.256C211.419 151.911 214.075 153.819 217.946 154.922C221.574 155.951 225.464 156.082 229.167 155.259C229.447 155.203 229.746 155.371 229.803 155.67C229.859 155.951 229.69 156.25 229.391 156.306C227.708 156.605 225.969 156.792 224.23 156.792Z" fill="#030047"/>
<path d="M238.274 158.756L238.087 154.249L236.572 143.963C235.787 144.73 234.478 144.337 234.253 143.253C233.861 141.326 236.629 135.772 239.677 132.518C239.677 132.518 218.787 125.542 221.499 115.687C226.268 98.4067 235.918 100.67 246.054 115.014C251.066 122.12 265.186 129.264 254.619 140.223C257.686 150.434 244.24 159.429 238.274 158.756Z" fill="#030047"/>
<path d="M233.917 151.874C233.917 151.874 236.236 154.305 240.126 154.623C244.016 154.941 248.99 144.898 246.409 142.748C243.829 140.597 236.572 143.945 236.572 143.945" fill="white"/>
<path d="M240.294 155.165C240.219 155.165 240.144 155.165 240.07 155.165C236.03 154.829 233.618 152.341 233.524 152.248C233.318 152.042 233.337 151.706 233.543 151.5C233.749 151.294 234.085 151.313 234.291 151.519C234.31 151.537 236.535 153.819 240.163 154.118C242.089 154.268 244.539 151.219 245.773 148.171C246.727 145.833 246.839 143.832 246.054 143.196C244.146 141.626 238.723 143.589 236.778 144.468C236.516 144.599 236.198 144.468 236.067 144.206C235.937 143.944 236.067 143.627 236.329 143.496C237.096 143.14 243.959 140.073 246.727 142.374C247.924 143.365 247.924 145.684 246.746 148.564C245.399 151.893 242.763 155.165 240.294 155.165Z" fill="#030047"/>
<path d="M238.573 146.338C239.265 145.721 240.107 145.272 240.986 144.992C241.547 144.823 242.127 144.711 242.707 144.805C243.286 144.898 243.829 145.216 244.128 145.721C244.539 146.432 244.334 147.348 244.034 148.115C243.492 149.518 242.426 150.845 240.855 151.201" fill="white"/>
<path d="M240.836 151.743C240.593 151.743 240.369 151.575 240.313 151.332C240.257 151.051 240.425 150.752 240.724 150.696C242.426 150.322 243.249 148.639 243.529 147.928C243.866 147.068 243.903 146.432 243.66 146.002C243.473 145.665 243.081 145.422 242.613 145.347C242.202 145.272 241.715 145.328 241.136 145.515C240.331 145.777 239.546 146.207 238.91 146.768C238.686 146.955 238.349 146.937 238.162 146.712C237.975 146.488 237.994 146.151 238.218 145.964C238.966 145.31 239.864 144.805 240.818 144.506C241.547 144.281 242.202 144.206 242.781 144.319C243.567 144.449 244.221 144.898 244.577 145.497C244.988 146.226 244.969 147.161 244.502 148.339C243.791 150.172 242.482 151.406 240.93 151.743C240.93 151.724 240.874 151.743 240.836 151.743Z" fill="#030047"/>
<path d="M224.473 136.913C224.043 137.829 224.192 138.82 224.809 139.101C225.426 139.381 226.268 138.876 226.717 137.96C227.147 137.044 226.997 136.053 226.38 135.772C225.744 135.473 224.903 135.996 224.473 136.913Z" fill="#030047"/>
<path d="M220.732 135.585C220.414 136.52 218.413 139.232 217.572 139.737C216.73 140.26 214.561 140.429 214.28 141.382C214.037 142.261 214.262 143.271 214.86 143.963" fill="white"/>
<path d="M214.879 144.487C214.729 144.487 214.58 144.431 214.486 144.3C213.757 143.477 213.495 142.28 213.794 141.233C214.056 140.335 215.178 139.999 216.188 139.699C216.618 139.568 217.086 139.437 217.329 139.288C218.058 138.839 219.984 136.221 220.265 135.417C220.358 135.136 220.658 134.987 220.938 135.08C221.219 135.174 221.368 135.473 221.275 135.753C220.919 136.819 218.862 139.606 217.89 140.204C217.534 140.429 217.029 140.578 216.506 140.728C215.87 140.915 214.916 141.195 214.823 141.532C214.617 142.243 214.804 143.066 215.29 143.608C215.477 143.832 215.459 144.169 215.253 144.356C215.122 144.449 214.991 144.487 214.879 144.487Z" fill="#030047"/>
<path d="M220.658 149.05C220.097 149.05 219.535 148.938 219.031 148.713C218.769 148.601 218.638 148.283 218.75 148.021C218.862 147.76 219.18 147.629 219.442 147.741C220.19 148.078 221.106 148.078 221.854 147.741C222.603 147.404 223.22 146.75 223.481 145.964C223.575 145.684 223.874 145.534 224.155 145.628C224.435 145.721 224.585 146.02 224.491 146.301C224.136 147.367 223.313 148.265 222.285 148.713C221.798 148.938 221.237 149.05 220.658 149.05Z" fill="#030047"/>
<path d="M228.606 135.959C228.4 135.959 228.213 135.847 228.119 135.66C227.727 134.818 227.11 134.07 225.314 134.126C225.034 134.145 224.772 133.902 224.753 133.621C224.735 133.322 224.978 133.079 225.258 133.06C227.128 132.985 228.344 133.659 229.073 135.192C229.204 135.454 229.092 135.772 228.83 135.903C228.774 135.94 228.699 135.959 228.606 135.959Z" fill="#030047"/>
<path d="M216.132 132.462C215.702 133.378 215.851 134.369 216.468 134.65C217.086 134.93 217.927 134.426 218.376 133.509C218.806 132.593 218.657 131.602 218.039 131.321C217.404 131.022 216.562 131.527 216.132 132.462Z" fill="#030047"/>
<path d="M220.265 131.489C220.097 131.489 219.928 131.415 219.816 131.246C219.105 130.199 218.152 129.675 216.936 129.657C216.637 129.657 216.412 129.414 216.412 129.114C216.412 128.815 216.655 128.591 216.936 128.591C218.507 128.609 219.779 129.32 220.676 130.648C220.845 130.891 220.77 131.228 220.527 131.377C220.471 131.471 220.377 131.489 220.265 131.489Z" fill="#030047"/>
<g opacity="0.4">
<path d="M217.254 199.301C216.599 199.301 215.982 198.889 215.814 198.272C215.739 197.991 215.907 197.692 216.188 197.617C216.468 197.543 216.768 197.711 216.842 197.991C216.88 198.141 217.142 198.253 217.366 198.216C217.628 198.16 217.871 197.935 218.021 197.599C218.17 197.3 218.245 196.944 218.32 196.589L218.357 196.383C218.413 196.14 218.582 195.392 219.236 195.168C219.573 195.055 219.966 195.111 220.321 195.317C220.471 195.411 220.601 195.523 220.751 195.635C220.807 195.673 220.863 195.729 220.901 195.766C221.2 195.99 221.555 196.121 221.873 196.14C222.191 196.121 222.509 196.009 222.677 195.803C222.883 195.56 222.958 195.168 222.92 194.607C222.864 193.709 222.621 192.83 222.21 192.026C222.079 191.764 222.172 191.446 222.434 191.315C222.696 191.184 223.014 191.278 223.145 191.54C223.612 192.475 223.912 193.503 223.968 194.55C224.005 195.093 223.986 195.878 223.481 196.495C223.107 196.963 222.49 197.225 221.836 197.225C221.275 197.225 220.714 197.019 220.227 196.645C220.153 196.589 220.097 196.533 220.04 196.495C219.947 196.421 219.853 196.346 219.76 196.29C219.648 196.234 219.573 196.215 219.554 196.234C219.554 196.234 219.461 196.271 219.367 196.664L219.33 196.869C219.236 197.281 219.161 197.711 218.956 198.122C218.657 198.758 218.152 199.188 217.572 199.319C217.478 199.282 217.366 199.301 217.254 199.301Z" fill="white"/>
</g>
<g opacity="0.4">
<path d="M207.697 191.203C207.417 191.203 207.174 190.979 207.174 190.698C207.155 190.399 207.38 190.156 207.679 190.137C207.828 190.137 207.997 189.894 207.997 189.669C207.997 189.408 207.81 189.127 207.529 188.903C207.267 188.697 206.949 188.566 206.594 188.416L206.388 188.323C206.164 188.229 205.472 187.911 205.379 187.22C205.341 186.864 205.472 186.509 205.753 186.191C205.865 186.06 206.014 185.948 206.145 185.836C206.201 185.798 206.257 185.742 206.314 185.705C206.594 185.462 206.8 185.144 206.875 184.826C206.949 184.508 206.875 184.171 206.706 183.965C206.501 183.722 206.145 183.573 205.566 183.479C204.687 183.348 203.752 183.404 202.891 183.648C202.611 183.722 202.312 183.554 202.237 183.274C202.162 182.993 202.33 182.694 202.611 182.619C203.621 182.338 204.687 182.264 205.715 182.413C206.257 182.488 207.024 182.656 207.529 183.274C207.903 183.741 208.053 184.396 207.922 185.031C207.81 185.574 207.492 186.097 207.024 186.49C206.968 186.546 206.893 186.602 206.837 186.64C206.744 186.715 206.65 186.789 206.575 186.864C206.501 186.958 206.463 187.033 206.482 187.051C206.482 187.051 206.501 187.145 206.875 187.313L207.062 187.407C207.454 187.575 207.847 187.743 208.221 188.024C208.782 188.454 209.1 189.034 209.1 189.613C209.119 190.417 208.502 191.109 207.772 191.166C207.716 191.203 207.716 191.203 207.697 191.203Z" fill="white"/>
</g>
<g opacity="0.4">
<path d="M200.946 177.27C200.292 177.27 199.675 176.859 199.506 176.242C199.431 175.961 199.6 175.662 199.88 175.587C200.161 175.512 200.46 175.681 200.535 175.961C200.572 176.111 200.834 176.223 201.058 176.186C201.32 176.13 201.563 175.905 201.713 175.569C201.863 175.269 201.937 174.933 202.012 174.559L202.068 174.334C202.124 174.091 202.293 173.343 202.947 173.119C203.284 173.006 203.658 173.063 204.032 173.268C204.182 173.362 204.313 173.474 204.462 173.586C204.518 173.624 204.574 173.68 204.63 173.717C204.93 173.941 205.285 174.072 205.603 174.091C205.958 174.091 206.239 173.96 206.407 173.754C206.613 173.511 206.688 173.119 206.65 172.558C206.594 171.66 206.351 170.781 205.94 169.977C205.809 169.715 205.902 169.397 206.164 169.266C206.426 169.135 206.744 169.229 206.875 169.491C207.342 170.426 207.641 171.454 207.697 172.501C207.735 173.044 207.716 173.829 207.211 174.446C206.837 174.914 206.22 175.176 205.566 175.176C205.004 175.176 204.443 174.97 203.957 174.596C203.882 174.54 203.826 174.484 203.77 174.446C203.677 174.372 203.583 174.297 203.49 174.241C203.377 174.185 203.303 174.166 203.284 174.185C203.284 174.185 203.19 174.222 203.097 174.615L203.06 174.82C202.966 175.232 202.891 175.662 202.686 176.073C202.386 176.709 201.881 177.139 201.302 177.27C201.171 177.27 201.059 177.27 200.946 177.27Z" fill="white"/>
</g>
<g opacity="0.4">
<path d="M186.023 223.107C185.368 223.107 184.751 222.696 184.583 222.079C184.508 221.798 184.676 221.499 184.957 221.424C185.237 221.35 185.536 221.518 185.611 221.798C185.649 221.948 185.929 222.06 186.135 222.023C186.397 221.967 186.64 221.742 186.789 221.406C186.939 221.106 187.014 220.751 187.089 220.396L187.126 220.171C187.182 219.928 187.35 219.18 188.005 218.956C188.342 218.844 188.734 218.9 189.09 219.105C189.239 219.199 189.37 219.311 189.52 219.423C189.576 219.461 189.632 219.517 189.669 219.554C189.969 219.779 190.324 219.91 190.642 219.928C190.978 219.928 191.278 219.797 191.446 219.592C191.652 219.349 191.727 218.956 191.689 218.395C191.633 217.497 191.39 216.618 190.978 215.814C190.848 215.552 190.941 215.234 191.203 215.103C191.465 214.972 191.783 215.066 191.914 215.328C192.381 216.263 192.68 217.291 192.736 218.339C192.774 218.881 192.755 219.666 192.25 220.284C191.876 220.751 191.259 221.013 190.604 221.013C190.043 221.013 189.482 220.807 188.996 220.433C188.921 220.377 188.865 220.321 188.809 220.284C188.716 220.209 188.622 220.134 188.529 220.078C188.416 220.022 188.342 220.003 188.323 220.022C188.323 220.022 188.229 220.059 188.136 220.452L188.098 220.658C188.005 221.069 187.93 221.499 187.724 221.911C187.425 222.546 186.92 222.977 186.341 223.107C186.266 223.089 186.135 223.107 186.023 223.107Z" fill="white"/>
</g>
<g opacity="0.4">
<path d="M204.2 226.773C204.032 226.773 203.845 226.736 203.695 226.661C203.434 226.549 203.303 226.231 203.434 225.95C203.546 225.688 203.864 225.557 204.144 225.688C204.294 225.744 204.537 225.613 204.63 225.426C204.743 225.183 204.724 224.847 204.556 224.529C204.406 224.23 204.182 223.949 203.957 223.669L203.808 223.5C203.658 223.313 203.172 222.715 203.415 222.06C203.546 221.724 203.826 221.462 204.219 221.312C204.387 221.256 204.556 221.219 204.724 221.181C204.799 221.163 204.855 221.163 204.93 221.144C205.304 221.05 205.622 220.863 205.827 220.601C206.033 220.358 206.127 220.022 206.07 219.76C206.014 219.461 205.753 219.143 205.285 218.825C204.556 218.32 203.714 217.946 202.816 217.759C202.536 217.703 202.349 217.422 202.405 217.123C202.461 216.843 202.742 216.656 203.041 216.712C204.069 216.917 205.061 217.347 205.902 217.946C206.351 218.264 206.949 218.769 207.118 219.536C207.249 220.115 207.08 220.77 206.669 221.275C206.314 221.705 205.79 222.023 205.21 222.172C205.135 222.191 205.042 222.21 204.967 222.229C204.855 222.247 204.743 222.266 204.63 222.322C204.518 222.359 204.462 222.416 204.462 222.434C204.462 222.434 204.425 222.528 204.687 222.846L204.817 223.014C205.079 223.332 205.36 223.669 205.566 224.099C205.865 224.735 205.883 225.389 205.622 225.931C205.304 226.436 204.743 226.773 204.2 226.773Z" fill="white"/>
</g>
<g opacity="0.4">
<path d="M228.905 223.575C228.68 223.575 228.475 223.425 228.4 223.22C228.306 222.939 228.456 222.64 228.737 222.546C228.98 222.472 229.111 222.079 229.036 221.78C228.942 221.443 228.624 221.144 228.176 220.957C227.801 220.807 227.371 220.732 226.904 220.676L226.642 220.639C226.324 220.583 225.501 220.471 225.202 219.741C225.052 219.367 225.09 218.937 225.296 218.526C225.389 218.339 225.52 218.152 225.632 218.002C225.688 217.927 225.726 217.871 225.782 217.796C226.044 217.403 226.193 216.955 226.156 216.525C226.137 216.094 225.931 215.702 225.632 215.496C225.296 215.253 224.809 215.178 224.08 215.272C222.995 215.402 221.929 215.776 220.994 216.338C220.751 216.487 220.414 216.412 220.265 216.151C220.115 215.907 220.19 215.571 220.452 215.421C221.518 214.785 222.733 214.374 223.949 214.206C224.585 214.131 225.501 214.075 226.249 214.617C226.81 215.028 227.166 215.702 227.203 216.45C227.24 217.086 227.035 217.778 226.642 218.357C226.586 218.432 226.53 218.526 226.474 218.6C226.38 218.713 226.305 218.844 226.231 218.974C226.156 219.124 226.137 219.255 226.174 219.311C226.193 219.367 226.305 219.479 226.792 219.554L227.053 219.592C227.558 219.666 228.063 219.741 228.568 219.947C229.316 220.246 229.859 220.788 230.046 221.443C230.27 222.21 229.933 223.238 229.073 223.519C229.017 223.575 228.961 223.575 228.905 223.575Z" fill="white"/>
</g>
<g opacity="0.4">
<path d="M241.098 211.943C240.724 211.943 240.331 211.868 239.957 211.662C239.396 211.344 239.004 210.765 238.873 210.073C238.779 209.493 238.891 208.838 239.191 208.259C239.228 208.184 239.284 208.109 239.322 208.015C239.378 207.903 239.452 207.791 239.509 207.66C239.565 207.529 239.546 207.436 239.527 207.398C239.509 207.38 239.434 207.286 238.985 207.267H238.76C238.312 207.249 237.825 207.249 237.358 207.099C236.647 206.893 236.086 206.445 235.843 205.865C235.544 205.173 235.768 204.182 236.535 203.826C236.797 203.695 237.115 203.826 237.246 204.088C237.377 204.35 237.246 204.668 236.984 204.799C236.816 204.874 236.722 205.21 236.834 205.453C236.946 205.734 237.264 205.958 237.657 206.071C238.012 206.164 238.405 206.183 238.817 206.201H239.06C239.322 206.22 240.126 206.239 240.481 206.893C240.668 207.211 240.668 207.623 240.518 208.034C240.444 208.203 240.369 208.371 240.275 208.539C240.238 208.595 240.2 208.67 240.163 208.745C239.976 209.119 239.901 209.53 239.957 209.886C240.013 210.241 240.219 210.578 240.5 210.727C240.818 210.896 241.248 210.914 241.865 210.765C242.819 210.54 243.735 210.091 244.521 209.493C244.764 209.325 245.082 209.362 245.269 209.586C245.437 209.83 245.399 210.147 245.175 210.334C244.277 211.026 243.23 211.513 242.127 211.793C241.809 211.868 241.453 211.943 241.098 211.943Z" fill="white"/>
</g>
<g opacity="0.4">
<path d="M236.647 229.728C236.385 229.728 236.161 229.522 236.124 229.26C235.993 228.138 236.086 226.979 236.404 225.894C236.572 225.333 236.872 224.547 237.601 224.117C238.162 223.799 238.873 223.743 239.527 223.986C240.088 224.192 240.574 224.622 240.93 225.165C240.986 225.239 241.023 225.314 241.061 225.389C241.117 225.501 241.192 225.613 241.266 225.726C241.36 225.838 241.453 225.875 241.472 225.875C241.491 225.875 241.622 225.856 241.865 225.482L241.996 225.277C242.239 224.884 242.482 224.491 242.837 224.155C243.38 223.631 244.034 223.388 244.67 223.463C245.512 223.575 246.148 224.323 246.073 225.09C246.035 225.389 245.773 225.595 245.493 225.576C245.194 225.539 244.988 225.295 245.007 224.996C245.025 224.809 244.782 224.566 244.52 224.529C244.221 224.491 243.866 224.641 243.567 224.921C243.305 225.183 243.099 225.501 242.875 225.856L242.744 226.062C242.594 226.287 242.164 226.979 241.435 226.941C241.061 226.922 240.705 226.735 240.425 226.399C240.313 226.249 240.2 226.081 240.126 225.931C240.088 225.875 240.051 225.8 240.013 225.744C239.789 225.389 239.471 225.108 239.134 224.978C238.798 224.847 238.405 224.865 238.143 225.034C237.825 225.221 237.601 225.595 237.414 226.193C237.133 227.128 237.04 228.138 237.171 229.111C237.208 229.41 237.003 229.672 236.703 229.709C236.703 229.709 236.685 229.728 236.647 229.728Z" fill="white"/>
</g>
<g opacity="0.4">
<path d="M206.463 245.886C206.351 245.886 206.239 245.848 206.127 245.774C205.902 245.586 205.865 245.25 206.033 245.025C206.388 244.577 206.332 244.277 206.257 244.09C205.94 243.211 204.163 242.407 203.022 242.164C202.742 242.108 202.555 241.828 202.611 241.528C202.667 241.248 202.947 241.061 203.247 241.117C204.182 241.304 206.706 242.164 207.267 243.735C207.436 244.184 207.492 244.895 206.875 245.68C206.781 245.811 206.632 245.886 206.463 245.886Z" fill="white"/>
</g>
<g opacity="0.4">
<path d="M190.361 244.838C190.305 244.838 190.249 244.838 190.193 244.838C189.651 244.82 188.865 244.745 188.304 244.184C187.874 243.772 187.65 243.118 187.724 242.482C187.781 241.921 188.042 241.379 188.454 240.93C188.51 240.874 188.566 240.818 188.622 240.743C188.697 240.668 188.79 240.575 188.865 240.481C188.94 240.387 188.94 240.313 188.94 240.294C188.94 240.294 188.921 240.2 188.529 240.07L188.323 240.013C187.911 239.883 187.5 239.77 187.107 239.527C186.509 239.172 186.116 238.63 186.041 238.05C185.929 237.264 186.453 236.479 187.182 236.367C187.463 236.329 187.743 236.516 187.799 236.797C187.855 237.077 187.65 237.358 187.369 237.414C187.22 237.433 187.07 237.694 187.107 237.9C187.145 238.162 187.35 238.424 187.668 238.611C187.949 238.779 188.285 238.891 188.66 238.985L188.865 239.041C189.108 239.116 189.838 239.34 190.006 240.013C190.081 240.35 190.006 240.743 189.763 241.079C189.669 241.229 189.538 241.341 189.408 241.472C189.351 241.528 189.314 241.566 189.258 241.622C188.996 241.902 188.847 242.239 188.809 242.557C188.772 242.875 188.884 243.211 189.09 243.398C189.314 243.623 189.707 243.735 190.268 243.735C191.147 243.754 192.063 243.585 192.905 243.249C193.185 243.137 193.484 243.268 193.597 243.548C193.709 243.829 193.578 244.128 193.297 244.24C192.344 244.651 191.353 244.838 190.361 244.838Z" fill="white"/>
</g>
<g opacity="0.4">
<path d="M215.047 243.567C214.318 243.567 213.588 243.455 212.896 243.268C212.373 243.118 211.643 242.837 211.232 242.145C210.933 241.622 210.877 240.949 211.101 240.35C211.288 239.827 211.681 239.359 212.205 239.041C212.279 239.004 212.354 238.948 212.429 238.91C212.522 238.854 212.635 238.798 212.728 238.723C212.822 238.648 212.859 238.574 212.859 238.555C212.859 238.555 212.859 238.461 212.522 238.237L212.335 238.125C211.98 237.9 211.606 237.676 211.288 237.339C210.802 236.834 210.559 236.217 210.634 235.637C210.727 234.852 211.438 234.235 212.167 234.31C212.466 234.328 212.672 234.59 212.653 234.889C212.635 235.189 212.373 235.394 212.074 235.376C211.924 235.338 211.718 235.581 211.7 235.787C211.662 236.049 211.793 236.367 212.055 236.61C212.279 236.853 212.597 237.04 212.915 237.227L213.102 237.339C213.308 237.47 213.962 237.882 213.944 238.574C213.944 238.929 213.757 239.265 213.42 239.546C213.289 239.658 213.14 239.752 212.99 239.827C212.934 239.864 212.878 239.901 212.822 239.939C212.504 240.144 212.261 240.425 212.148 240.724C212.036 241.023 212.055 241.36 212.186 241.603C212.354 241.884 212.691 242.071 213.233 242.239C214.093 242.482 215.01 242.557 215.907 242.445C216.207 242.407 216.468 242.613 216.506 242.912C216.543 243.211 216.338 243.473 216.038 243.511C215.683 243.548 215.365 243.567 215.047 243.567Z" fill="white"/>
</g>
<g opacity="0.4">
<path d="M232.271 245.83C232.047 245.83 231.841 245.68 231.766 245.456C231.523 244.707 231.149 243.997 230.663 243.38C230.476 243.155 230.532 242.819 230.756 242.632C230.981 242.445 231.317 242.501 231.504 242.725C232.065 243.454 232.496 244.259 232.776 245.138C232.87 245.418 232.701 245.717 232.439 245.811C232.383 245.811 232.327 245.83 232.271 245.83Z" fill="white"/>
</g>
<g opacity="0.4">
<path d="M183.049 171.847C182.395 171.847 181.777 171.436 181.609 170.818C181.534 170.538 181.703 170.239 181.983 170.164C182.264 170.089 182.563 170.257 182.638 170.538C182.675 170.688 182.937 170.8 183.161 170.762C183.423 170.706 183.666 170.482 183.816 170.145C183.965 169.846 184.04 169.509 184.115 169.135L184.171 168.911C184.227 168.668 184.396 167.92 185.05 167.695C185.387 167.583 185.779 167.639 186.135 167.845C186.284 167.938 186.415 168.051 186.546 168.163C186.602 168.2 186.658 168.256 186.715 168.294C187.014 168.518 187.369 168.649 187.687 168.668C187.687 168.668 187.687 168.668 187.706 168.668C188.024 168.668 188.342 168.537 188.51 168.331C188.716 168.088 188.79 167.695 188.753 167.134C188.697 166.237 188.454 165.358 188.042 164.553C187.911 164.292 188.005 163.974 188.267 163.843C188.529 163.712 188.847 163.805 188.977 164.067C189.445 165.002 189.744 166.031 189.8 167.078C189.838 167.62 189.819 168.406 189.314 169.023C188.94 169.491 188.323 169.752 187.668 169.752C187.107 169.752 186.546 169.547 186.06 169.173C185.985 169.117 185.929 169.06 185.873 169.004C185.779 168.93 185.686 168.855 185.592 168.799C185.48 168.743 185.405 168.724 185.387 168.743C185.387 168.743 185.293 168.78 185.2 169.173L185.162 169.378C185.069 169.79 184.994 170.22 184.788 170.631C184.489 171.267 183.984 171.697 183.404 171.828C183.274 171.828 183.161 171.847 183.049 171.847Z" fill="white"/>
</g>
<path d="M178.673 210.278L173.493 235.787L164.853 234.31L146.17 231.916C145.366 231.71 144.767 231.037 144.468 230.326C144.262 229.84 144.188 229.316 144.281 228.774C144.543 227.39 145.852 226.399 147.236 226.605L151.949 227.128L143.159 226.081C142.149 225.969 141.251 225.352 140.821 224.435V224.417C140.597 223.93 140.522 223.407 140.634 222.864C140.877 221.499 142.205 220.508 143.57 220.714L152.547 221.724L139.138 220.153C138.334 219.928 137.754 219.255 137.436 218.563C137.231 218.077 137.156 217.553 137.268 217.011C137.511 215.646 138.82 214.729 140.204 214.935L153.183 216.281L143.757 215.215C142.953 215.01 142.355 214.336 142.056 213.607C141.85 213.14 141.756 212.597 141.887 212.055C142.13 210.69 143.44 209.773 144.805 209.979L160.925 211.681L154.978 207.81C154.604 207.51 154.324 207.136 154.118 206.706C153.8 205.958 153.8 205.061 154.193 204.256C154.978 202.704 156.923 202.218 158.363 203.19L178.673 210.278Z" fill="white"/>
<path d="M173.474 236.329C173.437 236.329 173.418 236.329 173.38 236.329L164.74 234.852L146.076 232.458C145.141 232.215 144.356 231.504 143.944 230.551C143.683 229.933 143.608 229.298 143.72 228.699C143.851 227.951 144.244 227.315 144.786 226.866L143.084 226.661C141.887 226.53 140.821 225.782 140.335 224.697C140.316 224.66 140.298 224.622 140.298 224.566C140.055 223.986 139.999 223.369 140.111 222.79C140.242 222.06 140.634 221.424 141.158 220.957L139.082 220.714C139.063 220.714 139.026 220.714 139.007 220.695C138.147 220.452 137.38 219.741 136.95 218.806C136.688 218.208 136.614 217.553 136.744 216.936C137.044 215.29 138.596 214.187 140.279 214.43L142 214.617C141.831 214.393 141.682 214.131 141.569 213.85C141.289 213.252 141.233 212.616 141.364 211.98C141.663 210.372 143.234 209.25 144.88 209.493L158.756 210.952L154.66 208.296C154.193 207.922 153.856 207.492 153.613 206.968C153.22 206.033 153.239 204.967 153.688 204.069C154.137 203.209 154.922 202.573 155.857 202.33C156.774 202.087 157.765 202.255 158.588 202.76L178.841 209.792C179.084 209.886 179.234 210.147 179.197 210.409L174.016 235.918C173.941 236.142 173.736 236.329 173.474 236.329ZM146.862 227.11C145.871 227.11 144.973 227.839 144.786 228.867C144.711 229.26 144.749 229.69 144.936 230.102C145.16 230.607 145.628 231.224 146.282 231.392L164.909 233.767L173.063 235.17L178.056 210.634L158.176 203.733C158.139 203.714 158.101 203.695 158.045 203.677C157.484 203.303 156.774 203.172 156.119 203.34C155.465 203.508 154.941 203.939 154.642 204.537C154.342 205.154 154.305 205.902 154.586 206.519C154.754 206.875 154.978 207.174 155.278 207.417L161.187 211.251C161.393 211.382 161.486 211.644 161.393 211.868C161.318 212.092 161.075 212.242 160.832 212.223L144.711 210.521C143.608 210.353 142.561 211.101 142.374 212.167C142.261 212.691 142.392 213.121 142.504 213.401C142.785 214.075 143.271 214.542 143.832 214.711L153.22 215.777C153.52 215.814 153.725 216.076 153.688 216.356C153.651 216.655 153.389 216.842 153.108 216.824L140.129 215.477C139.007 215.309 137.979 216.038 137.773 217.123C137.68 217.534 137.736 217.965 137.904 218.357C138.184 219.012 138.689 219.479 139.232 219.648L152.603 221.219C152.902 221.256 153.108 221.518 153.071 221.817C153.033 222.116 152.772 222.322 152.491 222.285L143.514 221.256C142.43 221.088 141.364 221.873 141.158 222.977C141.064 223.388 141.121 223.799 141.308 224.211C141.326 224.248 141.326 224.286 141.345 224.304C141.7 224.996 142.411 225.483 143.215 225.557L152.005 226.605C152.304 226.642 152.51 226.904 152.472 227.203C152.435 227.502 152.173 227.708 151.893 227.671L147.18 227.147C147.068 227.128 146.955 227.11 146.862 227.11Z" fill="#030047"/>
<path d="M242.276 173.25L248.242 175.943C256.863 179.645 259.369 186.135 260.23 195.467C260.809 201.788 259.014 208.109 255.199 213.196L235.338 237.975C230.457 243.586 222.976 246.204 215.646 244.895L168.462 236.236L174.11 206.65L215.926 214.711L242.276 173.25Z" fill="#605EFD"/>
<g opacity="0.4">
<path d="M237.283 189.931C237.246 189.931 237.19 189.931 237.152 189.913C236.872 189.838 236.703 189.539 236.778 189.258C237.077 188.155 237.601 187.089 238.312 186.172C238.686 185.705 239.265 185.069 240.107 184.919C240.743 184.807 241.454 185.013 241.977 185.462C242.426 185.854 242.744 186.434 242.875 187.089C242.893 187.182 242.912 187.276 242.912 187.35C242.931 187.481 242.95 187.612 242.987 187.743C243.024 187.874 243.099 187.949 243.118 187.968C243.155 187.986 243.286 188.005 243.66 187.724L243.847 187.575C244.221 187.294 244.614 186.995 245.082 186.808C245.774 186.509 246.503 186.509 247.064 186.789C247.812 187.182 248.149 188.117 247.793 188.828C247.662 189.09 247.344 189.183 247.083 189.052C246.821 188.921 246.709 188.603 246.858 188.342C246.952 188.155 246.802 187.855 246.578 187.724C246.316 187.575 245.904 187.594 245.512 187.762C245.156 187.912 244.838 188.155 244.502 188.416L244.296 188.566C244.053 188.734 243.417 189.221 242.744 188.94C242.389 188.79 242.127 188.491 241.996 188.061C241.94 187.874 241.902 187.687 241.884 187.5C241.865 187.425 241.865 187.35 241.846 187.276C241.771 186.864 241.566 186.49 241.304 186.247C241.023 186.004 240.649 185.892 240.331 185.948C239.957 186.023 239.602 186.284 239.191 186.808C238.573 187.594 238.106 188.529 237.844 189.501C237.751 189.763 237.526 189.931 237.283 189.931Z" fill="white"/>
</g>
<g opacity="0.4">
<path d="M239.209 213.775H239.191C238.592 213.775 238.012 213.476 237.638 212.971C237.302 212.541 237.133 211.98 237.133 211.4C237.133 211.326 237.133 211.232 237.133 211.157C237.133 211.045 237.152 210.933 237.133 210.821C237.115 210.727 237.096 210.671 237.077 210.652C237.077 210.652 236.984 210.615 236.647 210.783L236.46 210.877C236.086 211.064 235.712 211.251 235.263 211.344C234.59 211.494 233.954 211.382 233.505 211.008C232.888 210.521 232.757 209.624 233.206 209.044C233.393 208.82 233.73 208.763 233.954 208.95C234.179 209.137 234.235 209.474 234.048 209.699C233.954 209.811 234.029 210.054 234.179 210.166C234.366 210.316 234.684 210.372 235.039 210.297C235.357 210.222 235.675 210.073 235.993 209.904L236.18 209.811C236.404 209.699 237.077 209.381 237.638 209.755C237.938 209.942 238.125 210.278 238.181 210.69C238.199 210.858 238.199 211.026 238.181 211.195C238.181 211.251 238.181 211.326 238.181 211.382C238.181 211.737 238.293 212.074 238.48 212.317C238.667 212.56 238.948 212.709 239.209 212.709C239.49 212.709 239.864 212.541 240.294 212.167C240.949 211.587 241.491 210.877 241.865 210.091C241.996 209.829 242.314 209.717 242.576 209.848C242.837 209.979 242.95 210.297 242.819 210.559C242.389 211.475 241.753 212.298 240.986 212.971C240.593 213.308 239.976 213.775 239.209 213.775Z" fill="white"/>
</g>
<g opacity="0.4">
<path d="M226.231 223.145C226.137 223.145 226.043 223.126 225.95 223.107C225.669 223.033 225.482 222.752 225.557 222.472C225.632 222.191 225.913 222.004 226.193 222.079C226.324 222.098 226.53 221.948 226.567 221.761C226.623 221.518 226.53 221.219 226.324 220.938C226.137 220.676 225.856 220.471 225.576 220.227L225.408 220.097C225.221 219.947 224.641 219.461 224.734 218.787C224.791 218.432 224.996 218.133 225.352 217.908C225.501 217.815 225.651 217.759 225.8 217.684C225.856 217.665 225.913 217.628 225.987 217.609C226.305 217.46 226.567 217.235 226.717 216.955C226.866 216.693 226.885 216.375 226.773 216.132C226.642 215.851 226.343 215.608 225.838 215.384C225.052 215.028 224.173 214.841 223.294 214.823C222.995 214.823 222.771 214.58 222.771 214.28C222.771 213.981 223.033 213.738 223.313 213.757C224.323 213.775 225.352 214 226.268 214.411C226.754 214.636 227.427 214.991 227.745 215.702C227.988 216.244 227.951 216.899 227.671 217.46C227.427 217.946 226.997 218.339 226.455 218.582C226.38 218.619 226.305 218.638 226.231 218.675C226.118 218.713 226.025 218.75 225.931 218.825C225.856 218.881 225.819 218.937 225.8 218.937C225.8 218.937 225.8 219.031 226.1 219.274L226.268 219.405C226.586 219.666 226.922 219.928 227.184 220.302C227.596 220.845 227.764 221.48 227.614 222.041C227.446 222.677 226.848 223.145 226.231 223.145Z" fill="white"/>
</g>
<g opacity="0.4">
<path d="M233.113 232.533C232.533 232.533 231.991 232.159 231.86 231.617C231.785 231.336 231.972 231.037 232.252 230.981C232.533 230.906 232.832 231.093 232.888 231.373C232.888 231.411 233.019 231.486 233.15 231.467C233.318 231.43 233.487 231.28 233.599 231.056C233.711 230.831 233.767 230.569 233.842 230.308L233.879 230.139C233.936 229.933 234.085 229.316 234.665 229.129C234.964 229.036 235.301 229.092 235.6 229.279C235.712 229.354 235.824 229.447 235.937 229.541L236.049 229.634C236.255 229.803 236.498 229.896 236.741 229.915C236.965 229.915 237.171 229.84 237.283 229.709C237.414 229.541 237.489 229.26 237.47 228.849C237.451 228.176 237.283 227.484 236.984 226.866C236.853 226.605 236.965 226.287 237.227 226.156C237.489 226.025 237.807 226.137 237.938 226.399C238.293 227.147 238.499 227.97 238.536 228.793C238.555 229.485 238.424 230.008 238.087 230.382C237.751 230.756 237.246 230.981 236.703 230.962C236.255 230.943 235.787 230.756 235.394 230.457C235.338 230.42 235.282 230.364 235.245 230.326C235.189 230.27 235.114 230.214 235.039 230.158C235.02 230.139 235.002 230.139 234.983 230.12C234.983 230.139 234.945 230.214 234.908 230.364L234.871 230.532C234.796 230.85 234.721 231.205 234.553 231.523C234.291 232.047 233.861 232.383 233.375 232.496C233.3 232.533 233.206 232.533 233.113 232.533Z" fill="white"/>
</g>
<g opacity="0.4">
<path d="M209.287 235.114C209.194 235.114 209.1 235.095 209.007 235.039C208.763 234.889 208.67 234.553 208.82 234.31C208.838 234.272 208.801 234.123 208.689 234.066C208.539 233.973 208.315 233.973 208.09 234.048C207.866 234.123 207.641 234.272 207.398 234.422L207.249 234.515C207.062 234.627 206.519 234.964 205.977 234.684C205.696 234.534 205.509 234.272 205.416 233.917C205.379 233.786 205.379 233.636 205.36 233.487L205.341 233.337C205.304 233.075 205.21 232.832 205.042 232.664C204.892 232.514 204.687 232.421 204.5 232.439C204.294 232.458 204.051 232.608 203.77 232.926C203.321 233.431 202.947 234.029 202.742 234.684C202.648 234.964 202.349 235.114 202.068 235.02C201.788 234.927 201.638 234.627 201.732 234.347C201.994 233.562 202.424 232.813 202.985 232.215C203.452 231.71 203.92 231.43 204.406 231.392C204.911 231.355 205.435 231.56 205.809 231.953C206.127 232.29 206.332 232.739 206.388 233.244C206.388 233.318 206.407 233.375 206.407 233.449C206.407 233.543 206.426 233.618 206.445 233.711C206.445 233.73 206.463 233.767 206.463 233.767C206.482 233.749 206.557 233.73 206.669 233.636L206.819 233.543C207.099 233.356 207.398 233.169 207.754 233.057C208.296 232.87 208.857 232.926 209.268 233.187C209.848 233.562 210.054 234.328 209.717 234.871C209.642 235.02 209.455 235.114 209.287 235.114Z" fill="white"/>
</g>
<g opacity="0.4">
<path d="M220.658 241.641C220.003 241.641 219.386 241.229 219.218 240.612C219.143 240.331 219.311 240.032 219.592 239.957C219.872 239.883 220.171 240.051 220.246 240.331C220.284 240.481 220.545 240.593 220.77 240.556C221.032 240.5 221.275 240.275 221.424 239.939C221.574 239.64 221.649 239.303 221.724 238.929L221.78 238.704C221.836 238.461 222.004 237.713 222.659 237.489C222.995 237.377 223.388 237.433 223.743 237.638C223.893 237.732 224.024 237.844 224.173 237.956C224.23 237.994 224.286 238.05 224.342 238.087C224.641 238.312 224.996 238.443 225.314 238.461C225.632 238.443 225.95 238.33 226.137 238.125C226.343 237.882 226.418 237.489 226.38 236.928C226.324 236.03 226.081 235.151 225.67 234.347C225.539 234.085 225.632 233.767 225.894 233.636C226.156 233.505 226.474 233.599 226.605 233.861C227.072 234.796 227.371 235.824 227.427 236.872C227.465 237.414 227.446 238.2 226.941 238.817C226.567 239.284 225.913 239.546 225.295 239.546C224.734 239.546 224.173 239.34 223.687 238.966C223.612 238.91 223.556 238.854 223.5 238.817C223.407 238.742 223.313 238.667 223.22 238.611C223.107 238.555 223.033 238.536 223.014 238.555C223.014 238.555 222.92 238.592 222.827 238.985L222.79 239.191C222.696 239.602 222.621 240.032 222.415 240.444C222.116 241.08 221.611 241.51 221.032 241.641C220.882 241.622 220.77 241.641 220.658 241.641Z" fill="white"/>
</g>
<g opacity="0.4">
<path d="M189.127 230.663C188.959 230.663 188.79 230.625 188.641 230.569C188.379 230.457 188.248 230.139 188.36 229.877C188.472 229.615 188.79 229.485 189.052 229.597C189.202 229.653 189.445 229.522 189.538 229.316C189.651 229.073 189.613 228.737 189.445 228.419C189.295 228.119 189.071 227.858 188.828 227.577L188.678 227.409C188.51 227.222 188.024 226.642 188.248 225.969C188.36 225.632 188.641 225.37 189.034 225.202C189.202 225.146 189.37 225.09 189.538 225.052C189.613 225.034 189.669 225.015 189.744 224.996C190.118 224.903 190.417 224.697 190.623 224.454C190.829 224.192 190.904 223.874 190.848 223.594C190.773 223.294 190.511 222.976 190.043 222.659C189.295 222.154 188.454 221.817 187.556 221.649C187.276 221.593 187.07 221.312 187.126 221.032C187.182 220.751 187.463 220.545 187.743 220.601C188.772 220.788 189.763 221.2 190.623 221.78C191.072 222.079 191.689 222.584 191.876 223.351C192.007 223.93 191.857 224.585 191.446 225.108C191.109 225.539 190.586 225.875 190.006 226.025C189.931 226.044 189.838 226.062 189.763 226.081C189.651 226.1 189.538 226.137 189.426 226.174C189.314 226.212 189.258 226.287 189.258 226.287C189.258 226.287 189.221 226.38 189.482 226.698L189.613 226.866C189.894 227.184 190.174 227.521 190.38 227.932C190.698 228.55 190.735 229.223 190.474 229.765C190.249 230.326 189.688 230.663 189.127 230.663Z" fill="white"/>
</g>
<g opacity="0.4">
<path d="M204.649 223.65C204.35 223.65 204.032 223.631 203.733 223.594C202.891 223.481 202.293 223.22 201.9 222.771C201.507 222.303 201.358 221.649 201.489 221.013C201.601 220.471 201.9 219.947 202.368 219.535C202.424 219.479 202.498 219.423 202.555 219.367C202.648 219.292 202.742 219.218 202.816 219.124C202.891 219.031 202.91 218.956 202.91 218.937C202.91 218.937 202.891 218.844 202.517 218.675L202.311 218.6C201.919 218.432 201.526 218.282 201.152 218.002C200.591 217.591 200.254 217.011 200.236 216.412C200.198 215.608 200.797 214.898 201.526 214.841C201.825 214.823 202.068 215.047 202.087 215.328C202.106 215.627 201.881 215.87 201.601 215.889C201.451 215.907 201.283 216.151 201.283 216.356C201.302 216.618 201.47 216.899 201.769 217.123C202.031 217.31 202.368 217.46 202.704 217.591L202.91 217.684C203.134 217.778 203.845 218.077 203.938 218.769C203.995 219.124 203.864 219.479 203.583 219.797C203.471 219.928 203.34 220.04 203.19 220.153C203.134 220.19 203.078 220.246 203.041 220.284C202.76 220.545 202.573 220.863 202.498 221.181C202.442 221.499 202.498 221.836 202.686 222.041C202.891 222.285 203.265 222.434 203.826 222.509C204.705 222.621 205.64 222.546 206.501 222.285C206.781 222.21 207.08 222.359 207.155 222.64C207.23 222.92 207.08 223.22 206.8 223.294C206.127 223.538 205.379 223.65 204.649 223.65Z" fill="white"/>
</g>
<g opacity="0.4">
<path d="M244.726 205.229C244.072 205.229 243.455 204.818 243.286 204.2C243.211 203.92 243.38 203.621 243.66 203.546C243.941 203.471 244.24 203.639 244.315 203.92C244.352 204.069 244.633 204.182 244.838 204.144C245.1 204.088 245.343 203.864 245.493 203.527C245.643 203.228 245.717 202.891 245.792 202.517L245.848 202.293C245.904 202.05 246.073 201.302 246.727 201.077C247.064 200.965 247.457 201.021 247.812 201.227C247.962 201.32 248.092 201.433 248.242 201.545C248.298 201.582 248.354 201.638 248.41 201.676C248.71 201.9 249.065 202.031 249.383 202.05C249.383 202.05 249.383 202.05 249.402 202.05C249.719 202.05 250.037 201.919 250.206 201.713C250.411 201.47 250.486 201.077 250.449 200.516C250.393 199.619 250.15 198.74 249.738 197.935C249.607 197.674 249.701 197.356 249.963 197.225C250.224 197.094 250.542 197.187 250.673 197.449C251.141 198.384 251.44 199.413 251.496 200.46C251.534 201.002 251.515 201.788 251.01 202.405C250.636 202.873 250.019 203.134 249.364 203.134C248.803 203.134 248.242 202.929 247.756 202.555C247.681 202.499 247.625 202.442 247.569 202.405C247.475 202.33 247.382 202.255 247.288 202.199C247.176 202.143 247.101 202.125 247.083 202.143C247.083 202.143 246.989 202.181 246.896 202.573L246.858 202.779C246.765 203.191 246.69 203.621 246.484 204.032C246.185 204.668 245.68 205.098 245.1 205.229C244.969 205.229 244.838 205.229 244.726 205.229Z" fill="white"/>
</g>
<path d="M215.926 215.234C215.833 215.234 215.72 215.215 215.627 215.141C215.384 214.972 215.309 214.654 215.477 214.411L229.129 193.466C229.298 193.223 229.615 193.148 229.859 193.316C230.102 193.484 230.177 193.802 230.008 194.045L216.356 214.991C216.281 215.159 216.113 215.234 215.926 215.234Z" fill="#030047"/>
<path d="M219.367 245.736C218.095 245.736 216.824 245.624 215.571 245.399L168.387 236.741C168.256 236.722 168.125 236.629 168.051 236.516C167.976 236.404 167.938 236.254 167.976 236.124L173.624 206.557C173.642 206.426 173.736 206.295 173.848 206.22C173.96 206.145 174.11 206.108 174.241 206.145L220.863 215.384C221.144 215.44 221.331 215.72 221.275 216.001C221.219 216.281 220.938 216.468 220.658 216.412L174.559 207.267L169.117 235.787L215.776 244.352C222.864 245.643 230.233 243.043 234.964 237.62L254.806 212.859C254.993 212.635 255.33 212.597 255.554 212.784C255.779 212.971 255.816 213.308 255.629 213.532L235.768 238.312C231.617 243.062 225.576 245.736 219.367 245.736Z" fill="#030047"/>
<path d="M153.95 130.48H89.9536C89.9536 130.48 95.19 103.905 104.765 103.905C110.862 103.905 118.604 119.034 124.663 119.427C128.366 119.67 131.078 108.805 134.8 108.805C142.392 108.805 153.95 130.48 153.95 130.48Z" fill="white"/>
<path d="M131.564 100.763C131.471 103.624 129.058 105.943 126.197 105.943C123.336 105.943 121.091 103.624 121.204 100.763C121.297 97.9017 123.71 95.5828 126.571 95.5828C129.432 95.5828 131.676 97.9017 131.564 100.763Z" fill="white"/>
<path d="M69.5317 99.1173H9.78082C9.20108 99.1173 8.71484 98.6498 8.71484 98.0513C8.71484 97.4716 9.18238 96.9854 9.78082 96.9854H69.513C70.0928 96.9854 70.579 97.4529 70.579 98.0513C70.579 98.6311 70.1115 99.1173 69.5317 99.1173Z" fill="#030047"/>
<path d="M69.5317 114.415H9.78082C9.20108 114.415 8.71484 113.947 8.71484 113.349C8.71484 112.769 9.18238 112.283 9.78082 112.283H69.513C70.0928 112.283 70.579 112.751 70.579 113.349C70.579 113.947 70.1115 114.415 69.5317 114.415Z" fill="#030047"/>
<path d="M69.5317 129.731H9.78082C9.20108 129.731 8.71484 129.264 8.71484 128.665C8.71484 128.067 9.18238 127.599 9.78082 127.599H69.513C70.0928 127.599 70.579 128.067 70.579 128.665C70.579 129.264 70.1115 129.731 69.5317 129.731Z" fill="#030047"/>
<path d="M35.9253 103.419C38.8896 103.419 41.2926 101.016 41.2926 98.0514C41.2926 95.0871 38.8896 92.6841 35.9253 92.6841C32.9611 92.6841 30.558 95.0871 30.558 98.0514C30.558 101.016 32.9611 103.419 35.9253 103.419Z" fill="#0045DF"/>
<path d="M35.9254 103.942C32.6713 103.942 30.0344 101.305 30.0344 98.0513C30.0344 94.7973 32.6713 92.1604 35.9254 92.1604C39.1794 92.1604 41.8163 94.7973 41.8163 98.0513C41.835 101.305 39.1794 103.942 35.9254 103.942ZM35.9254 93.2264C33.2511 93.2264 31.1004 95.3957 31.1004 98.0513C31.1004 100.726 33.2698 102.876 35.9254 102.876C38.5997 102.876 40.7503 100.707 40.7503 98.0513C40.769 95.3957 38.5997 93.2264 35.9254 93.2264Z" fill="#030047"/>
<path d="M52.2517 118.716C55.2159 118.716 57.619 116.313 57.619 113.349C57.619 110.385 55.2159 107.982 52.2517 107.982C49.2874 107.982 46.8844 110.385 46.8844 113.349C46.8844 116.313 49.2874 118.716 52.2517 118.716Z" fill="#605EFD"/>
<path d="M52.2517 119.259C48.9976 119.259 46.3607 116.622 46.3607 113.368C46.3607 110.114 48.9976 107.477 52.2517 107.477C55.5057 107.477 58.1426 110.114 58.1426 113.368C58.1426 116.603 55.487 119.259 52.2517 119.259ZM52.2517 108.524C49.5774 108.524 47.4267 110.693 47.4267 113.349C47.4267 116.023 49.5961 118.174 52.2517 118.174C54.9259 118.174 57.0766 116.005 57.0766 113.349C57.0766 110.693 54.9072 108.524 52.2517 108.524Z" fill="#030047"/>
<path d="M26.1857 129.528C26.8669 126.644 25.0805 123.753 22.1957 123.072C19.3109 122.39 16.42 124.177 15.7388 127.062C15.0576 129.946 16.8441 132.837 19.7289 133.518C22.6137 134.2 25.5046 132.413 26.1857 129.528Z" fill="#0045DF"/>
<path d="M20.9642 134.182C17.7102 134.182 15.0733 131.545 15.0733 128.291C15.0733 125.037 17.7102 122.401 20.9642 122.401C24.2183 122.401 26.8552 125.037 26.8552 128.291C26.8552 131.545 24.2183 134.182 20.9642 134.182ZM20.9642 123.448C18.2899 123.448 16.1393 125.617 16.1393 128.273C16.1393 130.947 18.3086 133.098 20.9642 133.098C23.6385 133.098 25.7892 130.928 25.7892 128.273C25.7892 125.617 23.6198 123.448 20.9642 123.448Z" fill="#030047"/>
<path d="M200.554 41.0308L200.61 35.5326L190.043 35.4204L189.987 40.9186C186.845 41.5358 183.909 42.7514 181.291 44.4158L177.439 40.4698L169.883 47.8568L173.736 51.8028C172.015 54.3836 170.744 57.301 170.052 60.4242L164.553 60.368L164.441 70.9156L169.939 70.9717C170.557 74.1136 171.772 77.0684 173.437 79.6679L169.509 83.5203L176.896 91.0757L180.824 87.2232C183.404 88.9437 186.322 90.2154 189.445 90.9074L189.389 96.4056L199.955 96.5178L200.011 91.0196C203.153 90.4025 206.089 89.1869 208.707 87.5224L212.56 91.4684L220.115 84.0814L216.263 80.1354C217.983 77.5546 219.255 74.6559 219.947 71.5141L225.445 71.5702L225.557 61.0226L220.059 60.9665C219.442 57.8247 218.226 54.8885 216.562 52.2703L220.489 48.4179L213.102 40.8625L209.175 44.715M196.514 78.658C188.155 79.6118 181.198 72.5239 182.338 64.1644C183.124 58.4792 187.762 53.9348 193.466 53.2802C201.844 52.3265 208.782 59.433 207.641 67.7738C206.875 73.459 202.218 78.0034 196.514 78.658Z" fill="#605EFD"/>
<path d="M163.02 3.68417L163.057 0.0935069L156.138 0L156.1 3.59066C154.043 4.00209 152.117 4.78755 150.415 5.87223L147.891 3.29144L142.953 8.1164L145.478 10.6972C144.356 12.3803 143.514 14.2879 143.066 16.345L139.475 16.3076L139.4 23.2084L142.991 23.2458C143.402 25.303 144.188 27.2292 145.272 28.931L142.692 31.4744L147.516 36.4116L150.097 33.8869C151.78 35.009 153.688 35.8505 155.745 36.2994L155.708 39.9087L162.608 39.9835L162.646 36.3742C164.703 35.9627 166.629 35.1773 168.331 34.0926L170.856 36.6734L175.793 31.8484L173.268 29.2677C174.39 27.5845 175.232 25.677 175.681 23.6198L179.271 23.6572L179.346 16.7564L175.756 16.719C175.344 14.6619 174.559 12.7356 173.474 11.0338L176.055 8.50913L171.23 3.57196L168.649 6.09665M160.364 28.2952C154.885 28.931 150.34 24.2744 151.088 18.8136C151.593 15.092 154.642 12.1185 158.363 11.6884C163.843 11.0712 168.387 15.7092 167.639 21.17C167.134 24.8915 164.105 27.8651 160.364 28.2952Z" fill="#0045DF"/>
<path d="M79.8175 200.909H17.1866C13.5211 200.909 10.5663 197.935 10.5663 194.289V156.736C10.5663 153.071 13.5398 150.116 17.1866 150.116H79.8175C83.483 150.116 86.4378 153.089 86.4378 156.736V194.289C86.4378 197.954 83.4642 200.909 79.8175 200.909Z" fill="#E6F3FC"/>
<path d="M27.3975 188.772C27.2105 188.772 27.0422 188.678 26.9487 188.51C26.7991 188.267 26.8739 187.93 27.1357 187.781L72.2247 160.608C72.4678 160.458 72.8045 160.533 72.9541 160.795C73.1037 161.038 73.0289 161.374 72.7671 161.524L27.678 188.697C27.5845 188.753 27.491 188.772 27.3975 188.772Z" fill="#030047"/>
<path d="M72.5053 188.772C72.4117 188.772 72.3182 188.753 72.2247 188.697L27.1357 161.524C26.8926 161.374 26.7991 161.038 26.9487 160.794C27.0983 160.551 27.4349 160.458 27.6781 160.607L72.7858 187.781C73.0289 187.93 73.1224 188.267 72.9728 188.51C72.8606 188.678 72.6736 188.772 72.5053 188.772Z" fill="#030047"/>
<path d="M55.856 33.3386C63.0935 26.1011 63.0935 14.3667 55.856 7.12916C48.6184 -0.108387 36.8841 -0.108386 29.6465 7.12916C22.409 14.3667 22.409 26.1011 29.6465 33.3386C36.884 40.5762 48.6184 40.5762 55.856 33.3386Z" fill="#605EFD"/>
<path d="M45.5566 13.278C46.0615 15.5783 44.6215 17.8411 42.3399 18.3648C40.0397 18.8697 37.7768 17.4297 37.2532 15.1481C36.7482 12.8479 38.1882 10.585 40.4698 10.0614C42.7701 9.53772 45.0516 10.9777 45.5566 13.278Z" fill="white"/>
<path d="M51.167 28.2952C53.168 27.8464 54.0096 25.49 52.7566 23.863C50.475 20.9082 46.6225 19.3559 42.7326 20.2349C38.8428 21.0952 36.0188 24.1435 35.2147 27.7903C34.7846 29.7913 36.5425 31.5679 38.5435 31.1191L51.167 28.2952Z" fill="white"/>
<path d="M265.26 250H2.8987C2.59948 250 2.37506 249.757 2.37506 249.476C2.37506 249.177 2.61818 248.953 2.8987 248.953H265.279C265.578 248.953 265.803 249.196 265.803 249.476C265.803 249.757 265.56 250 265.26 250Z" fill="white"/>
<path d="M193.41 138.746L190.343 140.672C188.903 141.569 187.014 141.139 186.116 139.718L184.19 136.651C183.292 135.23 183.722 133.341 185.144 132.443L188.211 130.498C189.632 129.601 191.521 130.031 192.437 131.452L194.363 134.519C195.261 135.959 194.831 137.848 193.41 138.746Z" fill="#0045DF"/>
<path d="M260.772 169.696L258.734 170.968C257.78 171.566 256.527 171.286 255.928 170.332L254.657 168.294C254.058 167.34 254.339 166.087 255.292 165.489L257.331 164.198C258.285 163.6 259.538 163.88 260.136 164.834L261.408 166.872C262.006 167.845 261.726 169.098 260.772 169.696Z" fill="#0045DF"/>
<path d="M247.176 97.4342L245.792 98.3132C245.138 98.7246 244.277 98.5189 243.866 97.883L242.987 96.4991C242.576 95.8446 242.781 94.9843 243.417 94.5916L244.801 93.7126C245.456 93.3012 246.316 93.5069 246.727 94.1427L247.606 95.5453C248.018 96.1812 247.812 97.0415 247.176 97.4342Z" fill="#0045DF"/>
<path d="M103.811 34.8968L101.829 36.1498C100.894 36.7295 99.6783 36.449 99.0799 35.5326L97.8269 33.5503C97.2471 32.6152 97.5277 31.3996 98.444 30.8199L100.426 29.5669C101.361 28.9871 102.577 29.2677 103.175 30.184L104.428 32.1851C105.027 33.0827 104.746 34.317 103.811 34.8968Z" fill="#0045DF"/>
<path d="M200.161 24.1061L198.178 25.3591C197.243 25.9389 196.028 25.6583 195.429 24.742L194.176 22.7596C193.597 21.8246 193.877 20.609 194.794 20.0292L196.776 18.7762C197.711 18.1965 198.927 18.477 199.525 19.3934L200.778 21.3944C201.376 22.3108 201.096 23.5264 200.161 24.1061Z" fill="#0045DF"/>
</g>
<defs>
<clipPath id="clip0_34_8374">
<rect width="265.803" height="250" fill="white"/>
</clipPath>
</defs>
</svg>
