<svg width="280" height="250" viewBox="0 0 280 250" fill="none" xmlns="http://www.w3.org/2000/svg">
<g clip-path="url(#clip0_34_8177)">
<path d="M128.516 115.069C121.741 129.785 106.871 139.99 89.6165 139.99C65.9646 139.99 46.8064 120.815 46.8064 97.1802C46.8064 73.5283 65.9818 54.3701 89.6165 54.3701C104.264 54.3701 117.179 61.711 124.897 72.928C120.421 76.0667 114.52 80.2003 108.826 84.1622C104.504 77.8162 97.1288 73.7341 88.879 74.0086C76.0668 74.4202 66.0161 85.1227 66.4277 97.9349C66.8393 110.747 77.5419 120.798 90.354 120.386C99.4443 120.095 107.128 114.623 110.696 106.888L128.516 115.069Z" fill="#605EFD"/>
<path d="M143.009 96.3056C143.009 103.509 141.431 110.336 138.601 116.459L118.534 107.231C120.18 103.664 121.038 99.6673 120.918 95.4652C120.764 90.3197 119.117 85.5688 116.424 81.6068C122.839 77.1474 129.494 72.4993 134.536 68.949C139.87 76.7357 143.009 86.1519 143.009 96.3056Z" fill="#0045DF"/>
<path d="M134.245 87.6269C134.159 87.6269 134.056 87.6097 133.97 87.5583C133.73 87.4039 133.644 87.0952 133.799 86.8551L152.905 55.0562C152.991 54.9019 153.163 54.799 153.351 54.799H184.55C184.841 54.799 185.064 55.0391 185.064 55.3135C185.064 55.6051 184.824 55.828 184.55 55.828H153.643L134.691 87.3868C134.588 87.5411 134.416 87.6269 134.245 87.6269Z" fill="#030047"/>
<path d="M159.8 150.95L136.028 174.088L99.5129 173.144L104.315 195.03L136.526 202.353C142.014 203.605 147.743 201.959 151.739 197.997L175.837 174.088L159.8 150.95Z" fill="white"/>
<path d="M140.196 203.297C138.944 203.297 137.675 203.159 136.406 202.868L104.195 195.544C104.007 195.493 103.852 195.338 103.801 195.15L98.9983 173.264C98.964 173.11 98.9983 172.938 99.1012 172.818C99.2042 172.698 99.3585 172.647 99.5129 172.63L135.823 173.573L159.423 150.59C159.526 150.487 159.68 150.436 159.835 150.453C159.989 150.47 160.126 150.556 160.212 150.676L176.231 173.813C176.369 174.019 176.352 174.293 176.163 174.482L152.065 198.391C148.875 201.564 144.604 203.297 140.196 203.297ZM104.744 194.601L136.629 201.839C141.963 203.056 147.468 201.478 151.362 197.619L175.151 174.019L159.732 151.739L136.406 174.448C136.303 174.551 136.166 174.602 136.028 174.602L100.165 173.676L104.744 194.601Z" fill="#030047"/>
<path d="M187.809 159.543L175.545 190.193L160.298 173.11L154.895 167.055L146.988 158.908L162.768 144.724C165.838 142.203 169.834 141.088 173.779 141.706L181.377 142.889L187.809 159.543Z" fill="#0045DF"/>
<g opacity="0.4">
<path d="M163.574 168.805C163.574 170.863 162.184 172.595 160.298 173.127L154.895 167.073C155.564 165.426 157.176 164.277 159.063 164.277C161.567 164.277 163.574 166.301 163.574 168.805Z" fill="white"/>
</g>
<path d="M175.545 190.724C175.408 190.724 175.254 190.656 175.168 190.553L146.611 159.269C146.525 159.166 146.474 159.029 146.474 158.891C146.474 158.754 146.542 158.617 146.645 158.531L162.425 144.347C162.63 144.158 162.973 144.175 163.162 144.381C163.351 144.587 163.334 144.93 163.128 145.119L147.743 158.943L175.391 189.232L187.346 159.354C187.449 159.08 187.757 158.96 188.015 159.063C188.289 159.166 188.409 159.474 188.306 159.732L176.043 190.381C175.974 190.553 175.837 190.673 175.648 190.707C175.614 190.724 175.58 190.724 175.545 190.724Z" fill="#030047"/>
<path d="M177.415 142.443L226.211 144.021C233.14 144.244 238.852 150.367 238.543 157.21L234.941 242.608H154.912L177.415 142.443Z" fill="#0045DF"/>
<g opacity="0.4">
<path d="M214.634 214.411C217.845 214.411 220.448 211.807 220.448 208.596C220.448 205.385 217.845 202.782 214.634 202.782C211.423 202.782 208.819 205.385 208.819 208.596C208.819 211.807 211.423 214.411 214.634 214.411Z" fill="white"/>
</g>
<path d="M155.084 242.316C155.049 242.316 155.015 242.316 154.964 242.299C154.689 242.23 154.501 241.956 154.569 241.681L173.196 158.771C173.264 158.497 173.539 158.308 173.813 158.377C174.088 158.445 174.276 158.72 174.208 158.994L155.581 241.904C155.547 242.145 155.324 242.316 155.084 242.316Z" fill="#030047"/>
<path d="M279.295 242.659H23.2746C22.983 242.659 22.76 242.419 22.76 242.145C22.76 241.853 23.0001 241.63 23.2746 241.63H279.295C279.586 241.63 279.809 241.87 279.809 242.145C279.826 242.419 279.586 242.659 279.295 242.659Z" fill="white"/>
<g opacity="0.4">
<path d="M186.419 170.063C187.169 169.313 187.169 168.096 186.419 167.346C185.669 166.596 184.453 166.596 183.702 167.346C182.952 168.096 182.952 169.313 183.702 170.063C184.453 170.813 185.669 170.813 186.419 170.063Z" fill="white"/>
</g>
<g opacity="0.4">
<path d="M177.616 191.816C178.607 190.825 178.607 189.218 177.616 188.226C176.625 187.235 175.017 187.235 174.026 188.226C173.035 189.218 173.035 190.825 174.026 191.816C175.017 192.807 176.625 192.807 177.616 191.816Z" fill="white"/>
</g>
<g opacity="0.4">
<path d="M231.328 227.641C232.319 226.65 232.319 225.042 231.328 224.051C230.337 223.06 228.729 223.06 227.738 224.051C226.747 225.042 226.747 226.65 227.738 227.641C228.729 228.632 230.337 228.632 231.328 227.641Z" fill="white"/>
</g>
<g opacity="0.4">
<path d="M196.995 236.46C200.002 233.452 200.002 228.576 196.995 225.569C193.987 222.561 189.111 222.561 186.104 225.569C183.096 228.576 183.096 233.452 186.104 236.46C189.111 239.467 193.987 239.467 196.995 236.46Z" fill="white"/>
</g>
<g opacity="0.4">
<path d="M194.786 179.376C196.684 179.068 197.973 177.28 197.665 175.382C197.357 173.483 195.569 172.194 193.67 172.503C191.772 172.811 190.483 174.599 190.791 176.497C191.099 178.395 192.888 179.684 194.786 179.376Z" fill="white"/>
</g>
<g opacity="0.4">
<path d="M193.532 190.521C194.268 188.744 193.424 186.707 191.648 185.971C189.871 185.236 187.835 186.079 187.099 187.856C186.363 189.632 187.206 191.669 188.983 192.405C190.76 193.141 192.796 192.297 193.532 190.521Z" fill="white"/>
</g>
<g opacity="0.4">
<path d="M163.574 155.118C164.568 155.118 165.375 154.312 165.375 153.317C165.375 152.323 164.568 151.516 163.574 151.516C162.579 151.516 161.773 152.323 161.773 153.317C161.773 154.312 162.579 155.118 163.574 155.118Z" fill="white"/>
</g>
<g opacity="0.4">
<path d="M168.668 162.945C169.365 162.248 169.365 161.119 168.668 160.422C167.971 159.725 166.842 159.725 166.145 160.422C165.449 161.119 165.449 162.248 166.145 162.945C166.842 163.641 167.971 163.641 168.668 162.945Z" fill="white"/>
</g>
<g opacity="0.4">
<path d="M215.249 193.655C216.273 192.63 216.273 190.969 215.249 189.944C214.224 188.919 212.562 188.919 211.537 189.944C210.513 190.969 210.513 192.63 211.537 193.655C212.562 194.68 214.224 194.68 215.249 193.655Z" fill="white"/>
</g>
<g opacity="0.4">
<path d="M176.646 218.02C177.201 216.681 176.565 215.146 175.226 214.591C173.887 214.036 172.352 214.672 171.797 216.011C171.243 217.35 171.879 218.885 173.218 219.44C174.557 219.994 176.092 219.359 176.646 218.02Z" fill="white"/>
</g>
<g opacity="0.4">
<path d="M190.759 213.056C192.833 213.056 194.515 211.374 194.515 209.3C194.515 207.225 192.833 205.543 190.759 205.543C188.684 205.543 187.003 207.225 187.003 209.3C187.003 211.374 188.684 213.056 190.759 213.056Z" fill="white"/>
</g>
<g opacity="0.4">
<path d="M186.162 155.249C187.26 154.15 187.26 152.369 186.162 151.271C185.063 150.172 183.283 150.172 182.184 151.271C181.086 152.369 181.086 154.15 182.184 155.249C183.282 156.347 185.063 156.347 186.162 155.249Z" fill="white"/>
</g>
<g opacity="0.4">
<path d="M201.187 161.687C202.74 161.687 204 160.428 204 158.874C204 157.321 202.74 156.061 201.187 156.061C199.633 156.061 198.374 157.321 198.374 158.874C198.374 160.428 199.633 161.687 201.187 161.687Z" fill="white"/>
</g>
<path d="M160.212 82.6187C152.168 45.2627 115.378 21.5079 78.0221 29.5348C40.6662 37.5789 16.9113 74.3688 24.9554 111.725C32.9994 149.081 69.7894 172.835 107.145 164.791C144.484 156.765 168.256 119.957 160.212 82.6187ZM104.504 152.597C73.8886 159.183 43.7363 139.716 37.1501 109.101C30.5639 78.4851 50.048 48.3328 80.6463 41.7467C111.262 35.1605 141.414 54.6274 148.017 85.2428C154.603 115.858 135.119 146.011 104.504 152.597Z" fill="white"/>
<path d="M140.23 202.01C140.23 202.01 122.736 194.412 120.3 200.587C119.357 202.971 130.454 212.901 130.454 212.901" fill="white"/>
<path d="M130.437 213.416C130.317 213.416 130.197 213.364 130.094 213.279C127.435 210.895 118.808 202.919 119.803 200.398C120.198 199.403 120.952 198.648 122.067 198.203C127.487 195.956 139.905 201.307 140.436 201.547C140.694 201.667 140.814 201.959 140.711 202.233C140.591 202.49 140.299 202.61 140.025 202.508C139.905 202.456 127.47 197.105 122.462 199.18C121.621 199.523 121.072 200.055 120.781 200.792C120.283 202.062 125.583 207.859 130.797 212.524C131.003 212.713 131.037 213.039 130.831 213.262C130.729 213.347 130.591 213.416 130.437 213.416Z" fill="#030047"/>
<path d="M126.475 249.76C120.712 250.995 115.018 247.324 113.783 241.561L97.2661 164.826C96.0312 159.063 99.7016 153.369 105.464 152.134C111.227 150.899 116.922 154.569 118.157 160.332L134.673 237.068C135.908 242.831 132.238 248.508 126.475 249.76Z" fill="white"/>
<path d="M93.7328 189.147C94.7448 193.091 96.0826 198.426 101.794 200.981C106.168 202.936 115.104 198.511 109.186 192.628C109.186 192.628 110.781 190.982 109.855 188.22C108.929 185.459 107.317 185.956 107.317 185.956C107.317 185.956 109.975 183.744 108.689 181.463C107.403 179.182 105.55 179.404 105.55 179.404C105.55 179.404 108.209 178.461 106.373 174.774C104.521 171.069 96.0826 174.894 94.6076 176.008C91.2459 178.598 92.9096 185.922 93.7328 189.147Z" fill="white"/>
<path d="M104.212 201.976C103.269 201.976 102.36 201.804 101.571 201.461C95.6709 198.803 94.2645 193.331 93.2354 189.335L93.2183 189.284C91.3659 182.046 91.7089 177.586 94.2817 175.614C95.3451 174.808 101.005 172.029 104.504 172.835C105.602 173.093 106.391 173.676 106.819 174.551C107.557 176.026 107.711 177.295 107.3 178.324C107.18 178.633 107.008 178.907 106.819 179.113C107.54 179.387 108.414 179.97 109.135 181.222C110.13 182.972 109.186 184.636 108.414 185.579C109.066 185.836 109.821 186.505 110.335 188.083C111.09 190.33 110.318 191.908 109.855 192.611C112.514 195.493 111.656 197.774 110.867 198.889C109.581 200.775 106.768 201.976 104.212 201.976ZM94.2302 189.026L94.2474 189.078C95.225 192.868 96.5457 198.065 102 200.518C104.47 201.616 108.517 200.501 110.027 198.288C111.107 196.71 110.696 194.875 108.809 193.006C108.603 192.8 108.603 192.474 108.809 192.268C108.86 192.217 110.164 190.793 109.358 188.392C108.62 186.196 107.505 186.454 107.454 186.471C107.214 186.539 106.974 186.419 106.854 186.214C106.751 185.991 106.785 185.733 106.974 185.579C106.991 185.562 109.272 183.607 108.226 181.737C107.145 179.816 105.653 179.936 105.584 179.936C105.327 179.97 105.087 179.782 105.018 179.524C104.967 179.267 105.104 179.01 105.344 178.924C105.362 178.907 106.03 178.667 106.322 177.912C106.614 177.175 106.459 176.197 105.859 175.014C105.55 174.413 105.019 174.019 104.23 173.847C101.314 173.178 96.0311 175.563 94.882 176.437C92.7552 178.101 92.5151 182.337 94.2302 189.026Z" fill="#030047"/>
<path d="M103.286 194.481C103.046 194.481 102.84 194.309 102.789 194.069C102.72 193.794 102.909 193.503 103.183 193.451L109.083 192.114C109.358 192.045 109.649 192.234 109.701 192.508C109.769 192.783 109.581 193.074 109.306 193.126L103.406 194.463C103.355 194.481 103.321 194.481 103.286 194.481Z" fill="#030047"/>
<path d="M99.5129 188.255C99.2728 188.255 99.067 188.083 99.0155 187.843C98.9469 187.569 99.1356 187.277 99.41 187.226L107.214 185.459C107.488 185.39 107.763 185.562 107.831 185.853C107.9 186.128 107.711 186.419 107.437 186.471L99.633 188.237C99.5815 188.255 99.5472 188.255 99.5129 188.255Z" fill="#030047"/>
<path d="M98.0207 181.634C97.7806 181.634 97.5748 181.463 97.5233 181.223C97.4547 180.948 97.6434 180.657 97.9178 180.605L105.447 178.907C105.722 178.838 105.996 179.027 106.065 179.302C106.133 179.576 105.945 179.868 105.67 179.919L98.1408 181.617C98.0893 181.634 98.055 181.634 98.0207 181.634Z" fill="#030047"/>
<path d="M130.437 207.773L116.304 206.161C113.406 205.423 111.45 209.128 113.731 211.049C113.766 211.083 113.817 211.118 113.852 211.152C113.852 211.152 110.884 211.358 110.593 214.068C110.284 216.795 114.195 218.201 114.195 218.201C114.195 218.201 110.867 218.235 110.816 220.945C110.764 223.655 114.881 225.765 114.881 225.765C114.881 225.765 111.776 226.725 112.428 229.127C113.08 231.528 116.013 232.763 121.072 233.552C126.132 234.341 144.09 229.058 144.09 229.058L208.133 230.379C214.908 230.173 220.963 226.125 223.741 219.933L243.071 176.866L215.714 163.694L194.498 199.214L140.213 202.027" fill="white"/>
<path d="M122.307 234.152C121.81 234.152 121.381 234.118 121.004 234.066C115.309 233.191 112.599 231.751 111.931 229.264C111.467 227.514 112.617 226.331 113.749 225.696C112.462 224.856 110.25 223.106 110.301 220.928C110.335 219.247 111.45 218.373 112.582 217.961C111.365 217.223 109.872 215.903 110.095 213.999C110.301 212.112 111.673 211.186 112.84 210.826C112.033 209.728 112.119 208.373 112.617 207.396C113.234 206.212 114.641 205.2 116.407 205.646L130.506 207.258C130.797 207.293 131.003 207.55 130.969 207.824C130.934 208.116 130.677 208.305 130.403 208.288L116.27 206.675C116.253 206.675 116.218 206.675 116.201 206.658C114.881 206.315 113.937 207.104 113.543 207.876C113.165 208.631 113.08 209.797 114.092 210.654C114.16 210.706 114.212 210.74 114.246 210.792C114.383 210.929 114.435 211.152 114.366 211.34C114.297 211.529 114.126 211.666 113.92 211.684C113.817 211.684 111.382 211.889 111.142 214.136C110.884 216.417 114.366 217.704 114.4 217.721C114.641 217.807 114.778 218.047 114.726 218.287C114.692 218.527 114.469 218.716 114.229 218.716C114.109 218.716 111.399 218.784 111.365 220.962C111.313 223.329 115.104 225.285 115.155 225.302C115.344 225.405 115.447 225.593 115.429 225.799C115.412 226.005 115.275 226.194 115.069 226.245C114.966 226.279 112.445 227.086 112.96 228.972C113.491 230.979 116.03 232.214 121.192 233.02C126.081 233.775 143.815 228.595 143.987 228.543C144.038 228.526 144.09 228.526 144.141 228.526L208.185 229.847C214.685 229.641 220.637 225.662 223.295 219.71L242.419 177.106L215.937 164.345L194.961 199.472C194.875 199.626 194.721 199.712 194.549 199.729L140.265 202.542C139.973 202.559 139.733 202.336 139.716 202.044C139.699 201.753 139.922 201.513 140.213 201.496L194.223 198.7L215.285 163.419C215.423 163.196 215.714 163.093 215.954 163.213L243.311 176.386C243.568 176.506 243.671 176.815 243.551 177.072L224.221 220.139C221.391 226.451 215.08 230.67 208.168 230.893L144.175 229.59C142.838 229.967 128.396 234.152 122.307 234.152Z" fill="#030047"/>
<path d="M113.869 211.152C113.869 211.152 117.728 212.678 122.805 212.901L113.869 211.152Z" fill="white"/>
<path d="M122.805 213.416H122.787C117.676 213.193 113.834 211.701 113.68 211.632C113.406 211.529 113.286 211.22 113.388 210.963C113.491 210.689 113.8 210.569 114.057 210.672C114.092 210.689 117.916 212.164 122.839 212.37C123.13 212.387 123.353 212.627 123.336 212.918C123.319 213.193 123.079 213.416 122.805 213.416Z" fill="#030047"/>
<path d="M114.212 218.201C114.212 218.201 118.482 219.608 123.251 219.35L114.212 218.201Z" fill="white"/>
<path d="M122.016 219.899C117.745 219.899 114.195 218.75 114.04 218.699C113.766 218.613 113.629 218.321 113.714 218.047C113.8 217.772 114.092 217.635 114.366 217.721C114.4 217.738 118.603 219.093 123.216 218.836C123.508 218.819 123.748 219.042 123.765 219.333C123.782 219.625 123.559 219.865 123.268 219.882C122.856 219.882 122.427 219.899 122.016 219.899Z" fill="#030047"/>
<path d="M114.898 225.765C114.898 225.765 116.802 226.931 122.822 226.622L114.898 225.765Z" fill="white"/>
<path d="M120.884 227.188C116.287 227.188 114.692 226.245 114.623 226.194C114.383 226.039 114.297 225.731 114.452 225.473C114.606 225.233 114.915 225.147 115.155 225.302C115.189 225.319 117.11 226.382 122.787 226.091C123.079 226.056 123.319 226.297 123.336 226.588C123.353 226.88 123.13 227.12 122.839 227.137C122.136 227.188 121.484 227.188 120.884 227.188Z" fill="#030047"/>
<path d="M248.937 162.956C248.937 165.014 248.611 167.09 247.925 169.096L236.553 203.777L232.06 199.643L219.608 190.021L203.022 177.655L221.854 143.884L228.989 143.661C233.294 143.524 237.531 144.827 241.03 147.383C246.107 151.07 248.937 156.919 248.937 162.956Z" fill="#0045DF"/>
<g opacity="0.4">
<path d="M234.341 192.062C233.963 194.738 232.437 196.968 230.344 198.305L217.532 188.889C218.544 184.516 222.661 181.566 227.086 182.183C231.768 182.852 235.027 187.277 234.341 192.062Z" fill="white"/>
</g>
<path d="M236.57 204.291C236.45 204.291 236.347 204.257 236.244 204.188L202.713 178.05C202.508 177.895 202.456 177.604 202.576 177.381L217.412 151.242C217.549 151.002 217.875 150.899 218.115 151.053C218.373 151.19 218.458 151.516 218.304 151.756L203.691 177.501L236.296 202.902L247.256 169.645C247.341 169.371 247.633 169.217 247.907 169.319C248.182 169.405 248.319 169.697 248.233 169.971L237.033 203.931C236.982 204.085 236.845 204.223 236.69 204.274C236.673 204.291 236.622 204.291 236.57 204.291Z" fill="#030047"/>
<g opacity="0.4">
<path d="M234.912 158.005C235.155 156.973 234.516 155.938 233.484 155.694C232.451 155.45 231.416 156.09 231.173 157.122C230.929 158.155 231.568 159.189 232.601 159.433C233.633 159.677 234.668 159.038 234.912 158.005Z" fill="white"/>
</g>
<g opacity="0.4">
<path d="M238.268 171.508C238.438 170.46 237.727 169.474 236.68 169.304C235.633 169.134 234.646 169.845 234.476 170.892C234.306 171.939 235.017 172.926 236.064 173.096C237.112 173.266 238.098 172.555 238.268 171.508Z" fill="white"/>
</g>
<g opacity="0.4">
<path d="M226.234 173.296C228.458 171.072 228.458 167.467 226.234 165.243C224.01 163.019 220.405 163.019 218.181 165.243C215.957 167.467 215.957 171.072 218.181 173.296C220.405 175.52 224.01 175.52 226.234 173.296Z" fill="white"/>
</g>
<path d="M190.313 143.575L191.411 128.928L212.575 124.52L213.382 143.472C213.382 143.472 207.996 152.013 198.185 151.465C190.313 151.002 190.313 143.575 190.313 143.575Z" fill="white"/>
<path d="M199.094 151.996C198.786 151.996 198.477 151.979 198.168 151.962C189.884 151.499 189.798 143.644 189.798 143.575C189.798 143.558 189.798 143.558 189.798 143.541L190.896 128.893C190.913 128.67 191.085 128.464 191.308 128.43L212.473 124.022C212.627 123.988 212.781 124.022 212.901 124.125C213.021 124.211 213.09 124.365 213.107 124.52L213.913 143.472C213.913 143.575 213.896 143.678 213.828 143.764C213.776 143.815 208.511 151.996 199.094 151.996ZM190.827 143.592C190.827 144.072 191.05 150.521 198.22 150.933C206.933 151.43 212.147 144.364 212.867 143.318L212.095 125.154L191.908 129.356L190.827 143.592Z" fill="#030047"/>
<path d="M212.833 127.59C224.256 118.208 224.41 100.319 224.41 100.319L196.299 83.7849C195.681 84.1622 183.195 91.7775 178.753 109.924C175.1 124.88 188.461 135.394 204.789 131.809" fill="white"/>
<path d="M198.426 133.027C192.097 133.027 186.402 130.883 182.492 126.869C178.152 122.427 176.643 116.356 178.255 109.787C182.612 92.0176 194.669 84.1623 196.024 83.339C196.196 83.2361 196.402 83.2361 196.573 83.3218L224.684 99.8559C224.839 99.9416 224.942 100.13 224.942 100.302C224.942 100.49 224.65 118.534 213.176 127.967C212.953 128.156 212.627 128.122 212.438 127.899C212.25 127.676 212.284 127.35 212.507 127.161C222.815 118.688 223.793 102.943 223.878 100.593L196.299 84.3681C194.12 85.7745 183.281 93.4927 179.25 110.027C177.724 116.236 179.147 121.947 183.229 126.132C188.186 131.209 196.213 133.13 204.686 131.277C204.96 131.226 205.235 131.397 205.303 131.672C205.372 131.946 205.183 132.221 204.909 132.289C202.696 132.787 200.518 133.027 198.426 133.027Z" fill="#030047"/>
<path d="M189.936 104.315C189.438 105.344 188.495 105.893 187.809 105.567C187.123 105.241 186.968 104.144 187.466 103.115C187.963 102.086 188.906 101.537 189.592 101.863C190.279 102.188 190.433 103.286 189.936 104.315Z" fill="#030047"/>
<path d="M188.478 99.4614C189.918 99.2384 191.411 100.01 192.234 101.399L188.478 99.4614Z" fill="white"/>
<path d="M192.234 101.914C192.062 101.914 191.891 101.828 191.788 101.657C191.067 100.439 189.798 99.7873 188.563 99.9759C188.272 100.01 188.015 99.8216 187.98 99.5472C187.946 99.2556 188.135 98.9983 188.409 98.964C190.073 98.7239 191.754 99.5815 192.68 101.142C192.834 101.382 192.748 101.708 192.491 101.845C192.405 101.897 192.32 101.914 192.234 101.914Z" fill="#030047"/>
<path d="M223.638 83.459C226.64 87.2324 222.009 91.9147 222.009 91.9147C222.009 91.9147 228.595 91.0915 231.596 98.6896C234.598 106.288 222.317 116.184 222.317 116.184L215.594 111.433C215.594 111.433 215.251 112.737 213.416 110.833C213.416 110.833 208.613 101.056 213.33 98.0378C213.33 98.0378 184.841 97.832 187.397 76.77C189.404 60.2874 218.716 77.2674 223.638 83.459Z" fill="#030047"/>
<path d="M201.015 110.867C200.689 111.948 199.832 112.651 199.112 112.445C198.374 112.222 198.048 111.176 198.374 110.078C198.7 108.981 199.557 108.294 200.278 108.5C200.998 108.706 201.341 109.787 201.015 110.867Z" fill="#030047"/>
<path d="M199.352 106.236C200.792 105.979 202.302 106.699 203.159 108.054L199.352 106.236Z" fill="white"/>
<path d="M203.159 108.569C202.988 108.569 202.816 108.483 202.713 108.329C201.959 107.145 200.672 106.511 199.437 106.734C199.146 106.785 198.889 106.596 198.837 106.322C198.786 106.048 198.974 105.773 199.249 105.722C200.895 105.43 202.61 106.236 203.588 107.78C203.742 108.02 203.674 108.346 203.434 108.5C203.348 108.552 203.262 108.569 203.159 108.569Z" fill="#030047"/>
<path d="M215.251 111.536C215.251 111.536 222.866 106.854 226.022 108.878C229.178 110.919 224.993 122.753 220.637 122.925C216.28 123.096 213.364 120.695 213.364 120.695" fill="white"/>
<path d="M220.191 123.439C215.937 123.439 213.141 121.175 213.021 121.072C212.798 120.884 212.764 120.558 212.953 120.335C213.141 120.112 213.467 120.077 213.69 120.266C213.725 120.283 216.503 122.513 220.62 122.393C222.815 122.307 225.147 118.551 226.125 114.966C226.897 112.171 226.743 109.958 225.748 109.306C223.381 107.78 217.567 110.713 215.526 111.965C215.285 112.119 214.96 112.033 214.805 111.793C214.651 111.553 214.737 111.227 214.977 111.073C215.303 110.867 222.901 106.236 226.297 108.432C227.72 109.358 228.029 111.896 227.12 115.241C226.022 119.237 223.45 123.319 220.637 123.439C220.499 123.439 220.345 123.439 220.191 123.439Z" fill="#030047"/>
<path d="M222.609 116.956C222.506 116.956 222.403 116.922 222.318 116.87C222.077 116.716 222.026 116.39 222.18 116.15C222.746 115.344 223.089 114.4 223.192 113.406C223.209 113.234 223.227 113.063 223.175 112.942C223.158 112.857 223.106 112.822 223.089 112.805C223.038 112.788 222.866 112.84 222.798 112.857L219.659 113.8C219.385 113.886 219.093 113.731 219.007 113.457C218.922 113.183 219.076 112.891 219.35 112.805L222.489 111.862C222.695 111.793 223.021 111.708 223.364 111.793C223.741 111.896 224.033 112.205 224.153 112.617C224.256 112.925 224.238 113.234 224.204 113.491C224.084 114.64 223.672 115.755 223.021 116.699C222.935 116.887 222.781 116.956 222.609 116.956Z" fill="#030047"/>
<path d="M192.851 108.054C191.788 109.306 190.742 110.558 189.678 111.828C189.044 112.582 188.392 113.371 188.22 114.314C188.049 115.258 188.512 116.407 189.575 116.87" fill="white"/>
<path d="M189.593 117.402C189.524 117.402 189.455 117.385 189.387 117.35C188.032 116.75 187.534 115.326 187.723 114.229C187.912 113.131 188.649 112.256 189.301 111.485L192.474 107.711C192.663 107.488 192.988 107.471 193.211 107.643C193.434 107.831 193.452 108.157 193.28 108.38L190.107 112.153C189.541 112.822 188.906 113.577 188.769 114.4C188.649 115.086 188.975 116.03 189.815 116.39C190.073 116.51 190.193 116.819 190.09 117.076C189.987 117.282 189.798 117.402 189.593 117.402Z" fill="#030047"/>
<path d="M193.623 124.005C192.457 124.005 191.308 123.662 190.313 123.028C190.073 122.873 190.004 122.547 190.158 122.307C190.313 122.067 190.639 121.998 190.879 122.153C191.959 122.873 193.314 123.13 194.601 122.856C195.87 122.599 197.019 121.827 197.739 120.746C197.894 120.506 198.22 120.438 198.46 120.609C198.7 120.764 198.769 121.089 198.597 121.33C197.722 122.633 196.35 123.576 194.807 123.885C194.429 123.971 194.018 124.005 193.623 124.005Z" fill="#030047"/>
<g opacity="0.3">
<path d="M92.5837 153.9C123.919 153.9 149.321 128.498 149.321 97.1631C149.321 65.8281 123.919 40.426 92.5837 40.426C61.2486 40.426 35.8466 65.8281 35.8466 97.1631C35.8466 128.498 61.2486 153.9 92.5837 153.9Z" fill="url(#paint0_linear_34_8177)"/>
</g>
<path d="M184.378 61.5395H159.406C159.114 61.5395 158.891 61.2993 158.891 61.0249C158.891 60.7333 159.131 60.5104 159.406 60.5104H184.378C184.67 60.5104 184.893 60.7505 184.893 61.0249C184.893 61.2993 184.67 61.5395 184.378 61.5395Z" fill="#030047"/>
<path d="M184.378 67.1823H167.45C167.158 67.1823 166.935 66.9422 166.935 66.6677C166.935 66.3762 167.175 66.1532 167.45 66.1532H184.378C184.67 66.1532 184.893 66.3933 184.893 66.6677C184.893 66.9593 184.67 67.1823 184.378 67.1823Z" fill="#030047"/>
<path d="M38.9167 146.697H11.4743C11.1827 146.697 10.9598 146.456 10.9598 146.182C10.9598 145.89 11.1999 145.667 11.4743 145.667H38.9167C41.0606 145.667 43.0674 144.535 44.1651 142.7L61.3337 114.126C61.488 113.886 61.7968 113.8 62.054 113.954C62.2942 114.109 62.3799 114.417 62.2256 114.658L45.0569 143.215C43.7706 145.359 41.4208 146.697 38.9167 146.697Z" fill="#030047"/>
<path d="M36.6355 140.968H11.6458C11.3543 140.968 11.1313 140.728 11.1313 140.454C11.1313 140.162 11.3714 139.939 11.6458 139.939H36.6355C36.9271 139.939 37.1501 140.179 37.1501 140.454C37.1501 140.745 36.91 140.968 36.6355 140.968Z" fill="#030047"/>
<path d="M28.5743 135.325H11.6458C11.3543 135.325 11.1313 135.085 11.1313 134.811C11.1313 134.519 11.3714 134.296 11.6458 134.296H28.5743C28.8659 134.296 29.0889 134.536 29.0889 134.811C29.0889 135.085 28.8488 135.325 28.5743 135.325Z" fill="#030047"/>
<path d="M242.659 115.618C241.836 115.103 241.253 114.383 240.91 113.44C240.55 112.411 240.635 111.485 241.184 110.644C241.819 109.684 242.693 108.98 243.808 108.517C245.163 107.951 246.432 108.037 247.599 108.757C248.576 109.375 249.108 110.215 249.194 111.279C249.245 112.136 248.988 112.977 248.473 113.783C247.907 114.64 247.136 115.309 246.175 115.755C244.906 116.338 243.74 116.304 242.659 115.618ZM263.087 106.888C262.932 106.888 261.2 106.974 257.89 107.111C255.78 107.18 254.065 107.402 252.744 107.763C251.561 108.071 250.549 107.968 249.708 107.454C248.885 106.939 248.353 106.185 248.113 105.224C247.873 104.247 248.01 103.372 248.508 102.617C249.245 101.485 251.012 100.799 253.808 100.576C256.312 100.473 258.816 100.353 261.337 100.216C264.116 99.993 265.865 99.3241 266.603 98.2093C267.46 96.8886 267.597 95.2421 266.98 93.2354C266.362 91.2286 265.316 89.7708 263.841 88.8446C263.052 88.3643 261.697 88.1242 259.776 88.1414C257.838 88.1585 256.603 87.987 256.037 87.644C255.18 87.1123 254.665 86.3576 254.477 85.38C254.288 84.4023 254.442 83.5276 254.94 82.7901C255.866 81.3837 257.975 80.8691 261.286 81.2808C264.081 81.6238 266.191 82.2241 267.615 83.116C270.753 85.0713 272.863 87.987 273.909 91.8289C274.973 95.6709 274.544 99.0669 272.623 101.983C270.702 104.864 267.529 106.493 263.087 106.888Z" fill="white"/>
<path d="M245.609 125.755C245.609 125.069 245.832 124.451 246.278 123.885C246.775 123.268 247.376 122.976 248.096 122.976C248.937 122.976 249.708 123.216 250.412 123.696C251.286 124.28 251.715 125.051 251.715 126.012C251.715 126.818 251.406 127.453 250.772 127.916C250.257 128.276 249.657 128.447 248.954 128.447C248.199 128.447 247.513 128.242 246.861 127.847C246.021 127.35 245.609 126.646 245.609 125.755ZM258.833 134.382C258.764 134.296 258.061 133.301 256.706 131.415C255.849 130.197 255.06 129.288 254.339 128.653C253.688 128.07 253.362 127.435 253.362 126.749C253.362 126.063 253.619 125.463 254.133 124.948C254.648 124.434 255.231 124.177 255.883 124.177C256.861 124.177 257.958 124.948 259.176 126.492C260.205 127.916 261.251 129.339 262.28 130.763C263.481 132.306 264.562 133.078 265.539 133.078C266.688 133.078 267.752 132.512 268.747 131.38C269.741 130.248 270.239 129.065 270.239 127.847C270.239 127.195 269.861 126.321 269.107 125.189C268.352 124.057 267.975 123.268 267.975 122.805C267.975 122.101 268.249 121.501 268.781 121.021C269.313 120.541 269.913 120.3 270.565 120.3C271.8 120.3 272.914 121.347 273.926 123.439C274.801 125.206 275.23 126.681 275.23 127.864C275.23 130.454 274.252 132.821 272.28 134.913C270.324 137.023 268.06 138.069 265.522 138.069C263.018 138.052 260.788 136.834 258.833 134.382Z" fill="white"/>
<path d="M84.8655 179.422L88.9304 223.501H19.6041L15.5392 179.422H84.8655Z" fill="white"/>
<path d="M85.7403 188.941L88.9304 223.501H19.6041L17.2715 198.185C17.9919 197.654 21.6623 195.407 27.3223 199.609C32.1933 203.228 33.2739 211.855 40.5633 211.769C47.8526 211.684 51.2658 198.117 58.881 199.077C65.1928 199.866 66.6335 208.802 72.2077 206.744C81.5382 203.314 76.9244 188.683 85.7403 188.941Z" fill="#605EFD"/>
<path d="M88.9304 224.016H19.6041C19.3297 224.016 19.1067 223.81 19.0896 223.552L15.0247 179.473C15.0075 179.319 15.059 179.182 15.1619 179.079C15.2648 178.976 15.402 178.907 15.5392 178.907H84.8655C85.1399 178.907 85.3629 179.113 85.3801 179.37L89.445 223.45C89.4621 223.604 89.4107 223.741 89.3078 223.844C89.222 223.947 89.0676 224.016 88.9304 224.016ZM20.0672 222.986H88.3644L84.4024 179.936H16.1052L20.0672 222.986Z" fill="#030047"/>
<path d="M74.506 216.263C74.2488 216.263 74.0087 216.057 73.9915 215.8L71.4188 188.992C71.3845 188.701 71.6074 188.46 71.8819 188.426C72.1734 188.409 72.4136 188.615 72.4479 188.889L75.0206 215.697C75.0549 215.989 74.8319 216.229 74.5575 216.263C74.5404 216.263 74.5232 216.263 74.506 216.263Z" fill="#030047"/>
<path d="M61.6252 216.263C61.368 216.263 61.1279 216.057 61.1107 215.8L58.538 188.992C58.5037 188.701 58.7266 188.46 59.0011 188.426C59.2926 188.409 59.5328 188.615 59.5671 188.889L62.1398 215.697C62.1741 215.989 61.9511 216.229 61.6767 216.263C61.6596 216.263 61.6424 216.263 61.6252 216.263Z" fill="#030047"/>
<path d="M48.7445 216.263C48.4872 216.263 48.2471 216.057 48.23 215.8L45.6572 188.992C45.6229 188.701 45.8459 188.46 46.1203 188.426C46.4119 188.409 46.652 188.615 46.6863 188.889L49.2591 215.697C49.2934 215.989 49.0704 216.229 48.796 216.263C48.7788 216.263 48.7617 216.263 48.7445 216.263Z" fill="#030047"/>
<path d="M35.8637 216.263C35.6064 216.263 35.3663 216.057 35.3492 215.8L32.7764 188.992C32.7421 188.701 32.9651 188.46 33.2395 188.426C33.5311 188.409 33.7712 188.615 33.8055 188.889L36.3783 215.697C36.4126 215.989 36.1896 216.229 35.9152 216.263C35.898 216.263 35.8809 216.263 35.8637 216.263Z" fill="#030047"/>
<path d="M200.415 203.314C200.329 203.314 200.226 203.297 200.141 203.245L194.241 199.643C194 199.489 193.915 199.18 194.069 198.923C194.223 198.683 194.532 198.597 194.789 198.751L200.689 202.353C200.93 202.508 201.015 202.816 200.861 203.074C200.758 203.228 200.587 203.314 200.415 203.314Z" fill="#030047"/>
<path d="M175.734 24.5266L175.82 17.3745L172.098 17.3401C171.669 15.2134 170.863 13.2238 169.731 11.44L172.407 8.83301L167.398 3.72187L164.723 6.3289C162.956 5.14544 160.984 4.28787 158.857 3.80763L158.891 0.0857574L151.739 0L151.705 3.72187C149.578 4.15066 147.588 4.95678 145.805 6.08878L143.181 3.4303L138.069 8.43853L140.676 11.1142C139.51 12.8636 138.653 14.836 138.172 16.9628L134.45 16.9285L134.365 24.0807L138.087 24.115C138.515 26.2589 139.321 28.2485 140.453 30.0151L137.778 32.6221L142.786 37.7333L145.462 35.1262C147.211 36.2925 149.184 37.1501 151.31 37.6304L151.276 41.3694L158.428 41.4551L158.463 37.7161C160.589 37.2873 162.579 36.4812 164.363 35.3492L166.97 38.0248L172.081 33.0166L169.474 30.341C170.64 28.5915 171.498 26.6191 171.978 24.4923L175.734 24.5266ZM155.701 29.3633C150.367 29.7235 145.993 25.2641 146.474 19.93C146.851 15.7279 150.298 12.3662 154.501 12.0918C159.852 11.7316 164.208 16.2082 163.728 21.5423C163.334 25.7101 159.903 29.0889 155.701 29.3633Z" fill="#0045DF"/>
<path d="M272.348 178.05L268.695 180.348C266.98 181.411 264.716 180.914 263.653 179.199L261.354 175.545C260.274 173.83 260.788 171.583 262.503 170.503L266.174 168.187C267.872 167.107 270.136 167.621 271.216 169.337L273.515 173.007C274.578 174.722 274.064 176.969 272.348 178.05Z" fill="#0045DF"/>
<path d="M247.976 73.6656L245.541 75.2093C244.391 75.9296 242.882 75.5866 242.179 74.4375L240.635 72.0019C239.915 70.87 240.258 69.3606 241.407 68.6403L243.843 67.0966C244.975 66.3763 246.484 66.7193 247.204 67.8684L248.731 70.3211C249.468 71.4531 249.125 72.9624 247.976 73.6656Z" fill="#0045DF"/>
<path d="M207.293 54.9191L204.857 56.4627C203.708 57.1831 202.199 56.84 201.496 55.6909L199.952 53.2554C199.232 52.1234 199.575 50.614 200.724 49.8937L203.159 48.35C204.291 47.6297 205.801 47.9727 206.521 49.1219L208.047 51.5745C208.785 52.6894 208.442 54.1987 207.293 54.9191Z" fill="#0045DF"/>
<path d="M236.673 36.344L234.238 37.8876C233.089 38.608 231.579 38.265 230.876 37.1158L229.332 34.6803C228.612 33.5483 228.955 32.039 230.104 31.3186L232.54 29.775C233.672 29.0546 235.181 29.3976 235.901 30.5468L237.428 32.9994C238.165 34.1143 237.822 35.6236 236.673 36.344Z" fill="#0045DF"/>
<path d="M7.71816 89.6164L5.28265 91.1601C4.1335 91.8804 2.62417 91.5374 1.92096 90.3883L0.377329 87.9528C-0.343033 86.8208 -3.41842e-06 85.3114 1.14915 84.5911L3.58466 83.0474C4.71665 82.3271 6.22599 82.6701 6.94635 83.8193L8.47283 86.2719C9.19319 87.4039 8.85016 88.9132 7.71816 89.6164Z" fill="#0045DF"/>
</g>
<defs>
<linearGradient id="paint0_linear_34_8177" x1="28.1207" y1="153.9" x2="149.321" y2="153.9" gradientUnits="userSpaceOnUse">
<stop stop-color="#0045DF"/>
<stop offset="1" stop-color="#0194FF"/>
</linearGradient>
<clipPath id="clip0_34_8177">
<rect width="279.826" height="250" fill="white"/>
</clipPath>
</defs>
</svg>
