<svg width="213" height="200" viewBox="0 0 213 200" fill="none" xmlns="http://www.w3.org/2000/svg">
<g clip-path="url(#clip0_39_17351)">
<path d="M14.5905 54.7006C14.4942 54.7006 14.3978 54.6593 14.329 54.5767C13.5444 53.5994 13.2416 52.2092 13.5169 50.7364C13.7647 49.4012 14.3978 48.2037 14.9897 47.1713C17.2196 43.2759 19.9587 39.7109 23.1521 36.5588C23.2898 36.4212 23.4963 36.4212 23.6339 36.5588C23.7715 36.6964 23.7578 36.9029 23.6339 37.0406C20.4818 40.1376 17.7839 43.6613 15.5816 47.5017C15.031 48.479 14.4116 49.6214 14.1914 50.8465C13.9574 52.1266 14.2051 53.3241 14.8658 54.1362C14.9897 54.2876 14.9622 54.4941 14.8108 54.618C14.7419 54.673 14.6594 54.7006 14.5905 54.7006Z" fill="white"/>
<path d="M17.3435 53.3794C17.1921 53.3794 17.0544 53.283 17.0131 53.1316C16.4212 51.0669 16.8066 48.7957 18.0455 47.0476C18.1556 46.8962 18.362 46.8549 18.5135 46.965C18.6649 47.0752 18.7062 47.2816 18.596 47.4468C17.4949 49.0022 17.137 51.1082 17.66 52.9527C17.7151 53.1316 17.605 53.3243 17.4261 53.3794C17.4123 53.3794 17.3848 53.3794 17.3435 53.3794Z" fill="white"/>
<path d="M41.2801 31.9342C41.1563 31.9342 41.0324 31.8654 40.9636 31.7415C40.881 31.5764 40.9635 31.3699 41.1287 31.2873C42.8493 30.5027 44.2395 29.7594 45.3958 28.7133C46.7309 27.502 47.5293 26.0154 47.6256 24.5426C47.6394 24.3499 47.8046 24.2123 47.9835 24.226C48.1762 24.2398 48.3139 24.405 48.3001 24.5839C48.19 26.2357 47.3228 27.8737 45.85 29.2088C44.6249 30.31 43.1934 31.0808 41.404 31.9067C41.3627 31.9205 41.3214 31.9342 41.2801 31.9342Z" fill="white"/>
<path d="M40.8535 29.071C40.6883 29.071 40.5369 28.9472 40.5094 28.7682C40.4818 28.5755 40.6195 28.4103 40.8122 28.3828C42.4502 28.1901 43.8955 26.9513 44.3497 25.3684C44.4048 25.1894 44.5837 25.0793 44.7764 25.1344C44.9553 25.1894 45.0655 25.3684 45.0104 25.5611C44.4873 27.4055 42.7943 28.837 40.8948 29.071C40.881 29.071 40.8672 29.071 40.8535 29.071Z" fill="white"/>
<path d="M159.367 175.953H92.8423C83.4411 175.953 75.9118 168.328 76.0219 158.927L77.7012 24.0884C77.8113 14.6871 85.5333 7.06152 94.9345 7.06152H161.459C170.86 7.06152 178.389 14.6871 178.279 24.0884L176.614 158.927C176.49 168.328 168.768 175.953 159.367 175.953Z" fill="#0045DF"/>
<path d="M92.8424 176.297C88.2037 176.297 83.8678 174.494 80.6194 171.205C77.3847 167.929 75.6228 163.565 75.6779 158.926L77.3572 24.0745C77.4811 14.4943 85.3544 6.71729 94.9346 6.71729H161.459C166.098 6.71729 170.434 8.52045 173.682 11.8102C176.917 15.0862 178.679 19.4496 178.624 24.0882L176.958 158.926C176.834 168.507 168.947 176.284 159.381 176.284L92.8424 176.297ZM94.9346 7.40552C85.7261 7.40552 78.1555 14.8935 78.0454 24.0882L76.3799 158.926C76.3248 163.386 78.0041 167.571 81.1149 170.723C84.2257 173.875 88.3964 175.609 92.8561 175.609H159.381C168.589 175.609 176.16 168.121 176.284 158.926L177.949 24.0882C178.004 19.6285 176.325 15.4441 173.214 12.292C170.103 9.13986 165.933 7.40552 161.473 7.40552H94.9346Z" fill="#060F11"/>
<path d="M170.172 25.4236L168.534 157.592C168.438 165.492 161.941 171.921 154.04 171.921H94.2464C93.5719 171.921 92.8974 171.865 92.2505 171.783C91.7137 171.714 91.2044 171.604 90.6951 171.48C88.4652 170.902 86.4556 169.815 84.8038 168.314C83.9229 167.53 83.1383 166.621 82.4776 165.644C80.9497 163.345 80.0688 160.578 80.0963 157.605L81.7343 25.4374C81.8307 17.5365 88.3413 11.1084 96.2285 11.1084H156.022C157.343 11.1084 158.61 11.2873 159.821 11.6177C160.372 11.7691 160.908 11.948 161.432 12.1683C163.606 13.063 165.506 14.4945 166.979 16.2839C167.281 16.6555 167.571 17.041 167.832 17.4401C169.346 19.7251 170.2 22.478 170.172 25.4236Z" fill="white"/>
<path d="M154.026 172.251H94.2326C93.5581 172.251 92.8699 172.209 92.1954 172.113C91.6448 172.031 91.108 171.934 90.5987 171.797C88.3689 171.218 86.2766 170.103 84.5561 168.562C83.6614 167.763 82.863 166.841 82.1748 165.823C80.5506 163.386 79.7109 160.537 79.7384 157.591L81.3764 25.4235C81.4866 17.3437 88.1486 10.7642 96.2285 10.7642H156.022C157.343 10.7642 158.651 10.9431 159.904 11.2872C160.454 11.4386 161.019 11.6313 161.555 11.8516C163.758 12.76 165.726 14.2191 167.24 16.0635C167.557 16.4352 167.846 16.8344 168.121 17.2611C169.718 19.6699 170.557 22.5054 170.516 25.4235L168.878 157.591C168.768 165.671 162.12 172.251 154.026 172.251ZM96.2285 11.4386C88.5203 11.4386 82.161 17.7153 82.0647 25.4235L80.4267 157.591C80.3854 160.399 81.1975 163.111 82.7391 165.437C83.3861 166.401 84.1431 167.282 85.0103 168.039C86.6483 169.512 88.6442 170.571 90.7639 171.122C91.2457 171.246 91.755 171.342 92.2918 171.425C92.9387 171.521 93.5994 171.563 94.2326 171.563H154.026C161.734 171.563 168.094 165.286 168.19 157.578L169.828 25.4097C169.869 22.6155 169.071 19.9314 167.543 17.6189C167.281 17.2198 167.006 16.8481 166.703 16.4902C165.258 14.7284 163.386 13.3381 161.294 12.471C160.785 12.2645 160.248 12.0718 159.725 11.9342C158.527 11.6038 157.275 11.4386 156.022 11.4386H96.2285Z" fill="#060F11"/>
<path d="M179.504 51.4247L179.257 70.9291C179.229 72.6772 177.798 74.095 176.05 74.095C174.301 74.095 172.897 72.6772 172.925 70.9291L173.173 51.4247C173.2 49.6765 174.632 48.2588 176.38 48.2588C177.261 48.2588 178.045 48.6167 178.61 49.181C179.16 49.7591 179.518 50.5437 179.504 51.4247Z" fill="#363ECE"/>
<path d="M176.049 74.4253C175.113 74.4253 174.233 74.0537 173.586 73.393C172.925 72.7323 172.581 71.8513 172.581 70.9016L172.829 51.3971C172.856 49.47 174.439 47.9009 176.366 47.9009C177.302 47.9009 178.183 48.2725 178.844 48.9332C179.504 49.5939 179.849 50.4749 179.835 51.4109L179.587 70.9153C179.573 72.8561 177.99 74.4253 176.049 74.4253ZM176.38 48.6029C174.824 48.6029 173.531 49.8692 173.517 51.4246L173.269 70.9291C173.255 71.6861 173.544 72.3881 174.067 72.925C174.59 73.4618 175.292 73.7508 176.049 73.7508C177.605 73.7508 178.899 72.4845 178.913 70.9153L179.16 51.4109C179.174 50.6538 178.885 49.9518 178.362 49.415C177.839 48.8919 177.123 48.6029 176.38 48.6029Z" fill="#060F11"/>
<path d="M179.381 61.927H173.283C173.09 61.927 172.939 61.7756 172.939 61.5829C172.939 61.3902 173.09 61.2388 173.283 61.2388H179.381C179.573 61.2388 179.725 61.3902 179.725 61.5829C179.725 61.7756 179.559 61.927 179.381 61.927Z" fill="#060F11"/>
<path d="M134.123 17.6465C134.109 18.2521 133.861 18.789 133.476 19.1744C133.076 19.5735 132.526 19.8075 131.934 19.8075H122.657C121.459 19.8075 120.496 18.844 120.509 17.6327C120.523 17.0271 120.771 16.4903 121.156 16.1049C121.555 15.7194 122.106 15.4717 122.698 15.4717H131.975C133.173 15.4717 134.136 16.449 134.123 17.6465Z" fill="#141323"/>
<path d="M152.966 97.798H97.2884C93.7233 97.798 90.8328 94.9074 90.8328 91.3424V66.043C90.8328 62.478 93.7233 59.5874 97.2884 59.5874H152.966C156.531 59.5874 159.422 62.478 159.422 66.043V91.3424C159.422 94.8937 156.531 97.798 152.966 97.798ZM97.2884 60.2756C94.1087 60.2756 91.5072 62.8634 91.5072 66.0568V91.3562C91.5072 94.5358 94.095 97.1373 97.2884 97.1373H152.966C156.146 97.1373 158.747 94.5495 158.747 91.3562V66.043C158.747 62.8634 156.16 60.2619 152.966 60.2619H97.2884V60.2756Z" fill="#060F11"/>
<path d="M155.829 40.3857C155.829 43.2212 154.673 45.7952 152.815 47.6534C150.957 49.5116 148.383 50.6679 145.547 50.6679H77.9354C72.2506 50.6679 67.6532 46.0705 67.6532 40.3857C67.6532 37.5502 68.8094 34.9762 70.6677 33.118C72.5259 31.2597 75.0999 30.1035 77.9354 30.1035H145.547C151.218 30.1035 155.829 34.7009 155.829 40.3857Z" fill="white"/>
<path d="M145.547 51.0119H77.9354C72.0716 51.0119 67.3091 46.2493 67.3091 40.3856C67.3091 37.5501 68.4103 34.8797 70.4199 32.8701C72.4158 30.8604 75.0861 29.7593 77.9354 29.7593H145.547C151.397 29.7593 156.16 34.5218 156.16 40.3856C156.16 43.2211 155.059 45.8914 153.049 47.9011C151.053 49.8969 148.383 51.0119 145.547 51.0119ZM77.9354 30.4475C75.2788 30.4475 72.7874 31.4799 70.9016 33.3656C69.0159 35.2376 67.9835 37.7428 67.9835 40.3993C67.9835 45.8777 72.4433 50.3374 77.9216 50.3374H145.533C148.19 50.3374 150.681 49.305 152.567 47.4193C154.439 45.5473 155.472 43.0421 155.472 40.3856C155.472 34.9072 151.012 30.4475 145.533 30.4475H77.9354Z" fill="#060F11"/>
<path d="M155.829 40.3857C155.829 43.2212 154.673 45.7952 152.815 47.6534C150.957 49.5116 148.383 50.6679 145.547 50.6679H139.229C133.544 50.6679 128.947 46.0705 128.947 40.3857C128.947 37.5502 130.103 34.9762 131.961 33.118C133.82 31.2597 136.394 30.1035 139.229 30.1035H145.547C151.218 30.1035 155.829 34.7009 155.829 40.3857Z" fill="#4A4DDC"/>
<path d="M145.547 51.0119H139.229C133.365 51.0119 128.603 46.2493 128.603 40.3856C128.603 37.5501 129.704 34.8797 131.714 32.8701C133.71 30.8604 136.38 29.7593 139.229 29.7593H145.547C151.397 29.7593 156.16 34.5218 156.16 40.3856C156.16 43.2211 155.059 45.8914 153.049 47.9011C151.053 49.8969 148.383 51.0119 145.547 51.0119ZM139.229 30.4475C136.573 30.4475 134.081 31.4799 132.195 33.3656C130.31 35.2376 129.277 37.7428 129.277 40.3993C129.277 45.8777 133.737 50.3374 139.215 50.3374H145.533C148.19 50.3374 150.681 49.305 152.567 47.4193C154.439 45.5473 155.471 43.0421 155.471 40.3856C155.471 34.9072 151.012 30.4475 145.533 30.4475H139.229Z" fill="#060F11"/>
<path d="M147.708 42.7668C149.704 40.7709 149.704 37.5362 147.708 35.5404C145.712 33.5445 142.478 33.5445 140.482 35.5404C138.775 37.2472 138.527 39.8487 139.725 41.817L136.848 44.6938C136.38 45.1618 136.38 45.9327 136.848 46.4006C137.316 46.8686 138.087 46.8686 138.555 46.4006L141.432 43.5238C143.4 44.7076 146.001 44.4598 147.708 42.7668ZM142.01 41.2251C140.853 40.0689 140.867 38.2107 142.01 37.0545C143.166 35.8982 145.024 35.8982 146.18 37.0545C147.337 38.2107 147.337 40.0689 146.18 41.2251C145.024 42.3814 143.152 42.3814 142.01 41.2251Z" fill="white"/>
<path d="M35.2925 19.8076C31.5761 21.2254 29.3049 25.1483 26.607 28.0802C22.6566 32.361 19.7798 37.0822 15.8293 41.363C14.2739 43.0561 12.7048 44.7491 11.521 46.7175C10.3373 48.6858 9.55267 50.957 9.69032 53.2419C9.88302 56.3114 11.8101 59.1332 14.3978 60.7849C16.9856 62.4367 20.179 63.001 23.2485 62.7395C26.3317 62.478 29.5389 61.2667 31.2595 58.6927C32.3469 57.0685 32.7185 55.1001 33.4205 53.2832C34.1088 51.4663 35.32 49.6356 37.192 49.1125C39.009 48.617 40.9498 49.5117 42.3538 50.7918C43.744 52.0719 44.7626 53.6961 46.0427 55.0726C47.4604 56.6005 49.2636 57.853 51.287 58.3623C53.3104 58.8716 55.5953 58.5963 57.2884 57.3575C57.3022 57.3438 57.3159 57.33 57.3434 57.3162C59.4907 55.7058 58.9677 52.3334 56.4625 51.3424C53.9023 50.3376 51.7963 47.9563 50.6538 45.3685C49.0984 41.8173 48.8644 37.853 48.1762 34.0402C47.4742 30.2274 46.1253 26.2495 43.0282 23.9232" fill="#060606"/>
<path d="M39.3668 56.435C45.7123 56.6002 44.914 51.1494 43.1383 47.8597L41.4591 40.4268L34.5079 35.8569L31.755 46.4282C31.7412 46.4282 30.53 56.201 39.3668 56.435Z" fill="#FFC1A4"/>
<path d="M42.4914 45.0378C42.4914 45.0378 38.7061 43.1934 37.192 41.0186L41.7481 41.7894L42.4914 45.0378Z" fill="#060606"/>
<path d="M34.5079 31.6723C33.7233 37.4397 35.9394 42.6565 41.2388 43.3722C46.5382 44.088 51.4659 39.9999 52.2505 34.2325C53.0351 28.4651 49.36 23.2071 44.0606 22.4913C38.7612 21.7755 35.2925 25.9049 34.5079 31.6723Z" fill="#FFC1A4"/>
<path d="M49.649 37.798C49.3737 37.798 49.1259 37.7292 48.8919 37.6741C48.713 37.619 48.6029 37.4401 48.6442 37.2612C48.6992 37.0822 48.8782 36.9721 49.0571 37.0134C49.2911 37.0822 49.5389 37.1373 49.7591 37.1097C49.9105 37.096 50.117 36.9996 50.2133 36.7932C50.3785 36.449 50.2133 35.9948 50.0206 35.5819L48.947 33.1868C48.8644 33.0217 48.947 32.8152 49.1122 32.7326C49.2773 32.65 49.4838 32.7326 49.5664 32.8978L50.64 35.2928C50.8878 35.8434 51.108 36.4903 50.819 37.0822C50.64 37.4539 50.2684 37.7154 49.8417 37.7704C49.7729 37.7842 49.7178 37.798 49.649 37.798Z" fill="#060606"/>
<path d="M46.6208 40.2889C45.4232 40.2889 44.2533 39.6833 43.565 38.706C43.4549 38.5546 43.4962 38.3343 43.6476 38.238C43.799 38.1279 44.0193 38.1692 44.1156 38.3206C44.68 39.1189 45.6848 39.642 46.6758 39.6145C46.8548 39.6007 47.0199 39.7659 47.0199 39.9448C47.0199 40.1375 46.8685 40.2889 46.6896 40.2889C46.6758 40.2889 46.6483 40.2889 46.6208 40.2889Z" fill="#060606"/>
<path d="M33.2691 35.4853C33.2691 35.4853 46.2629 33.9024 49.4563 26.8411C50.4474 24.6525 51.4522 23.4275 50.1032 21.4454C48.3276 18.8301 40.6056 16.903 36.3111 19.1054C30.819 21.8996 33.2691 35.4853 33.2691 35.4853Z" fill="#060606"/>
<path d="M45.6435 33.875C45.7949 34.4118 46.2078 34.7697 46.5795 34.6734C46.9511 34.577 47.1438 34.054 47.0062 33.5171C46.8548 32.9803 46.4418 32.6224 46.0702 32.7188C45.6986 32.8152 45.5058 33.3382 45.6435 33.875Z" fill="#060606"/>
<path d="M50.351 32.4571C50.5024 32.9939 50.9154 33.3518 51.287 33.2554C51.6587 33.1591 51.8514 32.636 51.7137 32.0992C51.5623 31.5624 51.1494 31.2045 50.7777 31.3008C50.3923 31.3972 50.2134 31.9202 50.351 32.4571Z" fill="#060606"/>
<path d="M38.5529 34.836C39.18 33.1632 38.3322 31.2987 36.6593 30.6717C34.9865 30.0446 33.122 30.8924 32.495 32.5653C31.8679 34.2381 32.7157 36.1026 34.3886 36.7296C36.0614 37.3567 37.9259 36.5089 38.5529 34.836Z" fill="#FFC1A4"/>
<path d="M47.6669 26.1665C47.6669 26.1665 48.6304 27.3365 51.7275 28.9744C51.7275 28.9744 52.6359 24.8175 51.0805 22.395C49.5114 19.9724 46.5382 21.1974 46.5382 21.1974L47.6669 26.1665Z" fill="#060606"/>
<path d="M43.5651 180.812C49.7316 184.061 55.788 186.869 60.2065 182.354L56.6552 161.9L40.9222 161.872L43.5651 180.812Z" fill="#FFC1A4"/>
<path d="M60.1652 182.01C60.1652 182.01 61.6105 184.625 63.9643 185.217C66.3318 185.795 68.3414 186.704 69.4426 188.672C70.53 190.654 70.764 195.499 70.764 195.499L44.3634 198.17L42.5465 180.289C42.5465 180.289 43.5789 179.147 46.9787 180.303C50.3648 181.473 54.797 183.62 60.1652 182.01Z" fill="#0045DF"/>
<path d="M60.9085 187.13C60.826 187.13 60.7571 187.102 60.6883 187.061C60.5094 186.937 60.4681 186.689 60.592 186.524L62.1336 184.308C62.2575 184.129 62.4915 184.088 62.6704 184.212C62.8494 184.336 62.8907 184.583 62.7668 184.749L61.2251 186.965C61.1563 187.061 61.0324 187.13 60.9085 187.13Z" fill="black"/>
<path d="M62.5189 187.832C62.4363 187.832 62.3675 187.805 62.2987 187.763C62.1197 187.639 62.0784 187.392 62.2023 187.226L63.744 185.01C63.8678 184.831 64.1018 184.79 64.2808 184.914C64.4597 185.038 64.501 185.286 64.3771 185.451L62.8355 187.667C62.7667 187.777 62.6428 187.832 62.5189 187.832Z" fill="black"/>
<path d="M64.1294 188.548C64.0468 188.548 63.978 188.52 63.9091 188.479C63.7302 188.355 63.6889 188.107 63.8128 187.942L65.3544 185.726C65.4783 185.547 65.7123 185.506 65.8912 185.63C66.0702 185.754 66.1115 186.001 65.9876 186.167L64.446 188.383C64.3771 188.493 64.2533 188.548 64.1294 188.548Z" fill="black"/>
<path d="M54.9209 185.079C51.3972 185.079 48.7682 184.033 46.8962 183.069C44.5975 181.899 42.9732 182.808 42.9595 182.822C42.7668 182.932 42.5328 182.863 42.4227 182.684C42.3125 182.491 42.3814 182.257 42.5603 182.147C42.6429 182.106 44.5562 181.019 47.2403 182.381C50.0207 183.799 54.508 185.423 61.2527 183.221C61.4591 183.152 61.6794 183.262 61.7482 183.469C61.817 183.675 61.7069 183.895 61.5004 183.964C59.0228 184.776 56.848 185.079 54.9209 185.079Z" fill="black"/>
<path d="M51.4797 195.279C51.3283 195.279 51.1907 195.196 51.1219 195.045C48.892 189.911 43.7853 190.392 43.5651 190.406C43.3586 190.434 43.1659 190.268 43.1384 190.062C43.1109 189.842 43.276 189.663 43.4825 189.635C43.5376 189.635 49.3738 189.071 51.8376 194.728C51.9202 194.921 51.8376 195.155 51.6312 195.237C51.5899 195.265 51.5348 195.279 51.4797 195.279Z" fill="black"/>
<path d="M44.3634 84.6523L60.8947 173.723L39.1191 176.834L27.4467 94.8932L44.3634 84.6523Z" fill="#141323"/>
<path d="M38.9539 105.272L34.9484 147.571L32.1129 127.97L38.9539 105.272Z" fill="#07070F"/>
<path d="M50.5575 167.226C50.3786 167.226 50.2409 167.103 50.2134 166.924L43.978 105.299C43.8954 104.501 43.4274 103.827 42.7117 103.469C42.1473 103.193 41.5142 103.166 40.9223 103.372C40.3304 103.593 39.8624 104.019 39.6146 104.597L38.8713 106.29C38.8025 106.469 38.5961 106.538 38.4171 106.469C38.2382 106.387 38.1693 106.194 38.2382 106.015L38.9815 104.322C39.3118 103.579 39.9175 103.014 40.6745 102.725C41.4453 102.45 42.2574 102.491 43.0007 102.849C43.923 103.304 44.5424 104.184 44.6525 105.217L50.9016 166.827C50.9154 167.02 50.7777 167.185 50.5988 167.199C50.585 167.226 50.5713 167.226 50.5575 167.226Z" fill="white"/>
<path d="M70.53 192.953C70.709 194.357 70.764 195.499 70.764 195.499L44.3635 198.169L44.1019 195.623L70.53 192.953Z" fill="#060606"/>
<path d="M6.01514 178.555C11.0805 183.331 16.1597 187.667 21.6242 184.501L25.0378 164.212L8.53406 159.587L6.01514 178.555Z" fill="#FFC1A4"/>
<path d="M21.6793 184.171C21.6793 184.171 22.3675 187.075 24.4873 188.273C26.607 189.47 28.3138 190.874 28.8369 193.076C29.3599 195.279 28.2725 200 28.2725 200L2.11975 195.499L5.16173 177.798C5.16173 177.798 6.45561 176.972 9.42877 178.995C12.3882 181.019 16.0771 184.281 21.6793 184.171Z" fill="#0045DF"/>
<path d="M28.7268 197.481C28.5203 198.885 28.2725 200 28.2725 200L2.11975 195.499L2.56022 192.98L28.7268 197.481Z" fill="#060606"/>
<path d="M21.3352 186.428C14.6456 186.428 10.8878 183.717 8.60289 181.638C6.71714 179.904 4.95527 180.317 4.87268 180.344C4.66621 180.399 4.45974 180.276 4.40468 180.069C4.34962 179.863 4.47351 179.656 4.67997 179.601C4.77633 179.574 6.90984 179.051 9.12595 181.074C11.4246 183.18 15.32 185.947 22.395 185.644C22.6153 185.63 22.7942 185.795 22.7942 186.015C22.808 186.236 22.6428 186.415 22.4226 186.415C22.0647 186.428 21.6931 186.428 21.3352 186.428Z" fill="black"/>
<path d="M21.1287 189.305C21.0186 189.305 20.9085 189.264 20.8259 189.167C20.6883 189.002 20.7158 188.754 20.881 188.617L22.9594 186.896C23.1246 186.759 23.3724 186.786 23.51 186.951C23.6477 187.116 23.6201 187.364 23.455 187.502L21.3765 189.222C21.3077 189.278 21.2251 189.305 21.1287 189.305Z" fill="black"/>
<path d="M22.4914 190.42C22.3813 190.42 22.2712 190.378 22.1886 190.282C22.0509 190.117 22.0785 189.869 22.2437 189.732L24.3221 188.011C24.4873 187.873 24.7351 187.901 24.8727 188.066C25.0103 188.231 24.9828 188.479 24.8176 188.617L22.7392 190.337C22.6704 190.392 22.574 190.42 22.4914 190.42Z" fill="black"/>
<path d="M23.8403 191.535C23.7302 191.535 23.6201 191.493 23.5375 191.397C23.3998 191.232 23.4274 190.984 23.5925 190.846L25.671 189.126C25.8362 188.988 26.0839 189.016 26.2216 189.181C26.3592 189.346 26.3317 189.594 26.1665 189.731L24.0881 191.452C24.0192 191.507 23.9366 191.535 23.8403 191.535Z" fill="black"/>
<path d="M9.85552 194.632C9.66281 194.632 9.49764 194.494 9.47011 194.301C8.69929 188.74 3.49626 187.818 3.4412 187.804C3.23473 187.763 3.08332 187.57 3.12461 187.35C3.16591 187.144 3.35861 186.992 3.57885 187.034C3.63391 187.047 9.40128 188.066 10.2547 194.191C10.2822 194.398 10.1308 194.604 9.92434 194.632C9.89681 194.632 9.88304 194.632 9.85552 194.632Z" fill="black"/>
<path d="M16.2423 64.2671L5.17554 94.9897L15.5954 98.8438L26.6071 67.7633L16.2423 64.2671Z" fill="#FFC1A4"/>
<path d="M15.5953 65.6711L24.4873 72.9939L26.607 67.7633L16.2423 64.2671L15.7467 65.616" fill="#F7B094"/>
<path d="M32.7599 45.4782C27.0063 45.1065 21.6243 48.3412 19.2292 53.5855L13.9574 65.1616L27.9285 69.5525L32.7599 45.4782Z" fill="#0045DF"/>
<path d="M15.6917 98.9264L16.7241 105.836C16.9581 106.511 16.6415 107.254 15.9945 107.571C15.2925 107.915 14.4391 107.612 14.1088 106.91L12.5258 103.689C12.5258 103.689 10.0344 112.072 8.43775 111.975C6.96494 111.893 7.10258 109.401 7.10258 109.401C7.10258 109.401 6.52447 111.59 5.32695 111.342C4.00554 111.081 4.7213 108.493 4.7213 108.493C4.7213 108.493 4.18448 110.791 2.9319 110.392C1.44532 109.911 2.34002 107.474 2.34002 107.474C2.34002 107.474 0.564387 109.181 0.0275666 106.951C-0.426666 105.038 5.51965 94.0537 5.51965 94.0537L15.6917 98.9264Z" fill="#FFC1A4"/>
<path d="M12.3745 104.033C11.8514 104.033 10.2134 103.937 9.26368 102.808C8.14874 101.473 8.49286 99.9037 8.50662 99.8349C8.54792 99.656 8.74062 99.5321 8.91956 99.5734C9.0985 99.6147 9.22238 99.7936 9.18109 99.9863C9.18109 100 8.9058 101.294 9.8005 102.368C10.6952 103.441 12.4984 103.345 12.5259 103.345C12.7048 103.331 12.87 103.483 12.8838 103.661C12.8975 103.854 12.7461 104.006 12.5672 104.019C12.5259 104.019 12.4708 104.033 12.3745 104.033Z" fill="#060606"/>
<path d="M7.10264 109.718C7.06135 109.718 7.03382 109.718 6.99253 109.704C6.81359 109.649 6.71724 109.456 6.77229 109.277L8.07993 105.341C8.13499 105.162 8.3277 105.065 8.50664 105.12C8.68558 105.175 8.78193 105.368 8.72687 105.547L7.41923 109.484C7.37794 109.635 7.24029 109.718 7.10264 109.718Z" fill="#060606"/>
<path d="M4.72135 108.823C4.68006 108.823 4.63877 108.809 4.59747 108.795C4.41853 108.727 4.33594 108.534 4.40477 108.355L5.91888 104.528C5.9877 104.349 6.1804 104.267 6.35934 104.336C6.53828 104.404 6.62087 104.597 6.55205 104.776L5.03794 108.603C4.98288 108.74 4.859 108.823 4.72135 108.823Z" fill="#060606"/>
<path d="M2.34001 107.805C2.29872 107.805 2.25742 107.805 2.21613 107.777C2.03719 107.708 1.9546 107.516 2.00966 107.337L3.34483 103.689C3.41365 103.51 3.60636 103.428 3.7853 103.483C3.96424 103.552 4.04683 103.744 3.99177 103.923L2.6566 107.571C2.60154 107.722 2.47766 107.805 2.34001 107.805Z" fill="#060606"/>
<path d="M42.6291 84.9827L24.8176 177.564L4.81763 173.861L19.1604 83.9229L42.6291 84.9827Z" fill="#141323"/>
<path d="M39.5182 46.3315C38.2106 46.1113 36.8479 45.8773 35.5265 45.6433C29.5526 44.611 23.8816 48.6715 22.9319 54.6729C20.936 67.4052 17.9215 86.772 18.0867 86.8271C18.3345 86.9234 46.1803 89.4836 46.1803 89.4836L48.3964 57.6598C48.7956 52.1677 44.9553 47.2675 39.5182 46.3315Z" fill="#0045DF"/>
<path d="M45.6023 66.8686L53.5445 72.3607C56.8618 74.6594 61.349 74.2327 64.1845 71.3421L75.6918 58.1418L75.7331 58.1969L79.3669 54.4942C79.3669 54.4942 78.9815 56.1322 80.2891 56.3249C81.8996 56.5589 83.7991 52.925 84.6801 51.5073C85.6987 49.8831 84.2396 48.2864 83.6477 48.3552C83.7991 46.4832 82.3814 45.9464 82.3814 45.9464C82.8631 43.3724 80.0276 43.7027 80.2891 44.0469L83.6615 38.2657C83.7441 38.0868 83.7854 37.8941 83.7854 37.7014C83.7854 37.1508 83.455 36.614 82.9044 36.38C82.2024 36.0771 81.3903 36.38 81.0462 37.0682C79.9313 39.3393 73.3931 46.7447 73.3931 46.7447C73.3793 46.7585 73.3793 46.7585 73.3655 46.7722C73.3518 46.786 73.338 46.7998 73.338 46.7998L58.8026 59.8211L52.2781 55.0173L45.6023 66.8686Z" fill="#FFC1A4"/>
<path d="M54.6731 56.793L50.4336 70.2135L47.6807 68.3002L54.6731 56.793Z" fill="#F7B094"/>
<path d="M40.6333 46.6758L42.8769 47.4328C44.7626 48.066 46.5108 49.0571 48.0249 50.3234L55.21 55.8981C55.21 55.8981 46.8549 69.7315 46.7585 69.7315C46.7035 69.7315 43.2485 66.607 40.179 63.8265C37.371 61.28 36.435 57.2745 37.8253 53.7508L40.6333 46.6758Z" fill="#0045DF"/>
<path d="M41.17 170.021C40.9911 170.021 40.8397 169.883 40.8259 169.704C40.8121 169.512 40.9498 169.36 41.1425 169.346L55.6091 168.369C55.8018 168.355 55.9532 168.493 55.967 168.686C55.9808 168.878 55.8431 169.03 55.6504 169.044L41.1838 170.021C41.1838 170.021 41.1838 170.021 41.17 170.021Z" fill="white"/>
<path d="M18.5686 98.4582C18.4034 98.4582 18.2657 98.3343 18.2382 98.1691C18.2107 97.9902 18.3346 97.8113 18.5135 97.7837C20.3993 97.4809 22.2024 96.4623 23.4412 95.017C24.6801 93.558 25.4096 91.6309 25.4096 89.7177C25.4096 89.5249 25.561 89.3735 25.7537 89.3735C25.9464 89.3735 26.0978 89.5249 26.0978 89.7177C26.084 91.7961 25.3132 93.8883 23.9643 95.4575C22.6154 97.0267 20.6745 98.1278 18.6236 98.4582C18.5961 98.4582 18.5823 98.4582 18.5686 98.4582Z" fill="white"/>
<path d="M45.9877 97.4124C45.9602 97.4124 45.9326 97.4124 45.9051 97.3986C44.8315 97.1509 43.8679 96.2699 43.3174 95.0586C42.8356 93.9988 42.6979 92.8563 42.5741 91.7551C42.5465 91.5624 42.6842 91.3972 42.8769 91.3697C43.0696 91.3422 43.2348 91.4798 43.2623 91.6725C43.3862 92.7324 43.5238 93.8198 43.9505 94.7833C44.4185 95.8019 45.2031 96.5315 46.0703 96.7379C46.2492 96.7792 46.3731 96.9582 46.318 97.1509C46.2768 97.3023 46.1391 97.4124 45.9877 97.4124Z" fill="white"/>
<path d="M16.8754 166.621C16.8617 166.621 16.8341 166.621 16.8204 166.621C16.6414 166.593 16.5176 166.414 16.5451 166.222L28.0248 100.482C28.0523 100.303 28.2313 100.179 28.424 100.206C28.6029 100.234 28.7268 100.413 28.6993 100.606L17.2058 166.332C17.1783 166.497 17.0269 166.621 16.8754 166.621Z" fill="white"/>
<path d="M22.6154 171.356C22.6016 171.356 22.5878 171.356 22.5878 171.356L8.27264 170.021C8.07993 170.007 7.94229 169.842 7.96982 169.649C7.98358 169.456 8.14876 169.319 8.34146 169.346L22.6567 170.681C22.8494 170.695 22.987 170.86 22.9595 171.053C22.932 171.218 22.7806 171.356 22.6154 171.356Z" fill="white"/>
<path d="M20.9636 67.6946C20.9498 67.6946 20.936 67.6946 20.9223 67.6946C20.7296 67.6671 20.6057 67.5019 20.6194 67.323L21.5554 59.0504C21.583 58.8577 21.7481 58.7339 21.9271 58.7476C22.1198 58.7752 22.2437 58.9403 22.2299 59.1193L21.2939 67.3918C21.2802 67.5708 21.1287 67.6946 20.9636 67.6946Z" fill="white"/>
<path d="M46.7585 70.0758C46.6759 70.0758 46.5933 70.0483 46.5245 69.9932L38.5272 62.8081C38.3896 62.6842 38.3758 62.464 38.4997 62.3263C38.6236 62.1887 38.8438 62.1749 38.9815 62.2988L46.9787 69.4839C47.1164 69.6078 47.1301 69.828 47.0063 69.9657C46.9512 70.0345 46.8548 70.0758 46.7585 70.0758Z" fill="white"/>
<path d="M80.4405 56.6828C80.3717 56.6828 80.3028 56.6828 80.234 56.669C79.8073 56.6002 79.4632 56.4075 79.243 56.0771C78.7887 55.4164 79.009 54.4666 79.0227 54.4254C79.064 54.2464 79.243 54.1225 79.4357 54.1776C79.6146 54.2189 79.7385 54.3978 79.6834 54.5905C79.6421 54.7832 79.5733 55.3613 79.8073 55.7055C79.9174 55.8706 80.0826 55.967 80.3304 55.9945C81.5279 56.1735 83.1246 53.4481 83.9918 51.989C84.1432 51.7413 84.267 51.521 84.3909 51.3283C84.914 50.4887 84.6387 49.7454 84.4185 49.3737C84.1432 48.892 83.7853 48.6993 83.6752 48.6855C83.5788 48.6855 83.4687 48.658 83.3999 48.5754C83.3311 48.5066 83.2898 48.4102 83.2898 48.3139C83.4274 46.7172 82.2436 46.2492 82.2436 46.2492C82.0922 46.1941 81.9959 46.0289 82.0234 45.8638C82.1473 45.1755 82.0372 44.68 81.6655 44.3909C81.2664 44.0744 80.6607 44.1019 80.4955 44.1845C80.3579 44.2533 80.2065 44.212 80.0964 44.1019C80 43.9918 79.9725 43.8266 80.0551 43.7027L83.3173 38.1005C83.3723 37.9629 83.3999 37.8252 83.3999 37.6876C83.3999 37.2471 83.1383 36.8479 82.7254 36.669C82.1886 36.4487 81.5692 36.669 81.3076 37.192C80.9222 37.9766 79.9037 39.4081 78.2657 41.4315C76.1184 44.1019 73.627 46.9236 73.5995 46.9512C73.4756 47.0888 73.2553 47.1026 73.1177 46.9787C72.9801 46.8548 72.9663 46.6346 73.0902 46.4969C73.1177 46.4694 75.5953 43.6614 77.7288 40.9911C79.3118 39.0365 80.3304 37.605 80.6882 36.8755C81.1012 36.0358 82.106 35.6504 82.9732 36.022C83.6339 36.3111 84.0606 36.9443 84.0606 37.66C84.0606 37.894 84.0055 38.128 83.9092 38.362C83.9092 38.3758 83.8954 38.3896 83.8954 38.4033L80.9635 43.4412C81.3214 43.4687 81.7206 43.5788 82.0509 43.8404C82.4226 44.1294 82.8218 44.68 82.7116 45.7123C83.2485 46.0289 83.9505 46.7722 83.9642 48.0386C84.2946 48.1624 84.6525 48.479 84.9277 48.9057C85.1893 49.3187 85.7123 50.4198 84.9415 51.6449C84.8314 51.8238 84.6937 52.0441 84.5561 52.2918C83.5513 54.0812 82.0096 56.6828 80.4405 56.6828Z" fill="#060606"/>
<path d="M79.3393 54.8935C79.2843 54.8935 79.243 54.8798 79.1879 54.866C79.0228 54.7834 78.9402 54.5769 79.0228 54.4118C79.2155 54.0126 79.4495 53.6272 79.7385 53.2831C79.8624 53.1317 80.0689 53.1179 80.2203 53.228C80.3717 53.3519 80.3855 53.5584 80.2753 53.7098C80.0276 54.0126 79.8211 54.3429 79.6422 54.7008C79.5871 54.8247 79.4632 54.8935 79.3393 54.8935Z" fill="#060F11"/>
<path d="M81.1976 51.7827C81.1288 51.7827 81.0462 51.7551 80.9911 51.7138C80.8397 51.6037 80.8122 51.3835 80.936 51.2321L83.3861 48.1488C83.51 47.9974 83.7165 47.9836 83.8679 48.0937C84.0193 48.2038 84.0469 48.4241 83.923 48.5755L81.4729 51.6588C81.3903 51.7414 81.2939 51.7827 81.1976 51.7827Z" fill="#060606"/>
<path d="M79.3393 49.9655C79.2567 49.9655 79.1879 49.938 79.1191 49.8829C78.9676 49.759 78.9539 49.5526 79.0778 49.4011L82.106 45.726C82.2299 45.5746 82.4363 45.5608 82.5877 45.6847C82.7392 45.8086 82.7529 46.015 82.629 46.1665L79.6008 49.8416C79.532 49.9242 79.4356 49.9655 79.3393 49.9655Z" fill="#060606"/>
<path d="M77.2333 47.9284C77.1507 47.9284 77.0819 47.9008 77.0131 47.8458C76.8755 47.7219 76.8479 47.5154 76.9718 47.364L80.0964 43.6751C80.2203 43.5374 80.4267 43.5099 80.5781 43.6338C80.7158 43.7577 80.7433 43.9642 80.6194 44.1156L77.4949 47.8045C77.426 47.8871 77.3297 47.9284 77.2333 47.9284Z" fill="#060606"/>
<path d="M201.349 129.195L200.675 124.763C200.372 122.781 198.871 121.198 196.903 120.799L195.031 120.413C194.054 118.17 192.787 116.036 191.218 114.082L191.755 112.251C192.319 110.324 191.617 108.259 190.007 107.062L186.401 104.391C184.79 103.208 182.615 103.139 180.936 104.254L179.339 105.314C176.999 104.391 174.591 103.813 172.154 103.538L171.218 101.845C170.255 100.097 168.3 99.1195 166.318 99.4223L161.886 100.083C159.904 100.386 158.321 101.886 157.922 103.854L157.536 105.726C155.293 106.704 153.145 107.984 151.191 109.553L149.36 109.016C147.433 108.452 145.368 109.154 144.185 110.764L141.528 114.371C140.33 115.981 140.275 118.156 141.39 119.835L142.436 121.432C141.514 123.772 140.936 126.181 140.661 128.617L138.982 129.539C137.22 130.503 136.256 132.457 136.559 134.439L137.233 138.872C137.536 140.854 139.023 142.437 140.991 142.836L142.877 143.221C143.854 145.465 145.134 147.612 146.69 149.567L146.153 151.411C145.602 153.338 146.291 155.389 147.901 156.587L151.507 159.257C153.118 160.455 155.293 160.51 156.972 159.409L158.569 158.349C160.895 159.257 163.317 159.849 165.74 160.124L166.662 161.804C167.626 163.565 169.58 164.529 171.562 164.226L176.008 163.565C177.99 163.276 179.573 161.776 179.973 159.808L180.358 157.922C182.602 156.945 184.749 155.665 186.703 154.109L188.534 154.632C190.461 155.197 192.526 154.495 193.723 152.898L196.38 149.292C197.564 147.681 197.619 145.492 196.531 143.813L195.472 142.23C196.394 139.89 196.986 137.468 197.247 135.031L198.926 134.109C200.688 133.146 201.652 131.191 201.349 129.195Z" fill="white"/>
<path d="M170.86 164.598C169.016 164.598 167.268 163.593 166.359 161.941L165.52 160.413C163.138 160.124 160.812 159.56 158.596 158.707L157.137 159.67C155.348 160.84 152.994 160.771 151.287 159.505L147.681 156.835C145.974 155.568 145.217 153.338 145.809 151.287L146.304 149.622C144.831 147.75 143.593 145.699 142.629 143.497L140.922 143.152C138.844 142.712 137.22 141.005 136.903 138.899L136.229 134.467C135.912 132.347 136.958 130.241 138.83 129.223L140.358 128.383C140.647 126.002 141.211 123.662 142.078 121.446L141.129 120C139.959 118.225 140.014 115.871 141.28 114.15L143.937 110.544C145.203 108.824 147.433 108.066 149.484 108.672L151.136 109.154C153.008 107.681 155.072 106.442 157.261 105.465L157.619 103.758C158.045 101.666 159.752 100.042 161.858 99.7251L166.29 99.0644C168.396 98.7478 170.502 99.7801 171.535 101.652L172.374 103.18C174.756 103.469 177.082 104.033 179.298 104.901L180.743 103.937C182.533 102.753 184.886 102.822 186.593 104.088L190.2 106.759C191.92 108.025 192.677 110.269 192.072 112.32L191.59 113.985C193.063 115.857 194.301 117.908 195.265 120.097L196.972 120.455C199.064 120.881 200.688 122.588 201.005 124.694L201.679 129.126C201.996 131.246 200.95 133.352 199.078 134.384L197.55 135.224C197.261 137.605 196.697 139.945 195.829 142.161L196.793 143.607C197.963 145.396 197.894 147.75 196.641 149.47L193.971 153.077C192.705 154.797 190.475 155.541 188.424 154.949L186.758 154.467C184.886 155.94 182.836 157.179 180.633 158.156L180.289 159.863C179.862 161.955 178.156 163.579 176.036 163.882L171.59 164.543C171.356 164.584 171.108 164.598 170.86 164.598ZM158.555 157.991C158.596 157.991 158.637 158.005 158.679 158.018C160.95 158.913 163.331 159.505 165.767 159.78C165.878 159.794 165.974 159.863 166.029 159.959L166.951 161.638C167.846 163.263 169.663 164.157 171.493 163.896L175.939 163.235C177.77 162.96 179.257 161.556 179.628 159.753L180.014 157.867C180.041 157.757 180.11 157.66 180.206 157.619C182.464 156.642 184.57 155.362 186.469 153.848C186.552 153.779 186.676 153.751 186.772 153.793L188.603 154.316C190.379 154.839 192.319 154.192 193.421 152.705L196.077 149.099C197.165 147.598 197.22 145.561 196.215 144.02L195.155 142.437C195.1 142.34 195.086 142.23 195.127 142.12C196.022 139.849 196.614 137.454 196.889 135.004C196.903 134.894 196.972 134.797 197.068 134.742L198.747 133.82C200.372 132.939 201.28 131.108 201.005 129.264L200.33 124.832C200.055 123.001 198.637 121.514 196.834 121.157L194.962 120.771C194.852 120.744 194.769 120.675 194.714 120.578C193.737 118.321 192.471 116.215 190.943 114.316C190.874 114.233 190.847 114.109 190.888 114.013L191.425 112.182C191.948 110.406 191.287 108.466 189.8 107.364L186.194 104.694C184.708 103.593 182.67 103.538 181.115 104.556L179.518 105.616C179.422 105.671 179.312 105.685 179.202 105.644C176.931 104.749 174.549 104.157 172.099 103.882C171.989 103.868 171.893 103.799 171.838 103.703L170.902 102.01C170.007 100.386 168.176 99.4911 166.359 99.7664L161.927 100.427C160.096 100.702 158.624 102.106 158.252 103.923L157.867 105.795C157.839 105.905 157.77 105.988 157.674 106.043C155.416 107.02 153.31 108.3 151.397 109.815C151.315 109.883 151.191 109.911 151.094 109.87L149.264 109.333C147.488 108.81 145.547 109.47 144.46 110.957L141.789 114.563C140.688 116.05 140.633 118.087 141.652 119.643L142.698 121.239C142.753 121.336 142.767 121.446 142.725 121.556C141.831 123.827 141.239 126.222 140.964 128.658C140.95 128.768 140.881 128.865 140.785 128.92L139.105 129.842C137.481 130.723 136.586 132.554 136.848 134.384L137.522 138.817C137.798 140.647 139.202 142.134 141.005 142.506L142.891 142.891C143.001 142.918 143.097 142.987 143.138 143.084C144.116 145.341 145.382 147.447 146.91 149.347C146.979 149.429 147.006 149.553 146.965 149.649L146.428 151.494C145.919 153.269 146.566 155.197 148.052 156.298L151.659 158.968C153.145 160.069 155.182 160.124 156.724 159.106L158.321 158.046C158.431 158.005 158.486 157.991 158.555 157.991Z" fill="black"/>
<path d="M184.42 147.288C192.967 138.741 192.967 124.884 184.42 116.337C175.873 107.79 162.016 107.79 153.469 116.337C144.922 124.884 144.922 138.741 153.469 147.288C162.016 155.835 175.873 155.835 184.42 147.288Z" fill="#E7EBFB"/>
<path d="M182.279 145.147C189.643 137.783 189.643 125.843 182.279 118.479C174.914 111.115 162.975 111.115 155.61 118.479C148.246 125.843 148.246 137.783 155.61 145.147C162.975 152.511 174.914 152.511 182.279 145.147Z" fill="white"/>
<path d="M168.906 151.012C164.831 151.012 160.881 149.718 157.55 147.254C149.03 140.964 147.226 128.92 153.503 120.413C159.794 111.893 171.838 110.09 180.344 116.366C184.473 119.408 187.158 123.882 187.928 128.947C188.685 134.013 187.433 139.078 184.391 143.207C181.349 147.337 176.875 150.021 171.81 150.792C170.833 150.943 169.869 151.012 168.906 151.012ZM168.975 113.311C163.29 113.311 157.688 115.912 154.054 120.826C147.983 129.044 149.745 140.661 157.949 146.717C161.927 149.649 166.813 150.861 171.7 150.131C176.586 149.402 180.895 146.8 183.84 142.822C186.772 138.844 187.983 133.958 187.254 129.071C186.524 124.185 183.923 119.876 179.945 116.931C176.641 114.481 172.787 113.311 168.975 113.311Z" fill="black"/>
<path d="M148.355 91.5075H104.088C102.161 91.5075 101.115 89.2639 102.34 87.7773L112.361 75.747C113.228 74.7147 114.783 74.6459 115.733 75.6094L120.413 80.3857C121.321 81.3079 122.822 81.2942 123.703 80.3444L132.581 70.7505C133.517 69.7457 135.114 69.787 135.995 70.8331L150.103 87.7773C151.328 89.2639 150.282 91.5075 148.355 91.5075Z" fill="#00C09A"/>
<path d="M148.355 91.8514H104.088C103.07 91.8514 102.161 91.2733 101.721 90.3511C101.28 89.4289 101.418 88.3552 102.079 87.5706L112.099 75.5404C112.567 74.976 113.269 74.6319 113.999 74.6044C114.742 74.5768 115.458 74.8659 115.967 75.3889L120.647 80.1653C121.019 80.5507 121.514 80.7571 122.051 80.7434C122.588 80.7296 123.083 80.5094 123.441 80.124L132.319 70.53C132.829 69.9795 133.544 69.6766 134.302 69.6904C135.059 69.7042 135.761 70.0483 136.242 70.6264L150.351 87.5706C151.012 88.3552 151.149 89.4289 150.709 90.3511C150.282 91.2733 149.374 91.8514 148.355 91.8514ZM114.109 75.2651C114.081 75.2651 114.054 75.2651 114.026 75.2651C113.476 75.2926 112.966 75.5404 112.622 75.9533L102.602 87.9836C102.12 88.5617 102.01 89.36 102.34 90.0345C102.657 90.7227 103.331 91.1494 104.088 91.1494H148.355C149.112 91.1494 149.787 90.7227 150.103 90.0345C150.42 89.3463 150.324 88.5617 149.842 87.9836L135.733 71.0531C135.375 70.6264 134.852 70.3786 134.302 70.3649C133.751 70.3511 133.214 70.5713 132.829 70.9843L123.951 80.5782C123.455 81.115 122.794 81.4041 122.065 81.4179C121.335 81.4316 120.661 81.1563 120.165 80.6333L115.485 75.8569C115.127 75.4853 114.618 75.2651 114.109 75.2651Z" fill="black"/>
<path d="M121.129 74.1912C123.341 74.1912 125.134 72.3979 125.134 70.1857C125.134 67.9735 123.341 66.1802 121.129 66.1802C118.916 66.1802 117.123 67.9735 117.123 70.1857C117.123 72.3979 118.916 74.1912 121.129 74.1912Z" fill="#FFD400"/>
<path d="M121.129 74.5355C118.734 74.5355 116.793 72.5947 116.793 70.1996C116.793 67.8046 118.734 65.8638 121.129 65.8638C123.524 65.8638 125.465 67.8046 125.465 70.1996C125.465 72.5809 123.524 74.5355 121.129 74.5355ZM121.129 66.5245C119.105 66.5245 117.467 68.1625 117.467 70.1859C117.467 72.2093 119.105 73.8473 121.129 73.8473C123.152 73.8473 124.79 72.2093 124.79 70.1859C124.79 68.1762 123.152 66.5245 121.129 66.5245Z" fill="#060F11"/>
<path d="M183.345 131.879C183.345 135.788 181.762 139.326 179.202 141.9L174.618 137.316C175.939 135.953 176.765 134.081 176.765 132.03C176.765 131.975 176.765 131.92 176.765 131.879H183.345Z" fill="#F93121"/>
<path d="M183.345 131.879H176.765C176.724 129.814 175.857 127.942 174.467 126.593L179.202 121.858C181.762 124.432 183.345 127.97 183.345 131.879Z" fill="#0045DF"/>
<path d="M179.202 121.872L174.467 126.607C173.104 125.286 171.232 124.46 169.181 124.46V117.729C173.104 117.715 176.641 119.298 179.202 121.872Z" fill="#FFBC00"/>
<path d="M163.744 137.316L159.16 141.9C157.88 140.619 156.834 139.092 156.118 137.399C155.403 135.705 155.003 133.833 155.003 131.879H161.583C161.583 131.934 161.583 131.989 161.583 132.03C161.61 134.095 162.423 135.953 163.744 137.316Z" fill="#0081FF"/>
<path d="M169.195 117.715V124.446C167.144 124.446 165.286 125.258 163.909 126.594L159.174 121.858C161.734 119.298 165.272 117.715 169.195 117.715Z" fill="#FFD400"/>
<path d="M163.909 126.593C162.533 127.942 161.652 129.801 161.61 131.879H155.031C155.031 127.97 156.614 124.432 159.174 121.858L163.909 126.593Z" fill="#4A4DDC"/>
<path d="M172.856 131.356C173.035 132.444 172.705 133.6 171.879 134.426C170.502 135.802 168.273 135.802 166.896 134.426C165.52 133.049 165.52 130.819 166.896 129.443C167.736 128.603 168.878 128.273 169.966 128.466L176.958 124.364L172.856 131.356Z" fill="#141323"/>
<path d="M169.374 135.816C168.341 135.816 167.364 135.417 166.635 134.687C165.905 133.957 165.506 132.98 165.506 131.948C165.506 130.915 165.905 129.938 166.635 129.209C167.488 128.355 168.685 127.956 169.883 128.108L176.779 124.061C176.917 123.978 177.082 124.006 177.192 124.116C177.302 124.226 177.33 124.391 177.247 124.529L173.2 131.425C173.365 132.609 172.953 133.82 172.099 134.673C171.383 135.403 170.406 135.816 169.374 135.816ZM169.374 128.768C168.534 128.768 167.722 129.099 167.13 129.704C166.524 130.31 166.194 131.108 166.194 131.962C166.194 132.815 166.524 133.613 167.13 134.219C167.736 134.825 168.534 135.155 169.387 135.155C170.241 135.155 171.039 134.825 171.645 134.219C172.374 133.489 172.705 132.457 172.54 131.439C172.526 131.356 172.54 131.273 172.581 131.205L176.022 125.341L170.145 128.782C170.076 128.823 169.993 128.837 169.911 128.823C169.732 128.782 169.553 128.768 169.374 128.768Z" fill="#060F11"/>
<path d="M169.264 133.627C170.191 133.627 170.943 132.875 170.943 131.948C170.943 131.02 170.191 130.269 169.264 130.269C168.336 130.269 167.584 131.02 167.584 131.948C167.584 132.875 168.336 133.627 169.264 133.627Z" fill="white"/>
<path d="M169.264 133.957C168.149 133.957 167.24 133.049 167.24 131.934C167.24 130.819 168.149 129.911 169.264 129.911C170.379 129.911 171.287 130.819 171.287 131.934C171.273 133.049 170.365 133.957 169.264 133.957ZM169.264 130.599C168.52 130.599 167.928 131.205 167.928 131.934C167.928 132.677 168.534 133.269 169.264 133.269C169.993 133.269 170.599 132.664 170.599 131.934C170.599 131.205 169.993 130.599 169.264 130.599Z" fill="#060F11"/>
<path d="M128.878 110.502H90.9842C90.6677 110.502 90.4061 110.241 90.4061 109.924C90.4061 109.608 90.6677 109.346 90.9842 109.346H128.878C129.195 109.346 129.456 109.608 129.456 109.924C129.456 110.241 129.195 110.502 128.878 110.502Z" fill="#FFD400"/>
<path d="M128.878 118.266H114.77C114.453 118.266 114.191 118.004 114.191 117.687C114.191 117.371 114.453 117.109 114.77 117.109H128.878C129.195 117.109 129.456 117.371 129.456 117.687C129.456 118.004 129.195 118.266 128.878 118.266Z" fill="#B7BEF8"/>
<path d="M109.236 118.266H101.377C101.06 118.266 100.798 118.004 100.798 117.687C100.798 117.371 101.06 117.109 101.377 117.109H109.236C109.553 117.109 109.814 117.371 109.814 117.687C109.814 118.004 109.553 118.266 109.236 118.266Z" fill="#0045DF"/>
<path d="M97.3573 118.266H90.9842C90.6677 118.266 90.4061 118.004 90.4061 117.687C90.4061 117.371 90.6677 117.109 90.9842 117.109H97.371C97.6876 117.109 97.9491 117.371 97.9491 117.687C97.9491 118.004 97.6876 118.266 97.3573 118.266Z" fill="#B7BEF8"/>
<path d="M128.878 126.015H123.304C122.987 126.015 122.725 125.754 122.725 125.437C122.725 125.12 122.987 124.859 123.304 124.859H128.878C129.195 124.859 129.456 125.12 129.456 125.437C129.456 125.754 129.195 126.015 128.878 126.015Z" fill="#00C09A"/>
<path d="M115.705 126.015H100.151C99.8349 126.015 99.5734 125.754 99.5734 125.437C99.5734 125.12 99.8349 124.859 100.151 124.859H115.719C116.036 124.859 116.297 125.12 116.297 125.437C116.297 125.754 116.036 126.015 115.705 126.015Z" fill="#B7BEF8"/>
<path d="M104.377 121.899H99.9725C99.6559 121.899 99.3944 121.638 99.3944 121.321C99.3944 121.005 99.6559 120.743 99.9725 120.743H104.377C104.694 120.743 104.955 121.005 104.955 121.321C104.955 121.638 104.708 121.899 104.377 121.899Z" fill="#FF73ED"/>
<path d="M128.878 133.778H112.402C112.085 133.778 111.824 133.517 111.824 133.2C111.824 132.884 112.085 132.622 112.402 132.622H128.878C129.195 132.622 129.456 132.884 129.456 133.2C129.456 133.517 129.195 133.778 128.878 133.778Z" fill="#B7BEF8"/>
<path d="M107.405 133.778H101.184C100.867 133.778 100.606 133.517 100.606 133.2C100.606 132.884 100.867 132.622 101.184 132.622H107.405C107.722 132.622 107.984 132.884 107.984 133.2C107.984 133.517 107.722 133.778 107.405 133.778Z" fill="#0045DF"/>
<path d="M128.878 141.528H126.291C125.974 141.528 125.712 141.266 125.712 140.95C125.712 140.633 125.974 140.372 126.291 140.372H128.878C129.195 140.372 129.456 140.633 129.456 140.95C129.456 141.28 129.195 141.528 128.878 141.528Z" fill="#B7BEF8"/>
<path d="M122.946 141.528H113.833C113.517 141.528 113.255 141.266 113.255 140.95C113.255 140.633 113.517 140.372 113.833 140.372H122.946C123.262 140.372 123.524 140.633 123.524 140.95C123.524 141.28 123.262 141.528 122.946 141.528Z" fill="#B7BEF8"/>
<path d="M110.75 141.528H108.383C108.066 141.528 107.805 141.266 107.805 140.95C107.805 140.633 108.066 140.372 108.383 140.372H110.75C111.067 140.372 111.328 140.633 111.328 140.95C111.342 141.28 111.081 141.528 110.75 141.528Z" fill="#FFD400"/>
<path d="M106.249 141.528H102.546C102.23 141.528 101.968 141.266 101.968 140.95C101.968 140.633 102.23 140.372 102.546 140.372H106.249C106.566 140.372 106.827 140.633 106.827 140.95C106.827 141.28 106.566 141.528 106.249 141.528Z" fill="#B7BEF8"/>
<path d="M99.6009 141.528H90.9842C90.6677 141.528 90.4061 141.266 90.4061 140.95C90.4061 140.633 90.6677 140.372 90.9842 140.372H99.6009C99.9175 140.372 100.179 140.633 100.179 140.95C100.179 141.28 99.9175 141.528 99.6009 141.528Z" fill="#4A4DDC"/>
<path d="M128.878 149.291H122.175C121.858 149.291 121.597 149.029 121.597 148.713C121.597 148.396 121.858 148.135 122.175 148.135H128.878C129.195 148.135 129.456 148.396 129.456 148.713C129.456 149.029 129.195 149.291 128.878 149.291Z" fill="#B7BEF8"/>
<path d="M112.801 149.291H104.061C103.744 149.291 103.483 149.029 103.483 148.713C103.483 148.396 103.744 148.135 104.061 148.135H112.815C113.132 148.135 113.393 148.396 113.393 148.713C113.393 149.029 113.132 149.291 112.801 149.291Z" fill="#00C09A"/>
<path d="M100.083 149.291H90.9842C90.6677 149.291 90.4061 149.029 90.4061 148.713C90.4061 148.396 90.6677 148.135 90.9842 148.135H100.096C100.413 148.135 100.675 148.396 100.675 148.713C100.675 149.029 100.413 149.291 100.083 149.291Z" fill="#B7BEF8"/>
<path d="M128.878 157.054H90.9842C90.6677 157.054 90.4061 156.793 90.4061 156.476C90.4061 156.159 90.6677 155.898 90.9842 155.898H128.878C129.195 155.898 129.456 156.159 129.456 156.476C129.456 156.793 129.195 157.054 128.878 157.054Z" fill="#B7BEF8"/>
<path d="M71.2732 8.57549C71.8514 11.3009 71.287 14.0263 69.9105 16.2149C68.4653 18.5273 66.1253 20.2617 63.2485 20.8673C60.3304 21.4867 57.4536 20.8122 55.1824 19.2293C53.0764 17.7703 51.5072 15.5404 50.9429 12.8563C49.7591 7.25408 53.3517 1.73447 58.9539 0.564473C64.5974 -0.619285 70.1032 2.97328 71.2732 8.57549Z" fill="#FF73ED"/>
<path d="M61.1425 21.4453C58.9677 21.4453 56.8204 20.7846 55.0172 19.5321C52.7598 17.9767 51.2044 15.6367 50.6401 12.9388C50.0482 10.1308 50.585 7.26778 52.1542 4.87274C53.7096 2.47769 56.1046 0.825939 58.9126 0.23406C61.7206 -0.357819 64.5836 0.179001 66.9787 1.74817C69.3737 3.30357 71.0255 5.71238 71.6174 8.5066C72.1955 11.232 71.6999 14.04 70.2134 16.4075C68.658 18.8989 66.2216 20.6057 63.3448 21.2113C62.6015 21.3628 61.872 21.4453 61.1425 21.4453ZM61.1425 0.674528C60.4405 0.674528 59.7522 0.743351 59.0503 0.894762C56.4212 1.44535 54.1776 2.98698 52.7048 5.23062C51.2457 7.47425 50.7364 10.1584 51.287 12.7874C51.8238 15.3063 53.2691 17.4949 55.3889 18.9539C57.6876 20.5506 60.4542 21.115 63.1934 20.5369C65.8913 19.9725 68.1762 18.3758 69.6352 16.0358C71.0255 13.8197 71.4935 11.2045 70.9429 8.64425C70.3923 6.0152 68.8507 3.77157 66.607 2.31252C64.9553 1.23888 63.0695 0.674528 61.1425 0.674528Z" fill="#060F11"/>
<path d="M63.6476 7.61184C64.0055 9.33242 62.9181 11.0117 61.1975 11.3696C59.477 11.7275 57.7977 10.6401 57.4398 8.91948C57.0819 7.19891 58.1693 5.51962 59.8899 5.16174C61.5967 4.80386 63.2898 5.90503 63.6476 7.61184Z" fill="white"/>
<path d="M60.5369 11.7828C59.8624 11.7828 59.2017 11.5901 58.6236 11.2046C57.839 10.6954 57.3022 9.89701 57.0957 8.98855C56.903 8.06632 57.0819 7.13032 57.5912 6.34574C58.1005 5.56115 58.8989 5.02433 59.8073 4.81786C60.7296 4.62516 61.6656 4.8041 62.4501 5.31339C63.2347 5.82268 63.7715 6.62103 63.978 7.5295C64.1707 8.45172 63.9918 9.38772 63.4825 10.1723C62.9732 10.9569 62.1748 11.4937 61.2664 11.7002C61.0186 11.769 60.7709 11.7828 60.5369 11.7828ZM60.5506 5.43727C60.3579 5.43727 60.1514 5.45104 59.9587 5.5061C59.2155 5.65751 58.5823 6.09797 58.1693 6.73115C57.7564 7.36432 57.6188 8.12137 57.7702 8.86466C57.9216 9.60795 58.362 10.2411 58.9952 10.6541C59.6284 11.067 60.3854 11.2046 61.1287 11.0532C61.872 10.9018 62.5052 10.4614 62.9181 9.82819C63.3311 9.19501 63.4687 8.43796 63.3173 7.69467C63.1659 6.95138 62.7254 6.31821 62.0923 5.90527C61.6243 5.58868 61.0874 5.43727 60.5506 5.43727Z" fill="#060F11"/>
<path d="M69.9244 16.2287C68.4792 18.5412 66.1392 20.2755 63.2624 20.8812C60.3443 21.5006 57.4675 20.8261 55.1963 19.2432C56.091 16.3801 58.4723 14.0677 61.6244 13.407C64.804 12.7325 67.9423 13.9163 69.9244 16.2287Z" fill="white"/>
<path d="M61.1426 21.4455C58.9677 21.4455 56.8205 20.7848 55.0173 19.5322C54.8934 19.4496 54.8384 19.2982 54.8934 19.1468C55.8569 16.0635 58.4172 13.7373 61.5693 13.0766C64.7626 12.4021 68.0662 13.5308 70.1997 16.0084C70.296 16.1186 70.3098 16.2837 70.2272 16.4076C68.6718 18.899 66.2355 20.6058 63.3587 21.2115C62.6016 21.3629 61.8721 21.4455 61.1426 21.4455ZM55.6092 19.1055C57.8528 20.5921 60.5507 21.1013 63.1935 20.5508C65.8088 20.0002 68.0386 18.4861 69.4977 16.2562C67.5293 14.0952 64.5699 13.1316 61.6931 13.7373C58.8576 14.3292 56.5452 16.3801 55.6092 19.1055Z" fill="#060F11"/>
<path d="M211.796 74.9758L205.41 84.1017C203.717 86.5243 200.385 87.1162 197.963 85.4231L187.02 77.77C184.597 76.077 184.006 72.7459 185.699 70.3233L192.085 61.1974C193.778 58.7748 197.109 58.1829 199.532 59.876L210.461 67.5291C212.898 69.2084 213.489 72.5532 211.796 74.9758Z" fill="#FFD400"/>
<path d="M198.527 80.6605L200.95 82.3535C201.143 82.4912 201.418 82.4361 201.555 82.2434L206.18 75.6364C206.318 75.4437 206.263 75.1684 206.07 75.0307L203.648 73.3377C203.455 73.2 203.18 73.2551 203.042 73.4478L198.417 80.0548C198.279 80.2613 198.321 80.5228 198.527 80.6605Z" fill="white"/>
<path d="M193.696 77.288L196.118 78.9811C196.311 79.1187 196.586 79.0637 196.724 78.871L204.198 68.1896C204.336 67.9969 204.281 67.7216 204.088 67.584L201.666 65.8909C201.473 65.7533 201.198 65.8083 201.06 66.001L193.586 76.6824C193.448 76.8888 193.503 77.1504 193.696 77.288Z" fill="white"/>
<path d="M188.864 73.9161L191.287 75.6092C191.48 75.7468 191.755 75.6918 191.893 75.4991L194.77 71.3835C194.907 71.1907 194.852 70.9155 194.659 70.7778L192.237 69.0848C192.044 68.9471 191.769 69.0022 191.631 69.1949L188.754 73.3105C188.631 73.5032 188.672 73.7785 188.864 73.9161Z" fill="white"/>
</g>
<defs>
<clipPath id="clip0_39_17351">
<rect width="212.76" height="200" fill="white"/>
</clipPath>
</defs>
</svg>
