<svg width="337" height="250" viewBox="0 0 337 250" fill="none" xmlns="http://www.w3.org/2000/svg">
<g clip-path="url(#clip0_34_8842)">
<path d="M335.462 250H37.502C37.1659 250 36.8892 249.723 36.8892 249.387C36.8892 249.051 37.1659 248.774 37.502 248.774H335.462C335.798 248.774 336.075 249.051 336.075 249.387C336.075 249.723 335.798 250 335.462 250Z" fill="white"/>
<path d="M188.696 135.853C199.332 126.345 208.9 115.135 213.823 101.732C218.745 88.3483 218.429 72.4935 210.482 60.632C203.029 49.5218 190.198 43.3736 177.586 38.9651C150.364 29.4562 121.165 25.6803 92.4205 27.9537C73.8178 29.4364 54.879 33.6472 39.6766 44.4807C25.601 54.5036 15.499 70.0421 12.4348 87.0435C9.3508 104.045 13.4232 122.272 23.7229 136.15C34.8529 151.115 52.6451 160.466 71.1095 163.095C89.5738 165.744 108.592 162.067 125.692 154.614" fill="#1B2A48"/>
<path d="M188.696 136.466C188.538 136.466 188.36 136.407 188.241 136.269C188.024 136.012 188.044 135.636 188.281 135.419C189.487 134.331 190.693 133.244 191.82 132.157C192.057 131.919 192.452 131.939 192.67 132.176C192.907 132.414 192.887 132.809 192.65 133.026C191.503 134.114 190.317 135.221 189.091 136.308C188.973 136.407 188.834 136.466 188.696 136.466Z" fill="#030047"/>
<path d="M83.4256 164.558C83.0895 164.558 82.8128 164.281 82.8128 163.945C82.8128 163.609 83.0895 163.332 83.4256 163.332C86.5689 163.332 89.7913 163.154 93.0136 162.818C93.3497 162.779 93.6462 163.016 93.6858 163.352C93.7253 163.688 93.4881 163.985 93.152 164.024C89.8703 164.38 86.6084 164.538 83.4256 164.558ZM73.7783 164.044C73.7585 164.044 73.7388 164.044 73.719 164.044C72.8096 163.945 71.92 163.827 71.0106 163.708C68.6976 163.372 66.3846 162.937 64.1112 162.403C63.7949 162.324 63.5774 162.008 63.6565 161.672C63.7356 161.355 64.0519 161.138 64.388 161.217C66.6219 161.751 68.9151 162.186 71.1885 162.502C72.0781 162.621 72.9678 162.739 73.8574 162.838C74.1934 162.878 74.4307 163.174 74.3911 163.51C74.3516 163.807 74.0748 164.044 73.7783 164.044ZM102.621 162.561C102.345 162.561 102.088 162.364 102.028 162.087C101.969 161.751 102.167 161.435 102.503 161.375C105.587 160.743 108.73 159.972 111.834 159.043C112.15 158.944 112.486 159.122 112.585 159.458C112.684 159.774 112.506 160.11 112.17 160.209C109.046 161.138 105.864 161.929 102.74 162.561C102.72 162.561 102.681 162.561 102.621 162.561ZM54.9977 159.616C54.9186 159.616 54.8593 159.596 54.7802 159.576C51.716 158.43 48.7309 157.105 45.8841 155.603C45.5876 155.445 45.4689 155.089 45.6271 154.792C45.7853 154.496 46.1411 154.377 46.4376 154.535C49.2448 156.018 52.1904 157.323 55.1953 158.449C55.5117 158.568 55.6698 158.904 55.5512 159.22C55.4721 159.458 55.2547 159.616 54.9977 159.616ZM37.9567 150.601C37.8381 150.601 37.7195 150.562 37.6008 150.483C34.932 148.585 32.4016 146.489 30.0886 144.255C29.8514 144.018 29.8316 143.642 30.0688 143.405C30.3061 143.168 30.6817 143.148 30.9189 143.385C33.1923 145.56 35.6635 147.616 38.2928 149.494C38.5695 149.692 38.6288 150.067 38.4311 150.344C38.3323 150.522 38.1346 150.601 37.9567 150.601ZM24.0788 137.237C23.9009 137.237 23.7229 137.158 23.6043 137C23.4857 136.842 23.3473 136.664 23.2287 136.506C21.4297 134.074 19.7889 131.484 18.3457 128.776C18.1876 128.48 18.3062 128.124 18.6027 127.965C18.8993 127.807 19.2551 127.926 19.4133 128.222C20.8169 130.872 22.4379 133.422 24.1974 135.794L24.5532 136.269C24.7509 136.526 24.7114 136.921 24.4346 137.119C24.3358 137.198 24.2172 137.237 24.0788 137.237ZM198.956 126.226C198.818 126.226 198.679 126.167 198.561 126.068C198.304 125.85 198.284 125.455 198.502 125.218C200.696 122.746 202.712 120.216 204.511 117.725C204.709 117.448 205.085 117.389 205.361 117.587C205.638 117.784 205.697 118.16 205.5 118.437C203.681 120.967 201.645 123.517 199.411 126.028C199.292 126.167 199.134 126.226 198.956 126.226ZM15.0245 120.236C14.7675 120.236 14.5501 120.078 14.4512 119.821C13.3837 116.776 12.5534 113.593 11.9406 110.391C11.8813 110.055 12.0987 109.738 12.415 109.679C12.7511 109.62 13.0674 109.837 13.1267 110.154C13.7198 113.297 14.5501 116.401 15.5781 119.405C15.6967 119.722 15.5188 120.058 15.2025 120.176C15.1629 120.236 15.0838 120.236 15.0245 120.236ZM210.126 110.509C210.027 110.509 209.928 110.49 209.849 110.43C209.552 110.272 209.454 109.897 209.612 109.62C211.035 106.971 212.261 104.243 213.249 101.534C213.328 101.317 213.407 101.099 213.487 100.862C213.605 100.546 213.941 100.388 214.258 100.486C214.574 100.605 214.732 100.941 214.633 101.257C214.554 101.495 214.475 101.712 214.396 101.93C213.388 104.678 212.142 107.465 210.679 110.154C210.561 110.391 210.343 110.509 210.126 110.509ZM11.4661 101.297C11.1498 101.297 10.873 101.04 10.8533 100.724C10.8137 99.9132 10.8137 99.1026 10.8137 98.2921C10.8137 95.8407 10.9521 93.3894 11.2289 90.9775C11.2684 90.6415 11.5649 90.424 11.901 90.4438C12.2371 90.4833 12.4743 90.7798 12.4348 91.1159C12.158 93.4882 12.0196 95.9 12.0196 98.2921C12.0196 99.0829 12.0394 99.8736 12.0592 100.664C12.0789 101 11.8022 101.277 11.4859 101.297H11.4661ZM216.432 92.3021C216.393 92.3021 216.373 92.3021 216.333 92.3021C215.997 92.2427 215.78 91.9462 215.839 91.6101C216.254 88.9611 216.472 86.312 216.472 83.7025C216.472 83.1687 216.472 82.635 216.452 82.1012C216.432 81.7651 216.709 81.4884 217.045 81.4686C217.381 81.4686 217.658 81.7256 217.678 82.0617C217.697 82.6152 217.697 83.1687 217.697 83.7025C217.697 86.3713 217.48 89.0995 217.045 91.8078C216.966 92.1044 216.709 92.3021 216.432 92.3021ZM13.6802 82.1605C13.6209 82.1605 13.5814 82.1605 13.5221 82.1407C13.2058 82.0617 13.0081 81.7256 13.1069 81.3895C13.957 78.2858 15.0641 75.2018 16.3688 72.1969C16.5072 71.9003 16.8631 71.762 17.1596 71.8806C17.4561 72.019 17.5945 72.3748 17.4759 72.6713C16.1909 75.5972 15.1036 78.6416 14.2733 81.6861C14.1745 81.9826 13.9372 82.1605 13.6802 82.1605ZM215.701 73.126C215.424 73.126 215.187 72.9481 215.108 72.6713C214.317 69.5281 213.15 66.5429 211.668 63.8148C211.51 63.5182 211.608 63.1624 211.905 63.0043C212.202 62.8461 212.557 62.9449 212.715 63.2415C214.238 66.0487 215.444 69.1327 216.254 72.3748C216.333 72.6911 216.136 73.0272 215.819 73.1063C215.799 73.1063 215.76 73.126 215.701 73.126ZM21.4297 64.5265C21.3111 64.5265 21.2123 64.4869 21.1134 64.4276C20.8367 64.2497 20.7378 63.8741 20.9157 63.5973C22.6356 60.8494 24.5532 58.2004 26.6488 55.7095C26.8662 55.4525 27.2418 55.4129 27.4988 55.6304C27.7558 55.8478 27.7954 56.2235 27.5779 56.4805C25.5219 58.9121 23.6439 61.5216 21.9437 64.2299C21.8251 64.4276 21.6274 64.5265 21.4297 64.5265ZM206.548 56.3223C206.389 56.3223 206.231 56.263 206.113 56.1246C204.037 53.9105 201.605 51.8347 198.897 49.9171C198.62 49.7194 198.561 49.3438 198.759 49.067C198.956 48.7903 199.332 48.731 199.609 48.9287C202.396 50.8858 204.907 53.0406 207.022 55.2943C207.259 55.5315 207.239 55.9269 207.002 56.1444C206.844 56.2828 206.686 56.3223 206.548 56.3223ZM33.825 49.759C33.6668 49.759 33.4889 49.6997 33.3703 49.5613C33.1528 49.3043 33.1726 48.9287 33.4098 48.7112C35.2879 47.0308 37.2845 45.4295 39.3208 43.9864C39.9138 43.5712 40.5267 43.1561 41.1197 42.7409C41.3965 42.563 41.7721 42.6223 41.95 42.8991C42.128 43.1758 42.0687 43.5515 41.7919 43.7294C41.1988 44.1248 40.6057 44.5399 40.0127 44.9551C38.016 46.3784 36.0589 47.9402 34.2203 49.6008C34.1215 49.7194 33.9633 49.759 33.825 49.759ZM190.91 45.1132C190.811 45.1132 190.732 45.0935 190.633 45.0539C187.965 43.7096 185.078 42.4444 181.836 41.1989C181.52 41.0803 181.362 40.7245 181.5 40.4082C181.619 40.0919 181.975 39.9337 182.291 40.0721C185.573 41.3373 188.479 42.6223 191.187 43.9864C191.483 44.1445 191.602 44.5004 191.464 44.7969C191.345 44.9946 191.128 45.1132 190.91 45.1132ZM49.8379 39.0441C49.6205 39.0441 49.403 38.9255 49.3041 38.708C49.1658 38.4115 49.2844 38.0557 49.5809 37.8975C52.4079 36.5137 55.4128 35.2287 58.5363 34.1018C58.8526 33.9832 59.1887 34.1611 59.3073 34.4577C59.4259 34.774 59.248 35.1101 58.9515 35.2287C55.8675 36.3357 52.9021 37.601 50.1147 38.965C50.0158 39.0243 49.9368 39.0441 49.8379 39.0441ZM172.94 38.0161C172.881 38.0161 172.821 38.0161 172.762 37.9963C169.718 37.0079 166.614 36.0787 163.53 35.2484C163.214 35.1694 163.016 34.8333 163.115 34.4972C163.194 34.1809 163.53 33.9832 163.866 34.0821C166.97 34.9321 170.093 35.8613 173.158 36.8497C173.474 36.9486 173.652 37.2847 173.553 37.601C173.434 37.858 173.197 38.0161 172.94 38.0161ZM154.298 32.9355C154.258 32.9355 154.219 32.9355 154.159 32.9157C151.036 32.2238 147.853 31.5912 144.71 31.0376C144.374 30.9783 144.156 30.662 144.216 30.3457C144.275 30.0096 144.591 29.8119 144.908 29.8515C148.071 30.405 151.273 31.0376 154.416 31.7493C154.733 31.8284 154.95 32.1447 154.871 32.461C154.812 32.7575 154.575 32.9355 154.298 32.9355ZM67.9859 32.4412C67.7092 32.4412 67.4719 32.2633 67.3929 31.9865C67.3138 31.6702 67.5115 31.3342 67.8278 31.2551C70.8525 30.4841 74.0551 29.7922 77.3367 29.2189C77.6728 29.1793 77.9693 29.377 78.0286 29.7131C78.088 30.0492 77.8705 30.3457 77.5344 30.405C74.2923 30.9783 71.1292 31.6505 68.1243 32.4215C68.0848 32.4412 68.0255 32.4412 67.9859 32.4412ZM135.24 29.6143C135.221 29.6143 135.181 29.6143 135.161 29.6143C131.979 29.1991 128.756 28.863 125.573 28.606C125.237 28.5863 125 28.2897 125.02 27.9536C125.04 27.6176 125.336 27.3606 125.672 27.4001C128.875 27.6571 132.117 27.9932 135.319 28.4083C135.656 28.4479 135.893 28.7444 135.833 29.0805C135.814 29.377 135.537 29.6143 135.24 29.6143ZM87.0038 29.0805C86.7073 29.0805 86.4305 28.8433 86.4107 28.5467C86.3712 28.2106 86.6084 27.9141 86.9445 27.8746C88.704 27.6769 90.5227 27.5187 92.3612 27.3606C93.7648 27.242 95.1882 27.1431 96.6116 27.064C96.9477 27.0443 97.2244 27.3013 97.2442 27.6373C97.264 27.9734 97.007 28.2502 96.6709 28.27C95.2673 28.349 93.8637 28.4479 92.4601 28.5665C90.6413 28.7049 88.8226 28.8828 87.0631 29.0805C87.0631 29.0607 87.0434 29.0805 87.0038 29.0805ZM115.985 28.0525H115.966C112.783 27.9339 109.541 27.8943 106.318 27.9339C105.982 27.9339 105.705 27.6769 105.705 27.3408C105.705 27.0047 105.962 26.728 106.298 26.728C109.521 26.6884 112.783 26.728 115.985 26.8466C116.321 26.8663 116.578 27.1431 116.559 27.4792C116.578 27.7955 116.302 28.0525 115.985 28.0525Z" fill="#030047"/>
<path d="M121.224 157.066C120.987 157.066 120.75 156.927 120.671 156.69C120.552 156.374 120.71 156.038 121.007 155.899C122.489 155.326 123.972 154.713 125.455 154.061C125.751 153.922 126.107 154.061 126.245 154.377C126.384 154.673 126.245 155.029 125.929 155.168C124.446 155.82 122.924 156.433 121.442 157.026C121.363 157.046 121.283 157.066 121.224 157.066Z" fill="#030047"/>
<path d="M192.788 249.012H71.7223L57.9037 88.9413C56.9745 77.3369 64.9217 67.9465 75.6563 67.9465H157.836C168.571 67.9465 178.021 77.3566 178.95 88.9413L192.788 249.012Z" fill="white"/>
<path d="M192.788 249.605H71.7223C71.4059 249.605 71.1489 249.368 71.1292 249.051L57.3106 88.9809C56.8361 82.9711 58.7142 77.159 62.4901 73.0668C65.9101 69.3502 70.5954 67.314 75.6563 67.314H157.836C168.868 67.314 178.614 76.9811 179.563 88.8821L193.381 248.952C193.401 249.13 193.342 249.289 193.223 249.407C193.105 249.546 192.946 249.605 192.788 249.605ZM72.2758 248.399H192.136L178.377 88.9809C177.467 77.6927 168.275 68.5199 157.856 68.5199H75.6563C70.9315 68.5199 66.5625 70.4177 63.3599 73.8971C59.8213 77.7323 58.042 83.2083 58.4967 88.8821L72.2758 248.399Z" fill="#030047"/>
<path d="M128.637 192.334C118.14 192.334 108.868 183.813 107.959 173.316L102.819 114.206C101.91 103.709 109.679 95.1885 120.176 95.1885C130.674 95.1885 139.945 103.709 140.855 114.206L145.995 173.316C146.924 183.813 139.155 192.334 128.637 192.334Z" fill="#030047"/>
<path d="M141.43 187.966C148.385 180.703 147.597 168.663 139.672 161.074C131.746 153.486 119.683 153.222 112.729 160.485C105.774 167.748 106.562 179.788 114.487 187.377C122.413 194.965 134.476 195.229 141.43 187.966Z" fill="#0045DF"/>
<path d="M106.476 79.2545C106.615 80.7767 105.468 82.0222 103.946 82.0222C102.424 82.0222 101.079 80.7767 100.941 79.2545C100.803 77.7323 101.949 76.4868 103.471 76.4868C104.994 76.5066 106.338 77.7323 106.476 79.2545Z" fill="#030047"/>
<path d="M130.278 81.5082H111.023C109.877 81.5082 108.868 80.5791 108.77 79.4325L108.71 78.7801C108.611 77.6335 109.461 76.7043 110.588 76.7043H129.843C130.99 76.7043 131.998 77.6335 132.097 78.7801L132.156 79.4325C132.275 80.5791 131.425 81.5082 130.278 81.5082Z" fill="#030047"/>
<g opacity="0.4">
<path d="M223.055 241.776C224.791 241.776 226.198 240.369 226.198 238.633C226.198 236.897 224.791 235.49 223.055 235.49C221.319 235.49 219.911 236.897 219.911 238.633C219.911 240.369 221.319 241.776 223.055 241.776Z" fill="white"/>
</g>
<path d="M307.093 120.434C303.634 131.307 316.721 139.629 320.358 150.759C323.996 161.909 326.249 177.013 301.993 176.024C277.716 175.056 273.762 166.337 276.115 145.975C278.487 125.593 285.308 118.121 285.308 118.121" fill="#030047"/>
<path d="M255.931 72.7505C255.931 72.7505 244.069 75.8345 240.59 83.7026C237.091 91.5707 244.524 109.264 232.603 118.753C220.702 128.242 199.846 148.229 220.208 163.491C240.57 178.752 272.596 145.323 272.596 145.323L272.912 113.613L255.931 72.7505Z" fill="#030047"/>
<path d="M171.339 147.834L165.764 142.713L138.522 112.289C137.316 110.925 135.458 110.51 133.857 111.043C133.184 111.261 132.552 111.656 132.038 112.21C130.693 113.653 130.456 115.827 131.484 117.508L139.076 130.002C139.076 130.002 135.28 130.852 135.082 134.549C135.082 134.549 135.062 134.549 134.983 134.549C134.45 134.588 131.721 135.063 131.464 139.333C130.614 139.61 128.519 143.583 131.089 147.893C131.662 148.881 131.761 150.245 132.908 151.214C137.02 154.713 145.52 163.392 145.52 163.392L150.72 168.789" fill="white"/>
<path d="M150.72 169.422C150.561 169.422 150.403 169.362 150.285 169.244L145.085 163.847C145.006 163.768 136.545 155.148 132.512 151.708C131.642 150.957 131.306 150.068 131.01 149.257C130.871 148.881 130.733 148.526 130.555 148.229C128.558 144.888 129.31 141.942 129.725 140.835C129.982 140.163 130.397 139.412 130.871 139.017C131.207 135.201 133.52 134.272 134.509 134.055C134.865 131.603 136.723 130.259 138.146 129.686L130.97 117.824C129.804 115.907 130.061 113.435 131.603 111.795C132.196 111.182 132.888 110.727 133.679 110.47C135.576 109.837 137.652 110.391 138.977 111.874L166.219 142.279L171.754 147.359C171.991 147.577 172.011 147.972 171.793 148.209C171.576 148.446 171.181 148.466 170.943 148.249L165.368 143.129L138.087 112.684C137.079 111.557 135.497 111.142 134.054 111.617C133.461 111.814 132.927 112.15 132.473 112.625C131.306 113.87 131.109 115.748 131.998 117.192L139.59 129.686C139.688 129.844 139.708 130.061 139.629 130.239C139.55 130.417 139.392 130.555 139.214 130.595C139.076 130.635 135.853 131.406 135.695 134.588C135.675 134.905 135.438 135.142 135.122 135.162C134.588 135.201 132.315 135.597 132.077 139.392C132.058 139.629 131.899 139.847 131.662 139.926C131.544 139.985 131.03 140.578 130.713 141.745C130.397 142.852 130.1 145.086 131.603 147.596C131.84 147.992 131.998 148.407 132.137 148.822C132.413 149.554 132.67 150.226 133.283 150.779C137.356 154.259 145.856 162.917 145.935 162.997L151.135 168.394C151.372 168.631 151.352 169.006 151.115 169.244C151.016 169.362 150.858 169.422 150.72 169.422Z" fill="#030047"/>
<path d="M142.397 146.944C142.397 146.944 144.69 153.092 137.593 152.974C137.593 152.974 135.853 152.519 133.441 151.135C129.824 149.059 128.361 144.433 130.338 140.737C130.753 139.946 131.207 139.432 131.464 139.353L142.397 146.944Z" fill="white"/>
<path d="M137.81 153.567C137.731 153.567 137.652 153.567 137.593 153.567C137.553 153.567 137.494 153.567 137.454 153.547C137.375 153.527 135.616 153.072 133.165 151.649C129.231 149.376 127.728 144.354 129.824 140.44C130.12 139.906 130.693 138.957 131.287 138.76C131.464 138.7 131.662 138.72 131.82 138.839L142.753 146.43C142.851 146.509 142.931 146.608 142.97 146.707C143.01 146.825 144.038 149.613 142.614 151.649C141.705 152.934 140.084 153.567 137.81 153.567ZM137.672 152.361C139.609 152.361 140.934 151.906 141.606 150.977C142.496 149.712 142.061 147.893 141.883 147.32L131.484 140.104C131.346 140.282 131.109 140.578 130.871 141.033C129.072 144.374 130.357 148.684 133.738 150.621C135.794 151.788 137.356 152.262 137.672 152.361Z" fill="#030047"/>
<path d="M145.184 146.371C141.744 151.728 130.595 141.369 130.595 141.369C129.804 136.051 134.45 134.628 134.964 134.569C134.983 134.569 147.734 142.417 145.184 146.371Z" fill="white"/>
<path d="M142.278 148.506C137.474 148.506 130.516 142.081 130.199 141.804C130.1 141.705 130.041 141.587 130.021 141.448C129.725 139.412 130.12 137.672 131.227 136.269C132.512 134.648 134.41 133.995 134.944 133.956C135.082 133.936 135.201 133.976 135.319 134.035C135.715 134.272 145.066 140.084 146.054 144.433C146.252 145.284 146.133 146.035 145.718 146.687C145.066 147.715 144.117 148.308 142.911 148.466C142.693 148.506 142.476 148.506 142.278 148.506ZM131.168 141.053C132.275 142.041 138.819 147.755 142.733 147.26C143.583 147.162 144.216 146.746 144.69 146.035C144.927 145.659 144.987 145.224 144.868 144.71C144.156 141.587 137.593 136.901 134.865 135.201C134.371 135.34 133.046 135.873 132.097 137.079C131.306 138.147 130.99 139.491 131.168 141.053Z" fill="#030047"/>
<path d="M146.311 142.812C146.271 142.812 146.331 142.832 146.311 142.812C142.832 142.694 133.698 135.3 133.698 135.3C133.362 130.872 139.076 130.002 139.076 130.002L148.545 136.803C150.878 138.463 149.178 142.852 146.311 142.812Z" fill="white"/>
<path d="M146.311 143.425C146.291 143.425 146.272 143.425 146.252 143.425C146.232 143.425 146.232 143.425 146.212 143.425C142.693 143.287 134.272 136.545 133.323 135.774C133.184 135.676 133.105 135.518 133.105 135.359C132.809 131.406 136.822 129.745 138.996 129.429C139.155 129.409 139.313 129.448 139.431 129.527L148.901 136.328C150.107 137.198 150.542 138.819 150.008 140.46C149.514 141.942 148.209 143.445 146.331 143.445C146.331 143.425 146.311 143.425 146.311 143.425ZM146.331 142.219C147.616 142.219 148.525 141.152 148.881 140.084C149.178 139.175 149.158 137.969 148.209 137.297L138.937 130.654C137.949 130.852 134.252 131.821 134.291 135.004C136.94 137.139 143.702 142.12 146.331 142.219Z" fill="#030047"/>
<path d="M156.611 147.972L156.097 147.023C154.238 143.643 153.665 139.708 154.456 135.913L155.069 133.046L150.028 133.718C147.497 134.055 145.066 132.631 144.136 130.239C143.761 129.27 144.334 128.163 145.342 127.926L155.326 125.593C158.35 124.882 161.395 126.7 162.225 129.686L165.784 142.674L171.358 147.794" fill="white"/>
<path d="M156.611 148.585C156.393 148.585 156.196 148.466 156.077 148.269L155.563 147.32C153.645 143.801 153.033 139.728 153.863 135.814L154.298 133.778L150.107 134.331C147.28 134.707 144.591 133.125 143.563 130.476C143.326 129.844 143.365 129.152 143.662 128.539C143.978 127.946 144.532 127.511 145.184 127.353L155.168 125.02C158.528 124.229 161.869 126.226 162.779 129.547L166.298 142.377L171.734 147.379C171.971 147.596 171.991 147.992 171.774 148.229C171.556 148.466 171.161 148.486 170.924 148.269L165.349 143.148C165.27 143.069 165.21 142.97 165.171 142.872L161.612 129.883C160.881 127.195 158.153 125.574 155.444 126.206L145.461 128.539C145.145 128.618 144.868 128.816 144.73 129.112C144.571 129.409 144.552 129.745 144.67 130.041C145.501 132.176 147.655 133.442 149.929 133.145L154.97 132.473C155.168 132.433 155.365 132.513 155.484 132.671C155.622 132.809 155.682 133.007 155.642 133.204L155.029 136.071C154.258 139.709 154.832 143.504 156.611 146.766L157.125 147.715C157.283 148.012 157.184 148.367 156.888 148.526C156.808 148.565 156.71 148.585 156.611 148.585Z" fill="#030047"/>
<path d="M243.654 148.486L226.336 149.613C216.946 150.226 208.702 156.057 204.986 164.696L198.838 178.515L172.643 142.318L146.331 168.393L183.813 214.673C187.628 220.366 194.014 223.767 200.854 223.767C209.374 223.767 217.005 218.508 220.05 210.541L243.654 148.486Z" fill="#605EFD"/>
<path d="M183.813 215.266C183.635 215.266 183.457 215.187 183.339 215.048L145.856 168.769C145.659 168.532 145.678 168.176 145.896 167.958L172.209 141.883C172.327 141.764 172.505 141.705 172.683 141.705C172.861 141.725 173.019 141.804 173.118 141.962L199.292 178.179C199.49 178.456 199.431 178.831 199.154 179.029C198.877 179.227 198.501 179.168 198.304 178.891L172.564 143.247L147.141 168.433L184.288 214.297C184.505 214.554 184.465 214.93 184.189 215.147C184.09 215.226 183.951 215.266 183.813 215.266Z" fill="#030047"/>
<path d="M324.154 169.56L319.587 248.992H210.027L222.066 166.14C223.668 157.54 230.33 150.759 238.91 149.02C252.135 146.351 256.801 146.193 264.748 146.054C273.743 145.876 285.11 144.73 299.581 146.133C301.597 146.331 303.673 146.568 305.808 146.885C316.918 148.466 324.925 158.371 324.154 169.56Z" fill="#605EFD"/>
<path d="M210.047 249.605C210.027 249.605 209.987 249.605 209.968 249.605C209.631 249.565 209.414 249.249 209.454 248.913L221.493 166.061C221.532 165.725 221.849 165.507 222.185 165.547C222.521 165.586 222.738 165.902 222.699 166.239L210.659 249.091C210.6 249.387 210.343 249.605 210.047 249.605Z" fill="#030047"/>
<path d="M253.282 146.924L258.501 117.033L285.545 116.776L280.425 147.893C280.425 147.893 272.319 156.433 261.229 153.567C252.293 151.273 253.282 146.924 253.282 146.924Z" fill="white"/>
<path d="M265.736 154.753C264.254 154.753 262.692 154.575 261.071 154.16C251.898 151.787 252.61 147.201 252.689 146.806L257.908 116.915C257.967 116.618 258.204 116.421 258.501 116.421L285.545 116.164C285.723 116.203 285.901 116.243 286 116.381C286.118 116.519 286.158 116.697 286.138 116.875L281.018 147.992C280.998 148.11 280.939 148.229 280.86 148.308C280.761 148.367 274.593 154.753 265.736 154.753ZM253.875 147.043C253.855 147.122 253.262 150.898 261.367 152.974C271.232 155.524 278.784 148.624 279.851 147.577L284.833 117.369L259.015 117.607L253.895 147.003C253.875 147.023 253.875 147.043 253.875 147.043Z" fill="#030047"/>
<path d="M285.189 118.991C295.805 105.409 291.456 85.0273 291.456 85.0273L255.278 73.324C254.665 73.917 242.389 85.739 241.914 107.505C241.539 125.435 259.41 134.035 277.084 125.811" fill="white"/>
<path d="M263.601 129.567C258.797 129.567 254.27 128.322 250.474 125.87C244.405 121.916 241.163 115.393 241.321 107.505C241.776 86.1936 253.519 74.2135 254.843 72.9087C255.002 72.7506 255.239 72.6913 255.456 72.7506L291.634 84.4539C291.831 84.5132 291.99 84.6911 292.029 84.9086C292.069 85.1063 296.299 105.725 285.644 119.366C285.446 119.623 285.051 119.682 284.794 119.465C284.537 119.267 284.477 118.872 284.695 118.615C294.263 106.378 291.416 88.1903 290.922 85.5017L255.436 74.0356C253.321 76.1904 242.942 87.7158 242.527 107.544C242.369 114.997 245.414 121.145 251.127 124.862C258.066 129.389 267.674 129.547 276.827 125.277C277.123 125.139 277.479 125.257 277.637 125.574C277.776 125.87 277.637 126.226 277.341 126.384C272.754 128.499 268.049 129.567 263.601 129.567Z" fill="#030047"/>
<path d="M285.308 118.121L281.828 104.796C281.828 104.796 275.601 107.03 267.733 98.1143C259.865 89.1984 254.152 78.6022 254.626 72.6912C255.12 66.7803 284.655 63.8149 300.648 78.4836C316.642 93.1522 310.553 109.6 307.093 120.453" fill="#030047"/>
<path d="M280.345 106.101C280.345 106.101 287.818 98.8457 291.93 100.348C296.042 101.87 294.263 116.401 289.34 117.686C284.418 118.971 280.504 116.974 280.504 116.974" fill="white"/>
<path d="M285.94 118.734C282.659 118.734 280.365 117.587 280.227 117.528C279.93 117.369 279.812 117.014 279.97 116.717C280.128 116.421 280.484 116.302 280.78 116.46C280.82 116.48 284.576 118.338 289.202 117.112C291.693 116.46 293.393 111.597 293.591 107.267C293.749 103.887 293.017 101.416 291.713 100.922C288.629 99.7947 282.757 104.579 280.761 106.536C280.523 106.773 280.148 106.753 279.911 106.516C279.673 106.279 279.693 105.903 279.93 105.666C280.247 105.35 287.739 98.1539 292.148 99.7947C294.006 100.487 294.994 103.294 294.797 107.327C294.559 112.15 292.662 117.449 289.499 118.279C288.233 118.615 287.047 118.734 285.94 118.734Z" fill="#030047"/>
<path d="M285.802 108.078C286.098 107.544 286.513 107.089 287.008 106.714C287.304 106.477 287.66 106.299 288.036 106.22C288.411 106.16 288.826 106.22 289.103 106.477C289.518 106.832 289.578 107.426 289.558 107.979C289.518 108.968 289.281 109.936 288.866 110.826" fill="white"/>
<path d="M288.846 111.439C288.767 111.439 288.668 111.419 288.589 111.379C288.293 111.241 288.154 110.885 288.312 110.569C288.708 109.758 288.925 108.849 288.945 107.959C288.965 107.445 288.886 107.109 288.688 106.931C288.55 106.813 288.332 106.773 288.115 106.813C287.878 106.852 287.621 106.971 287.344 107.188C286.929 107.505 286.573 107.9 286.316 108.355C286.158 108.651 285.782 108.75 285.485 108.592C285.189 108.434 285.09 108.058 285.248 107.762C285.584 107.169 286.059 106.635 286.612 106.22C287.047 105.884 287.462 105.706 287.897 105.627C288.471 105.528 289.064 105.666 289.479 106.022C289.953 106.437 290.171 107.089 290.151 107.999C290.111 109.066 289.854 110.134 289.4 111.083C289.281 111.3 289.083 111.439 288.846 111.439Z" fill="#030047"/>
<path d="M234.778 166.535L219.892 186.462C219.892 186.462 210.738 177.665 208.208 173.257C205.678 168.848 207.912 162.68 207.912 162.68C207.912 162.68 198.857 156.354 198.106 154.021C196.722 149.81 200.834 148.466 200.834 148.466C198.501 143.662 203.622 142.298 203.622 142.298C203.147 141.29 203.167 140.341 203.404 139.511C204.037 137.376 206.706 136.624 208.465 138.008L212.478 141.132L209.355 135.735C209.038 135.181 208.88 134.549 208.88 133.936C208.88 133.066 209.197 132.176 209.809 131.504C211.252 129.942 213.704 129.962 215.127 131.524L222.778 140.025L223.272 137.257C223.509 135.933 224.419 134.806 225.684 134.311C226.158 134.134 226.633 134.035 227.107 134.035C229.163 134.035 230.982 135.676 231.002 137.89L231.18 152.954C231.279 154.575 231.002 156.196 230.369 157.738L229.005 161L234.778 166.535Z" fill="white"/>
<path d="M219.892 187.075C219.733 187.075 219.595 187.016 219.476 186.897C219.101 186.541 210.225 177.981 207.694 173.553C205.421 169.599 206.725 164.459 207.2 162.917C205.322 161.593 198.264 156.473 197.533 154.219C196.722 151.748 197.632 150.147 198.521 149.237C199.035 148.703 199.609 148.367 200.043 148.15C199.51 146.786 199.49 145.54 199.984 144.453C200.636 143.03 202.02 142.259 202.831 141.923C202.574 141.073 202.574 140.203 202.831 139.333C203.187 138.166 204.057 137.277 205.243 136.882C206.468 136.486 207.813 136.723 208.821 137.514L210.363 138.72L208.801 136.012C208.426 135.379 208.248 134.648 208.248 133.916C208.248 132.849 208.643 131.86 209.335 131.089C210.126 130.219 211.253 129.725 212.419 129.725H212.439C213.625 129.725 214.752 130.239 215.542 131.109L222.363 138.7L222.639 137.158C222.916 135.636 223.984 134.331 225.427 133.758C225.941 133.56 226.494 133.442 227.068 133.442C229.519 133.442 231.536 135.438 231.575 137.89L231.753 152.954C231.753 152.974 231.753 152.993 231.753 153.013C231.832 154.713 231.555 156.394 230.883 157.975L229.677 160.842L235.173 166.061C235.391 166.278 235.43 166.614 235.232 166.851L220.346 186.779C220.247 186.917 220.089 186.996 219.911 187.016C219.931 187.075 219.911 187.075 219.892 187.075ZM206.429 137.929C206.152 137.929 205.875 137.969 205.599 138.068C204.788 138.325 204.195 138.918 203.977 139.708C203.74 140.519 203.8 141.31 204.155 142.061C204.234 142.219 204.234 142.417 204.155 142.575C204.076 142.733 203.938 142.852 203.76 142.911C203.74 142.911 201.763 143.465 201.071 145.007C200.656 145.896 200.775 146.984 201.368 148.249C201.447 148.407 201.447 148.585 201.388 148.743C201.328 148.901 201.19 149.02 201.012 149.079C200.656 149.198 197.513 150.364 198.66 153.883C199.174 155.445 204.808 159.833 208.248 162.225C208.465 162.384 208.564 162.66 208.465 162.917C208.445 162.977 206.37 168.888 208.722 172.98C210.857 176.677 217.875 183.675 219.813 185.573L233.967 166.634L228.55 161.494C228.373 161.316 228.313 161.059 228.412 160.822L229.776 157.56C230.389 156.117 230.646 154.595 230.547 153.033C230.547 152.993 230.547 152.954 230.547 152.914L230.369 137.949C230.349 136.15 228.867 134.687 227.068 134.687C226.653 134.687 226.257 134.766 225.882 134.905C224.814 135.32 224.023 136.269 223.826 137.396L223.331 140.163C223.292 140.381 223.134 140.578 222.897 140.638C222.679 140.697 222.442 140.638 222.284 140.46L214.633 131.959C214.06 131.326 213.269 130.971 212.419 130.971C211.569 130.971 210.778 131.307 210.205 131.939C209.711 132.493 209.434 133.204 209.434 133.956C209.434 134.489 209.572 135.003 209.829 135.458L212.953 140.855C213.091 141.112 213.051 141.428 212.834 141.606C212.617 141.784 212.3 141.804 212.063 141.626L208.05 138.503C207.615 138.127 207.022 137.929 206.429 137.929Z" fill="#030047"/>
<path d="M324.648 181.658L308.398 213.862L302.072 226.416L297.564 235.371C293.334 243.733 284.754 249.012 275.383 249.012C271.687 249.012 268.108 250.534 264.847 249.012C261.585 247.489 258.659 242.903 256.306 240.076L212.32 188.637L234.145 161.909L274.929 201.427L298.948 146.133C300.965 146.331 303.04 146.568 305.176 146.885C306.223 147.023 307.271 147.26 308.339 147.576C322.73 151.767 330.124 167.721 324.648 181.658Z" fill="#605EFD"/>
<g opacity="0.4">
<path d="M308.398 213.862L302.072 226.416C299.363 225.427 297.426 222.818 297.426 219.773C297.426 215.859 300.589 212.696 304.503 212.696C305.927 212.696 307.271 213.131 308.398 213.862Z" fill="white"/>
</g>
<g opacity="0.4">
<path d="M305.788 189.942C308.147 189.942 310.058 188.03 310.058 185.671C310.058 183.313 308.147 181.401 305.788 181.401C303.43 181.401 301.518 183.313 301.518 185.671C301.518 188.03 303.43 189.942 305.788 189.942Z" fill="white"/>
</g>
<g opacity="0.4">
<path d="M280.207 241.42C284.236 241.42 287.502 238.154 287.502 234.126C287.502 230.097 284.236 226.831 280.207 226.831C276.178 226.831 272.912 230.097 272.912 234.126C272.912 238.154 276.178 241.42 280.207 241.42Z" fill="white"/>
</g>
<g opacity="0.4">
<path d="M309.327 238.653C311.827 238.653 313.854 236.626 313.854 234.126C313.854 231.625 311.827 229.599 309.327 229.599C306.827 229.599 304.8 231.625 304.8 234.126C304.8 236.626 306.827 238.653 309.327 238.653Z" fill="white"/>
</g>
<g opacity="0.4">
<path d="M311.778 222.462C312.905 223.45 314.625 223.332 315.594 222.205C316.582 221.078 316.464 219.358 315.337 218.389C314.21 217.401 312.49 217.52 311.521 218.646C310.533 219.773 310.652 221.473 311.778 222.462Z" fill="white"/>
</g>
<g opacity="0.4">
<path d="M258.266 217.816C258.837 217.245 258.837 216.319 258.266 215.747C257.694 215.176 256.768 215.176 256.197 215.747C255.626 216.319 255.626 217.245 256.197 217.816C256.768 218.387 257.694 218.387 258.266 217.816Z" fill="white"/>
</g>
<g opacity="0.4">
<path d="M235.41 202.772C237.67 202.772 239.503 200.94 239.503 198.68C239.503 196.42 237.67 194.587 235.41 194.587C233.15 194.587 231.318 196.42 231.318 198.68C231.318 200.94 233.15 202.772 235.41 202.772Z" fill="white"/>
</g>
<g opacity="0.4">
<path d="M285.382 172.208C286.087 169.223 284.238 166.231 281.252 165.526C278.266 164.821 275.274 166.67 274.569 169.655C273.864 172.641 275.713 175.633 278.699 176.338C281.685 177.043 284.677 175.194 285.382 172.208Z" fill="white"/>
</g>
<g opacity="0.4">
<path d="M311.442 167.207C312.611 167.207 313.558 166.26 313.558 165.092C313.558 163.924 312.611 162.977 311.442 162.977C310.274 162.977 309.327 163.924 309.327 165.092C309.327 166.26 310.274 167.207 311.442 167.207Z" fill="white"/>
</g>
<g opacity="0.4">
<path d="M261.664 175.609C262.526 175.609 263.225 174.91 263.225 174.047C263.225 173.185 262.526 172.486 261.664 172.486C260.801 172.486 260.102 173.185 260.102 174.047C260.102 174.91 260.801 175.609 261.664 175.609Z" fill="white"/>
</g>
<g opacity="0.4">
<path d="M267.12 165.25C267.983 165.25 268.682 164.551 268.682 163.688C268.682 162.826 267.983 162.127 267.12 162.127C266.257 162.127 265.558 162.826 265.558 163.688C265.558 164.551 266.257 165.25 267.12 165.25Z" fill="white"/>
</g>
<g opacity="0.4">
<path d="M245.987 166.891C248.727 166.891 250.949 164.669 250.949 161.929C250.949 159.188 248.727 156.967 245.987 156.967C243.246 156.967 241.025 159.188 241.025 161.929C241.025 164.669 243.246 166.891 245.987 166.891Z" fill="white"/>
</g>
<g opacity="0.4">
<path d="M223.648 230.528C225.689 230.528 227.345 228.873 227.345 226.831C227.345 224.789 225.689 223.134 223.648 223.134C221.606 223.134 219.951 224.789 219.951 226.831C219.951 228.873 221.606 230.528 223.648 230.528Z" fill="white"/>
</g>
<g opacity="0.4">
<path d="M219.14 212.439C220.09 212.439 220.86 211.669 220.86 210.719C220.86 209.769 220.09 208.999 219.14 208.999C218.19 208.999 217.42 209.769 217.42 210.719C217.42 211.669 218.19 212.439 219.14 212.439Z" fill="white"/>
</g>
<path d="M275.383 249.605C275.047 249.605 274.771 249.328 274.771 248.992C274.771 248.656 275.047 248.379 275.383 248.379C284.576 248.379 292.879 243.279 297.011 235.075L324.114 181.382C324.272 181.085 324.628 180.967 324.925 181.105C325.221 181.263 325.34 181.619 325.202 181.915L298.098 235.608C293.729 244.247 285.031 249.605 275.383 249.605Z" fill="#030047"/>
<path d="M275.561 202.04C275.482 202.04 275.403 202.021 275.304 201.981C275.008 201.843 274.869 201.487 275.008 201.19L291.831 163.708C291.97 163.412 292.326 163.273 292.622 163.412C292.919 163.55 293.057 163.906 292.919 164.202L276.095 201.685C276.016 201.902 275.799 202.04 275.561 202.04Z" fill="#030047"/>
<path d="M256.939 240.669C256.761 240.669 256.603 240.59 256.484 240.452L212.498 189.032C212.3 188.815 212.3 188.479 212.498 188.261L234.323 161.533C234.422 161.395 234.58 161.316 234.758 161.316C234.936 161.296 235.094 161.375 235.213 161.494L281.69 207.022C281.927 207.259 281.927 207.635 281.69 207.872C281.453 208.109 281.077 208.109 280.84 207.872L234.837 162.818L213.763 188.637L257.413 239.681C257.631 239.938 257.591 240.313 257.354 240.531C257.216 240.63 257.077 240.669 256.939 240.669Z" fill="#030047"/>
<path d="M219.397 147.873C219.259 147.873 219.121 147.814 219.002 147.715L212.083 141.586C211.826 141.369 211.806 140.993 212.024 140.736C212.241 140.479 212.617 140.46 212.874 140.677L219.793 146.806C220.05 147.023 220.07 147.418 219.852 147.656C219.733 147.814 219.556 147.873 219.397 147.873Z" fill="#030047"/>
<path d="M216.353 153.586C216.215 153.586 216.076 153.547 215.958 153.448L203.207 142.773C202.95 142.555 202.91 142.18 203.127 141.923C203.345 141.666 203.721 141.626 203.978 141.844L216.729 152.519C216.986 152.736 217.025 153.112 216.808 153.369C216.709 153.527 216.531 153.586 216.353 153.586Z" fill="#030047"/>
<path d="M211.767 158.449C211.628 158.449 211.49 158.41 211.371 158.311L200.439 148.96C200.182 148.743 200.162 148.367 200.38 148.11C200.597 147.853 200.973 147.833 201.23 148.051L212.162 157.402C212.419 157.619 212.439 157.995 212.221 158.252C212.103 158.37 211.925 158.449 211.767 158.449Z" fill="#030047"/>
<path d="M250.613 99.34C250.079 100.447 249.071 101.04 248.32 100.704C247.588 100.348 247.41 99.1819 247.924 98.0748C248.458 96.9677 249.466 96.3747 250.217 96.7107C250.969 97.0468 251.147 98.2329 250.613 99.34Z" fill="#030047"/>
<path d="M249.605 94.1408C251.166 94.1012 252.649 95.1095 253.361 96.691L249.605 94.1408Z" fill="white"/>
<path d="M253.361 97.284C253.123 97.284 252.906 97.1456 252.807 96.9281C252.214 95.5641 250.969 94.6942 249.624 94.7338C249.288 94.7338 249.011 94.4768 249.011 94.1407C249.011 93.8046 249.268 93.5278 249.605 93.5278C251.423 93.5081 253.123 94.6349 253.914 96.4537C254.053 96.7502 253.914 97.106 253.598 97.2444C253.519 97.284 253.44 97.284 253.361 97.284Z" fill="#030047"/>
<path d="M262.237 104.856C261.703 105.963 260.695 106.556 259.944 106.22C259.193 105.884 259.034 104.697 259.548 103.59C260.082 102.483 261.09 101.89 261.842 102.226C262.593 102.582 262.771 103.749 262.237 104.856Z" fill="#030047"/>
<path d="M261.229 99.6562C262.791 99.6166 264.273 100.625 264.985 102.206L261.229 99.6562Z" fill="white"/>
<path d="M264.965 102.819C264.728 102.819 264.51 102.681 264.412 102.463C263.819 101.099 262.553 100.23 261.229 100.269C260.893 100.269 260.616 100.012 260.616 99.676C260.616 99.34 260.873 99.0632 261.209 99.0632C263.028 99.0039 264.728 100.17 265.519 101.989C265.657 102.286 265.519 102.641 265.202 102.78C265.143 102.8 265.064 102.819 264.965 102.819Z" fill="#030047"/>
<path d="M254.962 101.08C254.211 102.681 252.076 106.971 251.325 108.552C250.87 109.521 250.415 110.509 250.494 111.537C250.573 112.565 251.384 113.633 252.609 113.811" fill="white"/>
<path d="M252.629 114.444C252.59 114.444 252.57 114.444 252.53 114.444C250.949 114.206 250 112.842 249.901 111.617C249.802 110.411 250.316 109.304 250.771 108.315C251.147 107.524 251.878 106.042 252.59 104.559C253.301 103.096 254.033 101.613 254.408 100.823C254.547 100.526 254.903 100.388 255.219 100.526C255.516 100.664 255.654 101.02 255.516 101.337C255.14 102.127 254.408 103.61 253.697 105.093C252.985 106.556 252.254 108.019 251.878 108.829C251.483 109.679 251.028 110.628 251.107 111.518C251.166 112.249 251.759 113.099 252.708 113.257C253.044 113.317 253.262 113.613 253.222 113.949C253.183 114.226 252.926 114.444 252.629 114.444Z" fill="#030047"/>
<path d="M257.552 118.239C256.939 118.239 256.306 118.16 255.713 117.982C255.397 117.883 255.219 117.547 255.298 117.231C255.397 116.915 255.733 116.737 256.049 116.816C257.374 117.211 258.837 117.053 260.062 116.401C261.288 115.748 262.217 114.602 262.613 113.277C262.711 112.961 263.048 112.783 263.364 112.882C263.68 112.981 263.858 113.317 263.759 113.633C263.265 115.254 262.118 116.658 260.616 117.468C259.707 117.982 258.639 118.239 257.552 118.239Z" fill="#030047"/>
<path d="M61.2396 57.8748C70.5347 48.5797 70.5347 33.5092 61.2396 24.214C51.9444 14.9189 36.874 14.9189 27.5788 24.214C18.2836 33.5092 18.2836 48.5797 27.5788 57.8748C36.874 67.17 51.9444 67.17 61.2396 57.8748Z" fill="white"/>
<path d="M44.3618 65.4557C39.5975 65.4557 34.932 64.0521 30.8793 61.3437C25.4626 57.726 21.7658 52.2104 20.4808 45.825C17.8317 32.6192 26.4115 19.7495 39.6173 17.1005C52.8032 14.4514 65.6927 23.051 68.3418 36.237C69.6268 42.6224 68.3418 49.1462 64.724 54.5629C61.1063 59.9796 55.5907 63.6765 49.2053 64.9615C47.5842 65.2975 45.9631 65.4557 44.3618 65.4557ZM44.4211 17.8319C42.9187 17.8319 41.3965 17.9703 39.8545 18.2866C27.3209 20.7973 19.1562 33.0541 21.6669 45.5877C22.8926 51.6569 26.3917 56.8957 31.5515 60.3355C36.7112 63.7753 42.8989 65.001 48.968 63.7753C55.0372 62.5496 60.276 59.0505 63.7158 53.8908C67.1556 48.731 68.3813 42.5433 67.1556 36.4742C64.9612 25.4628 55.2348 17.8319 44.4211 17.8319Z" fill="#030047"/>
<path d="M49.0784 64.3765C54.902 63.21 57.5301 51.8157 54.9483 38.9265C52.3666 26.0374 45.5526 16.5343 39.7289 17.7008C33.9053 18.8673 31.2772 30.2617 33.859 43.1508C36.4407 56.04 43.2547 65.5431 49.0784 64.3765Z" fill="white"/>
<path d="M48.0784 65.0799C42.1279 65.0799 35.782 55.8872 33.2713 43.2745C32.0061 36.9484 31.927 30.7805 33.0539 25.8975C34.2203 20.8366 36.553 17.7329 39.6172 17.12C45.8643 15.8548 52.8625 25.4033 55.5511 38.8265C56.8163 45.1526 56.8954 51.3206 55.7686 56.2035C54.6022 61.2644 52.2694 64.3682 49.2052 64.981C48.8296 65.0403 48.454 65.0799 48.0784 65.0799ZM34.4575 43.0175C36.9286 55.3535 43.571 64.8426 48.968 63.7751C51.538 63.2611 53.5347 60.4737 54.5824 55.907C55.6697 51.1822 55.5907 45.1921 54.365 39.044C51.8938 26.708 45.2514 17.2189 39.8545 18.2864C37.2845 18.8004 35.2878 21.5878 34.24 26.1545C33.1527 30.8793 33.2318 36.8694 34.4575 43.0175Z" fill="#030047"/>
<path d="M49.0866 64.9811C48.8099 64.9811 48.5529 64.7834 48.4936 64.4868L39.1428 17.812C39.0835 17.4759 39.2812 17.1596 39.6172 17.1003C39.9533 17.041 40.2696 17.2387 40.3289 17.5748L49.6797 64.2496C49.739 64.5857 49.5413 64.902 49.2052 64.9613C49.1657 64.9811 49.1262 64.9811 49.0866 64.9811Z" fill="#030047"/>
<path d="M21.0739 46.3191C20.7971 46.3191 20.5401 46.1214 20.4808 45.8249C20.4215 45.4888 20.6192 45.1725 20.9553 45.1132L67.6301 35.7624C67.9662 35.7031 68.2825 35.9008 68.3418 36.2369C68.4011 36.5729 68.2034 36.8892 67.8673 36.9486L21.1925 46.2993C21.1529 46.2993 21.1134 46.3191 21.0739 46.3191Z" fill="#030047"/>
<path d="M36.988 28.6851C33.2121 28.6851 29.5153 27.7955 26.0754 26.0756C25.7789 25.9174 25.6603 25.5616 25.7987 25.265C25.9568 24.9685 26.3127 24.8499 26.6092 24.9883C31.2747 27.3408 36.4542 28.0525 41.5942 27.0047C46.7342 25.9767 51.2415 23.3277 54.6418 19.3739C54.8593 19.1169 55.2349 19.0971 55.4919 19.3145C55.7489 19.532 55.7686 19.9076 55.5512 20.1646C51.973 24.3359 47.2284 27.1233 41.8117 28.2106C40.2301 28.5269 38.6091 28.6851 36.988 28.6851Z" fill="#030047"/>
<path d="M33.7063 62.9054C33.5679 62.9054 33.4295 62.8659 33.3109 62.767C33.0539 62.5496 33.0342 62.174 33.2516 61.917C36.8298 57.7457 41.5744 54.9582 46.9911 53.8709C52.3881 52.7836 57.8444 53.5151 62.7669 56.006C63.0634 56.1642 63.182 56.52 63.0436 56.8165C62.8855 57.1131 62.5296 57.2317 62.2331 57.0933C57.5676 54.7408 52.3881 54.0489 47.2481 55.0769C42.1082 56.1049 37.6008 58.7539 34.2005 62.7077C34.0424 62.8263 33.8842 62.9054 33.7063 62.9054Z" fill="#030047"/>
<path d="M38.2327 43.3431C38.6289 41.1512 37.1733 39.0531 34.9814 38.6569C32.7895 38.2606 30.6914 39.7163 30.2952 41.9082C29.8989 44.1001 31.3546 46.1982 33.5465 46.5944C35.7384 46.9906 37.8365 45.535 38.2327 43.3431Z" fill="#0045DF"/>
<path d="M52.6451 34.8136C54.8724 34.8136 56.678 33.008 56.678 30.7807C56.678 28.5534 54.8724 26.7478 52.6451 26.7478C50.4178 26.7478 48.6122 28.5534 48.6122 30.7807C48.6122 33.008 50.4178 34.8136 52.6451 34.8136Z" fill="#0045DF"/>
<path d="M59.0701 52.3091C59.505 54.4837 58.1014 56.599 55.907 57.0537C53.7324 57.4886 51.6171 56.085 51.1624 53.8907C50.7275 51.7161 52.1311 49.6008 54.3255 49.1461C56.5001 48.7112 58.6154 50.1345 59.0701 52.3091Z" fill="#605EFD"/>
<path d="M151.016 52.9616L115.689 57.0538C112.506 57.4294 109.639 55.1559 109.284 51.9731L104.954 14.6293C104.579 11.4465 106.852 8.57994 110.035 8.2241L145.362 4.1319C148.545 3.75628 151.412 6.02973 151.767 9.21255L156.097 46.5564C156.453 49.7194 154.179 52.586 151.016 52.9616Z" fill="#030047"/>
<path d="M220.247 75.9728L187.668 64.8428C184.742 63.8346 183.18 60.6518 184.169 57.7259L195.931 23.2882C196.94 20.3624 200.123 18.8006 203.048 19.789L235.628 30.9191C238.554 31.9273 240.115 35.1101 239.127 38.0359L227.345 72.4935C226.356 75.4193 223.173 76.981 220.247 75.9728Z" fill="#030047"/>
<path d="M30.4444 157.244C16.1711 158.904 2.80721 148.703 0.632608 134.47L0.296533 132.255C-1.87807 118.022 7.94717 105.152 22.2402 103.491C36.5333 101.831 49.8774 112.032 52.052 126.246L52.3881 128.48C54.5627 142.693 44.7375 155.583 30.4444 157.244Z" fill="#030047"/>
<path d="M131.642 49.5019C133.368 49.5019 134.766 48.1035 134.766 46.3784C134.766 44.6533 133.368 43.2549 131.642 43.2549C129.917 43.2549 128.519 44.6533 128.519 46.3784C128.519 48.1035 129.917 49.5019 131.642 49.5019Z" fill="#0045DF"/>
<path d="M136.921 36.474C135.497 37.6997 134.786 39.5382 134.983 41.3965L135.003 41.6338L127.372 42.4443L127.353 42.2071C127.155 40.3092 126.008 38.6882 124.348 37.759C121.323 36.0786 119.129 32.9947 118.733 29.2781C118.061 22.952 122.845 17.3178 129.31 17.0608C134.904 16.8433 139.847 20.9355 140.657 26.4709C141.211 30.4049 139.669 34.1017 136.921 36.474Z" fill="white"/>
<path d="M129.507 41.8118C129.31 41.8118 129.132 41.6734 129.112 41.456L127.926 32.461C127.511 32.4215 127.076 32.3819 126.661 32.3029L124.941 31.9866C124.447 31.9075 124.031 31.6307 123.755 31.2156C123.478 30.8004 123.379 30.3259 123.478 29.8317C123.577 29.298 123.933 28.8235 124.407 28.5665C124.901 28.3095 125.455 28.27 125.969 28.4874C127.333 29.0607 128.321 30.2469 128.618 31.6702C129.586 31.69 130.555 31.5912 131.484 31.3539C131.484 29.891 132.196 28.5072 133.402 27.6769C133.857 27.3606 134.41 27.2617 134.944 27.4199C135.478 27.578 135.893 27.9537 136.13 28.4479C136.328 28.9026 136.328 29.3968 136.15 29.8515C135.972 30.3062 135.616 30.662 135.161 30.8597L133.54 31.5319C133.145 31.69 132.75 31.8284 132.334 31.9668L133.086 41.021C133.105 41.2385 132.947 41.4362 132.71 41.456C132.493 41.4757 132.295 41.3176 132.275 41.0803L131.524 32.1645C130.595 32.3819 129.666 32.461 128.717 32.461L129.883 41.3176C129.903 41.535 129.764 41.7327 129.527 41.7723C129.547 41.8118 129.527 41.8118 129.507 41.8118ZM125.257 29.1596C125.099 29.1596 124.921 29.1991 124.783 29.2782C124.506 29.4166 124.328 29.6736 124.269 29.9899C124.209 30.2666 124.269 30.5434 124.427 30.7609C124.585 30.9783 124.822 31.1365 125.079 31.1958L126.799 31.5121C127.115 31.5714 127.451 31.6109 127.768 31.6505C127.471 30.5829 126.68 29.6933 125.633 29.2584C125.534 29.1991 125.395 29.1596 125.257 29.1596ZM134.469 28.1909C134.272 28.1909 134.054 28.2502 133.896 28.3688C132.967 29.0212 132.394 30.0492 132.334 31.1563C132.651 31.0574 132.947 30.9388 133.264 30.8202L134.885 30.148C135.142 30.0492 135.339 29.8515 135.438 29.5945C135.537 29.3375 135.537 29.0607 135.438 28.8037C135.319 28.527 135.082 28.3095 134.786 28.2304C134.647 28.1909 134.549 28.1909 134.469 28.1909Z" fill="#030047"/>
<path d="M137.356 45.469L125.85 46.6947C125.672 46.7145 125.534 46.5959 125.514 46.418L125.04 41.9699C125.02 41.792 125.138 41.6536 125.316 41.6338L136.822 40.4082C137 40.3884 137.138 40.507 137.158 40.6849L137.632 45.133C137.652 45.2911 137.534 45.4493 137.356 45.469Z" fill="#0045DF"/>
<path d="M128.578 12.2737L127.379 12.4021L127.645 14.8788L128.844 14.7504L128.578 12.2737Z" fill="white"/>
<path d="M119.032 15.6305L118.058 16.3413L119.526 18.3537L120.501 17.6429L119.032 15.6305Z" fill="white"/>
<path d="M138.53 14.1601L137.427 13.6719L136.418 15.9493L137.521 16.4376L138.53 14.1601Z" fill="white"/>
<path d="M29.3374 147.122C28.1117 147.913 26.5697 147.992 25.2847 147.319C19.8877 144.473 6.0889 135.893 9.37057 123.774C9.92411 121.738 11.1893 119.939 12.9488 118.753C17.5154 115.649 22.3984 115.966 25.9371 118.219C29.0804 115.748 33.5877 114.918 38.2532 117.152C40.2104 118.101 42.4245 120.592 43.1164 122.648C46.9714 134.193 34.3587 143.84 29.3374 147.122Z" fill="white"/>
<path d="M25.9766 138.285C25.6207 138.285 25.3044 138.048 25.2056 137.712L22.6158 129.369L21.7262 132.809C21.6471 133.145 21.3506 133.382 21.0145 133.402L17.12 133.699C16.6653 133.738 16.2897 133.402 16.2502 132.947C16.2106 132.512 16.5467 132.117 17.0014 132.077L20.3028 131.84L21.746 126.206C21.8448 125.85 22.1414 125.613 22.4972 125.593C22.853 125.573 23.1891 125.811 23.288 126.166L25.9173 134.687L27.8151 128.341C27.9139 128.025 28.2105 127.788 28.5465 127.768C28.8826 127.748 29.1989 127.946 29.3373 128.262L30.82 131.781L31.6503 130.496C31.7887 130.278 32.0061 130.14 32.2631 130.14L36.4937 129.824C36.9286 129.804 37.324 130.12 37.3636 130.575C37.4031 131.01 37.067 131.405 36.6123 131.445L32.7771 131.722L31.334 133.956C31.1758 134.213 30.8793 134.351 30.5828 134.311C30.2862 134.292 30.0292 134.094 29.9106 133.817L28.7245 130.97L26.7278 137.692C26.6289 138.048 26.3324 138.285 25.9766 138.285Z" fill="#030047"/>
<path d="M159.576 226.416H102.048C99.142 226.416 96.6906 224.241 96.3546 221.335L95.5045 213.981C95.1091 210.581 97.7779 207.576 101.198 207.576H158.726C161.632 207.576 164.083 209.75 164.42 212.656L165.27 220.01C165.685 223.411 163.016 226.416 159.576 226.416Z" fill="#605EFD"/>
<path d="M220.386 49.4625L205.46 42.3456L208.584 35.7823C210.541 31.6703 215.483 29.9108 219.595 31.868C221.592 32.8169 223.094 34.4973 223.826 36.573C224.557 38.6488 224.458 40.8827 223.49 42.8794L220.386 49.4625ZM208.426 41.2978L219.318 46.4971L221.493 41.9502C222.185 40.4873 222.264 38.8465 221.73 37.344C221.196 35.8218 220.089 34.5961 218.646 33.9042C215.641 32.4808 212.024 33.746 210.6 36.7509L208.426 41.2978Z" fill="#0045DF"/>
<path d="M214.495 64.7835L197.256 56.5595C196.643 56.263 196.386 55.5513 196.683 54.9385L204.017 39.5383C204.314 38.9255 205.025 38.6685 205.638 38.965L222.877 47.189C223.49 47.4855 223.747 48.1972 223.45 48.8101L216.116 64.2102C215.839 64.823 215.108 65.08 214.495 64.7835Z" fill="white"/>
<path d="M206.31 54.0093L208.524 52.2103C207.813 51.3602 207.635 50.1346 208.149 49.067C208.841 47.6041 210.62 46.9715 212.103 47.6634C213.585 48.3751 214.198 50.1346 213.506 51.6172C212.992 52.6848 211.944 53.3174 210.837 53.2976V56.1444C210.837 56.7177 210.244 57.0933 209.711 56.8561L206.488 55.3338C205.935 55.0768 205.856 54.3651 206.31 54.0093Z" fill="#030047"/>
<path d="M54.286 224.399L50.431 226.831C48.6122 227.958 46.2399 227.424 45.1131 225.625L42.6815 221.77C41.5547 219.971 42.0884 217.599 43.8874 216.472L47.7424 214.04C49.5414 212.913 51.9137 213.447 53.0603 215.246L55.4919 219.121C56.6187 220.9 56.0849 223.272 54.286 224.399Z" fill="#0045DF"/>
<path d="M272.339 55.8677L268.484 58.2992C266.665 59.4261 264.293 58.8923 263.166 57.0933L260.735 53.2384C259.608 51.4394 260.142 49.0671 261.941 47.9402L265.795 45.5086C267.594 44.3818 269.967 44.9156 271.113 46.7146L273.545 50.5893C274.672 52.3487 274.118 54.721 272.339 55.8677Z" fill="#0045DF"/>
<path d="M87.9132 8.85664L84.8094 10.8138C83.3465 11.7232 81.4289 11.2882 80.5195 9.84509L78.5624 6.72158C77.653 5.27843 78.0879 3.36083 79.5311 2.43168L82.6348 0.454775C84.078 -0.454604 85.9956 -0.0196837 86.9247 1.42346L88.8819 4.54698C89.811 6.02966 89.3761 7.94726 87.9132 8.85664Z" fill="#0045DF"/>
<path d="M200.043 97.3432L196.94 99.3004C195.477 100.21 193.559 99.7748 192.65 98.3317L190.693 95.2279C189.783 93.7848 190.218 91.8672 191.661 90.938L194.765 88.9611C196.208 88.0517 198.126 88.4867 199.055 89.9298L201.012 93.0533C201.941 94.5162 201.506 96.4338 200.043 97.3432Z" fill="#0045DF"/>
</g>
<defs>
<clipPath id="clip0_34_8842">
<rect width="336.075" height="250" fill="white"/>
</clipPath>
</defs>
</svg>
