<svg width="299" height="250" viewBox="0 0 299 250" fill="none" xmlns="http://www.w3.org/2000/svg">
<g clip-path="url(#clip0_34_7980)">
<path d="M227.642 110.716L196.07 117.408C189.118 118.891 182.277 114.442 180.793 107.49L176.641 87.8939C175.158 80.9418 179.607 74.1008 186.559 72.6177L218.131 65.9251C225.083 64.4419 231.924 68.8913 233.407 75.8435L237.56 95.4393C239.043 102.41 234.594 109.251 227.642 110.716Z" fill="#605EFD"/>
<path d="M212.885 89.062L207.416 95.4209C205.729 97.386 202.521 96.5518 201.984 94.0304L199.87 84.0935C199.333 81.5722 201.928 79.5143 204.264 80.6267L211.846 84.2047C213.719 85.0761 214.238 87.5047 212.885 89.062Z" fill="white"/>
<path d="M229.749 98.091L189.049 106.719L189.515 108.914L230.214 100.286L229.749 98.091Z" fill="white"/>
<path d="M213.163 102.725C213.459 104.134 214.85 105.043 216.277 104.746C217.686 104.449 218.595 103.059 218.298 101.631C218.001 100.222 216.611 99.314 215.184 99.6106C213.756 99.9258 212.848 101.316 213.163 102.725Z" fill="#030047"/>
<path d="M34.0934 178.921L17.8717 192.362C15.3318 194.457 11.5869 194.105 9.47348 191.565L1.37188 181.776C-0.723039 179.236 -0.370795 175.491 2.16906 173.378L18.3908 159.937C20.9307 157.842 24.6756 158.194 26.789 160.734L34.8906 170.523C36.9855 173.063 36.6333 176.826 34.0934 178.921Z" fill="#0045DF"/>
<path d="M17.9644 178.921C17.9459 178.921 17.9088 178.921 17.8902 178.921L4.54207 178.569C4.15275 178.55 3.83759 178.235 3.83759 177.827C3.85612 177.438 4.20837 177.123 4.57915 177.123L17.9273 177.475C18.706 177.494 19.3919 176.937 19.5031 176.159L21.6537 162.977C21.7093 162.588 22.0801 162.329 22.4694 162.384C22.8587 162.44 23.1183 162.811 23.0626 163.2L20.9121 176.381C20.6711 177.864 19.4104 178.921 17.9644 178.921Z" fill="white"/>
<path d="M20.4115 175.714C20.0408 175.714 19.7256 175.417 19.7071 175.028C19.6885 174.638 19.9851 174.305 20.393 174.286L31.6833 173.73C32.0726 173.712 32.4064 174.008 32.4249 174.416C32.4434 174.805 32.1468 175.139 31.7389 175.158L20.4486 175.714C20.4486 175.714 20.4301 175.714 20.4115 175.714Z" fill="white"/>
<path d="M13.9043 189.878C13.8487 189.878 13.7931 189.878 13.7375 189.859C13.3481 189.766 13.1257 189.377 13.2184 188.988L15.888 177.994C15.9807 177.605 16.37 177.382 16.7593 177.475C17.1487 177.568 17.3711 177.957 17.2784 178.346L14.6088 189.34C14.5346 189.655 14.238 189.878 13.9043 189.878Z" fill="white"/>
<path d="M174.638 248.702H43.2147L31.6277 64.2751C31.0901 55.5431 37.7456 48.4797 46.459 48.4797H146.274C155.006 48.4797 162.514 55.5617 163.052 64.2751L174.638 248.702Z" fill="#E6F3FC"/>
<path d="M174.638 249.24H43.2147C42.9366 249.24 42.6956 249.017 42.677 248.739L31.0715 64.3122C30.812 59.9369 32.258 55.8213 35.1687 52.7252C38.0793 49.6477 42.0838 47.9421 46.4405 47.9421H146.274C155.265 47.9421 163.033 55.2651 163.571 64.2566L175.158 248.684C175.176 248.832 175.12 248.98 175.009 249.092C174.935 249.184 174.787 249.24 174.638 249.24ZM43.7152 248.165H174.064L162.495 64.3122C161.976 55.8769 154.69 49.0174 146.255 49.0174H46.459C42.3989 49.0174 38.6726 50.5932 35.9659 53.4668C33.2592 56.3404 31.9058 60.178 32.1468 64.2566L43.7152 248.165Z" fill="#030047"/>
<path d="M50.8899 248.702L39.2658 63.7005C39.0063 59.5292 42.1765 56.155 46.3478 56.155H147.312C151.483 56.155 155.061 59.5292 155.321 63.7005L166.945 248.702H50.8899Z" fill="white"/>
<path d="M166.963 249.24H50.9084C50.6303 249.24 50.3893 249.018 50.3708 248.739L38.7467 63.7376C38.617 61.5685 39.34 59.5292 40.786 57.9904C42.2321 56.4517 44.2158 55.6174 46.3663 55.6174H147.33C151.761 55.6174 155.599 59.2326 155.877 63.6634L167.501 248.665C167.519 248.814 167.464 248.962 167.353 249.073C167.241 249.184 167.112 249.24 166.963 249.24ZM51.409 248.165H166.389L154.802 63.7376C154.561 59.8443 151.205 56.6927 147.33 56.6927H46.3478C44.4753 56.6927 42.7697 57.4157 41.5461 58.732C40.304 60.0483 39.6922 61.8095 39.8035 63.6819L51.409 248.165Z" fill="#030047"/>
<path d="M101.075 64.5718C101.205 66.6482 99.6292 68.3352 97.5343 68.3352C95.4579 68.3352 93.6781 66.6482 93.5484 64.5718C93.4186 62.4954 94.9944 60.8083 97.0893 60.8083C99.1657 60.8083 100.945 62.4954 101.075 64.5718Z" fill="#030047"/>
<path d="M147.442 96.255C147.701 100.63 146.181 104.579 143.493 107.453C140.805 110.326 136.948 112.087 132.573 112.087H31.9985C23.248 112.087 15.7397 105.005 15.2021 96.255C14.9425 91.8798 16.4627 87.9124 19.1509 85.0574C21.8391 82.1838 25.6952 80.4226 30.0704 80.4226H130.645C139.377 80.4226 146.904 87.5046 147.442 96.255Z" fill="white"/>
<path d="M132.573 112.625H31.9985C22.9885 112.625 15.2206 105.302 14.6644 96.2921C14.4049 91.9169 15.8509 87.7827 18.7616 84.6866C21.6722 81.5906 25.6767 79.885 30.0704 79.885H130.645C139.655 79.885 147.442 87.208 147.979 96.218C148.239 100.593 146.793 104.709 143.882 107.805C140.971 110.919 136.948 112.625 132.573 112.625ZM30.0519 80.9603C25.9733 80.9603 22.2284 82.5546 19.5402 85.4282C16.8335 88.3018 15.4802 92.1394 15.7397 96.218C16.2588 104.672 23.5447 111.55 31.9985 111.55H132.573C136.652 111.55 140.397 109.955 143.103 107.082C145.81 104.208 147.164 100.371 146.923 96.2921C146.403 87.8383 139.099 80.9603 130.645 80.9603H30.0519Z" fill="#030047"/>
<path d="M147.442 96.255C147.701 100.63 146.181 104.579 143.493 107.453C140.805 110.326 136.948 112.087 132.573 112.087H129.422C120.671 112.087 113.163 105.005 112.625 96.255C112.366 91.8798 113.886 87.9124 116.574 85.0574C119.262 82.1838 123.118 80.4226 127.493 80.4226H130.645C139.377 80.4226 146.904 87.5046 147.442 96.255Z" fill="#605EFD"/>
<path d="M132.573 112.625H129.422C120.412 112.625 112.644 105.302 112.087 96.2921C111.828 91.9169 113.274 87.7827 116.185 84.6866C119.095 81.5906 123.1 79.885 127.493 79.885H130.645C139.655 79.885 147.442 87.208 147.979 96.218C148.239 100.593 146.793 104.709 143.882 107.805C140.971 110.919 136.948 112.625 132.573 112.625ZM127.475 80.9603C123.396 80.9603 119.651 82.5546 116.963 85.4282C114.257 88.3018 112.903 92.1394 113.144 96.218C113.663 104.672 120.949 111.55 129.403 111.55H132.555C136.633 111.55 140.378 109.955 143.085 107.082C145.792 104.208 147.145 100.371 146.904 96.2921C146.385 87.8383 139.08 80.9603 130.627 80.9603H127.475Z" fill="#030047"/>
<path d="M137.616 99.7962C135.336 102.225 131.646 102.596 128.736 100.89L125.51 104.338C124.861 105.024 123.749 105.024 123.007 104.338C122.284 103.652 122.21 102.54 122.859 101.854L126.103 98.4057C124.231 95.5878 124.379 91.88 126.641 89.4513C129.329 86.5963 133.964 86.5963 136.986 89.4513C140.026 92.3064 140.304 96.9411 137.616 99.7962Z" fill="white"/>
<path d="M135.447 97.7383C133.834 99.4625 131.034 99.4625 129.218 97.7383C127.382 96.0142 127.215 93.2333 128.828 91.5092C130.441 89.785 133.241 89.785 135.057 91.5092C136.893 93.2148 137.06 96.0142 135.447 97.7383Z" fill="#605EFD"/>
<path d="M46.218 101.465C46.1809 100.927 46.3107 100.501 46.6259 100.148C46.9225 99.8146 47.3118 99.6292 47.7568 99.6292C48.3129 99.6292 48.7208 99.9258 48.9618 100.538C49.2399 101.353 50.0371 101.761 51.3348 101.761C52.3915 101.761 53.5039 101.52 54.6904 101.02C55.8769 100.519 56.4516 99.8331 56.396 98.9803C56.3589 98.3871 56.0994 97.9792 55.6359 97.7568C55.1724 97.5343 54.1898 97.4045 52.6696 97.386C51.5017 97.3674 50.482 97.1079 49.5921 96.663C48.7022 96.1995 48.2388 95.5877 48.2017 94.809C48.1275 93.5113 48.8135 92.2506 50.2595 91.0456C51.7056 89.8406 53.3185 89.2288 55.0612 89.2288C55.7286 89.2288 56.5443 89.3956 57.4898 89.7108C58.4538 90.0445 58.9358 90.4153 58.9729 90.8417C58.9915 91.1383 58.8617 91.472 58.5836 91.8057C58.3055 92.1394 57.9347 92.3063 57.5083 92.3063C57.1746 92.3063 56.7297 92.2321 56.155 92.1023C55.6173 91.9725 55.1724 91.8984 54.8016 91.8984C53.9488 91.8984 53.1146 92.1209 52.2988 92.5473C51.4646 92.9737 51.0753 93.4557 51.1123 93.9748C51.1309 94.4197 51.5758 94.6978 52.4286 94.8276L54.6718 94.9388C55.5617 94.9759 56.3404 95.1427 57.0263 95.4579C57.7123 95.7545 58.2499 96.1809 58.6207 96.7186C58.9915 97.2562 59.1954 97.9051 59.2325 98.6281C59.3437 100.463 58.5651 101.891 56.9151 102.874C55.2466 103.856 53.2814 104.357 50.9826 104.357C49.518 104.357 48.3685 104.079 47.5343 103.504C46.7186 102.929 46.2736 102.243 46.218 101.465Z" fill="#605EFD"/>
<path d="M64.3122 91.0271C64.1453 92.6215 63.997 93.9377 63.8673 94.9389C64.6644 94.8647 65.9436 94.7535 67.6863 94.5681C68.9284 94.4568 69.7071 94.3827 70.0593 94.3827C70.4116 94.3827 70.7082 94.4939 70.9307 94.6979C71.1531 94.9018 71.2829 95.1799 71.3014 95.5136C71.32 95.9029 71.2273 96.2366 71.0048 96.5518C70.7823 96.8484 70.4116 97.0338 69.8739 97.0709C69.3363 97.1079 68.5206 97.2006 67.4082 97.3119C66.2959 97.4231 64.9796 97.5529 63.4409 97.6641C63.1813 99.5366 63.0701 100.797 63.1071 101.465C63.1257 101.687 63.1628 101.854 63.2184 101.928C63.274 102.002 63.6633 102.039 64.4049 102.039H65.165L68.0386 101.984C68.1312 101.984 68.4279 101.947 68.9284 101.891C69.3548 101.835 69.7256 101.91 70.0037 102.113C70.2818 102.317 70.4486 102.614 70.4672 102.985C70.5043 103.689 70.2632 104.153 69.7256 104.394C69.188 104.616 67.6678 104.728 65.1835 104.728C63.0886 104.728 61.7909 104.487 61.2903 103.986C60.7898 103.485 60.4931 102.725 60.4375 101.669C60.3634 100.538 60.5673 98.554 61.0308 95.7175C61.4572 93.2333 61.6426 91.5647 61.5869 90.7305C61.5684 90.026 61.6055 89.5254 61.6611 89.2103C61.7167 88.9137 61.8836 88.6541 62.1246 88.4687C62.3656 88.2648 62.6993 88.1721 63.1071 88.1721C63.4038 88.1721 63.6448 88.2648 63.8487 88.4316C65.3318 88.0423 66.7037 87.8384 67.9459 87.8384C68.947 87.8384 69.9481 87.9496 70.9677 88.1535C71.9874 88.376 72.525 88.7839 72.5621 89.3957C72.5806 89.8406 72.4509 90.2299 72.1728 90.5451C71.8761 90.8788 71.5239 91.0271 71.116 91.0271C70.9677 91.0271 70.838 91.0086 70.6896 90.9715C69.67 90.6934 68.6689 90.5451 67.6678 90.5451C66.6481 90.5636 65.5172 90.7119 64.3122 91.0271Z" fill="#605EFD"/>
<path d="M72.5065 99.0731C72.4138 97.6827 72.766 96.1439 73.5076 94.4569C74.2677 92.7698 75.343 91.3979 76.7334 90.3226C78.1238 89.2659 79.644 88.7283 81.257 88.7283C85.1872 88.7283 87.2451 90.3412 87.449 93.567C87.6159 96.1625 86.8558 98.6282 85.2058 100.908C83.5558 103.207 81.4609 104.357 78.9581 104.357C77.1598 104.357 75.6581 103.856 74.4531 102.874C73.2481 101.891 72.5992 100.612 72.5065 99.0731ZM75.2503 98.5911C75.3059 99.481 75.7138 100.223 76.4553 100.797C77.1969 101.372 78.1238 101.669 79.2176 101.669C80.7935 101.669 82.1283 100.834 83.2221 99.1473C84.3159 97.4602 84.7979 95.7361 84.7052 93.9563C84.6496 93.0479 84.353 92.399 83.7968 92.0097C83.2406 91.6204 82.3322 91.435 81.0345 91.435C79.9963 91.435 79.0137 91.8243 78.0868 92.5844C77.1598 93.3445 76.4553 94.3271 75.9548 95.5321C75.4357 96.7186 75.2132 97.7383 75.2503 98.5911Z" fill="#605EFD"/>
<path d="M74.8424 234.446H67.1857C65.1464 234.446 63.4037 232.796 63.274 230.756L62.9032 224.657C62.7734 222.618 64.3307 220.968 66.37 220.968H74.0267C76.066 220.968 77.8086 222.618 77.9384 224.657L78.3092 230.756C78.4204 232.796 76.8817 234.446 74.8424 234.446Z" fill="#0045DF"/>
<path d="M98.8876 234.446H91.231C89.1917 234.446 87.449 232.796 87.3192 230.756L85.3541 198.591C85.2243 196.552 86.7816 194.902 88.8209 194.902H96.4776C98.5169 194.902 100.26 196.552 100.389 198.591L102.354 230.756C102.466 232.796 100.927 234.446 98.8876 234.446Z" fill="#605EFD"/>
<path d="M122.933 234.446H115.276C113.237 234.446 111.494 232.796 111.364 230.756L110.382 214.646C110.252 212.607 111.809 210.957 113.849 210.957H121.505C123.545 210.957 125.287 212.607 125.417 214.646L126.4 230.756C126.529 232.796 124.972 234.446 122.933 234.446Z" fill="#0045DF"/>
<path d="M146.978 234.446H139.321C137.282 234.446 135.539 232.796 135.41 230.756L133.129 193.53C133 191.491 134.557 189.841 136.596 189.841H144.253C146.292 189.841 148.035 191.491 148.165 193.53L150.445 230.756C150.575 232.796 149.017 234.446 146.978 234.446Z" fill="#605EFD"/>
<path d="M66.092 211.494C65.9807 211.494 65.8509 211.457 65.7583 211.383C65.5172 211.198 65.4802 210.864 65.6656 210.623L89.3771 180.46C89.5439 180.237 89.8591 180.182 90.1001 180.348L115.554 197.72L138.487 166.592C138.654 166.351 139.006 166.296 139.229 166.481C139.47 166.648 139.525 167 139.34 167.223L116.11 198.758C115.944 198.98 115.61 199.054 115.369 198.888L89.8962 181.516L66.4813 211.29C66.4071 211.42 66.2588 211.494 66.092 211.494Z" fill="#030047"/>
<path d="M141.973 166.908C142.084 168.595 140.786 169.948 139.118 169.948C137.43 169.948 135.984 168.576 135.892 166.908C135.78 165.239 137.078 163.867 138.747 163.867C140.415 163.867 141.861 165.239 141.973 166.908Z" fill="#030047"/>
<path d="M118.743 198.554C118.854 200.241 117.557 201.594 115.888 201.594C114.201 201.594 112.755 200.222 112.662 198.554C112.551 196.885 113.849 195.513 115.517 195.513C117.204 195.513 118.65 196.885 118.743 198.554Z" fill="#030047"/>
<path d="M92.7697 181.609C92.881 183.296 91.5832 184.65 89.9147 184.65C88.2276 184.65 86.7816 183.278 86.6889 181.609C86.5777 179.941 87.8754 178.569 89.5439 178.569C91.2124 178.569 92.6585 179.922 92.7697 181.609Z" fill="#030047"/>
<path d="M69.5773 210.957C69.6885 212.644 68.3908 213.997 66.7223 213.997C65.0352 213.997 63.5892 212.625 63.4965 210.957C63.3852 209.288 64.683 207.916 66.3515 207.916C68.02 207.916 69.4661 209.27 69.5773 210.957Z" fill="#030047"/>
<path d="M98.4427 167.742H58.769C56.637 167.742 54.8202 166.018 54.6904 163.886L52.4101 126.474C52.2803 124.342 53.8932 122.618 56.0252 122.618H95.6989C97.8309 122.618 99.6478 124.342 99.7775 126.474L102.058 163.886C102.188 166.018 100.556 167.742 98.4427 167.742Z" fill="#030047"/>
<path d="M95.5691 157.583H61.7538C61.7538 157.583 66.7223 145.402 70.5969 145.402C72.525 145.402 73.8228 151.483 75.7694 151.483C78.7356 151.483 79.5699 142.177 82.5176 142.177C87.4119 142.195 95.5691 157.583 95.5691 157.583Z" fill="white"/>
<path d="M70.5784 138.728C70.6896 140.638 72.3396 142.195 74.2491 142.195C76.1587 142.195 77.6233 140.638 77.4935 138.728C77.3822 136.819 75.7323 135.261 73.8227 135.261C71.9317 135.28 70.4672 136.819 70.5784 138.728Z" fill="white"/>
<path d="M144.086 141.101H107.323L106.47 127.104H143.233L144.086 141.101Z" fill="#CAE8F9"/>
<path d="M147.46 151.261H107.935L107.62 145.977H147.145L147.46 151.261Z" fill="#CAE8F9"/>
<path d="M122.024 160.512H108.509L108.176 155.209H121.709L122.024 160.512Z" fill="#CAE8F9"/>
<path d="M148.443 173.415C148.906 174.194 149.574 174.972 150.482 175.733C153.745 178.476 161.846 185.651 161.846 185.651L184.668 212.255C188.376 216.241 193.623 218.391 199.054 218.169C201.279 218.076 203.448 217.594 205.469 216.741C207.49 215.888 209.362 214.683 210.994 213.182L229.644 194.939L211.216 179.236L197.775 191.176L176.919 170.412L175.769 169.114L154.097 145.273C153.133 144.216 151.669 143.882 150.408 144.327C149.87 144.513 149.388 144.809 148.98 145.254C147.924 146.404 147.757 148.109 148.572 149.444L154.635 159.251C154.635 159.251 151.65 159.956 151.502 162.866C151.502 162.866 151.483 162.866 151.427 162.866C151.001 162.903 148.851 163.293 148.684 166.667C148.016 166.889 146.403 170.041 148.443 173.415Z" fill="white"/>
<path d="M198.294 218.706C192.974 218.706 187.912 216.5 184.279 212.607L161.457 186.022C160.938 185.558 153.244 178.773 150.13 176.14C149.221 175.38 148.498 174.546 147.979 173.693C146.385 171.042 146.96 168.688 147.275 167.816C147.367 167.538 147.683 166.759 148.165 166.37C148.424 163.404 150.148 162.607 151.001 162.403C151.279 160.512 152.707 159.437 153.819 158.955L148.128 149.704C147.182 148.183 147.367 146.2 148.591 144.865C149.054 144.364 149.611 144.012 150.241 143.79C151.743 143.27 153.43 143.697 154.505 144.883L176.177 168.743L177.327 170.041L197.812 190.397L210.882 178.791C211.086 178.606 211.383 178.606 211.587 178.791L230.015 194.494C230.126 194.587 230.2 194.735 230.2 194.883C230.2 195.032 230.145 195.18 230.033 195.291L211.383 213.534C209.696 215.11 207.786 216.333 205.691 217.204C203.578 218.094 201.353 218.576 199.092 218.669C198.813 218.706 198.554 218.706 198.294 218.706ZM148.906 173.137C149.37 173.897 150.019 174.639 150.834 175.325C154.06 178.05 162.143 185.169 162.217 185.243C162.236 185.262 162.254 185.28 162.273 185.299L185.076 211.902C188.654 215.758 193.734 217.853 199.036 217.631C201.168 217.557 203.263 217.075 205.265 216.259C207.249 215.425 209.047 214.257 210.623 212.792L228.847 194.976L211.216 179.959L198.128 191.583C197.924 191.769 197.59 191.769 197.386 191.565L176.548 170.801L175.38 169.485L153.708 145.625C152.911 144.754 151.687 144.438 150.593 144.828C150.13 144.976 149.722 145.254 149.37 145.606C148.48 146.57 148.331 148.035 149.036 149.147L155.098 158.973C155.191 159.121 155.209 159.307 155.135 159.455C155.061 159.622 154.931 159.733 154.765 159.77C154.653 159.789 152.169 160.419 152.039 162.885C152.021 163.163 151.798 163.404 151.502 163.404C151.131 163.441 149.37 163.775 149.221 166.704C149.203 166.926 149.073 167.112 148.851 167.186C148.758 167.242 148.369 167.742 148.128 168.669C147.924 169.503 147.738 171.209 148.906 173.137Z" fill="#030047"/>
<path d="M157.36 172.581C157.36 172.581 159.492 178.847 153.411 176.455C153.411 176.455 151.557 175.862 148.443 173.415C146.403 170.041 148.016 166.889 148.684 166.667L157.36 172.581Z" fill="white"/>
<path d="M155.766 177.531C155.061 177.531 154.208 177.345 153.226 176.956C153.189 176.937 151.279 176.326 148.128 173.841C148.072 173.804 148.035 173.749 147.998 173.693C146.385 171.042 146.978 168.706 147.293 167.816C147.423 167.482 147.868 166.389 148.535 166.166C148.702 166.11 148.869 166.129 149.017 166.24L157.694 172.154C157.786 172.228 157.861 172.321 157.898 172.432C158.009 172.747 158.917 175.603 157.527 176.937C157.063 177.327 156.489 177.531 155.766 177.531ZM148.851 173.044C151.78 175.343 153.559 175.936 153.578 175.936C155.154 176.567 156.248 176.622 156.767 176.14C157.471 175.454 157.138 173.693 156.915 172.914L148.721 167.316C148.554 167.538 148.313 167.983 148.146 168.65C147.942 169.503 147.757 171.172 148.851 173.044Z" fill="#030047"/>
<path d="M160.845 168.78C160.808 168.78 160.79 168.78 160.771 168.78C158.027 168.706 151.502 162.848 151.502 162.848C151.631 159.937 154.635 159.232 154.635 159.232L162.162 164.535C163.997 165.832 163.107 168.799 160.845 168.78Z" fill="white"/>
<path d="M160.864 169.318C160.845 169.318 160.845 169.318 160.827 169.318C160.79 169.318 160.716 169.318 160.697 169.318C157.898 169.244 151.835 163.867 151.149 163.256C151.038 163.144 150.964 162.996 150.964 162.829C151.094 160.197 153.337 158.992 154.505 158.713C154.653 158.676 154.82 158.713 154.931 158.806L162.458 164.108C163.496 164.85 163.923 166.111 163.534 167.334C163.163 168.539 162.106 169.318 160.864 169.318ZM152.076 162.625C154.004 164.331 158.788 168.187 160.79 168.243H160.864C161.809 168.243 162.347 167.612 162.532 167.019C162.718 166.426 162.662 165.554 161.865 164.98L154.561 159.826C153.93 160.03 152.28 160.753 152.076 162.625Z" fill="#030047"/>
<path d="M159.566 172.117C156.693 174.49 148.684 166.667 148.684 166.667C148.851 163.293 151.02 162.903 151.427 162.866C151.446 162.866 162.421 169.763 159.566 172.117Z" fill="white"/>
<path d="M158.213 173.1C154.616 173.1 149.036 167.761 148.313 167.056C148.202 166.945 148.146 166.796 148.146 166.648C148.35 162.736 151.075 162.366 151.372 162.347C151.483 162.329 151.613 162.366 151.706 162.421C152.595 162.977 160.345 167.927 160.549 171.023C160.586 171.635 160.363 172.154 159.881 172.544C159.436 172.914 158.862 173.1 158.213 173.1ZM149.24 166.444C152.225 169.318 157.434 173.174 159.214 171.691C159.418 171.524 159.511 171.32 159.492 171.06C159.362 169.188 154.486 165.425 151.316 163.404C150.779 163.534 149.444 164.034 149.24 166.444Z" fill="#030047"/>
<path d="M175.788 169.095L172.896 158.862C172.228 156.507 169.818 155.098 167.427 155.673L159.566 157.583C158.769 157.787 158.305 158.639 158.621 159.418C159.362 161.291 161.309 162.403 163.293 162.125L167.26 161.569L166.796 163.849C166.185 166.834 166.667 169.948 168.168 172.599L168.595 173.341" fill="white"/>
<path d="M168.595 173.86C168.409 173.86 168.224 173.767 168.131 173.582L167.705 172.84C166.166 170.078 165.647 166.834 166.277 163.719L166.592 162.18L163.385 162.644C161.142 162.959 158.973 161.717 158.139 159.603C157.935 159.084 157.953 158.51 158.213 158.028C158.472 157.546 158.917 157.175 159.455 157.064L167.316 155.154C169.985 154.505 172.673 156.081 173.415 158.732L176.307 168.966C176.381 169.244 176.214 169.54 175.936 169.633C175.658 169.707 175.361 169.54 175.269 169.262L172.377 159.029C171.783 156.934 169.67 155.692 167.557 156.211L159.696 158.12C159.455 158.176 159.27 158.324 159.158 158.547C159.047 158.769 159.029 159.01 159.121 159.233C159.789 160.883 161.457 161.865 163.218 161.606L167.186 161.049C167.353 161.031 167.538 161.087 167.649 161.216C167.76 161.346 167.816 161.513 167.779 161.698L167.316 163.979C166.741 166.834 167.204 169.818 168.613 172.358L169.04 173.1C169.188 173.359 169.095 173.693 168.836 173.823C168.762 173.823 168.687 173.86 168.595 173.86Z" fill="#030047"/>
<path d="M206.211 177.92L211.216 183.76L216.37 189.766L226.974 202.095L246.681 161.939L235.78 160.363C231.535 159.752 227.197 160.845 223.749 163.385L206.211 177.92Z" fill="#0045DF"/>
<g opacity="0.4">
<path d="M211.216 183.76L216.37 189.767C218.28 189.285 219.689 187.542 219.689 185.503C219.689 183.055 217.705 181.09 215.276 181.09C213.459 181.072 211.902 182.184 211.216 183.76Z" fill="white"/>
</g>
<path d="M226.974 202.633C226.826 202.633 226.678 202.559 226.567 202.447L205.803 178.272C205.71 178.161 205.654 178.013 205.673 177.883C205.691 177.735 205.747 177.605 205.858 177.512L223.378 162.977C223.6 162.792 223.934 162.811 224.138 163.052C224.323 163.274 224.305 163.626 224.064 163.812L206.971 177.994L226.845 201.131L236.522 181.387C236.652 181.127 236.967 181.016 237.245 181.146C237.505 181.276 237.616 181.591 237.486 181.869L227.438 202.336C227.364 202.503 227.197 202.614 227.03 202.633C227.011 202.633 226.993 202.633 226.974 202.633Z" fill="#030047"/>
<path d="M199.499 197.312C199.277 197.312 199.054 197.164 198.98 196.923L197.275 191.305C197.182 191.027 197.349 190.731 197.627 190.638C197.905 190.545 198.202 190.712 198.294 190.99L200 196.607C200.093 196.885 199.926 197.182 199.648 197.275C199.592 197.293 199.536 197.312 199.499 197.312Z" fill="#030047"/>
<path d="M208.991 248.702H278.383L284.316 181.646C284.909 174.861 280.423 168.687 273.786 167.167C273.786 167.167 260.882 163.793 256.489 163.218C253.059 162.773 242.658 161.42 242.658 161.42C236.411 161.235 230.831 165.313 229.125 171.32L217.519 215.907L213.33 231.999L208.991 248.702Z" fill="#0045DF"/>
<path d="M292.9 249.24H28.5317C28.2351 249.24 27.994 248.999 27.994 248.702C27.994 248.406 28.2351 248.165 28.5317 248.165H292.9C293.196 248.165 293.437 248.406 293.437 248.702C293.437 248.999 293.196 249.24 292.9 249.24Z" fill="white"/>
<g opacity="0.4">
<path d="M213.33 231.998C214.312 232.406 215.369 232.61 216.481 232.61C221.116 232.61 224.879 228.865 224.879 224.212C224.879 219.929 221.672 216.388 217.519 215.888L213.33 231.998Z" fill="white"/>
</g>
<g opacity="0.4">
<path d="M250.26 189.896C250.26 191.713 251.724 193.178 253.541 193.178C255.358 193.178 256.822 191.713 256.822 189.896C256.822 188.079 255.358 186.615 253.541 186.615C251.724 186.615 250.26 188.098 250.26 189.896Z" fill="white"/>
</g>
<g opacity="0.4">
<path d="M244.595 185.276C246.919 182.952 246.919 179.184 244.595 176.86C242.271 174.536 238.503 174.536 236.179 176.86C233.855 179.184 233.855 182.952 236.179 185.276C238.503 187.6 242.271 187.6 244.595 185.276Z" fill="white"/>
</g>
<g opacity="0.4">
<path d="M237.023 211.235C237.023 212.848 238.32 214.145 239.933 214.145C241.546 214.145 242.844 212.848 242.844 211.235C242.844 209.622 241.546 208.324 239.933 208.324C238.339 208.324 237.023 209.622 237.023 211.235Z" fill="white"/>
</g>
<g opacity="0.4">
<path d="M234.353 201.057C235.838 201.057 237.041 199.853 237.041 198.369C237.041 196.884 235.838 195.68 234.353 195.68C232.868 195.68 231.665 196.884 231.665 198.369C231.665 199.853 232.868 201.057 234.353 201.057Z" fill="white"/>
</g>
<g opacity="0.4">
<path d="M250.172 236.025C251.773 234.425 251.773 231.831 250.172 230.231C248.572 228.631 245.978 228.631 244.378 230.231C242.778 231.831 242.778 234.425 244.378 236.026C245.978 237.626 248.572 237.626 250.172 236.025Z" fill="white"/>
</g>
<g opacity="0.4">
<path d="M233.593 237.004C233.315 238.84 231.591 240.082 229.755 239.804C227.92 239.526 226.678 237.801 226.956 235.966C227.234 234.131 228.958 232.888 230.793 233.167C232.61 233.445 233.871 235.169 233.593 237.004Z" fill="white"/>
</g>
<g opacity="0.4">
<path d="M261.661 226.585C262.552 226.585 263.274 225.863 263.274 224.972C263.274 224.081 262.552 223.359 261.661 223.359C260.77 223.359 260.048 224.081 260.048 224.972C260.048 225.863 260.77 226.585 261.661 226.585Z" fill="white"/>
</g>
<path d="M208.991 249.24C208.954 249.24 208.899 249.24 208.862 249.221C208.584 249.147 208.398 248.851 208.472 248.572L228.606 171.19C228.68 170.912 228.977 170.727 229.255 170.801C229.533 170.875 229.718 171.172 229.644 171.45L209.511 248.832C209.455 249.073 209.232 249.24 208.991 249.24Z" fill="#030047"/>
<path d="M252.132 174.694C257.527 176.288 266.871 173.248 269.466 168.076L272.469 149.258L254.876 147.831L248.869 162.18C248.869 162.18 243.085 170.671 252.132 174.694Z" fill="white"/>
<path d="M255.321 175.64C254.116 175.64 252.966 175.491 251.965 175.195C251.947 175.195 251.928 175.176 251.891 175.176C249.129 173.952 247.405 172.173 246.774 169.929C245.699 166.166 248.072 162.403 248.387 161.921L254.375 147.608C254.468 147.386 254.672 147.256 254.913 147.275L272.507 148.702C272.655 148.721 272.785 148.795 272.877 148.906C272.97 149.017 273.007 149.166 272.989 149.314L269.985 168.131C269.985 168.187 269.967 168.242 269.93 168.28C267.686 172.785 260.79 175.64 255.321 175.64ZM252.317 174.193C257.323 175.64 266.407 172.822 268.947 167.909L271.858 149.74L255.228 148.387L249.37 162.384C249.351 162.421 249.333 162.458 249.314 162.477C249.296 162.514 246.83 166.185 247.812 169.651C248.369 171.561 249.87 173.1 252.317 174.193Z" fill="#030047"/>
<path d="M271.895 151.39C279.329 143.771 281.127 132.703 281.127 132.703L262.477 117.39C261.902 117.649 247.775 119.633 242.065 135.02C237.393 147.645 245.458 156.971 261.309 156.859" fill="white"/>
<path d="M261.031 157.416C252.577 157.416 246.07 154.765 242.677 149.926C239.822 145.847 239.433 140.638 241.565 134.854C244.994 125.603 252.225 119.262 261.921 117C262.106 116.963 262.217 116.926 262.291 116.908C262.477 116.815 262.681 116.852 262.829 116.982L281.479 132.295C281.628 132.425 281.702 132.61 281.665 132.796C281.591 133.259 279.755 144.123 272.284 151.761C272.08 151.965 271.746 151.984 271.524 151.761C271.32 151.557 271.301 151.224 271.505 151.001C278.05 144.29 280.182 134.724 280.534 132.907L262.347 117.983C262.291 118.002 262.236 118.02 262.162 118.02C252.818 120.208 245.866 126.307 242.566 135.206C240.564 140.638 240.897 145.495 243.548 149.277C246.737 153.819 252.929 156.303 261.031 156.303C261.123 156.303 261.235 156.303 261.327 156.303C261.624 156.303 261.865 156.544 261.865 156.841C261.865 157.138 261.624 157.379 261.327 157.379C261.216 157.416 261.123 157.416 261.031 157.416Z" fill="#030047"/>
<path d="M279.959 125.195C279.959 125.195 285.743 125.195 287.505 132.073C289.284 138.951 277.623 146.181 277.623 146.181L271.005 142.659C271.005 142.659 269.633 144.197 268.261 142.362C266.889 140.527 272.525 135.54 270.819 133.852C272.191 130.237 249.833 128.217 250.964 117.594C252.076 107.008 265.888 111.661 271.283 114.331C282.388 119.818 279.959 125.195 279.959 125.195Z" fill="#030047"/>
<path d="M258.046 135.094C259.325 135.187 260.419 136.133 260.864 137.467L258.046 135.094Z" fill="white"/>
<path d="M260.845 137.987C260.623 137.987 260.4 137.838 260.326 137.616C259.955 136.485 259.047 135.706 257.99 135.614C257.694 135.595 257.471 135.336 257.49 135.039C257.508 134.742 257.768 134.52 258.064 134.538C259.548 134.65 260.845 135.725 261.346 137.282C261.439 137.56 261.29 137.857 260.994 137.95C260.957 137.987 260.901 137.987 260.845 137.987Z" fill="#030047"/>
<path d="M249.889 133.982C249.388 134.816 248.498 135.224 247.942 134.89C247.386 134.557 247.33 133.593 247.849 132.74C248.369 131.887 249.24 131.479 249.796 131.831C250.352 132.184 250.389 133.129 249.889 133.982Z" fill="#030047"/>
<path d="M258.435 139.377C257.916 140.23 257.045 140.619 256.47 140.285C255.914 139.952 255.858 138.988 256.377 138.135C256.897 137.282 257.768 136.874 258.343 137.227C258.899 137.56 258.954 138.524 258.435 139.377Z" fill="#030047"/>
<path d="M249.499 129.7C250.779 129.792 251.872 130.738 252.317 132.073L249.499 129.7Z" fill="white"/>
<path d="M252.299 132.61C252.076 132.61 251.854 132.462 251.78 132.239C251.409 131.109 250.501 130.33 249.444 130.237C249.147 130.219 248.925 129.959 248.943 129.663C248.962 129.366 249.24 129.143 249.518 129.162C251.001 129.273 252.299 130.348 252.799 131.906C252.892 132.184 252.744 132.48 252.447 132.573C252.41 132.592 252.354 132.61 252.299 132.61Z" fill="#030047"/>
<path d="M271.005 142.659C271.005 142.659 278.087 139.433 280.59 141.528C283.092 143.623 278.217 153.393 274.435 153.078C270.653 152.744 268.391 150.371 268.391 150.371" fill="white"/>
<path d="M274.62 153.615C274.546 153.615 274.472 153.615 274.397 153.597C270.449 153.263 268.113 150.816 268.02 150.723C267.816 150.5 267.835 150.167 268.039 149.963C268.261 149.759 268.595 149.777 268.799 149.981C268.817 150 270.968 152.225 274.49 152.521C276.344 152.688 278.736 149.722 279.959 146.756C280.886 144.494 281.016 142.547 280.256 141.917C278.42 140.378 273.118 142.269 271.227 143.122C270.968 143.252 270.634 143.122 270.523 142.862C270.393 142.584 270.523 142.269 270.782 142.158C271.542 141.806 278.254 138.858 280.942 141.101C282.11 142.084 282.11 144.345 280.942 147.163C279.607 150.426 277.03 153.615 274.62 153.615Z" fill="#030047"/>
<path d="M275.806 148.647C275.677 148.647 275.528 148.591 275.436 148.498C275.232 148.294 275.232 147.942 275.436 147.738C275.899 147.275 276.27 146.7 276.529 146.088C276.659 145.755 276.696 145.514 276.622 145.384C276.567 145.291 276.455 145.217 276.307 145.198C276.14 145.161 275.955 145.198 275.714 145.273C275.361 145.384 275.009 145.569 274.731 145.829C274.509 146.014 274.175 145.996 273.971 145.773C273.786 145.551 273.804 145.217 274.027 145.013C274.416 144.661 274.898 144.401 275.399 144.253C275.806 144.123 276.159 144.105 276.492 144.16C276.956 144.234 277.345 144.512 277.568 144.883C277.809 145.328 277.809 145.847 277.549 146.515C277.252 147.256 276.789 147.961 276.233 148.517C276.066 148.61 275.936 148.647 275.806 148.647Z" fill="#030047"/>
<path d="M251.947 137.171C251.149 138.357 250.334 139.525 249.537 140.712C249.054 141.416 248.554 142.158 248.498 142.992C248.443 143.826 248.943 144.79 249.889 145.087" fill="white"/>
<path d="M249.87 145.643C249.815 145.643 249.759 145.643 249.703 145.625C248.443 145.217 247.868 143.975 247.942 142.974C248.016 141.973 248.591 141.157 249.073 140.434L251.483 136.893C251.65 136.652 251.984 136.578 252.225 136.745C252.466 136.911 252.54 137.245 252.373 137.486L249.963 141.027C249.518 141.676 249.054 142.343 249.017 143.048C248.98 143.623 249.314 144.364 250.037 144.605C250.315 144.698 250.463 144.994 250.389 145.273C250.315 145.495 250.111 145.643 249.87 145.643Z" fill="#030047"/>
<g opacity="0.4">
<path d="M221.895 176.14C221.895 177.234 221.005 178.105 219.93 178.105C218.836 178.105 217.964 177.215 217.964 176.14C217.964 175.046 218.854 174.175 219.93 174.175C221.023 174.175 221.895 175.065 221.895 176.14Z" fill="white"/>
</g>
<path d="M262.366 128.921C258.991 127.679 249.778 125.584 247.683 122.655C245.588 119.726 244.92 115.591 246.756 112.477C247.479 111.272 248.647 110.215 250.037 110.104C251.112 110.03 252.151 110.512 253.226 110.512C254.987 110.493 256.433 109.14 257.694 107.916C258.954 106.674 260.475 105.395 262.236 105.488C263.941 105.599 265.276 106.989 266.148 108.454C267 109.919 267.594 111.587 268.706 112.866C269.818 114.145 271.376 114.943 272.933 115.591C274.49 116.24 276.122 116.778 277.568 117.649C279.014 118.521 280.293 119.818 280.738 121.45C281.164 123.081 280.534 125.065 279.014 125.807" fill="#030047"/>
<g opacity="0.4">
<path d="M285.669 183.092C285.28 184.075 284.186 184.538 283.204 184.168C282.221 183.778 281.757 182.684 282.128 181.702C282.518 180.719 283.611 180.256 284.594 180.627C285.577 181.016 286.059 182.11 285.669 183.092Z" fill="white"/>
</g>
<g opacity="0.4">
<path d="M266.945 244.179C270.405 244.179 273.211 241.373 273.211 237.912C273.211 234.452 270.405 231.646 266.945 231.646C263.484 231.646 260.679 234.452 260.679 237.912C260.679 241.373 263.484 244.179 266.945 244.179Z" fill="white"/>
</g>
<g opacity="0.4">
<path d="M269.651 209.418C269.651 210.92 268.428 212.143 266.926 212.143C265.425 212.143 264.201 210.92 264.201 209.418C264.201 207.916 265.425 206.693 266.926 206.693C268.428 206.693 269.651 207.916 269.651 209.418Z" fill="white"/>
</g>
<path d="M215.703 194.605L215.573 194.976L215.462 194.809L215.703 194.605Z" fill="white"/>
<path d="M215.573 195.514C215.406 195.514 215.239 195.439 215.146 195.291L215.017 195.124C214.85 194.902 214.887 194.568 215.109 194.401L215.35 194.197C215.536 194.049 215.795 194.031 215.999 194.16C216.203 194.29 216.277 194.55 216.203 194.772L216.073 195.143C215.999 195.328 215.851 195.477 215.647 195.495C215.628 195.514 215.61 195.514 215.573 195.514Z" fill="#030047"/>
<path d="M292.473 206.007L279.162 239.025C276.622 245.328 270.504 249.462 263.7 249.462C261.142 249.462 258.639 248.869 256.396 247.775C254.153 246.682 252.151 245.087 250.575 243.066L226.085 209.325C226.085 209.325 214.164 204.005 211.198 200.612C208.231 197.219 206.934 194.716 207.861 192.733C208.788 190.749 211.42 191.843 211.42 191.843C211.42 191.843 209.826 188.098 211.402 186.3C212.903 184.576 215.054 186.207 215.221 186.355C215.109 186.151 213.459 183.148 215.146 181.535C216.889 179.867 219.003 181.405 219.003 181.405C219.003 181.35 218.984 181.313 218.984 181.276C218.521 178.68 221.95 177.29 223.489 179.44L230.404 188.154C229.144 184.538 229.922 180.2 230.849 179.7C235.984 176.919 239.952 193.066 239.952 193.066L260.271 213.663L265.573 199.37L292.473 206.007Z" fill="white"/>
<path d="M263.719 250C261.123 250 258.509 249.407 256.174 248.257C253.838 247.126 251.761 245.439 250.167 243.382L225.751 209.733C224.36 209.103 213.682 204.227 210.808 200.927C207.434 197.089 206.415 194.568 207.397 192.473C208.065 191.046 209.473 190.842 210.604 191.027C210.215 189.692 209.77 187.338 211.031 185.91C211.976 184.816 213.181 184.798 214.182 185.132C213.737 183.686 213.737 182.128 214.813 181.109C216.018 179.959 217.445 180.07 218.446 180.46C218.558 179.422 219.225 178.495 220.263 178.068C221.394 177.586 222.951 177.735 223.934 179.088L229.347 185.91C228.94 182.87 229.533 179.755 230.59 179.181C231.461 178.699 232.369 178.662 233.278 179.069C237.282 180.849 240.082 191.324 240.434 192.751L260.067 212.644L265.072 199.147C265.165 198.888 265.443 198.739 265.703 198.814L292.603 205.469C292.751 205.506 292.881 205.599 292.955 205.747C293.029 205.877 293.029 206.044 292.974 206.192L279.663 239.21C277.03 245.773 270.764 250 263.719 250ZM209.881 192.065C209.288 192.065 208.676 192.251 208.343 192.955C207.583 194.587 208.584 196.83 211.587 200.241C214.442 203.504 226.177 208.769 226.288 208.825C226.381 208.862 226.455 208.917 226.511 208.992L251.001 242.733C252.484 244.642 254.449 246.218 256.637 247.275C258.825 248.35 261.272 248.906 263.7 248.906C270.319 248.906 276.196 244.939 278.661 238.802L291.732 206.359L265.888 199.963L260.753 213.812C260.697 213.979 260.549 214.108 260.363 214.145C260.197 214.182 259.993 214.127 259.863 213.997L239.544 193.4C239.47 193.326 239.433 193.252 239.414 193.159C238.636 189.989 235.929 181.424 232.833 180.052C232.24 179.792 231.665 179.811 231.09 180.126C230.497 180.497 229.681 184.446 230.905 187.931C230.997 188.172 230.886 188.45 230.664 188.58C230.441 188.71 230.145 188.654 229.978 188.45L223.063 179.737C222.377 178.773 221.339 178.773 220.671 179.051C220.022 179.329 219.318 180.033 219.522 181.146C219.54 181.22 219.54 181.276 219.559 181.313C219.577 181.517 219.485 181.739 219.299 181.832C219.114 181.943 218.891 181.924 218.706 181.795C218.632 181.739 216.926 180.552 215.536 181.869C214.238 183.111 215.443 185.558 215.703 186.04C215.832 186.263 215.777 186.541 215.573 186.707C215.369 186.874 215.091 186.874 214.905 186.726C214.72 186.578 212.996 185.261 211.809 186.615C210.697 187.875 211.513 190.638 211.921 191.602C212.013 191.806 211.958 192.028 211.809 192.195C211.661 192.343 211.42 192.399 211.216 192.306C211.179 192.306 210.567 192.065 209.881 192.065Z" fill="#030047"/>
<path d="M219.003 181.405C219.003 181.405 220.745 184.613 224.045 187.634L219.003 181.405Z" fill="white"/>
<path d="M224.064 188.172C223.934 188.172 223.804 188.117 223.693 188.024C220.356 184.983 218.613 181.776 218.539 181.646C218.391 181.387 218.502 181.053 218.762 180.923C219.021 180.775 219.355 180.886 219.485 181.146C219.503 181.183 221.227 184.316 224.416 187.245C224.639 187.449 224.657 187.783 224.453 188.005C224.342 188.117 224.194 188.172 224.064 188.172Z" fill="#030047"/>
<path d="M215.258 186.337C215.258 186.337 217.353 189.711 220.708 192.232L215.258 186.337Z" fill="white"/>
<path d="M220.708 192.77C220.597 192.77 220.486 192.733 220.393 192.659C216.982 190.1 214.887 186.763 214.794 186.615C214.646 186.355 214.72 186.04 214.961 185.873C215.221 185.725 215.536 185.799 215.703 186.04C215.721 186.077 217.779 189.359 221.023 191.787C221.264 191.973 221.301 192.306 221.135 192.529C221.023 192.696 220.875 192.77 220.708 192.77Z" fill="#030047"/>
<path d="M211.42 191.843C211.42 191.843 212.05 193.715 216.277 196.904L211.42 191.843Z" fill="white"/>
<path d="M216.277 197.442C216.166 197.442 216.055 197.405 215.962 197.33C211.661 194.086 210.957 192.102 210.92 192.01C210.827 191.732 210.975 191.416 211.253 191.324C211.531 191.231 211.828 191.379 211.921 191.657C211.939 191.695 212.644 193.493 216.593 196.459C216.834 196.644 216.871 196.978 216.704 197.201C216.611 197.367 216.444 197.442 216.277 197.442Z" fill="#030047"/>
<path d="M263.274 201.576L273.563 206.359L285.113 211.735L292.269 215.072L297.349 199.018C297.423 198.739 297.497 198.461 297.571 198.165C300.482 186.467 293.826 174.472 282.518 170.282L275.158 167.538L263.274 201.576Z" fill="#0045DF"/>
<g opacity="0.4">
<path d="M273.693 205.988C273.637 206.118 273.6 206.248 273.563 206.377L285.113 211.754C285.317 211.42 285.502 211.068 285.651 210.697C286.948 207.397 285.336 203.671 282.036 202.373C278.717 201.057 274.991 202.688 273.693 205.988Z" fill="white"/>
</g>
<g opacity="0.4">
<path d="M273.637 189.433C273.007 191.009 273.786 192.788 275.361 193.419C276.937 194.049 278.717 193.27 279.347 191.694C279.978 190.119 279.199 188.339 277.623 187.709C276.029 187.097 274.249 187.857 273.637 189.433Z" fill="white"/>
</g>
<g opacity="0.4">
<path d="M294.401 194.346C293.771 195.959 291.936 196.756 290.323 196.107C288.71 195.477 287.913 193.641 288.561 192.028C289.21 190.415 291.027 189.618 292.64 190.267C294.234 190.897 295.032 192.733 294.401 194.346Z" fill="white"/>
</g>
<path d="M292.269 215.628C292.195 215.628 292.121 215.61 292.047 215.573L263.052 202.058C262.792 201.947 262.681 201.65 262.773 201.39L270.986 179.032C271.079 178.754 271.394 178.606 271.672 178.717C271.95 178.828 272.099 179.125 271.987 179.403L263.941 201.298L291.935 214.331L296.83 198.851C296.922 198.572 297.219 198.406 297.497 198.498C297.775 198.591 297.942 198.888 297.849 199.166L292.77 215.221C292.733 215.369 292.621 215.48 292.473 215.554C292.399 215.61 292.325 215.628 292.269 215.628Z" fill="#030047"/>
<path d="M264.219 217.649C264.09 217.649 263.96 217.612 263.867 217.52L259.918 214.053C259.696 213.849 259.677 213.515 259.863 213.293C260.067 213.07 260.4 213.052 260.623 213.237L264.572 216.704C264.794 216.908 264.813 217.241 264.627 217.464C264.516 217.594 264.368 217.649 264.219 217.649Z" fill="#030047"/>
<path d="M253.337 150.575C253.077 150.575 252.818 150.556 252.558 150.482C252.262 150.426 252.095 150.13 252.151 149.852C252.206 149.555 252.503 149.388 252.781 149.444C253.819 149.666 254.987 149.203 255.58 148.313C255.747 148.072 256.081 147.998 256.322 148.165C256.563 148.332 256.637 148.665 256.47 148.906C255.784 149.963 254.561 150.575 253.337 150.575Z" fill="#030047"/>
<path d="M107.768 3.93029L107.805 0.0741565L100.408 0L100.371 3.85614C98.1646 4.30107 96.1068 5.13534 94.2714 6.3033L91.5832 3.54097L86.2996 8.71339L88.9878 11.4757C87.7827 13.2925 86.8928 15.3319 86.4108 17.5195L82.5547 17.4824L82.4805 24.8795L86.3367 24.9166C86.7816 27.1227 87.6159 29.1806 88.7838 31.0159L86.0215 33.7041L91.1939 38.9878L93.9562 36.2811C95.7731 37.4861 97.8124 38.376 100 38.858L99.9629 42.7141L107.36 42.7883L107.397 38.9321C109.603 38.4872 111.661 37.6529 113.496 36.485L116.185 39.2473L121.468 34.0749L118.762 31.3311C119.967 29.5328 120.856 27.4935 121.339 25.2874L125.195 25.3244L125.269 17.9273L121.431 17.9088C120.986 15.7026 120.152 13.6448 118.984 11.8094L121.746 9.10271L116.574 3.81906L113.812 6.52577M104.931 30.2929C99.073 30.9603 94.1973 25.9918 95.013 20.152C95.5506 16.1661 98.8135 12.9774 102.818 12.5324C108.676 11.865 113.552 16.8335 112.736 22.6733C112.18 26.6407 108.936 29.8294 104.931 30.2929Z" fill="#0045DF"/>
</g>
<defs>
<clipPath id="clip0_34_7980">
<rect width="298.239" height="250" fill="white"/>
</clipPath>
</defs>
</svg>
