<svg width="282" height="200" viewBox="0 0 282 200" fill="none" xmlns="http://www.w3.org/2000/svg">
<g clip-path="url(#clip0_39_15518)">
<path d="M194.538 186.371L196.41 176.859L183.614 174.885L182.865 186.456" fill="#FFC1A4"/>
<path d="M183.427 179.633L194.997 184.057L195.508 181.266L183.427 179.633Z" fill="black"/>
<path d="M171.312 195.917C171.312 195.934 171.312 195.968 171.312 195.985L171.142 198.316L193.942 200L194.113 197.72L194.164 196.989C194.317 192.412 195.304 185.861 195.304 185.861L181.93 184.959L181.572 186.524C181.283 187.783 180.602 188.889 179.683 189.689C178.748 190.506 177.574 191.016 176.28 191.118C173.626 191.271 171.533 193.313 171.312 195.917Z" fill="#0045DF"/>
<path d="M171.312 195.917C171.312 195.934 171.312 195.968 171.312 195.985L171.142 198.316L193.942 200L194.113 197.72L171.312 195.917Z" fill="black"/>
<path d="M183.053 192.411C182.933 192.411 182.831 192.377 182.746 192.292L179.769 189.638C179.615 189.502 179.564 189.264 179.667 189.076C179.769 188.889 179.973 188.787 180.177 188.821L182.985 189.366L181.419 187.851C181.266 187.698 181.232 187.477 181.334 187.29C181.436 187.103 181.64 187.001 181.844 187.035L186.098 187.817C186.354 187.868 186.524 188.107 186.473 188.362C186.422 188.617 186.183 188.787 185.928 188.736L183.223 188.226L184.805 189.757C184.958 189.91 184.992 190.131 184.89 190.319C184.788 190.506 184.584 190.608 184.38 190.557L181.708 190.029L183.41 191.544C183.597 191.714 183.614 192.02 183.444 192.207C183.308 192.36 183.189 192.411 183.053 192.411Z" fill="#060606"/>
<path d="M180.16 194.096C179.956 194.096 179.769 193.96 179.7 193.756C179.054 191.408 177.352 191.646 177.284 191.663C177.029 191.697 176.791 191.527 176.74 191.271C176.706 191.016 176.876 190.778 177.131 190.727C177.165 190.727 179.718 190.353 180.602 193.5C180.67 193.756 180.534 194.011 180.279 194.079C180.245 194.079 180.211 194.096 180.16 194.096Z" fill="#060606"/>
<path d="M251.965 172.707L245.874 165.153L236.141 173.694L244.529 181.692" fill="#FFC1A4"/>
<path d="M239.68 176.893L250.485 170.87L248.681 168.675L239.68 176.893Z" fill="black"/>
<path d="M244.359 196.648C244.376 196.665 244.393 196.682 244.41 196.699L246.095 198.333L262.021 181.947L260.388 180.348L259.86 179.837C256.44 176.774 252.067 171.823 252.067 171.823L242.777 181.488L243.747 182.764C244.529 183.802 244.938 185.027 244.955 186.252C244.972 187.494 244.615 188.719 243.866 189.791C242.283 191.867 242.505 194.794 244.359 196.648Z" fill="#0045DF"/>
<path d="M244.359 196.648C244.376 196.665 244.393 196.682 244.41 196.699L246.095 198.333L262.021 181.947L260.388 180.347L244.359 196.648Z" fill="black"/>
<path d="M244.904 186.133C244.717 186.133 244.546 186.031 244.478 185.843C244.393 185.656 244.444 185.418 244.615 185.282L246.827 183.478L244.666 183.7C244.461 183.717 244.257 183.597 244.189 183.41C244.104 183.223 244.172 183.002 244.325 182.866L247.66 180.126C247.865 179.956 248.154 179.99 248.324 180.194C248.494 180.399 248.46 180.688 248.256 180.858L246.129 182.611L248.307 182.389C248.528 182.372 248.715 182.491 248.783 182.679C248.868 182.866 248.8 183.087 248.647 183.223L246.52 184.942L248.766 184.618C249.022 184.584 249.26 184.755 249.294 185.01C249.328 185.265 249.158 185.503 248.902 185.537L244.955 186.116C244.955 186.116 244.938 186.133 244.904 186.133Z" fill="#060606"/>
<path d="M244.529 189.536C244.444 189.536 244.359 189.519 244.291 189.468C244.07 189.332 244.002 189.042 244.138 188.821C244.155 188.804 245.516 186.592 248.494 187.936C248.732 188.038 248.834 188.328 248.732 188.566C248.63 188.804 248.341 188.906 248.103 188.804C245.942 187.834 245.04 189.161 244.938 189.315C244.836 189.451 244.683 189.536 244.529 189.536Z" fill="#060606"/>
<path d="M198.979 136.856L209.086 147.916L215.025 155.181L235.851 180.671L250.859 166.769L220.146 131.258L233.878 130.866C239.084 130.713 242.811 125.796 241.552 120.759L239.153 111.162L229.386 111.452C229.267 111.639 225.948 116.846 225.948 116.846L205.002 120.01C197.448 121.729 194.232 130.73 198.979 136.856Z" fill="#0081FF"/>
<path d="M234.695 175.294C234.592 175.294 234.473 175.26 234.405 175.175C234.252 175.004 234.252 174.749 234.405 174.596C238.319 170.768 244.257 164.914 244.717 164.302C244.785 164.166 244.921 164.063 245.091 164.063C245.312 164.063 245.499 164.251 245.499 164.472C245.499 164.693 245.499 164.914 234.984 175.192C234.899 175.26 234.797 175.294 234.695 175.294Z" fill="white"/>
<path d="M209.086 147.916L215.025 155.182L211.57 139.068L209.086 147.916Z" fill="black"/>
<path d="M237.417 168.113C237.298 168.113 237.179 168.062 237.094 167.96L210.481 136.175C210.328 136.005 210.362 135.733 210.533 135.597C210.703 135.443 210.975 135.477 211.111 135.648L237.74 167.433C237.893 167.603 237.859 167.875 237.689 168.011C237.604 168.079 237.502 168.113 237.417 168.113Z" fill="white"/>
<path d="M242.72 194.463H246.072V139.061H242.72V194.463Z" fill="white"/>
<path d="M246.061 194.879H242.709C242.488 194.879 242.3 194.691 242.3 194.47V139.068C242.3 138.847 242.488 138.659 242.709 138.659H246.061C246.282 138.659 246.469 138.847 246.469 139.068V194.47C246.486 194.691 246.299 194.879 246.061 194.879ZM243.117 194.062H245.652V139.476H243.117V194.062Z" fill="#060F11"/>
<path d="M220.912 140.072H260.932C267.143 140.072 272.486 135.631 273.609 129.522L281.028 90.5567C281.266 89.2805 280.415 88.0724 279.156 87.8342C277.88 87.596 276.672 88.4468 276.433 89.7059L269.015 128.671C268.3 132.568 264.897 135.392 260.915 135.392H220.895C219.602 135.392 218.564 136.43 218.564 137.724C218.564 139.017 219.619 140.072 220.912 140.072Z" fill="#E7EBFB"/>
<path d="M260.932 140.48H220.912C219.398 140.48 218.172 139.255 218.172 137.741C218.172 136.226 219.398 135.001 220.912 135.001H260.932C264.71 135.001 267.943 132.313 268.623 128.62L276.042 89.6548C276.178 88.9402 276.587 88.3106 277.182 87.8852C277.778 87.4598 278.509 87.3067 279.241 87.4428C279.956 87.5789 280.585 87.9873 281.011 88.5828C281.436 89.1784 281.589 89.91 281.453 90.6417L274.034 129.624C272.843 135.903 267.347 140.48 260.932 140.48ZM220.912 135.818C219.857 135.818 218.989 136.686 218.989 137.741C218.989 138.796 219.857 139.663 220.912 139.663H260.932C266.956 139.663 272.112 135.375 273.218 129.454L280.636 90.4716C280.721 89.9781 280.619 89.4676 280.33 89.0422C280.041 88.6169 279.598 88.3446 279.088 88.2425C278.577 88.1574 278.067 88.2595 277.642 88.5488C277.216 88.8381 276.944 89.2805 276.842 89.7909L269.423 128.756C268.657 132.84 265.084 135.818 260.932 135.818H220.912Z" fill="#060F11"/>
<path d="M230.049 135.392H260.915C264.88 135.392 268.283 132.551 269.015 128.671L276.433 89.7058C276.604 88.7189 277.386 87.9873 278.322 87.8341H248.273C246.997 87.6129 245.789 88.4467 245.55 89.7058L238.132 128.671C237.434 132.568 234.031 135.392 230.049 135.392Z" fill="#141323"/>
<path d="M260.932 135.818H230.049C229.828 135.818 229.641 135.631 229.641 135.41C229.641 135.188 229.828 135.001 230.049 135.001C233.81 135.001 237.043 132.313 237.74 128.603L245.159 89.6379C245.431 88.1745 246.844 87.1876 248.324 87.4258H278.322C278.543 87.4258 278.714 87.596 278.731 87.8002C278.748 88.0214 278.594 88.2086 278.39 88.2426C277.608 88.3787 276.978 89.0083 276.842 89.791L269.423 128.773C268.674 132.84 265.101 135.818 260.932 135.818ZM233.742 134.984H260.932C264.693 134.984 267.926 132.296 268.623 128.586L276.042 89.6208C276.144 89.0934 276.382 88.6169 276.74 88.2256H248.29C248.273 88.2256 248.239 88.2256 248.222 88.2256C247.184 88.0384 246.18 88.736 245.976 89.774L238.557 128.739C238.03 131.547 236.192 133.827 233.742 134.984Z" fill="#060F11"/>
<path d="M260.558 114.208L259.503 125.217C259.401 125.575 259.282 125.932 259.146 126.272C257.053 131.819 251.625 135.392 245.687 135.41L212.693 135.444L200.051 183.512L178.697 178.799L193.347 131.36C194.895 127.463 198.128 124.486 202.127 123.243L234.916 117.254L239.238 110.737L260.558 114.208Z" fill="#0081FF"/>
<path d="M206.755 122.546C206.551 122.546 206.381 122.41 206.347 122.206C206.313 121.984 206.466 121.763 206.687 121.729L225.149 118.615C225.37 118.581 225.591 118.734 225.625 118.956C225.659 119.177 225.506 119.398 225.285 119.432L206.823 122.546C206.806 122.546 206.772 122.546 206.755 122.546Z" fill="white"/>
<path d="M197.941 177.71C197.907 177.71 197.873 177.71 197.822 177.693L183.308 173.626C183.087 173.558 182.967 173.337 183.018 173.116C183.087 172.895 183.308 172.776 183.529 172.827L198.043 176.893C198.264 176.961 198.383 177.183 198.332 177.404C198.298 177.591 198.128 177.71 197.941 177.71Z" fill="white"/>
<path d="M247.218 130.985C247.099 130.985 246.997 130.934 246.912 130.849C245.635 129.454 244.989 127.48 245.21 125.592C245.414 123.703 246.469 121.933 248.035 120.844C248.222 120.708 248.477 120.759 248.613 120.946C248.749 121.134 248.698 121.389 248.511 121.525C247.15 122.478 246.231 124.043 246.044 125.694C245.857 127.344 246.418 129.063 247.541 130.305C247.694 130.475 247.677 130.73 247.507 130.883C247.422 130.951 247.32 130.985 247.218 130.985Z" fill="white"/>
<path d="M191.526 173.201C191.492 173.201 191.458 173.201 191.424 173.184C191.203 173.133 191.067 172.895 191.135 172.673L200.051 137.86C201.225 133.265 205.19 129.947 209.92 129.624L237.893 127.65C238.115 127.633 238.319 127.803 238.336 128.025C238.353 128.246 238.183 128.45 237.962 128.467L209.971 130.441C205.598 130.747 201.923 133.81 200.834 138.064L191.918 172.877C191.884 173.082 191.713 173.201 191.526 173.201Z" fill="white"/>
<path d="M233.418 199.507H255.368V196.24C255.368 195.236 254.552 194.419 253.548 194.419H235.222C234.218 194.419 233.401 195.236 233.401 196.24V199.507H233.418Z" fill="#141323"/>
<path d="M255.368 199.915H233.418C233.197 199.915 233.01 199.728 233.01 199.507V199.456C233.01 196.461 235.46 194.011 238.455 194.011H250.349C253.344 194.011 255.794 196.461 255.794 199.456V199.507C255.777 199.728 255.59 199.915 255.368 199.915ZM233.844 199.081H254.943C254.756 196.699 252.765 194.827 250.332 194.827H238.438C236.022 194.827 234.031 196.716 233.844 199.081Z" fill="#060F11"/>
<path d="M193.415 85.0606L209.307 105.751C212.745 109.393 218.513 109.495 222.086 105.99L225.557 102.587L231.989 96.2909L236.345 92.02L223.464 84.2609L218.547 89.6378L215.144 93.3472L200.255 74.8003L193.415 85.0606Z" fill="#FFC1A4"/>
<path d="M218.564 89.6377L225.574 102.586L232.006 96.2908C229.964 94.0958 227.174 91.118 227.174 91.118L218.564 89.6377Z" fill="#F7B094"/>
<path d="M237.332 80.1602C237.179 80.1602 234.78 80.1602 232.278 80.1602C228.586 80.1602 225.047 81.6575 222.477 84.3119L217.951 88.9912L229.301 101.038L239.442 89.9611L237.332 80.1602Z" fill="#0045DF"/>
<path d="M225.948 116.097L260.371 120.249L263.042 88.838C263.229 84.7033 260.048 81.1981 255.913 80.9769L237.315 80.1431C232.585 79.9389 228.552 83.4952 228.16 88.2085L225.948 116.097Z" fill="#0045DF"/>
<path d="M241.075 87.1704C236.056 86.728 236.396 82.7294 240.088 80.3813L240.888 72.2479L250.417 71.5332L249.566 80.7045C249.566 80.7045 247.864 87.766 241.075 87.1704Z" fill="#FFC1A4"/>
<path d="M240.292 78.1523C240.292 78.1523 245.312 77.2334 246.435 75.1576L240.769 73.3879L240.292 78.1523Z" fill="#060606"/>
<path d="M249.179 73.8638C252.794 70.249 252.794 64.3882 249.179 60.7734C245.564 57.1586 239.703 57.1586 236.089 60.7734C232.474 64.3882 232.474 70.249 236.089 73.8638C239.703 77.4786 245.564 77.4786 249.179 73.8638Z" fill="#FFC1A4"/>
<path d="M238.693 71.2611C238.523 71.2611 238.353 71.244 238.183 71.193C237.774 71.0739 237.485 70.7676 237.366 70.3763C237.162 69.6956 237.621 69.032 237.808 68.7598L239.101 66.854C239.221 66.6669 239.493 66.6158 239.68 66.752C239.867 66.8881 239.918 67.1433 239.782 67.3305L238.489 69.2362C238.285 69.5255 238.08 69.8998 238.166 70.1721C238.2 70.3082 238.336 70.4103 238.438 70.4273C238.608 70.4783 238.795 70.4613 239.016 70.4443C239.255 70.4273 239.442 70.5975 239.459 70.8187C239.476 71.0399 239.306 71.244 239.084 71.2611C238.965 71.2611 238.829 71.2611 238.693 71.2611Z" fill="#060606"/>
<path d="M240.633 73.3879C240.429 73.3879 240.241 73.2348 240.224 73.0306C240.19 72.8094 240.361 72.6052 240.582 72.5712C241.62 72.4521 242.607 71.7544 243.1 70.8186C243.202 70.6144 243.457 70.5293 243.662 70.6314C243.866 70.7335 243.951 70.9887 243.849 71.1929C243.236 72.384 242.028 73.2177 240.701 73.3879C240.667 73.3879 240.65 73.3879 240.633 73.3879Z" fill="#060606"/>
<path d="M242.317 66.9902C242.198 67.4666 241.841 67.7899 241.501 67.7048C241.177 67.6197 240.99 67.1773 241.109 66.7009C241.228 66.2245 241.586 65.9012 241.926 65.9863C242.266 66.0713 242.436 66.5137 242.317 66.9902Z" fill="#060606"/>
<path d="M237.298 65.714C237.179 66.1905 236.821 66.5138 236.481 66.4287C236.158 66.3436 235.971 65.9012 236.09 65.4248C236.209 64.9483 236.566 64.6251 236.906 64.7101C237.23 64.7782 237.417 65.2376 237.298 65.714Z" fill="#060606"/>
<path d="M250.247 72.6052C249.736 72.4181 253.309 64.9823 251.217 65.7991C248.902 66.7009 248.358 67.4325 248.324 67.4496C246.435 68.0451 245.806 62.7533 245.601 62.481C233.299 64.1826 231.887 57.3424 232.482 55.7089C234.984 48.8857 245.448 50.8424 247.116 51.0636C251.302 51.5911 252.425 54.0414 251.676 55.9981C253.531 55.9811 256.338 57.1552 257.614 59.5374C259.792 63.553 256.372 73.1838 250.247 72.6052Z" fill="#060606"/>
<path d="M253.82 65.8332C254.024 67.2285 253.071 68.5216 251.693 68.7258C250.298 68.93 249.004 67.9771 248.8 66.5989C248.596 65.2036 249.549 63.9104 250.927 63.7063C252.322 63.5021 253.616 64.4549 253.82 65.8332Z" fill="#FFC1A4"/>
<path d="M213.238 113.868H193.602V109.137H208.559C211.145 109.137 213.238 111.23 213.238 113.817V113.868Z" fill="#07070F"/>
<path d="M184.21 87.6128H161.409C159.282 87.6128 157.853 89.7908 158.703 91.7305L167.5 112.081C167.96 113.17 169.032 113.868 170.206 113.868H197.499L186.915 89.3824C186.439 88.3104 185.384 87.6128 184.21 87.6128Z" fill="#141323"/>
<path d="M173.098 101.565C173.405 103.199 174.987 104.526 176.621 104.526C178.254 104.526 179.326 103.199 179.02 101.565C178.714 99.9319 177.131 98.6047 175.498 98.6047C173.864 98.6047 172.792 99.9319 173.098 101.565Z" fill="white"/>
<path d="M214.446 113.732L243.117 116.046C247.269 116.522 251.319 114.531 253.48 110.958L257.155 104.918L261.596 97.6179L261.749 97.3797L248.256 89.9609L245.721 94.5041L241.586 101.94L216.896 102.672L214.446 113.732Z" fill="#FFC1A4"/>
<path d="M245.721 94.5042L257.138 104.918L261.579 97.618C256.662 96.5971 245.721 94.5042 245.721 94.5042Z" fill="#F7B094"/>
<path d="M244.512 93.9085L260.66 101.804L264.148 91.4073C265.016 87.7489 263.4 83.9545 260.15 82.0657C255.487 79.3433 249.498 81.5893 247.779 86.711L244.512 93.9085Z" fill="#0045DF"/>
<path d="M244.513 94.3339C244.461 94.3339 244.393 94.3169 244.342 94.2998C244.138 94.1977 244.036 93.9595 244.138 93.7553L247.405 86.5748C247.507 86.3706 247.745 86.2685 247.95 86.3706C248.154 86.4727 248.256 86.7109 248.154 86.9151L244.887 94.0956C244.819 94.2318 244.666 94.3339 244.513 94.3339Z" fill="white"/>
<path d="M217.951 103.029L210.652 99.0983C210.141 98.4517 209.188 98.3496 208.559 98.8771C208.031 99.3024 207.861 100.017 208.133 100.63C208.167 100.732 208.236 100.834 208.287 100.919L210.669 103.386L206.109 103.08C205.105 103.012 204.22 103.743 204.101 104.73C204.135 105.156 204.407 105.53 204.798 105.666C204.203 105.734 203.726 106.211 203.658 106.84C203.641 107.062 203.675 107.283 203.76 107.47C203.897 107.81 204.186 108.065 204.509 108.185C203.863 108.338 203.369 108.899 203.335 109.597C203.318 109.835 203.369 110.056 203.454 110.243C203.675 110.754 204.152 111.128 204.747 111.162C204.832 111.162 204.883 111.162 204.883 111.162C202.978 111.417 203.88 113.817 205.003 113.698L216.097 113.8L217.951 103.029Z" fill="#FFC1A4"/>
<path d="M204.9 114.157C204.118 114.157 203.488 113.34 203.386 112.523C203.335 112.098 203.437 111.622 203.777 111.264C203.471 111.06 203.233 110.771 203.08 110.43C202.961 110.175 202.91 109.886 202.927 109.597C202.944 109.018 203.233 108.474 203.692 108.133C203.556 107.997 203.454 107.827 203.369 107.64C203.25 107.385 203.216 107.095 203.233 106.806C203.284 106.279 203.556 105.836 203.965 105.547C203.794 105.326 203.692 105.054 203.675 104.747C203.675 104.713 203.675 104.696 203.675 104.662C203.828 103.454 204.883 102.569 206.126 102.637L209.631 102.859L207.997 101.157C207.98 101.14 207.98 101.123 207.963 101.123C207.878 101.021 207.81 100.885 207.759 100.749C207.419 99.966 207.657 99.0471 208.304 98.5196C208.695 98.1964 209.205 98.0602 209.699 98.1113C210.209 98.1623 210.652 98.4176 210.975 98.8089C211.111 98.9791 211.094 99.2513 210.907 99.3874C210.737 99.5236 210.465 99.5065 210.328 99.3194C210.141 99.0982 209.886 98.9621 209.597 98.928C209.307 98.894 209.035 98.9791 208.797 99.1662C208.423 99.4725 208.304 99.983 208.491 100.425C208.525 100.493 208.559 100.562 208.593 100.613L210.941 103.063C211.06 103.182 211.094 103.369 211.026 103.522C210.958 103.675 210.805 103.777 210.618 103.76L206.058 103.454C205.292 103.403 204.611 103.948 204.492 104.713C204.526 104.952 204.679 105.173 204.917 105.258C205.105 105.326 205.207 105.496 205.19 105.7C205.173 105.887 205.02 106.04 204.832 106.058C204.424 106.109 204.101 106.432 204.05 106.857C204.033 107.01 204.067 107.164 204.118 107.283C204.22 107.504 204.407 107.691 204.628 107.776C204.798 107.844 204.917 108.014 204.9 108.184C204.883 108.372 204.764 108.525 204.577 108.559C204.101 108.661 203.743 109.086 203.726 109.58C203.726 109.75 203.743 109.903 203.811 110.056C203.982 110.447 204.339 110.703 204.747 110.72H204.883C205.088 110.737 205.258 110.907 205.275 111.111C205.275 111.315 205.122 111.502 204.917 111.536C204.237 111.622 204.135 112.03 204.169 112.353C204.22 112.847 204.594 113.289 204.934 113.255L209.784 113.119C209.784 113.119 209.784 113.119 209.801 113.119C210.022 113.119 210.209 113.289 210.209 113.527C210.209 113.749 210.039 113.953 209.801 113.953L204.986 114.089C204.969 114.157 204.934 114.157 204.9 114.157Z" fill="#060606"/>
<path d="M204.883 111.605C204.662 111.605 204.475 111.417 204.475 111.196C204.475 110.975 204.662 110.788 204.883 110.771L208.048 110.737C208.287 110.737 208.457 110.924 208.474 111.145C208.474 111.366 208.287 111.554 208.065 111.571L204.883 111.605Z" fill="#060606"/>
<path d="M207.725 108.712L204.492 108.61C204.271 108.61 204.084 108.406 204.084 108.184C204.084 107.963 204.305 107.776 204.509 107.793L207.725 107.895C207.946 107.895 208.133 108.099 208.133 108.321C208.133 108.542 207.946 108.712 207.725 108.712Z" fill="#060606"/>
<path d="M207.538 106.228H207.521L204.781 106.091C204.56 106.074 204.373 105.887 204.39 105.666C204.407 105.445 204.594 105.258 204.815 105.275L207.555 105.411C207.776 105.428 207.963 105.615 207.946 105.836C207.929 106.057 207.759 106.228 207.538 106.228Z" fill="#060606"/>
<path d="M185.775 77.6248C185.809 77.6758 185.843 77.7269 185.894 77.7779C186.643 78.6287 191.798 84.1247 193.415 85.0776L201.14 76.5528L197.005 66.6158C197.022 65.9692 196.614 65.4077 196.001 65.2035C195.848 65.1524 195.695 65.1184 195.542 65.1184C194.844 65.1184 194.198 65.6289 194.079 66.3605L193.602 69.3212L187.987 63.1616C187.374 62.498 186.337 62.498 185.741 63.1786C185.265 63.7061 185.231 64.4888 185.639 65.0673L189.161 70.0529H189.144C189.127 70.0529 189.076 70.0699 189.025 70.0869C188.651 70.206 187.681 70.6995 188.157 72.333L188.174 72.401C188.174 72.401 185.724 72.7583 186.609 75.0554C186.592 75.0384 184.431 75.9062 185.775 77.6248Z" fill="#FFC1A4"/>
<path d="M192.343 72.3502C192.581 72.6564 193.075 73.4902 192.496 74.1198C191.969 74.6983 190.999 74.7834 190.522 74.7834L190.386 74.9705C190.539 75.2088 190.727 75.6171 190.556 76.1616C190.301 76.9784 189.008 76.9273 188.923 76.9273C188.974 76.9954 189.859 78.1865 188.702 78.8671C188.004 79.2755 185.707 78.3566 185.248 76.4339C184.805 74.5111 186.66 74.409 186.66 74.409C186.66 74.409 186.2 73.5923 186.371 72.9117C186.558 72.231 187.63 71.8907 187.63 71.8907C187.63 71.8907 186.932 70.8868 187.443 70.1211C187.919 69.3895 188.787 69.5936 188.855 69.6107" fill="#FFC1A4"/>
<path d="M190.607 76.0933C190.386 76.0933 190.199 75.9232 190.199 75.702C190.182 75.3276 189.927 75.0724 189.927 75.0724C189.808 74.9533 189.757 74.7661 189.842 74.596C189.91 74.4428 190.08 74.3408 190.25 74.3578C190.624 74.3918 191.713 74.3748 192.19 73.8473C192.649 73.3368 191.935 72.5031 191.918 72.5031C191.764 72.3329 191.781 72.0777 191.952 71.9246C192.122 71.7714 192.377 71.7884 192.53 71.9586C192.956 72.435 193.568 73.558 192.802 74.4088C192.309 74.9533 191.509 75.1405 190.931 75.1915C190.982 75.3276 191.016 75.4978 191.016 75.668C191.033 75.8892 190.846 76.0933 190.624 76.0933H190.607Z" fill="#060606"/>
<path d="M188.685 79.2923C188.548 79.2923 188.412 79.2242 188.327 79.0881C188.208 78.8839 188.276 78.6457 188.48 78.5266C188.702 78.3905 188.838 78.2373 188.872 78.0672C188.94 77.7269 188.685 77.3185 188.6 77.1994C188.463 77.0122 188.497 76.757 188.668 76.6209C188.855 76.4847 189.11 76.5188 189.246 76.6889C189.314 76.757 189.825 77.4546 189.689 78.2203C189.637 78.5096 189.45 78.935 188.906 79.2412C188.821 79.2753 188.753 79.2923 188.685 79.2923Z" fill="#060606"/>
<path d="M188.242 79.3775C187.902 79.3775 187.511 79.2924 187.119 79.1222C185.945 78.6118 185.094 77.6589 184.839 76.5359C184.669 75.8212 184.771 75.2427 185.111 74.7833C185.384 74.4259 185.775 74.2218 186.081 74.1197C185.962 73.7623 185.86 73.2859 185.979 72.8265C186.132 72.265 186.66 71.9077 187.068 71.7035C186.881 71.2611 186.694 70.5464 187.119 69.9168C187.783 68.9129 188.94 69.2192 188.991 69.2362C189.212 69.2873 189.348 69.5255 189.28 69.7467C189.229 69.9679 188.991 70.104 188.77 70.036C188.736 70.036 188.123 69.8828 187.8 70.3763C187.459 70.8867 187.987 71.6694 187.987 71.6864C188.055 71.7885 188.072 71.9247 188.038 72.0608C187.987 72.1799 187.902 72.282 187.766 72.316C187.477 72.4011 186.864 72.6904 186.779 73.0477C186.66 73.4731 186.915 74.0516 187.017 74.2388C187.085 74.3579 187.085 74.511 187.017 74.6471C186.949 74.7663 186.813 74.8513 186.677 74.8683C186.677 74.8683 186.064 74.9194 185.758 75.3108C185.571 75.566 185.537 75.9233 185.639 76.3827C185.877 77.4037 186.728 78.1013 187.442 78.4076C187.953 78.6288 188.361 78.6288 188.48 78.5607C188.685 78.4416 188.923 78.5097 189.042 78.7138C189.161 78.918 189.093 79.1562 188.889 79.2754C188.719 79.3264 188.497 79.3775 188.242 79.3775Z" fill="#060606"/>
<path d="M187.953 76.1615C187.868 76.1615 187.783 76.1445 187.715 76.0764C187.017 75.5829 186.337 74.6641 186.303 74.6301C186.166 74.4429 186.2 74.1877 186.388 74.0515C186.575 73.9154 186.83 73.9495 186.966 74.1366C186.966 74.1366 187.613 74.9874 188.191 75.4128C188.378 75.5489 188.412 75.8041 188.293 75.9913C188.208 76.1104 188.089 76.1615 187.953 76.1615Z" fill="#060606"/>
<path d="M189.621 74.1025C189.535 74.1025 189.467 74.0855 189.382 74.0345C188.651 73.541 187.391 72.2478 187.34 72.1968C187.187 72.0266 187.187 71.7714 187.34 71.6183C187.511 71.4651 187.766 71.4651 187.919 71.6183C187.936 71.6353 189.161 72.8944 189.842 73.3539C190.029 73.473 190.08 73.7452 189.961 73.9324C189.876 74.0345 189.74 74.1025 189.621 74.1025Z" fill="#060606"/>
<path d="M190.897 71.6353C190.846 71.6353 190.795 71.6183 190.743 71.6013C189.961 71.295 188.719 70.0529 188.583 69.9168C188.429 69.7636 188.429 69.4914 188.583 69.3382C188.736 69.1851 189.008 69.1851 189.161 69.3382C189.501 69.6786 190.522 70.6314 191.05 70.8356C191.254 70.9207 191.373 71.1589 191.288 71.3801C191.203 71.5332 191.05 71.6353 190.897 71.6353Z" fill="#060606"/>
<path d="M225.319 46.2653C225.387 49.3961 224.128 52.2377 222.086 54.2796C221.235 55.1304 220.231 55.845 219.142 56.3895L218.734 59.2651C218.53 60.7114 216.845 61.4091 215.688 60.5243L211.673 57.5125H202.025C195.984 57.5125 190.88 52.7482 190.761 46.7077C190.692 43.5768 191.952 40.7352 193.994 38.6934C195.984 36.7026 198.741 35.4604 201.787 35.4604H214.055C220.095 35.4775 225.217 40.2248 225.319 46.2653Z" fill="white"/>
<path d="M216.845 61.392C216.335 61.392 215.841 61.2218 215.416 60.9156L211.519 57.9889H202.025C195.678 57.9889 190.403 52.9353 190.284 46.7246C190.216 43.5598 191.424 40.5991 193.653 38.37C195.831 36.1921 198.707 35.001 201.787 35.001H214.055C220.401 35.001 225.676 40.0546 225.795 46.2652C225.863 49.4301 224.655 52.3908 222.426 54.6198C221.593 55.4536 220.64 56.1682 219.585 56.7127L219.21 59.3331C219.091 60.1839 218.547 60.8815 217.764 61.2048C217.475 61.3409 217.152 61.392 216.845 61.392ZM201.787 35.9368C198.962 35.9368 196.325 37.0428 194.317 39.0336C192.275 41.0755 191.169 43.798 191.22 46.7076C191.339 52.4078 196.171 57.053 202.025 57.053H211.673C211.775 57.053 211.877 57.0871 211.962 57.1551L215.977 60.1669C216.386 60.4732 216.93 60.5412 217.407 60.354C217.883 60.1499 218.207 59.7245 218.292 59.214L218.7 56.3384C218.717 56.1853 218.819 56.0491 218.955 55.9811C220.01 55.4706 220.946 54.79 221.78 53.9562C223.822 51.9144 224.928 49.1919 224.877 46.2822C224.757 40.5821 219.925 35.9368 214.072 35.9368H201.787Z" fill="black"/>
<path d="M216.029 42.8622H199.541C199.319 42.8622 199.132 42.675 199.132 42.4538C199.132 42.2326 199.319 42.0454 199.541 42.0454H216.029C216.25 42.0454 216.437 42.2326 216.437 42.4538C216.437 42.675 216.267 42.8622 216.029 42.8622Z" fill="black"/>
<path d="M216.029 46.7928H199.541C199.319 46.7928 199.132 46.6056 199.132 46.3844C199.132 46.1632 199.319 45.9761 199.541 45.9761H216.029C216.25 45.9761 216.437 46.1632 216.437 46.3844C216.437 46.6056 216.267 46.7928 216.029 46.7928Z" fill="black"/>
<path d="M216.029 50.7232H211.57C211.349 50.7232 211.162 50.5361 211.162 50.3149C211.162 50.0937 211.349 49.9065 211.57 49.9065H216.029C216.25 49.9065 216.437 50.0937 216.437 50.3149C216.437 50.5531 216.267 50.7232 216.029 50.7232Z" fill="black"/>
<path d="M105.53 56.5595C105.53 56.5595 98.6047 65.8499 100.681 75.1404C102.756 84.4308 120.827 85.7921 124.877 71.0907C128.926 56.3893 123.6 49.2428 119.517 48.307C114.361 47.0989 112.217 48.7834 110.158 50.4169C108.099 52.0333 105.53 56.5595 105.53 56.5595Z" fill="#060606"/>
<path d="M148.766 184.397L134.763 183.257L133.35 171.652L148.92 170.427L148.766 184.397Z" fill="#FFC1A4"/>
<path d="M148.817 175.889L134.422 180.432L134.184 176.757L148.817 175.889Z" fill="black"/>
<path d="M161.817 196.835C161.817 196.852 161.817 196.886 161.817 196.92V199.745L134.269 199.711V196.954V196.07C134.507 190.557 133.912 182.593 133.912 182.593L150.077 182.695L150.366 184.601C150.604 186.15 151.319 187.528 152.357 188.583C153.412 189.638 154.773 190.369 156.321 190.625C159.452 191.016 161.8 193.67 161.817 196.835Z" fill="#2DCDFF"/>
<path d="M161.817 196.835C161.817 196.852 161.817 196.886 161.817 196.92V199.745L134.269 199.711V196.954L161.817 196.835Z" fill="black"/>
<path d="M148.052 191.458C147.916 191.458 147.762 191.39 147.677 191.271C147.524 191.067 147.558 190.761 147.762 190.608L150.213 188.719L146.588 189.144C146.367 189.161 146.18 189.059 146.095 188.855C146.01 188.668 146.061 188.447 146.231 188.31L148.511 186.422L144.887 186.813C144.632 186.847 144.393 186.66 144.359 186.388C144.325 186.132 144.512 185.894 144.785 185.86L149.957 185.299C150.162 185.282 150.366 185.384 150.451 185.588C150.536 185.775 150.485 185.996 150.315 186.132L148.052 188.021L151.795 187.579C152.016 187.562 152.203 187.681 152.289 187.868C152.374 188.072 152.306 188.293 152.135 188.413L148.324 191.339C148.256 191.424 148.154 191.458 148.052 191.458Z" fill="#060606"/>
<path d="M151.387 193.739C151.336 193.739 151.285 193.722 151.234 193.705C150.995 193.619 150.859 193.347 150.944 193.109C152.255 189.485 155.232 190.148 155.249 190.148C155.505 190.216 155.658 190.455 155.607 190.71C155.539 190.965 155.3 191.118 155.045 191.067C154.943 191.05 152.85 190.625 151.846 193.432C151.761 193.619 151.574 193.739 151.387 193.739Z" fill="#060606"/>
<path d="M212.342 114.808L211.417 114.952L224.675 199.9L225.6 199.755L212.342 114.808Z" fill="#141323"/>
<path d="M66.4263 114.817L53.1597 199.764L54.0843 199.909L67.3509 114.961L66.4263 114.817Z" fill="#141323"/>
<path d="M163.059 166.769C162.889 166.769 162.736 166.667 162.668 166.497C162.583 166.275 162.702 166.037 162.906 165.969L173.847 161.817C174.068 161.732 174.307 161.851 174.375 162.056C174.46 162.277 174.341 162.515 174.136 162.583L163.196 166.752C163.144 166.769 163.093 166.769 163.059 166.769Z" fill="white"/>
<path d="M135.426 171.261C135.205 171.261 135.018 171.091 135.018 170.87C135.001 170.648 135.188 170.444 135.409 170.444L147.405 169.985H147.422C147.643 169.985 147.831 170.155 147.831 170.376C147.848 170.597 147.66 170.802 147.439 170.802L135.426 171.261C135.443 171.261 135.443 171.261 135.426 171.261Z" fill="white"/>
<path d="M102.144 88.9399C102.093 88.9399 102.025 88.9229 101.974 88.9059L93.0747 84.8732C92.8705 84.7711 92.7684 84.5329 92.8705 84.3287C92.9726 84.1245 93.2108 84.0224 93.415 84.1245L102.297 88.1572C102.501 88.2593 102.603 88.4975 102.501 88.7017C102.45 88.8378 102.297 88.9399 102.144 88.9399Z" fill="white"/>
<path d="M161.494 84.499L143.526 101.174C140.038 104.611 134.218 103.59 132.091 99.2003L130.254 95.4229L126.902 88.5146L125.966 86.5748L137.996 81.1809L139.799 83.7162L141.212 85.7071C141.212 85.7071 152.442 74.2726 152.578 74.4428C152.663 74.613 161.494 84.499 161.494 84.499Z" fill="#FFC1A4"/>
<path d="M139.782 83.6992L130.254 95.4059L126.901 88.5146L139.782 83.6992Z" fill="#F7B094"/>
<path d="M124.294 136.004L123.361 136.067L127.607 199.202L128.541 199.139L124.294 136.004Z" fill="#141323"/>
<path d="M99.4321 136.02L95.1844 199.156L96.1181 199.218L100.366 136.083L99.4321 136.02Z" fill="#141323"/>
<path d="M152.731 175.889V148.681L148.579 130.015L131.921 129.794L130.118 176.944L152.731 175.889Z" fill="#4A4DDC"/>
<path d="M141.433 169.066C141.212 169.066 141.024 168.896 141.024 168.674L139.476 130.628C139.459 130.407 139.646 130.202 139.867 130.202C140.089 130.185 140.293 130.373 140.293 130.594L141.841 168.64C141.858 168.862 141.671 169.066 141.45 169.066C141.433 169.066 141.433 169.066 141.433 169.066Z" fill="white"/>
<path d="M131.921 134.763C131.921 135.324 131.7 135.818 131.326 136.175C130.968 136.532 130.458 136.771 129.913 136.771H93.8405C92.7345 136.771 91.8326 135.869 91.8326 134.763C91.8326 134.201 92.0538 133.708 92.4282 133.351C92.7855 132.993 93.296 132.772 93.8405 132.772H129.913C131.019 132.772 131.921 133.657 131.921 134.763Z" fill="#E7EBFB"/>
<path d="M129.913 137.179H93.8405C92.5133 137.179 91.4243 136.09 91.4243 134.763C91.4243 134.116 91.6796 133.504 92.139 133.061C92.5984 132.602 93.1939 132.364 93.8405 132.364H129.913C131.241 132.364 132.33 133.453 132.33 134.78C132.33 135.426 132.074 136.039 131.615 136.481C131.155 136.941 130.56 137.179 129.913 137.179ZM93.8405 133.18C93.4151 133.18 93.0068 133.35 92.7175 133.64C92.4112 133.946 92.2581 134.337 92.2581 134.763C92.2581 135.648 92.9727 136.362 93.8575 136.362H129.93C130.356 136.362 130.747 136.192 131.053 135.903C131.36 135.596 131.53 135.205 131.53 134.78C131.53 133.912 130.815 133.197 129.93 133.197H93.8405V133.18Z" fill="#060F11"/>
<path d="M106.16 72.5881H124.724C128.739 72.5881 131.955 75.9402 131.785 79.9558L130.356 111.571L96.6991 111.213L99.1153 79.02C99.4386 75.3787 102.501 72.5881 106.16 72.5881Z" fill="#FF452D"/>
<path d="M179.394 175.43L165.799 179.037L160.609 168.555L174.868 162.208L179.394 175.43Z" fill="#FFC1A4"/>
<path d="M176.587 167.381L164.54 176.484L163.059 173.405L176.587 167.381Z" fill="black"/>
<path d="M195.848 182.78C195.865 182.797 195.865 182.831 195.882 182.848L196.818 185.52L170.836 194.691L169.917 192.088L169.627 191.254C168.011 185.979 164.795 178.662 164.795 178.662L180.075 173.371L180.977 175.072C181.708 176.45 182.848 177.522 184.176 178.169C185.52 178.816 187.051 179.054 188.583 178.765C191.663 178.101 194.759 179.819 195.848 182.78Z" fill="#2DCDFF"/>
<path d="M195.848 182.78C195.865 182.797 195.865 182.831 195.882 182.848L196.818 185.52L170.836 194.691L169.917 192.088L195.848 182.78Z" fill="black"/>
<path d="M180.909 182.355C180.824 182.355 180.739 182.338 180.653 182.287C180.432 182.151 180.381 181.844 180.517 181.64L182.202 179.037L178.935 180.653C178.748 180.738 178.527 180.704 178.373 180.551C178.237 180.398 178.203 180.177 178.322 179.99L179.837 177.437L176.553 179.02C176.315 179.139 176.042 179.037 175.923 178.799C175.804 178.56 175.906 178.288 176.144 178.169L180.841 175.906C181.028 175.821 181.249 175.855 181.385 176.008C181.521 176.161 181.555 176.382 181.436 176.57L179.939 179.105L183.325 177.437C183.512 177.352 183.75 177.386 183.886 177.539C184.023 177.693 184.04 177.931 183.937 178.118L181.317 182.151C181.215 182.27 181.062 182.355 180.909 182.355Z" fill="#060606"/>
<path d="M184.805 183.376C184.55 183.376 184.329 183.155 184.329 182.899C184.346 179.037 187.375 178.679 187.409 178.662C187.681 178.628 187.902 178.816 187.936 179.088C187.97 179.343 187.783 179.581 187.528 179.598C187.426 179.615 185.316 179.905 185.299 182.899C185.282 183.172 185.061 183.376 184.805 183.376Z" fill="#060606"/>
<path d="M96.6991 111.213L96.3588 120.299C96.0866 127.378 101.498 132.21 108.576 132.397L144.138 132.585L159.316 175.106L179.394 166.122L163.485 124.894C161.392 119.789 156.577 116.335 151.064 115.96L130.509 113.799L130.356 111.57L96.6991 111.213Z" fill="#4A4DDC"/>
<path d="M159.299 175.532C159.129 175.532 158.976 175.43 158.908 175.26L143.832 133.01L132.687 133.061C132.466 133.061 132.278 132.874 132.278 132.653C132.278 132.432 132.466 132.244 132.687 132.244L144.121 132.193C144.291 132.193 144.445 132.295 144.513 132.466L159.69 174.987C159.758 175.209 159.656 175.43 159.435 175.515C159.401 175.515 159.35 175.532 159.299 175.532Z" fill="white"/>
<path d="M141.075 110.073C141.041 111.298 139.306 111.23 139.153 111.213C139.306 111.23 140.718 111.468 140.65 112.455C140.599 113.051 139.85 113.629 139.255 113.697C138.846 113.731 126.646 113.527 123.311 113.493V113.782H92.3431C87.0343 113.782 83.2909 108.593 84.9584 103.556L91.6625 83.3247L104.952 87.9869L100.63 100.766L123.567 102.008L127.531 101.497L134.099 97.7028C134.371 97.4816 134.678 97.3795 135.018 97.3795C135.443 97.3795 135.852 97.5496 136.141 97.89C136.617 98.4345 136.634 99.2172 136.192 99.7787L134.031 101.582C134.031 101.582 140.837 101.429 140.956 102.978C141.092 104.764 139.578 105.207 139.221 105.258C139.561 105.224 141.28 105.428 141.433 106.874C141.603 108.474 139.187 108.627 139.187 108.627C139.187 108.627 141.109 108.797 141.075 110.073Z" fill="#FFC1A4"/>
<path d="M103.522 92.2068L89.5016 89.8246L90.5906 86.5066L103.522 92.2068Z" fill="#F7B094"/>
<path d="M109.444 72.588L103.573 72.4349C99.6087 72.3328 95.8823 74.3236 93.7554 77.6586L89.6206 86.1664L104.441 92.5982L109.444 72.588Z" fill="#FF452D"/>
<path d="M123.226 72.588L128.433 72.4348C132.074 72.4348 135.545 74.6298 137.196 78.0669L140.344 83.3247L127.055 92.3599L123.226 72.588Z" fill="#FF452D"/>
<path d="M221.065 118.309H57.7165C57.2741 118.309 56.8998 117.951 56.8998 117.492V114.616C56.8998 114.174 57.2571 113.8 57.7165 113.8H221.065C221.508 113.8 221.882 114.157 221.882 114.616V117.492C221.882 117.934 221.525 118.309 221.065 118.309Z" fill="white"/>
<path d="M219.636 118.717H59.1629C57.6996 118.717 56.4915 117.526 56.4915 116.046C56.4915 114.582 57.6825 113.374 59.1629 113.374H219.636C221.099 113.374 222.307 114.565 222.307 116.046C222.29 117.526 221.099 118.717 219.636 118.717ZM59.1629 114.208C58.142 114.208 57.3252 115.042 57.3252 116.046C57.3252 117.067 58.159 117.883 59.1629 117.883H219.636C220.657 117.883 221.474 117.05 221.474 116.046C221.474 115.025 220.64 114.208 219.636 114.208H59.1629Z" fill="#060F11"/>
<path d="M103.863 125.438C103.692 125.438 103.539 125.336 103.471 125.166C103.403 124.945 103.505 124.724 103.726 124.639C104.475 124.366 105.071 123.703 105.224 122.92C105.445 121.916 105.003 120.878 104.458 119.738C104.356 119.534 104.441 119.279 104.645 119.194C104.849 119.092 105.105 119.177 105.19 119.381C105.666 120.368 106.313 121.729 106.023 123.09C105.802 124.145 105.003 125.047 103.999 125.404C103.965 125.438 103.914 125.438 103.863 125.438Z" fill="white"/>
<path d="M166.973 159.895C166.803 159.895 166.65 159.793 166.582 159.639L154.807 129.709C153.378 126.051 149.907 123.55 145.993 123.345L117.067 121.729C116.845 121.712 116.658 121.525 116.675 121.286C116.692 121.065 116.879 120.878 117.118 120.895L146.044 122.512C150.281 122.75 154.024 125.455 155.573 129.403L167.347 159.333C167.432 159.537 167.33 159.793 167.109 159.861C167.075 159.878 167.024 159.895 166.973 159.895Z" fill="white"/>
<path d="M131.36 89.6888C131.138 89.6888 130.951 89.5016 130.951 89.2804V81.0109C130.951 80.7897 131.138 80.6025 131.36 80.6025C131.581 80.6025 131.768 80.7897 131.768 81.0109V89.2804C131.768 89.5016 131.598 89.6888 131.36 89.6888Z" fill="white"/>
<path d="M104.424 93.0236C104.39 93.0236 104.339 93.0236 104.305 93.0066C104.084 92.9385 103.965 92.7003 104.033 92.4961L106.772 83.7672C106.84 83.546 107.079 83.4269 107.283 83.4949C107.504 83.563 107.623 83.8012 107.555 84.0054L104.832 92.7343C104.764 92.9045 104.611 93.0236 104.424 93.0236Z" fill="white"/>
<path d="M133.078 86.3706C132.959 86.3706 132.84 86.3195 132.755 86.2174C132.602 86.0473 132.636 85.775 132.806 85.6389L137.094 82.0827C137.264 81.9295 137.536 81.9636 137.672 82.1337C137.826 82.3039 137.791 82.5761 137.621 82.7122L133.333 86.2685C133.265 86.3365 133.163 86.3706 133.078 86.3706Z" fill="white"/>
<path d="M137.928 114.123C137.196 114.123 136.056 114.123 134.269 114.106C134.048 114.106 133.861 113.919 133.861 113.698C133.861 113.476 134.065 113.289 134.269 113.289C138.387 113.323 139.085 113.306 139.204 113.289C139.663 113.238 140.208 112.779 140.225 112.438C140.276 111.809 139.102 111.639 139.085 111.639C138.863 111.605 138.71 111.418 138.727 111.196C138.744 110.975 138.948 110.805 139.17 110.822C139.408 110.839 140.14 110.822 140.48 110.516C140.599 110.414 140.65 110.278 140.667 110.09C140.684 109.223 139.17 109.086 139.153 109.086C138.931 109.069 138.778 108.882 138.778 108.678C138.778 108.457 138.948 108.287 139.17 108.27C139.493 108.253 140.446 108.083 140.854 107.606C141.007 107.436 141.058 107.215 141.041 106.977C140.922 105.785 139.323 105.717 139.272 105.717C139.068 105.734 138.863 105.581 138.829 105.36C138.812 105.139 138.948 104.935 139.17 104.901C139.323 104.884 140.667 104.611 140.548 103.063C140.497 102.467 137.417 101.974 134.048 102.059C134.048 102.059 134.048 102.059 134.031 102.059C133.861 102.059 133.708 101.957 133.64 101.787C133.572 101.617 133.623 101.429 133.759 101.327L135.886 99.5408C136.175 99.1324 136.158 98.5879 135.818 98.2135C135.613 97.9753 135.307 97.8392 135.001 97.8562C134.763 97.8562 134.541 97.9413 134.337 98.0944C134.32 98.1114 134.303 98.1115 134.286 98.1285L129.896 100.664C129.692 100.783 129.454 100.715 129.335 100.511C129.216 100.306 129.284 100.068 129.488 99.9491L133.861 97.4308C134.184 97.1756 134.593 97.0395 135.001 97.0225C135.545 97.0225 136.09 97.2437 136.447 97.669C137.043 98.3497 137.077 99.3706 136.515 100.085C136.498 100.102 136.481 100.136 136.447 100.153L135.171 101.225C137.604 101.242 141.246 101.532 141.348 103.012C141.416 104.067 141.007 104.747 140.48 105.173C141.109 105.445 141.722 105.973 141.824 106.908C141.875 107.385 141.739 107.81 141.45 108.168C141.229 108.423 140.956 108.61 140.667 108.746C141.143 109.035 141.501 109.478 141.484 110.158C141.467 110.567 141.314 110.924 141.024 111.179C140.888 111.298 140.752 111.384 140.582 111.469C140.871 111.724 141.075 112.081 141.041 112.558C140.99 113.374 140.072 114.089 139.272 114.174C139.221 114.123 139.085 114.123 137.928 114.123Z" fill="#060F11"/>
<path d="M139.136 111.639H139.119L134.78 111.452C134.558 111.435 134.371 111.247 134.388 111.026C134.405 110.805 134.609 110.618 134.814 110.635L139.153 110.822C139.374 110.839 139.561 111.026 139.544 111.247C139.544 111.469 139.357 111.639 139.136 111.639Z" fill="#060F11"/>
<path d="M134.763 109.12C134.541 109.12 134.354 108.933 134.354 108.712C134.354 108.491 134.541 108.304 134.763 108.287L139.17 108.236C139.391 108.236 139.578 108.423 139.578 108.644C139.578 108.865 139.391 109.052 139.17 109.069L134.763 109.12Z" fill="#060F11"/>
<path d="M134.729 105.734C134.507 105.734 134.32 105.547 134.32 105.326C134.32 105.105 134.507 104.918 134.729 104.901L139.221 104.85C139.442 104.85 139.629 105.037 139.629 105.258C139.629 105.479 139.442 105.666 139.221 105.683L134.729 105.734Z" fill="#060F11"/>
<path d="M152.204 75.7871L154.177 68.1811C154.245 67.3814 154.892 66.7518 155.709 66.7008C156.594 66.6668 157.325 67.3304 157.376 68.2152L157.581 72.2478C157.581 72.2478 163.859 64.6759 165.476 65.4757C166.956 66.2073 165.714 68.7426 165.714 68.7426C165.714 68.7426 167.279 66.7348 168.402 67.5005C169.662 68.3513 167.773 70.7164 167.773 70.7164C167.773 70.7164 169.338 68.5725 170.461 69.5424C171.805 70.6994 169.798 72.8264 169.798 72.8264C169.798 72.8264 172.401 71.8224 171.959 74.3748C171.584 76.5528 160.592 85.3157 160.592 85.3157L152.204 75.7871Z" fill="#FFC1A4"/>
<path d="M167.773 79.6156C167.654 79.6156 167.552 79.5645 167.466 79.4794C167.313 79.3093 167.33 79.0541 167.483 78.9009C171.006 75.668 171.499 74.613 171.55 74.3238C171.618 73.9324 171.635 73.4389 171.38 73.2177C171.023 72.9285 170.206 73.1327 169.951 73.2348C169.729 73.3198 169.491 73.2177 169.423 72.9965C169.338 72.7924 169.44 72.5541 169.661 72.4691C169.815 72.418 171.125 71.9416 171.907 72.5882C172.367 72.9625 172.52 73.5921 172.384 74.4769C172.299 75.0214 171.737 76.1444 168.062 79.5305C167.977 79.5645 167.875 79.6156 167.773 79.6156Z" fill="#060606"/>
<path d="M169.798 73.2518C169.696 73.2518 169.593 73.2178 169.508 73.1327C169.338 72.9795 169.338 72.7243 169.491 72.5541C169.781 72.2309 170.546 71.244 170.512 70.4953C170.495 70.24 170.393 70.0359 170.189 69.8657C170.053 69.7466 169.9 69.6956 169.73 69.7126C169.1 69.7806 168.334 70.6314 168.096 70.9717C167.96 71.1589 167.705 71.1929 167.518 71.0568C167.33 70.9207 167.296 70.6654 167.433 70.4783C167.535 70.3251 168.539 69.0149 169.628 68.8958C170.036 68.8448 170.41 68.9639 170.717 69.2361C171.091 69.5594 171.295 69.9678 171.312 70.4442C171.38 71.7034 170.138 73.0646 170.07 73.1157C170.019 73.2007 169.9 73.2518 169.798 73.2518Z" fill="#060606"/>
<path d="M167.773 71.1417C167.688 71.1417 167.586 71.1077 167.518 71.0566C167.347 70.9205 167.313 70.6483 167.449 70.4781C167.756 70.1038 168.521 68.9467 168.402 68.2491C168.368 68.0789 168.3 67.9598 168.164 67.8577C167.501 67.4153 166.378 68.5724 166.02 69.0148C165.884 69.202 165.629 69.219 165.442 69.0829C165.254 68.9467 165.237 68.6915 165.374 68.5043C166.037 67.6536 167.484 66.3944 168.624 67.1771C168.947 67.3983 169.151 67.7216 169.219 68.13C169.406 69.3211 168.215 70.8354 168.079 71.0056C168.011 71.0737 167.892 71.1417 167.773 71.1417Z" fill="#060606"/>
<path d="M165.697 69.1509C165.629 69.1509 165.578 69.1339 165.51 69.1169C165.305 69.0148 165.22 68.7765 165.322 68.5724C165.34 68.5553 166.343 66.3944 165.271 65.8669C165.067 65.7648 164.982 65.5096 165.084 65.3054C165.186 65.1012 165.425 65.0161 165.646 65.1182C167.109 65.8499 166.599 67.8577 166.071 68.9297C166.003 69.0658 165.85 69.1509 165.697 69.1509Z" fill="#060606"/>
<path d="M157.58 72.6732C157.495 72.6732 157.393 72.6392 157.325 72.5711C157.155 72.418 157.121 72.1627 157.274 71.9926C158.789 70.1549 163.893 64.2335 165.663 65.1183C165.867 65.2204 165.952 65.4757 165.85 65.6798C165.748 65.884 165.51 65.9691 165.288 65.867C164.506 65.4757 160.83 68.9979 157.904 72.5371C157.802 72.6222 157.683 72.6732 157.58 72.6732Z" fill="#060606"/>
<path d="M157.563 72.6732C157.342 72.6732 157.155 72.503 157.155 72.2818L156.951 68.2492C156.917 67.6026 156.355 67.0921 155.709 67.1261C155.113 67.1602 154.62 67.6196 154.586 68.2151C154.586 68.2322 154.586 68.2662 154.569 68.2832L153.82 71.1758C153.769 71.397 153.531 71.5332 153.31 71.4651C153.088 71.4141 152.952 71.1758 153.02 70.9546L153.752 68.096C153.854 67.1091 154.671 66.3264 155.658 66.2754C156.781 66.2243 157.7 67.0751 157.751 68.1811L157.955 72.2138C157.972 72.435 157.785 72.6392 157.563 72.6392C157.58 72.6732 157.58 72.6732 157.563 72.6732Z" fill="#060606"/>
<path d="M159.724 78.2033C159.639 78.2033 159.554 78.1693 159.486 78.1182C159.299 77.9821 159.265 77.7269 159.401 77.5397C159.435 77.4887 160.269 76.3146 159.81 74.8342C159.35 73.3539 157.461 72.6393 157.444 72.6393C157.223 72.5542 157.121 72.333 157.189 72.1118C157.274 71.8906 157.495 71.7885 157.717 71.8565C157.802 71.8906 160.014 72.7073 160.592 74.579C161.171 76.4677 160.116 77.9481 160.065 78.0161C159.98 78.1353 159.861 78.2033 159.724 78.2033Z" fill="#060606"/>
<path d="M162.617 72.6561C162.515 72.6561 162.43 72.6221 162.345 72.554C162.175 72.4009 162.158 72.1456 162.311 71.9755L165.408 68.4703C165.561 68.3001 165.816 68.2831 165.986 68.4363C166.156 68.5894 166.173 68.8446 166.02 69.0148L162.923 72.52C162.838 72.6051 162.719 72.6561 162.617 72.6561Z" fill="#060606"/>
<path d="M164.523 74.4258C164.421 74.4258 164.319 74.3918 164.234 74.3067C164.063 74.1536 164.063 73.8813 164.234 73.7282L167.484 70.4272C167.637 70.257 167.909 70.257 168.062 70.4272C168.232 70.5803 168.232 70.8526 168.062 71.0057L164.812 74.3067C164.727 74.3918 164.625 74.4258 164.523 74.4258Z" fill="#060606"/>
<path d="M166.803 76.4336C166.701 76.4336 166.599 76.3996 166.514 76.3145C166.343 76.1614 166.343 75.8891 166.497 75.736L169.491 72.5371C169.644 72.3669 169.9 72.3669 170.07 72.52C170.24 72.6732 170.24 72.9454 170.087 73.0986L167.092 76.3145C167.007 76.3996 166.905 76.4336 166.803 76.4336Z" fill="#060606"/>
<path d="M123.447 42.998C123.447 42.998 128.467 44.7847 128.943 51.2676C129.42 57.7505 120.691 55.1641 120.606 54.9599" fill="#060606"/>
<path d="M107.274 59.4473C110.759 57.7588 112.214 53.5656 110.526 50.0814C108.837 46.5972 104.644 45.1415 101.16 46.83C97.6758 48.5184 96.2201 52.7117 97.9085 56.1958C99.597 59.68 103.79 61.1357 107.274 59.4473Z" fill="#060606"/>
<path d="M118.564 82.5252C127.701 82.2869 123.362 75.9742 121.593 72.435L120.061 64.5228L111.23 62.1917L111.451 72.4009C111.451 72.4009 109.239 82.7634 118.564 82.5252Z" fill="#FFC1A4"/>
<path d="M121.014 69.4232C121.014 69.4232 116.42 66.5986 114.906 64.2505L120.35 65.9691L121.014 69.4232Z" fill="#060606"/>
<path d="M126.959 63.1652C131.312 58.8127 131.312 51.7561 126.959 47.4037C122.607 43.0513 115.55 43.0513 111.198 47.4037C106.846 51.7561 106.846 58.8127 111.198 63.1652C115.55 67.5176 122.607 67.5176 126.959 63.1652Z" fill="#FFC1A4"/>
<path d="M122.801 59.9285C122.631 59.9285 122.477 59.9115 122.324 59.8945C122.103 59.8774 121.933 59.6733 121.95 59.4521C121.967 59.2309 122.171 59.0607 122.392 59.0777C122.665 59.1118 122.903 59.1288 123.124 59.0607C123.277 59.0097 123.447 58.8905 123.515 58.6864C123.617 58.329 123.379 57.8866 123.124 57.4953L121.593 55.1812C121.474 54.994 121.525 54.7388 121.712 54.6026C121.899 54.4835 122.154 54.5346 122.29 54.7218L123.822 57.0359C124.179 57.5804 124.519 58.244 124.315 58.9246C124.179 59.367 123.839 59.7073 123.379 59.8434C123.175 59.9115 122.988 59.9285 122.801 59.9285Z" fill="#060606"/>
<path d="M120.572 62.2768C119.5 62.2768 118.445 61.8514 117.696 61.0857C117.543 60.9156 117.543 60.6603 117.696 60.5072C117.866 60.354 118.121 60.354 118.275 60.5072C118.989 61.2389 120.112 61.5962 121.116 61.409C121.337 61.375 121.559 61.5111 121.593 61.7323C121.627 61.9535 121.49 62.1747 121.269 62.2087C121.048 62.2598 120.81 62.2768 120.572 62.2768Z" fill="#060606"/>
<path d="M107.946 55.2153C107.946 55.2153 109.461 55.8618 111.196 57.2061C113.51 59.0097 112.591 54.8579 113.68 54.4666C117.526 53.1053 122.801 52.0844 125.659 48.5282C127.242 46.5544 124.826 43.2193 122.392 42.4707C119.568 41.5859 115.552 41.3306 111.434 44.3594C106.211 48.2049 107.946 55.2153 107.946 55.2153Z" fill="#060606"/>
<path d="M118.547 56.4914C118.785 57.0359 119.296 57.3252 119.67 57.1551C120.044 56.9849 120.146 56.4064 119.908 55.8789C119.67 55.3344 119.159 55.0281 118.785 55.2153C118.411 55.3684 118.309 55.947 118.547 56.4914Z" fill="#060606"/>
<path d="M124.519 53.6838C124.758 54.2283 125.268 54.5176 125.642 54.3474C126.017 54.1773 126.119 53.5988 125.881 53.0713C125.642 52.5268 125.132 52.2205 124.758 52.4077C124.383 52.5608 124.264 53.1393 124.519 53.6838Z" fill="#060606"/>
<path d="M110.245 60.8616C111.796 60.1854 112.504 58.3802 111.828 56.8298C111.152 55.2793 109.347 54.5707 107.796 55.2469C106.246 55.9232 105.537 57.7283 106.213 59.2788C106.89 60.8292 108.695 61.5379 110.245 60.8616Z" fill="#FFC1A4"/>
<path d="M115.195 52.2886C114.991 52.2886 114.821 52.1354 114.786 51.9483C114.752 51.7271 114.906 51.5059 115.127 51.4718C118.104 50.9954 120.861 49.3279 122.648 46.8947C122.784 46.7075 123.039 46.6735 123.226 46.8096C123.413 46.9457 123.447 47.201 123.311 47.3881C121.388 49.9915 118.445 51.7781 115.246 52.2886C115.246 52.2716 115.212 52.2886 115.195 52.2886Z" fill="white"/>
<path d="M114.906 50.1446C114.735 50.1446 114.582 50.0425 114.514 49.8724C114.446 49.6512 114.548 49.43 114.769 49.3449C115.739 49.0046 116.641 48.5111 117.441 47.8815C117.611 47.7454 117.883 47.7624 118.019 47.9496C118.156 48.1198 118.139 48.392 117.951 48.5281C117.067 49.2258 116.097 49.7703 115.025 50.1276C114.991 50.1446 114.94 50.1446 114.906 50.1446Z" fill="white"/>
<path d="M107.674 53.8371C107.453 53.8371 107.266 53.6669 107.266 53.4457C107.181 51.4719 107.538 49.4811 108.287 47.6605C108.372 47.4563 108.61 47.3542 108.831 47.4393C109.035 47.5243 109.137 47.7626 109.052 47.9838C108.338 49.6853 107.997 51.557 108.082 53.4117C108.099 53.6329 107.912 53.8371 107.691 53.8371H107.674Z" fill="white"/>
<path d="M103.437 71.0056C103.25 71.0056 103.063 70.8695 103.029 70.6653C102.501 67.9598 102.961 65.0332 104.288 62.617C104.39 62.4128 104.645 62.3447 104.849 62.4468C105.054 62.5489 105.122 62.8041 105.02 63.0083C103.777 65.2544 103.352 67.9939 103.845 70.4951C103.897 70.7163 103.743 70.9375 103.522 70.9716C103.488 71.0056 103.454 71.0056 103.437 71.0056Z" fill="white"/>
<path d="M94.0786 27.48L91.6454 44.0701C90.9988 48.4772 86.9151 51.5229 82.508 50.8763L77.6416 50.1617C77.0631 50.0766 76.4846 50.2297 76.0422 50.5871L73.3027 52.697C72.3498 53.4287 71.0056 53.2415 70.2909 52.2716L68.198 49.413C67.8577 48.9536 67.3472 48.6473 66.7857 48.5622L62.634 47.9497C58.2269 47.3031 55.1812 43.2194 55.8278 38.8124L58.261 22.2052C58.9076 17.7982 62.9913 14.7525 67.3983 15.3991L87.2724 18.3087C91.6794 18.9723 94.7252 23.073 94.0786 27.48Z" fill="#FF73ED"/>
<path d="M79.4792 44.0191L83.6821 44.6317C83.9713 44.6827 84.2436 44.4786 84.2946 44.1723L85.9281 32.9761C85.9792 32.6868 85.775 32.4146 85.4687 32.3635L81.2659 31.751C80.9766 31.6999 80.7044 31.9041 80.6533 32.2104L79.0198 43.4066C78.9858 43.7129 79.19 43.9851 79.4792 44.0191Z" fill="white"/>
<path d="M71.397 42.845L75.5998 43.4575C75.889 43.5086 76.1613 43.3044 76.2123 42.9981L78.8497 24.9617C78.9008 24.6724 78.6966 24.4002 78.3903 24.3491L74.1875 23.7366C73.8982 23.6855 73.626 23.8897 73.5749 24.196L70.9375 42.2324C70.9035 42.5217 71.1077 42.7939 71.397 42.845Z" fill="white"/>
<path d="M63.3146 41.6541L67.5174 42.2666C67.8066 42.3177 68.0789 42.1135 68.1299 41.8072L69.1509 34.7798C69.2019 34.4905 68.9977 34.2183 68.6915 34.1673L64.4886 33.5547C64.1994 33.5036 63.9271 33.7078 63.8761 34.0141L62.8551 41.0415C62.8211 41.3478 63.0253 41.62 63.3146 41.6541Z" fill="white"/>
<path d="M32.8398 80.8236L44.4614 80.2621L43.985 75.719L43.4405 70.4612L42.3515 69.6785L33.8097 63.4849L32.8398 80.8236Z" fill="#BC6E4F"/>
<path d="M39.4929 72.1627C41.0413 74.9533 43.985 75.719 43.985 75.719L43.4405 70.4612L42.3515 69.6785C40.4628 70.0188 38.6932 70.7164 39.4929 72.1627Z" fill="black"/>
<path d="M36.0728 63.5189C35.6815 69.4743 39.3398 73.49 43.6617 73.7622C47.9837 74.0345 51.3697 70.4782 51.7611 64.5398C52.1525 58.6014 48.9195 53.4968 44.5806 53.2245C40.2586 52.9353 36.4472 57.5635 36.0728 63.5189Z" fill="#BC6E4F"/>
<path d="M51.5229 60.8474C51.5229 60.8474 52.782 64.2675 52.5438 64.8971C52.2886 65.5097 50.6381 65.5947 50.6381 65.5947L51.5229 60.8474Z" fill="#BC6E4F"/>
<path d="M32.7208 70.0528C32.7208 70.0528 37.2299 70.3251 38.6762 66.956C38.6762 66.956 36.5322 61.5621 38.7613 60.8815C40.9903 60.2009 41.0073 63.7571 41.0073 63.7571L42.5897 63.689L42.913 58.7375C42.913 58.7375 46.4182 58.4142 47.1669 56.7297C47.1669 56.7297 50.6381 59.0268 52.816 55.947C54.994 52.8502 53.5307 50.0767 50.8252 50.0256C50.8252 50.0256 52.8331 45.7717 49.3789 44.921C45.9418 44.0702 45.9248 46.7246 45.9248 46.7246C45.9248 46.7246 44.2913 41.7221 38.9825 43.1003C33.2142 44.5807 33.9629 51.1657 33.9629 51.1657C33.9629 51.1657 29.6239 49.6513 27.463 54.7389C25.302 59.8265 32.7208 70.0528 32.7208 70.0528Z" fill="#07070F"/>
<path d="M48.2049 61.6643C48.341 62.2088 48.7494 62.5661 49.1237 62.464C49.498 62.3619 49.6852 61.8514 49.5661 61.324C49.43 60.7795 49.0216 60.4222 48.6473 60.5242C48.2729 60.6093 48.0858 61.1198 48.2049 61.6643Z" fill="#060606"/>
<path d="M48.7323 68.9299C48.409 68.9299 48.0687 68.8618 47.7624 68.7427C47.5582 68.6576 47.4561 68.4194 47.5412 68.1982C47.6263 67.994 47.8645 67.8919 48.0857 67.977C48.5962 68.1812 49.2087 68.1301 49.6851 67.8409C49.8723 67.7218 50.1275 67.7728 50.2467 67.977C50.3658 68.1642 50.3147 68.4194 50.1105 68.5385C49.7022 68.7937 49.2087 68.9299 48.7323 68.9299Z" fill="#060606"/>
<path d="M49.481 55.6917C49.1918 55.6917 48.8855 55.6406 48.6132 55.5215C48.409 55.4364 48.3069 55.1982 48.392 54.977C48.4771 54.7728 48.7153 54.6707 48.9365 54.7558C49.3279 54.926 49.8043 54.8919 50.1787 54.6878C50.553 54.4836 50.8252 54.0922 50.8933 53.6668C50.9273 53.4456 51.1485 53.2925 51.3697 53.3265C51.5909 53.3605 51.7441 53.5817 51.71 53.8029C51.5909 54.4836 51.1656 55.0791 50.57 55.4024C50.2467 55.5896 49.8724 55.6917 49.481 55.6917Z" fill="white"/>
<path d="M49.7192 50.2467C49.6171 50.2467 49.515 50.2127 49.43 50.1276C49.2598 49.9745 49.2598 49.7022 49.413 49.5491C49.6001 49.3449 49.7192 49.0556 49.7192 48.7834C49.7192 48.4941 49.5831 48.2219 49.3959 48.0177C49.2258 47.8645 49.2258 47.5923 49.3789 47.4392C49.5321 47.269 49.8043 47.269 49.9575 47.4221C50.3148 47.7624 50.536 48.2559 50.536 48.7664C50.553 49.2768 50.3488 49.7703 50.0085 50.1276C49.9404 50.1957 49.8213 50.2467 49.7192 50.2467Z" fill="white"/>
<path d="M35.5454 51.404C35.3242 51.404 35.154 51.2338 35.137 51.0126C35.0689 49.9917 35.3242 48.9708 35.8687 48.103C36.4132 47.2352 37.2299 46.5546 38.1658 46.1802C38.3699 46.0952 38.6252 46.1973 38.7103 46.4014C38.7953 46.6056 38.6932 46.8609 38.4891 46.9459C37.7063 47.2692 37.0257 47.8307 36.5833 48.5454C36.1409 49.26 35.9197 50.1108 35.9708 50.9616C35.9878 51.1828 35.8176 51.387 35.5794 51.404C35.5624 51.404 35.5454 51.404 35.5454 51.404Z" fill="white"/>
<path d="M68.9468 180.721L71.329 170.376L57.2912 168.215L55.0452 177.744" fill="#BC6E4F"/>
<path d="M75.6849 199.66L52.3056 191.39C51.9653 191.271 51.7101 190.982 51.625 190.641L55.0451 177.744L68.9468 180.704L69.1509 185.979L75.4637 195.542L77.0631 198.281C77.3524 199.166 76.5357 199.949 75.6849 199.66Z" fill="#0045DF"/>
<path d="M75.6849 199.66L52.3056 191.39C51.9653 191.271 51.7101 190.982 51.625 190.642L52.2716 188.225L74.749 196.75C75.5828 197.056 75.7359 196.376 75.4637 195.525L77.0802 198.316C77.3524 199.166 76.5357 199.949 75.6849 199.66Z" fill="#060606"/>
<path d="M64.9481 186.813C64.7099 186.813 64.5057 186.626 64.4717 186.388C64.4546 186.133 64.6418 185.894 64.897 185.877L69.1169 185.537C69.3891 185.52 69.6103 185.707 69.6273 185.962C69.6444 186.218 69.4572 186.456 69.202 186.473L64.9821 186.813C64.9651 186.813 64.9481 186.813 64.9481 186.813Z" fill="black"/>
<path d="M65.5096 188.566C65.2714 188.566 65.0672 188.378 65.0332 188.14C65.0162 187.885 65.2033 187.647 65.4586 187.63L69.4062 187.255C69.6784 187.238 69.8996 187.426 69.9166 187.681C69.9336 187.936 69.7465 188.174 69.4912 188.191L65.5436 188.566C65.5436 188.566 65.5266 188.566 65.5096 188.566Z" fill="black"/>
<path d="M57.1551 191.935C57.053 191.935 56.9509 191.901 56.8658 191.833C56.6616 191.679 56.6276 191.373 56.7807 191.169C56.7978 191.152 58.3972 189.059 57.8527 186.983C57.2742 184.771 54.892 184.125 53.5308 183.937C53.2755 183.903 53.0884 183.665 53.1224 183.41C53.1564 183.155 53.3947 182.968 53.6499 183.002C54.9431 183.172 58.0058 183.886 58.7545 186.745C59.4181 189.28 57.5975 191.662 57.5124 191.748C57.4273 191.867 57.2912 191.935 57.1551 191.935Z" fill="black"/>
<path d="M69.5083 178.254L56.4915 171.601L69.9677 176.28L69.5083 178.254Z" fill="black"/>
<path d="M55.4195 139.833L61.6301 140.14L60.405 143.764L52.5779 170.393L73.5069 177.659L83.2057 137.672C84.601 132.091 80.8406 126.561 75.1574 125.779L18.1896 117.951V137.979L55.4195 139.833Z" fill="#2F2D53"/>
<path d="M71.0226 171.261C70.9715 171.261 70.9205 171.261 70.8865 171.244L57.5974 166.445C57.3762 166.36 57.2741 166.139 57.3421 165.918C57.4272 165.697 57.6654 165.595 57.8696 165.663L71.1587 170.461C71.3799 170.546 71.482 170.767 71.4139 170.989C71.3459 171.159 71.1927 171.261 71.0226 171.261Z" fill="white"/>
<path d="M61.6301 140.14L60.405 143.764L78.6796 139.34C78.6796 139.34 55.7938 135.545 55.7427 135.545C55.7257 135.545 55.5726 137.621 55.4194 139.85L61.6301 140.14Z" fill="black"/>
<path d="M106.296 180.687L102.314 170.853L89.5695 177.148L93.2108 186.235" fill="#BC6E4F"/>
<path d="M122.699 192.326L98.8089 198.979C98.4686 199.081 98.0942 198.996 97.822 198.758L93.2278 186.235L106.313 180.688L109.512 184.89L120.18 189.11L123.073 190.437C123.771 190.965 123.549 192.088 122.699 192.326Z" fill="#0045DF"/>
<path d="M122.699 192.326L98.8089 198.979C98.4686 199.081 98.0943 198.996 97.822 198.758L96.9542 196.41L120.248 190.488C121.099 190.25 120.844 189.621 120.129 189.076L123.056 190.437C123.771 190.965 123.549 192.088 122.699 192.326Z" fill="#060606"/>
<path d="M106.245 188.055C106.108 188.055 105.972 188.004 105.887 187.885C105.717 187.681 105.751 187.392 105.955 187.221L109.205 184.516C109.409 184.346 109.699 184.38 109.869 184.584C110.039 184.788 110.005 185.077 109.801 185.248L106.551 187.953C106.466 188.021 106.347 188.055 106.245 188.055Z" fill="black"/>
<path d="M107.708 189.161C107.572 189.161 107.436 189.11 107.351 188.991C107.18 188.787 107.197 188.498 107.402 188.327L110.413 185.758C110.618 185.588 110.907 185.605 111.077 185.809C111.247 186.013 111.23 186.303 111.026 186.473L108.014 189.042C107.929 189.127 107.827 189.161 107.708 189.161Z" fill="black"/>
<path d="M102.807 196.716H102.79C102.535 196.699 102.331 196.478 102.348 196.223C102.348 196.189 102.467 193.568 100.817 192.173C99.064 190.693 96.7499 191.526 95.5248 192.156C95.2866 192.275 95.0144 192.19 94.8952 191.952C94.7761 191.714 94.8612 191.441 95.0994 191.322C96.2565 190.727 99.1831 189.553 101.429 191.458C103.437 193.16 103.301 196.155 103.284 196.274C103.267 196.529 103.046 196.716 102.807 196.716Z" fill="black"/>
<path d="M105.343 178.356L90.8627 180.364L104.577 176.468L105.343 178.356Z" fill="black"/>
<path d="M11.2132 89.5696L5.01958 103.42C2.67144 108.678 5.68318 114.787 11.2983 116.114L34.3543 121.525L36.5493 108.116L19.806 105.479L23.9578 91.2201L11.2132 89.5696Z" fill="#BC6E4F"/>
<path d="M8.98413 94.5721L19.9761 100.272C19.9761 100.272 21.3033 90.4203 21.0141 90.4884C20.7248 90.5565 8.98413 94.5721 8.98413 94.5721Z" fill="#B05645"/>
<path d="M29.658 78.5264H24.7065C18.5469 78.5264 12.9998 82.2528 10.6687 87.97L8.04834 94.4188L25.6934 97.3795L29.658 78.5264Z" fill="#0045DF"/>
<path d="M107.078 176.638L87.9361 181.045L78.5095 139.016L47.184 140.241C40.2246 140.378 34.3203 135.222 33.4865 128.314L32.1593 118.513H51.3187L83.3249 122.273C88.0892 122.835 92.309 125.625 94.6742 129.794L107.078 176.638Z" fill="#494770"/>
<path d="M55.7427 119.04L54.5687 85.3836C54.5006 81.2148 51.0465 77.9138 46.8777 78.0329L29.675 78.5264C23.5494 78.6965 18.4958 83.3588 17.8322 89.4503L14.4972 119.942C27.9564 124.74 42.0623 124.179 55.7427 119.04Z" fill="#0045DF"/>
<path d="M46.8606 78.033L51.4548 78.1861C57.189 78.3903 62.2256 82.0486 64.1994 87.4255L66.9729 94.9974L49.8553 102.093L46.8606 78.033Z" fill="#0045DF"/>
<path d="M53.1904 100.544L54.0922 103.88L57.155 115.127C58.193 118.938 61.562 121.661 65.5267 121.865C65.6798 121.865 65.8499 121.882 66.0031 121.882C70.3761 121.882 74.1535 118.785 74.9873 114.463L81.4702 79.9387L69.0829 80.4492L66.973 95.0315L53.1904 100.544Z" fill="#BC6E4F"/>
<path d="M53.1904 100.544L54.5347 105.547L66.973 95.0144L53.1904 100.544Z" fill="#B05645"/>
<path d="M89.6036 71.8904C89.6036 71.8904 90.5394 71.8053 90.6755 72.9794C90.8117 74.1535 80.0409 80.8236 80.0409 80.8236L69.0829 80.4322L70.325 74.0344C70.5462 72.8433 70.9886 71.7033 71.6182 70.6653L72.8093 68.6745C73.2176 67.9939 74.0174 67.6536 74.7831 67.8407C75.4977 68.0109 75.9912 68.5724 76.1443 69.219C76.2294 69.5933 76.1954 70.0017 76.0082 70.3931L74.9873 72.537L84.9583 65.7819C86.1494 64.9821 87.7659 65.918 87.6128 67.3473C87.6128 67.3643 87.6128 67.3813 87.6128 67.3983C87.7148 67.3473 89.1612 66.4285 89.7737 67.4154C90.3863 68.4363 89.4334 69.6784 89.4334 69.6784C89.4334 69.6784 89.9609 69.6614 90.1651 70.291C90.3182 70.9546 89.6036 71.8904 89.6036 71.8904Z" fill="#BC6E4F"/>
<path d="M82.5082 72.452C82.372 72.452 82.2529 72.3839 82.1678 72.2819C82.0317 72.0947 82.0828 71.8395 82.2699 71.7033C83.7333 70.6654 86.1665 68.8788 86.4728 68.4874C86.9662 67.8578 87.1704 67.2793 87.1874 67.2793C87.2725 67.0581 87.5107 66.956 87.7149 67.0411C87.9361 67.1262 88.0382 67.3474 87.9531 67.5686C87.9361 67.6026 87.6979 68.2662 87.1194 68.9979C86.6429 69.6104 83.376 71.9245 82.7294 72.3839C82.6783 72.418 82.5932 72.452 82.5082 72.452Z" fill="#060606"/>
<path d="M84.5159 74.6639C84.3968 74.6639 84.2777 74.6129 84.1926 74.5108C84.0565 74.3236 84.0905 74.0684 84.2607 73.9323C86.0473 72.52 88.0211 70.9205 88.2083 70.6653C88.4295 70.308 89.0421 69.4912 89.0591 69.4572C89.1952 69.27 89.4504 69.236 89.6376 69.3721C89.8248 69.5082 89.8588 69.7635 89.7227 69.9506C89.7227 69.9506 89.1101 70.7674 88.9059 71.1077C88.6847 71.482 86.2175 73.4388 84.7712 74.5788C84.6861 74.6299 84.601 74.6639 84.5159 74.6639Z" fill="#060606"/>
<path d="M85.7751 75.7189C85.6219 75.7189 85.4688 75.6339 85.4007 75.4637C85.3157 75.2595 85.4007 75.0043 85.6219 74.9192C86.2345 74.664 88.2083 72.7412 89.3143 71.5842C89.4674 71.414 89.7397 71.414 89.8928 71.5672C90.063 71.7203 90.063 71.9925 89.9099 72.1457C89.6036 72.469 86.8981 75.2425 85.9452 75.6509C85.8942 75.7189 85.8261 75.7189 85.7751 75.7189Z" fill="#060606"/>
<path d="M51.2677 194.419C51.0805 194.419 50.8933 194.283 50.8593 194.079L41.1094 141.484C41.0754 141.263 41.2115 141.041 41.4327 141.007C41.6539 140.973 41.8751 141.109 41.9092 141.331L51.659 193.926C51.6931 194.147 51.5569 194.368 51.3357 194.402C51.3187 194.419 51.3017 194.419 51.2677 194.419Z" fill="#060F11"/>
<path d="M72.4009 194.419C72.2308 194.419 72.0606 194.317 72.0096 194.13L54.7729 141.552C54.7048 141.331 54.8239 141.109 55.0281 141.024C55.2493 140.956 55.4705 141.075 55.5556 141.28L72.7753 193.874C72.8433 194.096 72.7242 194.317 72.52 194.402C72.486 194.419 72.435 194.419 72.4009 194.419Z" fill="#060F11"/>
<path d="M54.8409 196.563C54.8409 198.247 53.4796 199.592 51.7951 199.592C50.1276 199.592 48.7664 198.23 48.7664 196.563C48.7664 194.878 50.1276 193.517 51.7951 193.517C53.4796 193.517 54.8409 194.878 54.8409 196.563Z" fill="#060F11"/>
<path d="M75.838 196.563C75.838 198.247 74.4767 199.592 72.7922 199.592C71.1247 199.592 69.7634 198.23 69.7634 196.563C69.7634 194.878 71.1247 193.517 72.7922 193.517C74.4767 193.517 75.838 194.878 75.838 196.563Z" fill="#060F11"/>
<path d="M3.43716 194.419C3.38611 194.419 3.33506 194.419 3.30103 194.385C3.07983 194.3 2.97774 194.062 3.06282 193.857L22.5285 141.262C22.6136 141.041 22.8348 140.939 23.056 141.024C23.2772 141.109 23.3793 141.348 23.2942 141.552L3.82851 194.147C3.76045 194.317 3.60731 194.419 3.43716 194.419Z" fill="#060F11"/>
<path d="M0 196.563C0 198.247 1.36124 199.592 3.04577 199.592C4.71329 199.592 6.07453 198.23 6.07453 196.563C6.07453 194.878 4.71329 193.517 3.04577 193.517C1.36124 193.517 0 194.878 0 196.563Z" fill="#060F11"/>
<path d="M13.0679 194.419C13.0168 194.419 12.9658 194.419 12.9318 194.385C12.7106 194.3 12.6085 194.062 12.6936 193.857L32.1593 141.262C32.2443 141.041 32.4655 140.939 32.6867 141.024C32.9079 141.109 33.01 141.348 32.925 141.552L13.4592 194.147C13.3912 194.317 13.238 194.419 13.0679 194.419Z" fill="#060F11"/>
<path d="M9.63074 196.563C9.63074 198.247 10.992 199.592 12.6765 199.592C14.344 199.592 15.7053 198.23 15.7053 196.563C15.7053 194.878 14.344 193.517 12.6765 193.517C10.992 193.517 9.63074 194.878 9.63074 196.563Z" fill="#060F11"/>
<path d="M11.9449 104.969L13.5273 138.915C13.6464 141.331 15.6372 143.236 18.0534 143.236H64.7439C66.5986 143.236 68.0789 141.739 68.0789 139.901C68.0789 138.047 66.5816 136.566 64.7439 136.566H49.9404C47.269 136.566 45.04 134.576 44.7337 131.921C43.8659 124.196 42.6748 111.043 42.0793 104.39C41.8751 102.059 39.9183 100.272 37.5702 100.272H16.454C13.8676 100.238 11.8087 102.399 11.9449 104.969Z" fill="#E7EBFB"/>
<path d="M11.9449 104.968L13.5273 138.914C13.6464 141.331 15.6372 143.236 18.0534 143.236H64.7439C66.4284 143.236 67.8237 141.994 68.0449 140.378H40.1735C27.1907 140.378 16.488 130.168 15.8924 117.203L15.1948 102.127C15.1608 101.514 15.2629 100.919 15.4671 100.374C13.3571 100.817 11.8257 102.739 11.9449 104.968Z" fill="#B7BEF8"/>
<path d="M64.744 143.645H18.0365C15.3991 143.645 13.2211 141.569 13.102 138.931L11.5195 104.985C11.4515 103.624 11.9449 102.331 12.8808 101.344C13.8166 100.357 15.0928 99.8127 16.454 99.8127H37.5702C40.1396 99.8127 42.2665 101.753 42.4877 104.305C43.1173 111.315 44.2913 124.196 45.1421 131.836C45.4144 134.269 47.4732 136.124 49.9405 136.124H64.744C66.8198 136.124 68.5044 137.808 68.5044 139.884C68.5044 141.96 66.8028 143.645 64.744 143.645ZM16.454 100.647C15.314 100.647 14.259 101.106 13.4763 101.923C12.6936 102.739 12.2852 103.828 12.3363 104.951L13.9187 138.897C14.0208 141.092 15.8244 142.811 18.0194 142.811H64.7099C66.3264 142.811 67.6366 141.501 67.6366 139.884C67.6366 138.268 66.3264 136.958 64.7099 136.958H49.9064C47.0308 136.958 44.6146 134.797 44.2913 131.938C43.4406 124.298 42.2665 111.4 41.6369 104.39C41.4498 102.246 39.6801 100.647 37.5362 100.647H16.454Z" fill="#060F11"/>
<path d="M69.0829 103.777C68.8957 103.777 68.7256 103.658 68.6916 103.471L66.5816 95.1165C66.5306 94.8953 66.6667 94.6741 66.8879 94.623C67.1091 94.572 67.3303 94.7081 67.3814 94.9293L69.4913 103.284C69.5423 103.505 69.4062 103.726 69.185 103.777C69.151 103.777 69.1169 103.777 69.0829 103.777Z" fill="#060606"/>
<path d="M49.8553 102.518C49.6511 102.518 49.481 102.382 49.447 102.178L47.286 88.7187C47.252 88.4975 47.4051 88.2763 47.6263 88.2423C47.8475 88.2083 48.0687 88.3614 48.1027 88.5826L50.2637 102.042C50.2977 102.263 50.1446 102.484 49.9234 102.518C49.8894 102.501 49.8723 102.518 49.8553 102.518Z" fill="white"/>
<path d="M17.1176 96.3586C17.1005 96.3586 17.0835 96.3586 17.0665 96.3586C16.8453 96.3246 16.6751 96.1204 16.7092 95.8992L17.7812 87.5106C17.8152 87.2894 18.0194 87.1192 18.2406 87.1533C18.4618 87.1873 18.6319 87.3915 18.5979 87.6127L17.5259 96.0013C17.4919 96.2055 17.3217 96.3586 17.1176 96.3586Z" fill="white"/>
<path d="M52.3226 97.7881C52.1524 97.7881 51.9993 97.686 51.9312 97.5158C51.8461 97.2946 51.9652 97.0564 52.1694 96.9883L63.0423 92.9897C63.2635 92.9046 63.4847 93.0237 63.5698 93.2279C63.6549 93.4491 63.5358 93.6873 63.3316 93.7554L52.4587 97.754C52.4247 97.7881 52.3736 97.7881 52.3226 97.7881Z" fill="white"/>
<path d="M90.0799 176.978C89.8928 176.978 89.7226 176.859 89.6886 176.672C89.6375 176.451 89.7737 176.229 89.9949 176.178C94.572 175.038 101.497 173.286 101.991 173.116C102.178 173.03 102.416 173.099 102.518 173.286C102.637 173.473 102.569 173.728 102.382 173.847C102.314 173.881 102.11 174.017 90.199 176.978C90.148 176.978 90.114 176.978 90.0799 176.978Z" fill="white"/>
<path d="M156.323 55.008L144.788 52.5601L143.438 58.9183L154.973 61.3662L156.323 55.008Z" fill="#141323"/>
<path d="M169.665 39.5858C176.988 32.2631 176.988 20.3907 169.665 13.068C162.343 5.74535 150.47 5.74535 143.147 13.068C135.825 20.3907 135.825 32.2631 143.147 39.5858C150.47 46.9085 162.343 46.9085 169.665 39.5858Z" fill="#0045DF"/>
<path d="M159.023 43.957L146.856 41.3748L145.33 48.5652L157.497 51.1474L159.023 43.957Z" fill="#0045DF"/>
<path d="M161.825 50.8859L141.453 46.5623L140.269 52.1382L160.642 56.4619L161.825 50.8859Z" fill="#141323"/>
<path d="M161.851 35.8688C161.766 35.8688 161.664 35.8347 161.596 35.7837C161.409 35.6476 161.392 35.3753 161.528 35.2052C163.247 33.0272 164.404 30.4238 164.88 27.6843C165.118 26.3571 165.101 25.3872 164.829 24.5535C164.489 23.5325 163.723 22.7668 162.855 22.6137C162.226 22.4946 161.596 22.6818 161.035 23.0051C161.137 23.1582 161.239 23.3113 161.341 23.4645C161.97 24.5535 162.09 25.7275 161.664 26.6294C161.392 27.2079 160.813 27.6843 160.15 27.8545C159.588 27.9906 159.044 27.9055 158.618 27.5992C157.955 27.1228 157.683 26.1529 157.938 25.2341C158.176 24.4173 158.755 23.7878 159.231 23.3284C159.401 23.1752 159.588 23.0051 159.792 22.8519C158.993 22.1203 157.938 21.6268 156.866 21.5587C156.44 21.5247 155.998 21.5587 155.573 21.6608C155.76 22.2053 155.811 22.7668 155.845 23.2263C155.913 24.043 155.998 24.9618 155.726 25.8466C155.454 26.7144 154.688 27.6163 153.616 27.6843C152.544 27.7524 151.54 26.8676 151.336 25.7105C151.166 24.8087 151.489 23.7708 152.187 22.8689C152.765 22.1373 153.531 21.5587 154.382 21.1844C154.058 20.8271 153.531 20.5718 152.765 20.4017C151.812 20.1805 150.927 20.1635 150.179 20.3336C149.311 20.5208 148.562 20.9972 148.137 21.6268C147.405 22.6988 147.558 24.1111 147.797 25.115C147.933 25.6595 148.12 26.204 148.29 26.7315C148.528 27.4461 148.783 28.1608 148.92 28.9264C149.226 30.594 148.903 32.0743 148.001 33.0102C147.848 33.1803 147.575 33.1803 147.422 33.0272C147.252 32.874 147.252 32.6018 147.405 32.4487C148.409 31.4107 148.239 29.7432 148.12 29.0796C147.984 28.382 147.763 27.7013 147.524 27.0037C147.337 26.4592 147.15 25.8977 146.997 25.3192C146.708 24.1451 146.554 22.4776 147.456 21.1674C148.001 20.3677 148.937 19.7721 149.992 19.5169C150.859 19.3127 151.863 19.3467 152.935 19.5849C153.565 19.7211 154.467 19.9933 155.062 20.708C155.113 20.776 155.164 20.8271 155.198 20.8951C155.76 20.759 156.338 20.691 156.917 20.742C158.261 20.8271 159.537 21.4226 160.473 22.3755C161.205 21.9331 162.073 21.6438 162.974 21.814C164.148 22.0182 165.169 23.0051 165.595 24.3153C166.003 25.5574 165.85 26.8506 165.68 27.8375C165.169 30.6961 163.961 33.4185 162.158 35.7156C162.107 35.8177 161.987 35.8688 161.851 35.8688ZM160.354 23.4645C160.167 23.6176 159.98 23.7708 159.809 23.9239C159.401 24.3153 158.925 24.8257 158.738 25.4553C158.601 25.9487 158.686 26.5953 159.112 26.9186C159.418 27.1398 159.775 27.0888 159.946 27.0377C160.354 26.9356 160.745 26.6294 160.915 26.272C161.222 25.6084 161.12 24.7236 160.626 23.8728C160.541 23.7367 160.456 23.6006 160.354 23.4645ZM154.807 21.9161C154.041 22.2223 153.361 22.7328 152.85 23.3794C152.289 24.094 152.05 24.8938 152.17 25.5744C152.289 26.238 152.867 26.9186 153.599 26.8676C154.279 26.8335 154.773 26.187 154.96 25.6084C155.181 24.8938 155.113 24.0941 155.045 23.3284C154.994 22.8009 154.943 22.3244 154.807 21.9161Z" fill="white"/>
<path d="M163.058 0.469941L160.861 0.00366211L159.854 4.74736L162.051 5.21364L163.058 0.469941Z" fill="#0045DF"/>
<path d="M149.345 0.602417L147.209 1.29712L148.709 5.90891L150.845 5.21421L149.345 0.602417Z" fill="#0045DF"/>
<path d="M137.465 7.76362L135.963 9.43311L139.568 12.6769L141.07 11.0074L137.465 7.76362Z" fill="#0045DF"/>
<path d="M181.955 19.2095L181.26 17.0735L176.649 18.5734L177.343 20.7094L181.955 19.2095Z" fill="#0045DF"/>
<path d="M174.966 7.38251L173.297 5.88013L170.053 9.4847L171.723 10.9871L174.966 7.38251Z" fill="#0045DF"/>
</g>
<defs>
<clipPath id="clip0_39_15518">
<rect width="281.487" height="200" fill="white"/>
</clipPath>
</defs>
</svg>
