<svg width="352" height="250" viewBox="0 0 352 250" fill="none" xmlns="http://www.w3.org/2000/svg">
<g clip-path="url(#clip0_34_9061)">
<path d="M243.173 232.963L245.512 221.074L229.518 218.606L228.582 233.07" fill="#FFC1A4"/>
<path d="M229.284 224.541L243.747 230.071L244.385 226.582L229.284 224.541Z" fill="black"/>
<path d="M214.14 244.895C214.14 244.917 214.14 244.959 214.14 244.98L213.927 247.894L242.428 250L242.641 247.15L242.705 246.235C242.896 240.514 244.13 232.325 244.13 232.325L227.412 231.198L226.965 233.155C226.604 234.729 225.753 236.111 224.604 237.111C223.435 238.132 221.967 238.77 220.351 238.897C217.032 239.089 214.416 241.641 214.14 244.895Z" fill="#0045DF"/>
<path d="M214.14 244.895C214.14 244.917 214.14 244.959 214.14 244.98L213.927 247.894L242.428 250L242.641 247.15L214.14 244.895Z" fill="black"/>
<path d="M228.816 240.514C228.667 240.514 228.539 240.471 228.433 240.365L224.711 237.047C224.519 236.877 224.456 236.579 224.583 236.345C224.711 236.111 224.966 235.984 225.221 236.026L228.731 236.707L226.774 234.814C226.582 234.622 226.54 234.346 226.668 234.112C226.795 233.878 227.05 233.75 227.306 233.793L232.623 234.771C232.942 234.835 233.155 235.133 233.091 235.452C233.027 235.771 232.729 235.984 232.41 235.92L229.028 235.282L231.006 237.196C231.198 237.387 231.24 237.664 231.113 237.898C230.985 238.132 230.73 238.259 230.475 238.196L227.135 237.536L229.262 239.429C229.496 239.642 229.518 240.025 229.305 240.259C229.135 240.45 228.986 240.514 228.816 240.514Z" fill="#060606"/>
<path d="M225.2 242.619C224.945 242.619 224.711 242.449 224.626 242.194C223.817 239.259 221.69 239.557 221.605 239.578C221.286 239.62 220.989 239.408 220.925 239.089C220.882 238.77 221.095 238.472 221.414 238.408C221.457 238.408 224.647 237.94 225.753 241.875C225.838 242.194 225.668 242.513 225.349 242.598C225.306 242.598 225.264 242.619 225.2 242.619Z" fill="#060606"/>
<path d="M314.957 215.884L307.342 206.44L295.176 217.118L305.662 227.114" fill="#FFC1A4"/>
<path d="M299.6 221.116L313.106 213.587L310.852 210.843L299.6 221.116Z" fill="black"/>
<path d="M305.449 245.81C305.47 245.831 305.492 245.853 305.513 245.874L307.619 247.916L327.527 227.433L325.485 225.434L324.826 224.796C320.55 220.967 315.084 214.778 315.084 214.778L303.471 226.859L304.684 228.454C305.662 229.752 306.172 231.283 306.194 232.814C306.215 234.367 305.768 235.899 304.832 237.239C302.854 239.833 303.131 243.492 305.449 245.81Z" fill="#0045DF"/>
<path d="M305.449 245.81C305.47 245.831 305.492 245.853 305.513 245.874L307.619 247.916L327.527 227.433L325.485 225.434L305.449 245.81Z" fill="black"/>
<path d="M306.13 232.666C305.896 232.666 305.683 232.538 305.598 232.304C305.492 232.07 305.556 231.772 305.768 231.602L308.533 229.348L305.832 229.624C305.577 229.645 305.322 229.497 305.237 229.263C305.13 229.029 305.215 228.752 305.407 228.582L309.575 225.158C309.831 224.945 310.192 224.987 310.405 225.243C310.618 225.498 310.575 225.859 310.32 226.072L307.661 228.263L310.384 227.986C310.66 227.965 310.894 228.114 310.979 228.348C311.086 228.582 311.001 228.858 310.809 229.029L308.15 231.177L310.958 230.773C311.277 230.73 311.575 230.943 311.617 231.262C311.66 231.581 311.447 231.879 311.128 231.921L306.194 232.644C306.194 232.644 306.172 232.666 306.13 232.666Z" fill="#060606"/>
<path d="M305.662 236.919C305.556 236.919 305.449 236.898 305.364 236.834C305.088 236.664 305.003 236.303 305.173 236.026C305.194 236.005 306.896 233.24 310.618 234.92C310.915 235.048 311.043 235.409 310.915 235.707C310.788 236.005 310.426 236.132 310.128 236.005C307.427 234.793 306.3 236.452 306.172 236.643C306.045 236.813 305.853 236.919 305.662 236.919Z" fill="#060606"/>
<path d="M248.724 171.069L261.358 184.895L268.781 193.977L294.815 225.838L313.574 208.461L275.183 164.072L292.347 163.583C298.856 163.391 303.514 157.244 301.94 150.949L298.941 138.953L286.732 139.314C286.583 139.548 282.436 146.057 282.436 146.057L256.253 150.013C246.81 152.161 242.79 163.413 248.724 171.069Z" fill="#0081FF"/>
<path d="M293.368 219.117C293.241 219.117 293.092 219.074 293.007 218.968C292.815 218.755 292.815 218.436 293.007 218.245C297.899 213.459 305.322 206.143 305.896 205.377C305.981 205.207 306.151 205.079 306.364 205.079C306.64 205.079 306.874 205.313 306.874 205.59C306.874 205.866 306.874 206.143 293.73 218.989C293.623 219.074 293.496 219.117 293.368 219.117Z" fill="white"/>
<path d="M261.358 184.895L268.781 193.977L264.463 173.834L261.358 184.895Z" fill="black"/>
<path d="M296.771 210.141C296.622 210.141 296.474 210.077 296.367 209.95L263.102 170.219C262.911 170.006 262.953 169.666 263.166 169.496C263.378 169.304 263.719 169.347 263.889 169.559L297.175 209.29C297.367 209.503 297.324 209.844 297.112 210.014C297.005 210.099 296.878 210.141 296.771 210.141Z" fill="white"/>
<path d="M303.4 243.079H307.59V173.826H303.4V243.079Z" fill="white"/>
<path d="M307.576 243.598H303.386C303.11 243.598 302.876 243.364 302.876 243.087V173.834C302.876 173.558 303.11 173.324 303.386 173.324H307.576C307.853 173.324 308.087 173.558 308.087 173.834V243.087C308.108 243.364 307.874 243.598 307.576 243.598ZM303.897 242.577H307.066V174.345H303.897V242.577Z" fill="#060F11"/>
<path d="M276.14 175.089H326.166C333.929 175.089 340.607 169.538 342.011 161.902L351.285 113.196C351.582 111.6 350.519 110.09 348.945 109.792C347.35 109.495 345.84 110.558 345.542 112.132L336.269 160.839C335.375 165.71 331.121 169.24 326.144 169.24H276.119C274.502 169.24 273.205 170.538 273.205 172.154C273.205 173.771 274.524 175.089 276.14 175.089Z" fill="#E7EBFB"/>
<path d="M326.166 175.6H276.14C274.247 175.6 272.716 174.068 272.716 172.175C272.716 170.282 274.247 168.751 276.14 168.751H326.166C330.887 168.751 334.929 165.391 335.779 160.775L345.053 112.068C345.223 111.175 345.733 110.388 346.478 109.856C347.222 109.325 348.137 109.133 349.051 109.303C349.945 109.473 350.732 109.984 351.263 110.728C351.795 111.473 351.987 112.387 351.816 113.302L342.543 162.03C341.054 169.878 334.184 175.6 326.166 175.6ZM276.14 169.772C274.821 169.772 273.737 170.857 273.737 172.175C273.737 173.494 274.821 174.579 276.14 174.579H326.166C333.695 174.579 340.14 169.219 341.522 161.817L350.795 113.089C350.902 112.472 350.774 111.834 350.413 111.303C350.051 110.771 349.498 110.431 348.86 110.303C348.222 110.197 347.584 110.324 347.052 110.686C346.52 111.047 346.18 111.6 346.052 112.238L336.779 160.945C335.822 166.05 331.355 169.772 326.166 169.772H276.14Z" fill="#060F11"/>
<path d="M287.562 169.24H326.144C331.1 169.24 335.354 165.688 336.268 160.839L345.542 112.132C345.755 110.898 346.733 109.984 347.903 109.792H310.341C308.746 109.516 307.236 110.558 306.938 112.132L297.665 160.839C296.793 165.71 292.539 169.24 287.562 169.24Z" fill="#141323"/>
<path d="M326.166 169.772H287.562C287.285 169.772 287.051 169.538 287.051 169.262C287.051 168.985 287.285 168.751 287.562 168.751C292.262 168.751 296.303 165.391 297.175 160.754L306.449 112.047C306.789 110.218 308.555 108.984 310.405 109.282H347.903C348.179 109.282 348.392 109.495 348.413 109.75C348.435 110.026 348.243 110.26 347.988 110.303C347.01 110.473 346.223 111.26 346.052 112.238L336.779 160.967C335.843 166.05 331.377 169.772 326.166 169.772ZM292.177 168.73H326.166C330.866 168.73 334.907 165.369 335.779 160.733L345.053 112.026C345.18 111.366 345.478 110.771 345.925 110.282H310.362C310.341 110.282 310.299 110.282 310.277 110.282C308.98 110.048 307.725 110.92 307.47 112.217L298.196 160.924C297.537 164.433 295.24 167.284 292.177 168.73Z" fill="#060F11"/>
<path d="M325.698 142.76L324.379 156.521C324.251 156.968 324.102 157.415 323.932 157.84C321.316 164.774 314.531 169.24 307.108 169.262L265.867 169.304L250.064 229.39L223.371 223.498L241.684 164.199C243.619 159.329 247.66 155.607 252.659 154.054L293.645 146.567L299.047 138.421L325.698 142.76Z" fill="#0081FF"/>
<path d="M258.444 153.182C258.189 153.182 257.976 153.012 257.933 152.757C257.891 152.48 258.082 152.204 258.359 152.161L281.436 148.269C281.713 148.226 281.989 148.418 282.032 148.694C282.074 148.971 281.883 149.247 281.606 149.29L258.529 153.182C258.508 153.182 258.465 153.182 258.444 153.182Z" fill="white"/>
<path d="M247.426 222.137C247.384 222.137 247.341 222.137 247.278 222.116L229.135 217.033C228.858 216.947 228.709 216.671 228.773 216.394C228.858 216.118 229.135 215.969 229.411 216.033L247.554 221.116C247.831 221.201 247.979 221.478 247.916 221.754C247.873 221.988 247.66 222.137 247.426 222.137Z" fill="white"/>
<path d="M309.022 163.732C308.874 163.732 308.746 163.668 308.64 163.561C307.044 161.817 306.236 159.35 306.513 156.989C306.768 154.628 308.087 152.416 310.043 151.055C310.277 150.885 310.596 150.949 310.767 151.183C310.937 151.417 310.873 151.736 310.639 151.906C308.937 153.097 307.789 155.054 307.555 157.117C307.321 159.18 308.023 161.328 309.427 162.881C309.618 163.093 309.597 163.412 309.384 163.604C309.278 163.689 309.15 163.732 309.022 163.732Z" fill="white"/>
<path d="M239.408 216.501C239.365 216.501 239.323 216.501 239.28 216.48C239.004 216.416 238.834 216.118 238.919 215.841L250.064 172.324C251.531 166.582 256.487 162.434 262.4 162.03L297.367 159.563C297.643 159.541 297.899 159.754 297.92 160.031C297.941 160.307 297.728 160.562 297.452 160.584L262.464 163.051C256.998 163.434 252.403 167.262 251.042 172.58L239.897 216.097C239.855 216.352 239.642 216.501 239.408 216.501Z" fill="white"/>
<path d="M291.773 249.383H319.21V245.3C319.21 244.045 318.19 243.024 316.935 243.024H294.028C292.773 243.024 291.752 244.045 291.752 245.3V249.383H291.773Z" fill="#141323"/>
<path d="M319.21 249.894H291.773C291.497 249.894 291.263 249.66 291.263 249.383V249.319C291.263 245.576 294.325 242.513 298.069 242.513H312.936C316.679 242.513 319.742 245.576 319.742 249.319V249.383C319.721 249.66 319.487 249.894 319.21 249.894ZM292.305 248.851H318.679C318.445 245.874 315.956 243.534 312.915 243.534H298.047C295.027 243.534 292.539 245.895 292.305 248.851Z" fill="#060F11"/>
<path d="M241.769 106.326L261.634 132.189C265.931 136.741 273.141 136.868 277.608 132.487L281.947 128.233L289.986 120.363L295.431 115.025L279.33 105.326L273.184 112.047L268.93 116.684L250.319 93.5001L241.769 106.326Z" fill="#FFC1A4"/>
<path d="M273.205 112.047L281.968 128.233L290.008 120.363C287.455 117.62 283.967 113.897 283.967 113.897L273.205 112.047Z" fill="#F7B094"/>
<path d="M296.665 100.2C296.474 100.2 293.475 100.2 290.348 100.2C285.733 100.2 281.308 102.072 278.097 105.39L272.439 111.239L286.626 126.297L299.302 112.451L296.665 100.2Z" fill="#0045DF"/>
<path d="M282.436 145.121L325.464 150.311L328.803 111.047C329.037 105.879 325.06 101.497 319.891 101.221L296.644 100.179C290.731 99.9234 285.69 104.369 285.201 110.26L282.436 145.121Z" fill="#0045DF"/>
<path d="M301.344 108.963C295.07 108.41 295.495 103.412 300.111 100.476L301.11 90.3097L313.021 89.4164L311.958 100.881C311.958 100.881 309.831 109.707 301.344 108.963Z" fill="#FFC1A4"/>
<path d="M300.366 97.6902C300.366 97.6902 306.64 96.5416 308.044 93.9468L300.961 91.7347L300.366 97.6902Z" fill="#060606"/>
<path d="M311.474 92.3298C315.992 87.8113 315.992 80.4853 311.474 75.9668C306.955 71.4483 299.629 71.4483 295.111 75.9668C290.592 80.4853 290.592 87.8113 295.111 92.3298C299.629 96.8484 306.955 96.8484 311.474 92.3298Z" fill="#FFC1A4"/>
<path d="M298.367 89.0761C298.154 89.0761 297.941 89.0549 297.728 88.9911C297.218 88.8422 296.856 88.4593 296.708 87.9701C296.452 87.1194 297.027 86.2899 297.261 85.9495L298.877 83.5674C299.026 83.3334 299.366 83.2696 299.6 83.4398C299.834 83.6099 299.898 83.929 299.728 84.1629L298.111 86.5451C297.856 86.9067 297.601 87.3746 297.707 87.7149C297.75 87.8851 297.92 88.0127 298.047 88.0339C298.26 88.0978 298.494 88.0765 298.771 88.0552C299.068 88.0339 299.302 88.2466 299.324 88.5231C299.345 88.7996 299.132 89.0549 298.856 89.0761C298.707 89.0761 298.537 89.0761 298.367 89.0761Z" fill="#060606"/>
<path d="M300.791 91.7348C300.536 91.7348 300.302 91.5434 300.281 91.2882C300.238 91.0117 300.451 90.7564 300.727 90.7139C302.025 90.565 303.258 89.693 303.875 88.5231C304.003 88.2679 304.322 88.1616 304.577 88.2892C304.832 88.4168 304.939 88.7358 304.811 88.9911C304.045 90.4799 302.535 91.5221 300.876 91.7348C300.834 91.7348 300.812 91.7348 300.791 91.7348Z" fill="#060606"/>
<path d="M302.897 83.7375C302.748 84.333 302.301 84.7371 301.876 84.6308C301.472 84.5244 301.238 83.9714 301.387 83.3759C301.536 82.7803 301.982 82.3762 302.408 82.4826C302.833 82.5889 303.046 83.1419 302.897 83.7375Z" fill="#060606"/>
<path d="M296.622 82.1423C296.474 82.7378 296.027 83.1419 295.602 83.0356C295.197 82.9292 294.963 82.3762 295.112 81.7807C295.261 81.1851 295.708 80.781 296.133 80.8874C296.537 80.9724 296.771 81.5467 296.622 82.1423Z" fill="#060606"/>
<path d="M312.808 90.7564C312.17 90.5224 316.637 81.2277 314.021 82.2486C311.128 83.3759 310.448 84.2905 310.405 84.3118C308.044 85.0562 307.257 78.4414 307.002 78.1011C291.624 80.228 289.859 71.6778 290.603 69.6359C293.73 61.1069 306.81 63.5529 308.895 63.8294C314.127 64.4887 315.531 67.5515 314.595 69.9975C316.913 69.9762 320.423 71.4438 322.018 74.4215C324.741 79.4411 320.465 91.4795 312.808 90.7564Z" fill="#060606"/>
<path d="M317.275 82.2911C317.53 84.0352 316.339 85.6517 314.616 85.9069C312.872 86.1622 311.256 84.9711 311.001 83.2482C310.745 81.5042 311.936 79.8877 313.659 79.6325C315.403 79.3772 317.02 80.5683 317.275 82.2911Z" fill="#FFC1A4"/>
<path d="M266.548 142.335H242.003V136.422H260.698C263.931 136.422 266.548 139.038 266.548 142.271V142.335Z" fill="#07070F"/>
<path d="M230.262 109.516H201.761C199.102 109.516 197.316 112.238 198.379 114.663L209.376 140.101C209.95 141.463 211.29 142.335 212.757 142.335H246.873L233.644 111.728C233.048 110.388 231.73 109.516 230.262 109.516Z" fill="#141323"/>
<path d="M216.373 126.957C216.756 128.999 218.734 130.658 220.776 130.658C222.818 130.658 224.158 128.999 223.775 126.957C223.392 124.915 221.414 123.256 219.372 123.256C217.33 123.256 215.99 124.915 216.373 126.957Z" fill="white"/>
<path d="M268.058 142.164L303.897 145.057C309.086 145.653 314.148 143.164 316.85 138.698L321.444 131.147L326.995 122.022L327.186 121.725L310.32 112.451L307.151 118.13L301.982 127.425L271.12 128.339L268.058 142.164Z" fill="#FFC1A4"/>
<path d="M307.151 118.13L321.422 131.147L326.974 122.022C320.827 120.746 307.151 118.13 307.151 118.13Z" fill="#F7B094"/>
<path d="M305.641 117.386L325.825 127.255L330.185 114.259C331.27 109.686 329.25 104.943 325.187 102.582C319.359 99.179 311.873 101.987 309.724 108.389L305.641 117.386Z" fill="#0045DF"/>
<path d="M305.641 117.917C305.577 117.917 305.492 117.896 305.428 117.875C305.173 117.747 305.045 117.449 305.173 117.194L309.256 108.219C309.384 107.963 309.682 107.836 309.937 107.963C310.192 108.091 310.32 108.389 310.192 108.644L306.109 117.62C306.023 117.79 305.832 117.917 305.641 117.917Z" fill="white"/>
<path d="M272.439 128.786L263.315 123.873C262.677 123.065 261.485 122.937 260.698 123.596C260.039 124.128 259.826 125.021 260.167 125.787C260.209 125.915 260.294 126.042 260.358 126.149L263.336 129.233L257.636 128.85C256.381 128.765 255.275 129.679 255.126 130.913C255.168 131.445 255.509 131.913 255.998 132.083C255.254 132.168 254.658 132.763 254.573 133.55C254.552 133.827 254.594 134.103 254.701 134.337C254.871 134.763 255.232 135.082 255.636 135.231C254.828 135.422 254.211 136.124 254.169 136.996C254.148 137.294 254.211 137.57 254.318 137.804C254.594 138.442 255.19 138.91 255.934 138.953C256.041 138.953 256.104 138.953 256.104 138.953C253.722 139.272 254.849 142.271 256.253 142.122L270.121 142.25L272.439 128.786Z" fill="#FFC1A4"/>
<path d="M256.126 142.696C255.147 142.696 254.36 141.675 254.233 140.654C254.169 140.123 254.296 139.527 254.722 139.08C254.339 138.825 254.041 138.464 253.85 138.038C253.701 137.719 253.637 137.358 253.658 136.996C253.68 136.273 254.041 135.592 254.615 135.167C254.445 134.997 254.318 134.784 254.211 134.55C254.062 134.231 254.02 133.869 254.041 133.508C254.105 132.848 254.445 132.295 254.956 131.934C254.743 131.657 254.615 131.317 254.594 130.934C254.594 130.892 254.594 130.87 254.594 130.828C254.786 129.318 256.104 128.212 257.657 128.297L262.038 128.573L259.997 126.446C259.975 126.425 259.975 126.404 259.954 126.404C259.848 126.276 259.763 126.106 259.699 125.936C259.273 124.958 259.571 123.809 260.379 123.15C260.869 122.746 261.507 122.575 262.124 122.639C262.762 122.703 263.315 123.022 263.719 123.511C263.889 123.724 263.868 124.064 263.634 124.234C263.421 124.405 263.081 124.383 262.91 124.149C262.677 123.873 262.357 123.703 261.996 123.66C261.634 123.618 261.294 123.724 260.996 123.958C260.528 124.341 260.379 124.979 260.613 125.532C260.656 125.617 260.698 125.702 260.741 125.766L263.676 128.829C263.825 128.977 263.868 129.211 263.783 129.403C263.697 129.594 263.506 129.722 263.272 129.701L257.572 129.318C256.615 129.254 255.764 129.935 255.615 130.892C255.658 131.189 255.849 131.466 256.147 131.572C256.381 131.657 256.508 131.87 256.487 132.125C256.466 132.359 256.274 132.551 256.04 132.572C255.53 132.636 255.126 133.04 255.062 133.572C255.041 133.763 255.083 133.954 255.147 134.103C255.275 134.38 255.509 134.614 255.785 134.72C255.998 134.805 256.147 135.018 256.126 135.231C256.104 135.465 255.955 135.656 255.721 135.699C255.126 135.826 254.679 136.358 254.658 136.975C254.658 137.187 254.679 137.379 254.764 137.57C254.977 138.059 255.424 138.378 255.934 138.4H256.104C256.36 138.421 256.572 138.634 256.593 138.889C256.593 139.144 256.402 139.378 256.147 139.421C255.296 139.527 255.168 140.037 255.211 140.442C255.275 141.058 255.743 141.611 256.168 141.569L262.23 141.399C262.23 141.399 262.23 141.399 262.251 141.399C262.528 141.399 262.762 141.611 262.762 141.909C262.762 142.186 262.549 142.441 262.251 142.441L256.232 142.611C256.211 142.696 256.168 142.696 256.126 142.696Z" fill="#060606"/>
<path d="M256.104 139.506C255.828 139.506 255.594 139.272 255.594 138.995C255.594 138.719 255.828 138.485 256.104 138.464L260.06 138.421C260.358 138.421 260.571 138.655 260.592 138.931C260.592 139.208 260.358 139.442 260.082 139.463L256.104 139.506Z" fill="#060606"/>
<path d="M259.656 135.89L255.615 135.762C255.339 135.762 255.105 135.507 255.105 135.231C255.105 134.954 255.381 134.72 255.636 134.741L259.656 134.869C259.933 134.869 260.167 135.124 260.167 135.401C260.167 135.677 259.933 135.89 259.656 135.89Z" fill="#060606"/>
<path d="M259.422 132.785H259.401L255.977 132.614C255.7 132.593 255.466 132.359 255.487 132.083C255.509 131.806 255.743 131.572 256.019 131.594L259.444 131.764C259.72 131.785 259.954 132.019 259.933 132.295C259.912 132.572 259.699 132.785 259.422 132.785Z" fill="#060606"/>
<path d="M232.219 97.0308C232.261 97.0947 232.304 97.1585 232.368 97.2223C233.304 98.2857 239.748 105.156 241.769 106.347L251.425 95.6909L246.257 83.2696C246.278 82.4613 245.767 81.7594 245.002 81.5042C244.81 81.4404 244.619 81.3979 244.427 81.3979C243.555 81.3979 242.747 82.0359 242.598 82.9505L242.003 86.6514L234.984 78.9519C234.218 78.1224 232.921 78.1224 232.176 78.9732C231.581 79.6325 231.538 80.6109 232.049 81.3341L236.451 87.566H236.43C236.409 87.566 236.345 87.5872 236.281 87.6085C235.813 87.7574 234.601 88.3742 235.197 90.4161L235.218 90.5012C235.218 90.5012 232.155 90.9478 233.261 93.8192C233.24 93.7979 230.539 94.8826 232.219 97.0308Z" fill="#FFC1A4"/>
<path d="M240.429 90.4373C240.727 90.8202 241.343 91.8624 240.62 92.6493C239.961 93.3725 238.749 93.4788 238.153 93.4788L237.983 93.7128C238.174 94.0106 238.408 94.521 238.196 95.2017C237.876 96.2226 236.26 96.1588 236.154 96.1588C236.217 96.2439 237.323 97.7327 235.877 98.5835C235.005 99.094 232.134 97.9454 231.559 95.542C231.006 93.1385 233.325 93.0109 233.325 93.0109C233.325 93.0109 232.751 91.99 232.963 91.1392C233.197 90.2884 234.537 89.8631 234.537 89.8631C234.537 89.8631 233.665 88.6082 234.303 87.651C234.899 86.7365 235.984 86.9917 236.069 87.013" fill="#FFC1A4"/>
<path d="M238.259 95.1166C237.983 95.1166 237.749 94.9039 237.749 94.6274C237.728 94.1595 237.409 93.8405 237.409 93.8405C237.26 93.6916 237.196 93.4576 237.302 93.2449C237.387 93.0535 237.6 92.9259 237.813 92.9471C238.281 92.9897 239.642 92.9684 240.237 92.3091C240.812 91.671 239.918 90.6288 239.897 90.6288C239.706 90.4161 239.727 90.0971 239.94 89.9056C240.152 89.7142 240.471 89.7355 240.663 89.9482C241.194 90.5437 241.96 91.9475 241.003 93.011C240.386 93.6916 239.387 93.9255 238.663 93.9893C238.727 94.1595 238.77 94.3722 238.77 94.5849C238.791 94.8614 238.557 95.1166 238.281 95.1166H238.259Z" fill="#060606"/>
<path d="M235.856 99.1152C235.686 99.1152 235.516 99.0301 235.409 98.8599C235.26 98.6047 235.345 98.3069 235.601 98.1581C235.877 97.9879 236.047 97.7965 236.09 97.5838C236.175 97.1584 235.856 96.6479 235.75 96.4991C235.579 96.2651 235.622 95.946 235.835 95.7759C236.069 95.6057 236.388 95.6483 236.558 95.861C236.643 95.946 237.281 96.8181 237.111 97.7752C237.047 98.1368 236.813 98.6685 236.132 99.0514C236.026 99.0939 235.941 99.1152 235.856 99.1152Z" fill="#060606"/>
<path d="M235.303 99.2216C234.877 99.2216 234.388 99.1152 233.899 98.9025C232.431 98.2644 231.368 97.0734 231.049 95.6696C230.836 94.7763 230.964 94.0531 231.389 93.4788C231.73 93.0322 232.219 92.777 232.602 92.6493C232.453 92.2027 232.325 91.6071 232.474 91.0329C232.665 90.331 233.325 89.8843 233.835 89.6291C233.601 89.0761 233.367 88.1828 233.899 87.3958C234.729 86.1409 236.175 86.5238 236.239 86.545C236.515 86.6088 236.685 86.9066 236.6 87.1831C236.536 87.4596 236.239 87.6298 235.962 87.5447C235.92 87.5447 235.154 87.3533 234.75 87.9701C234.324 88.6082 234.984 89.5865 234.984 89.6078C235.069 89.7354 235.09 89.9056 235.048 90.0757C234.984 90.2246 234.877 90.3522 234.707 90.3948C234.346 90.5011 233.58 90.8627 233.474 91.3094C233.325 91.8411 233.644 92.5643 233.771 92.7982C233.857 92.9471 233.857 93.1385 233.771 93.3087C233.686 93.4576 233.516 93.5639 233.346 93.5852C233.346 93.5852 232.58 93.649 232.198 94.1382C231.964 94.4572 231.921 94.9039 232.049 95.4782C232.346 96.7543 233.41 97.6264 234.303 98.0092C234.941 98.2857 235.452 98.2857 235.601 98.2006C235.856 98.0518 236.154 98.1368 236.303 98.3921C236.451 98.6473 236.366 98.9451 236.111 99.094C235.898 99.1578 235.622 99.2216 235.303 99.2216Z" fill="#060606"/>
<path d="M234.941 95.2017C234.835 95.2017 234.729 95.1804 234.644 95.0954C233.771 94.4786 232.921 93.33 232.878 93.2875C232.708 93.0535 232.751 92.7345 232.985 92.5643C233.218 92.3942 233.538 92.4367 233.708 92.6707C233.708 92.6707 234.516 93.7341 235.239 94.2659C235.473 94.436 235.516 94.7551 235.367 94.989C235.26 95.1379 235.111 95.2017 234.941 95.2017Z" fill="#060606"/>
<path d="M237.026 92.628C236.919 92.628 236.834 92.6068 236.728 92.543C235.813 91.9262 234.239 90.3097 234.176 90.2459C233.984 90.0332 233.984 89.7141 234.176 89.5227C234.388 89.3313 234.707 89.3313 234.899 89.5227C234.92 89.544 236.451 91.1179 237.302 91.6922C237.536 91.8411 237.6 92.1814 237.451 92.4154C237.345 92.543 237.175 92.628 237.026 92.628Z" fill="#060606"/>
<path d="M238.621 89.544C238.557 89.544 238.493 89.5227 238.429 89.5014C237.451 89.1186 235.898 87.5659 235.728 87.3958C235.537 87.2044 235.537 86.864 235.728 86.6726C235.92 86.4812 236.26 86.4812 236.451 86.6726C236.877 87.098 238.153 88.2891 238.812 88.5443C239.068 88.6507 239.216 88.9484 239.11 89.2249C239.004 89.4164 238.812 89.544 238.621 89.544Z" fill="#060606"/>
<path d="M281.649 57.8314C281.734 61.7449 280.16 65.2969 277.608 67.8492C276.544 68.9127 275.289 69.806 273.928 70.4866L273.418 74.0811C273.162 75.889 271.057 76.7611 269.61 75.6551L264.591 71.8904H252.531C244.98 71.8904 238.6 65.935 238.451 58.3844C238.366 54.4708 239.94 50.9188 242.492 48.3665C244.98 45.878 248.426 44.3253 252.233 44.3253H267.568C275.119 44.3466 281.521 50.2807 281.649 57.8314Z" fill="white"/>
<path d="M271.057 76.7399C270.419 76.7399 269.802 76.5272 269.27 76.1443L264.399 72.486H252.531C244.598 72.486 238.004 66.169 237.855 58.4057C237.77 54.4496 239.28 50.7487 242.067 47.9624C244.789 45.24 248.384 43.7511 252.233 43.7511H267.568C275.502 43.7511 282.095 50.0681 282.244 57.8314C282.329 61.7875 280.819 65.4884 278.033 68.2747C276.991 69.3169 275.8 70.2102 274.481 70.8908L274.013 74.1663C273.864 75.2297 273.184 76.1018 272.205 76.5059C271.844 76.6761 271.44 76.7399 271.057 76.7399ZM252.233 44.9209C248.703 44.9209 245.406 46.3034 242.896 48.7919C240.344 51.3443 238.961 54.7474 239.025 58.3844C239.174 65.5096 245.214 71.3162 252.531 71.3162H264.591C264.718 71.3162 264.846 71.3587 264.952 71.4438L269.972 75.2085C270.482 75.5913 271.163 75.6764 271.759 75.4424C272.354 75.1872 272.758 74.6555 272.865 74.0174L273.375 70.4229C273.396 70.2314 273.524 70.0613 273.694 69.9762C275.013 69.3381 276.183 68.4874 277.225 67.4452C279.777 64.8928 281.16 61.4897 281.096 57.8527C280.947 50.7274 274.906 44.9209 267.59 44.9209H252.233Z" fill="black"/>
<path d="M270.036 53.5776H249.426C249.149 53.5776 248.915 53.3436 248.915 53.0671C248.915 52.7906 249.149 52.5566 249.426 52.5566H270.036C270.312 52.5566 270.546 52.7906 270.546 53.0671C270.546 53.3436 270.333 53.5776 270.036 53.5776Z" fill="black"/>
<path d="M270.036 58.4908H249.426C249.149 58.4908 248.915 58.2568 248.915 57.9803C248.915 57.7038 249.149 57.4698 249.426 57.4698H270.036C270.312 57.4698 270.546 57.7038 270.546 57.9803C270.546 58.2568 270.333 58.4908 270.036 58.4908Z" fill="black"/>
<path d="M270.036 63.404H264.463C264.187 63.404 263.953 63.17 263.953 62.8935C263.953 62.617 264.187 62.3831 264.463 62.3831H270.036C270.312 62.3831 270.546 62.617 270.546 62.8935C270.546 63.1913 270.333 63.404 270.036 63.404Z" fill="black"/>
<path d="M131.913 70.6994C131.913 70.6994 123.256 82.3125 125.851 93.9255C128.446 105.539 151.034 107.24 156.096 88.8634C161.158 70.4867 154.501 61.5536 149.396 60.3838C142.951 58.8736 140.271 60.9793 137.698 63.0212C135.124 65.0417 131.913 70.6994 131.913 70.6994Z" fill="#060606"/>
<path d="M185.958 230.496L168.453 229.071L166.688 214.565L186.149 213.034L185.958 230.496Z" fill="#FFC1A4"/>
<path d="M186.022 219.861L168.028 225.54L167.73 220.946L186.022 219.861Z" fill="black"/>
<path d="M202.272 246.044C202.272 246.065 202.272 246.108 202.272 246.15V249.681L167.836 249.638V246.193V245.087C168.134 238.196 167.39 228.241 167.39 228.241L187.596 228.369L187.957 230.751C188.255 232.687 189.148 234.41 190.446 235.728C191.765 237.047 193.466 237.962 195.402 238.281C199.315 238.77 202.25 242.088 202.272 246.044Z" fill="#2DCDFF"/>
<path d="M202.272 246.044C202.272 246.065 202.272 246.108 202.272 246.15V249.681L167.836 249.638V246.193L202.272 246.044Z" fill="black"/>
<path d="M185.065 239.323C184.894 239.323 184.703 239.238 184.597 239.089C184.405 238.834 184.448 238.451 184.703 238.259L187.766 235.898L183.235 236.43C182.959 236.451 182.725 236.324 182.619 236.069C182.512 235.835 182.576 235.558 182.789 235.388L185.639 233.027L181.109 233.516C180.79 233.559 180.492 233.325 180.449 232.985C180.407 232.665 180.641 232.368 180.981 232.325L187.447 231.623C187.702 231.602 187.957 231.73 188.064 231.985C188.17 232.219 188.106 232.495 187.893 232.665L185.065 235.026L189.744 234.473C190.02 234.452 190.254 234.601 190.361 234.835C190.467 235.09 190.382 235.367 190.169 235.516L185.405 239.174C185.32 239.28 185.192 239.323 185.065 239.323Z" fill="#060606"/>
<path d="M189.233 242.173C189.17 242.173 189.106 242.152 189.042 242.13C188.744 242.024 188.574 241.684 188.68 241.386C190.318 236.856 194.04 237.685 194.062 237.685C194.381 237.77 194.572 238.068 194.508 238.387C194.423 238.706 194.125 238.897 193.806 238.834C193.679 238.812 191.063 238.281 189.808 241.79C189.701 242.024 189.467 242.173 189.233 242.173Z" fill="#060606"/>
<path d="M265.427 143.51L264.271 143.69L280.844 249.875L282 249.694L265.427 143.51Z" fill="#141323"/>
<path d="M83.0328 143.521L66.4496 249.705L67.6053 249.886L84.1886 143.701L83.0328 143.521Z" fill="#141323"/>
<path d="M203.824 208.461C203.612 208.461 203.42 208.333 203.335 208.121C203.229 207.844 203.378 207.546 203.633 207.461L217.309 202.272C217.585 202.165 217.883 202.314 217.968 202.569C218.075 202.846 217.926 203.144 217.671 203.229L203.994 208.44C203.931 208.461 203.867 208.461 203.824 208.461Z" fill="white"/>
<path d="M169.283 214.076C169.006 214.076 168.772 213.863 168.772 213.587C168.751 213.31 168.985 213.055 169.262 213.055L184.256 212.481H184.278C184.554 212.481 184.788 212.694 184.788 212.97C184.809 213.247 184.575 213.502 184.299 213.502L169.283 214.076C169.304 214.076 169.304 214.076 169.283 214.076Z" fill="white"/>
<path d="M127.68 111.175C127.616 111.175 127.531 111.154 127.467 111.132L116.343 106.092C116.088 105.964 115.961 105.666 116.088 105.411C116.216 105.156 116.514 105.028 116.769 105.156L127.871 110.196C128.127 110.324 128.254 110.622 128.127 110.877C128.063 111.047 127.871 111.175 127.68 111.175Z" fill="white"/>
<path d="M201.867 105.624L179.407 126.468C175.047 130.764 167.773 129.488 165.114 124L162.817 119.278L158.627 110.643L157.457 108.218L172.494 101.476L174.749 104.645L176.514 107.134C176.514 107.134 190.552 92.8407 190.722 93.0534C190.829 93.2661 201.867 105.624 201.867 105.624Z" fill="#FFC1A4"/>
<path d="M174.728 104.624L162.817 119.257L158.627 110.643L174.728 104.624Z" fill="#F7B094"/>
<path d="M155.368 170.005L154.201 170.084L159.509 249.003L160.676 248.924L155.368 170.005Z" fill="#141323"/>
<path d="M124.29 170.026L118.98 248.944L120.148 249.023L125.457 170.104L124.29 170.026Z" fill="#141323"/>
<path d="M190.914 219.861V185.852L185.724 162.519L164.901 162.243L162.647 221.18L190.914 219.861Z" fill="#4A4DDC"/>
<path d="M176.791 211.332C176.514 211.332 176.28 211.12 176.28 210.843L174.345 163.285C174.324 163.008 174.558 162.753 174.834 162.753C175.111 162.732 175.366 162.966 175.366 163.242L177.301 210.801C177.323 211.077 177.089 211.332 176.812 211.332C176.791 211.332 176.791 211.332 176.791 211.332Z" fill="white"/>
<path d="M164.901 168.453C164.901 169.155 164.625 169.772 164.157 170.219C163.71 170.665 163.072 170.963 162.392 170.963H117.3C115.918 170.963 114.791 169.836 114.791 168.453C114.791 167.751 115.067 167.135 115.535 166.688C115.982 166.241 116.62 165.965 117.3 165.965H162.392C163.774 165.965 164.901 167.071 164.901 168.453Z" fill="#E7EBFB"/>
<path d="M162.392 171.474H117.3C115.641 171.474 114.28 170.112 114.28 168.453C114.28 167.645 114.599 166.879 115.174 166.326C115.748 165.752 116.492 165.454 117.3 165.454H162.392C164.051 165.454 165.412 166.816 165.412 168.475C165.412 169.283 165.093 170.049 164.518 170.602C163.944 171.176 163.2 171.474 162.392 171.474ZM117.3 166.475C116.769 166.475 116.258 166.688 115.897 167.05C115.514 167.432 115.322 167.922 115.322 168.453C115.322 169.559 116.216 170.453 117.322 170.453H162.413C162.945 170.453 163.434 170.24 163.817 169.878C164.199 169.496 164.412 169.006 164.412 168.475C164.412 167.39 163.519 166.497 162.413 166.497H117.3V166.475Z" fill="#060F11"/>
<path d="M132.7 90.735H155.904C160.924 90.735 164.944 94.925 164.731 99.9446L162.945 139.463L120.874 139.016L123.894 98.7748C124.298 94.2232 128.127 90.735 132.7 90.735Z" fill="#FF452D"/>
<path d="M224.243 219.287L207.249 223.796L200.761 210.694L218.585 202.761L224.243 219.287Z" fill="#FFC1A4"/>
<path d="M220.733 209.227L205.675 220.606L203.824 216.756L220.733 209.227Z" fill="black"/>
<path d="M244.81 228.475C244.832 228.497 244.832 228.539 244.853 228.561L246.023 231.9L213.544 243.364L212.396 240.11L212.034 239.068C210.014 232.474 205.994 223.328 205.994 223.328L225.094 216.714L226.221 218.84C227.135 220.563 228.56 221.903 230.219 222.711C231.9 223.52 233.814 223.817 235.728 223.456C239.578 222.626 243.449 224.775 244.81 228.475Z" fill="#2DCDFF"/>
<path d="M244.81 228.475C244.832 228.497 244.832 228.539 244.853 228.561L246.023 231.9L213.544 243.364L212.396 240.11L244.81 228.475Z" fill="black"/>
<path d="M226.136 227.944C226.029 227.944 225.923 227.922 225.817 227.859C225.54 227.689 225.476 227.306 225.647 227.05L227.752 223.796L223.669 225.817C223.435 225.923 223.158 225.881 222.967 225.689C222.796 225.498 222.754 225.221 222.903 224.987L224.796 221.797L220.691 223.775C220.393 223.924 220.053 223.796 219.904 223.498C219.755 223.201 219.883 222.86 220.18 222.711L226.051 219.883C226.285 219.776 226.561 219.819 226.731 220.01C226.901 220.202 226.944 220.478 226.795 220.712L224.923 223.881L229.156 221.797C229.39 221.691 229.688 221.733 229.858 221.925C230.028 222.116 230.049 222.414 229.922 222.648L226.646 227.688C226.519 227.837 226.327 227.944 226.136 227.944Z" fill="#060606"/>
<path d="M231.006 229.22C230.687 229.22 230.411 228.943 230.411 228.624C230.432 223.796 234.218 223.35 234.261 223.328C234.601 223.286 234.877 223.52 234.92 223.86C234.963 224.179 234.729 224.477 234.41 224.498C234.282 224.519 231.645 224.881 231.623 228.624C231.602 228.965 231.325 229.22 231.006 229.22Z" fill="#060606"/>
<path d="M120.874 139.016L120.448 150.374C120.108 159.222 126.872 165.263 135.72 165.497L180.173 165.731L199.145 218.883L224.243 207.653L204.356 156.117C201.74 149.736 195.721 145.419 188.829 144.951L163.136 142.249L162.945 139.463L120.874 139.016Z" fill="#4A4DDC"/>
<path d="M199.124 219.415C198.911 219.415 198.72 219.287 198.635 219.074L179.79 166.263L165.858 166.326C165.582 166.326 165.348 166.092 165.348 165.816C165.348 165.539 165.582 165.305 165.858 165.305L180.151 165.242C180.364 165.242 180.556 165.369 180.641 165.582L199.613 218.734C199.698 219.011 199.57 219.287 199.294 219.393C199.251 219.393 199.188 219.415 199.124 219.415Z" fill="white"/>
<path d="M176.344 137.591C176.302 139.123 174.132 139.038 173.941 139.016C174.132 139.038 175.898 139.336 175.812 140.569C175.749 141.314 174.813 142.037 174.068 142.122C173.558 142.164 158.308 141.909 154.139 141.867V142.228H115.429C108.793 142.228 104.113 135.741 106.198 129.445L114.578 104.156L131.189 109.984L125.787 125.957L154.458 127.51L159.414 126.872L167.624 122.129C167.964 121.852 168.347 121.724 168.772 121.724C169.304 121.724 169.815 121.937 170.176 122.363C170.772 123.043 170.793 124.022 170.24 124.723L167.539 126.978C167.539 126.978 176.046 126.787 176.195 128.722C176.365 130.955 174.473 131.508 174.026 131.572C174.451 131.53 176.599 131.785 176.791 133.593C177.004 135.592 173.983 135.784 173.983 135.784C173.983 135.784 176.387 135.996 176.344 137.591Z" fill="#FFC1A4"/>
<path d="M129.403 115.259L111.877 112.281L113.238 108.133L129.403 115.259Z" fill="#F7B094"/>
<path d="M136.804 90.735L129.467 90.5436C124.511 90.416 119.853 92.9045 117.194 97.0733L112.026 107.708L130.551 115.748L136.804 90.735Z" fill="#FF452D"/>
<path d="M154.033 90.735L160.541 90.5436C165.093 90.5436 169.432 93.2873 171.495 97.5837L175.43 104.156L158.818 115.45L154.033 90.735Z" fill="#FF452D"/>
<path d="M276.331 147.886H72.1457C71.5927 147.886 71.1247 147.439 71.1247 146.865V143.27C71.1247 142.717 71.5714 142.249 72.1457 142.249H276.331C276.884 142.249 277.352 142.696 277.352 143.27V146.865C277.352 147.418 276.906 147.886 276.331 147.886Z" fill="white"/>
<path d="M274.545 148.396H73.9535C72.1244 148.396 70.6143 146.907 70.6143 145.057C70.6143 143.228 72.1031 141.718 73.9535 141.718H274.545C276.374 141.718 277.884 143.207 277.884 145.057C277.863 146.907 276.374 148.396 274.545 148.396ZM73.9535 142.76C72.6774 142.76 71.6565 143.802 71.6565 145.057C71.6565 146.333 72.6987 147.354 73.9535 147.354H274.545C275.821 147.354 276.842 146.312 276.842 145.057C276.842 143.781 275.8 142.76 274.545 142.76H73.9535Z" fill="#060F11"/>
<path d="M129.828 156.798C129.615 156.798 129.424 156.67 129.339 156.457C129.254 156.181 129.381 155.904 129.658 155.798C130.594 155.458 131.338 154.628 131.53 153.65C131.806 152.395 131.253 151.097 130.573 149.672C130.445 149.417 130.551 149.098 130.807 148.992C131.062 148.864 131.381 148.971 131.487 149.226C132.083 150.459 132.891 152.161 132.529 153.863C132.253 155.181 131.253 156.308 129.998 156.755C129.956 156.798 129.892 156.798 129.828 156.798Z" fill="white"/>
<path d="M208.716 199.868C208.503 199.868 208.312 199.741 208.227 199.549L193.509 162.136C191.722 157.563 187.383 154.437 182.491 154.182L146.333 152.161C146.057 152.14 145.823 151.906 145.844 151.608C145.865 151.331 146.099 151.098 146.397 151.119L182.555 153.139C187.851 153.437 192.53 156.819 194.466 161.753L209.184 199.166C209.29 199.421 209.163 199.741 208.886 199.826C208.844 199.847 208.78 199.868 208.716 199.868Z" fill="white"/>
<path d="M164.199 112.111C163.923 112.111 163.689 111.877 163.689 111.6V101.263C163.689 100.987 163.923 100.753 164.199 100.753C164.476 100.753 164.71 100.987 164.71 101.263V111.6C164.71 111.877 164.497 112.111 164.199 112.111Z" fill="white"/>
<path d="M130.53 116.28C130.487 116.28 130.424 116.28 130.381 116.258C130.105 116.173 129.956 115.875 130.041 115.62L133.465 104.709C133.55 104.433 133.848 104.284 134.103 104.369C134.38 104.454 134.529 104.752 134.444 105.007L131.04 115.918C130.955 116.131 130.764 116.28 130.53 116.28Z" fill="white"/>
<path d="M166.348 107.963C166.199 107.963 166.05 107.899 165.944 107.772C165.752 107.559 165.795 107.219 166.007 107.049L171.367 102.603C171.58 102.412 171.92 102.454 172.09 102.667C172.282 102.88 172.239 103.22 172.027 103.39L166.667 107.836C166.582 107.921 166.454 107.963 166.348 107.963Z" fill="white"/>
<path d="M172.409 142.654C171.495 142.654 170.07 142.654 167.836 142.632C167.56 142.632 167.326 142.398 167.326 142.122C167.326 141.845 167.581 141.611 167.836 141.611C172.984 141.654 173.856 141.633 174.005 141.611C174.579 141.548 175.259 140.973 175.281 140.548C175.345 139.761 173.877 139.548 173.856 139.548C173.579 139.506 173.388 139.272 173.409 138.995C173.43 138.719 173.686 138.506 173.962 138.527C174.26 138.549 175.174 138.527 175.6 138.144C175.749 138.017 175.812 137.847 175.834 137.613C175.855 136.528 173.962 136.358 173.941 136.358C173.664 136.337 173.473 136.103 173.473 135.847C173.473 135.571 173.686 135.358 173.962 135.337C174.366 135.316 175.557 135.103 176.068 134.507C176.259 134.295 176.323 134.018 176.302 133.72C176.153 132.232 174.153 132.146 174.09 132.146C173.834 132.168 173.579 131.976 173.537 131.7C173.515 131.423 173.686 131.168 173.962 131.126C174.153 131.104 175.834 130.764 175.685 128.828C175.621 128.084 171.771 127.467 167.56 127.574C167.56 127.574 167.56 127.574 167.539 127.574C167.326 127.574 167.135 127.446 167.05 127.233C166.964 127.021 167.028 126.787 167.198 126.659L169.857 124.426C170.219 123.915 170.197 123.235 169.772 122.767C169.517 122.469 169.134 122.299 168.751 122.32C168.453 122.32 168.177 122.426 167.922 122.618C167.9 122.639 167.879 122.639 167.858 122.66L162.37 125.829C162.115 125.978 161.817 125.893 161.668 125.638C161.519 125.383 161.605 125.085 161.86 124.936L167.326 121.788C167.73 121.469 168.241 121.299 168.751 121.278C169.432 121.278 170.112 121.554 170.559 122.086C171.303 122.937 171.346 124.213 170.644 125.106C170.623 125.128 170.602 125.17 170.559 125.191L168.964 126.531C172.005 126.553 176.557 126.914 176.685 128.765C176.77 130.083 176.259 130.934 175.6 131.466C176.387 131.806 177.152 132.466 177.28 133.635C177.344 134.231 177.174 134.763 176.812 135.209C176.536 135.528 176.195 135.762 175.834 135.932C176.429 136.294 176.876 136.847 176.855 137.698C176.833 138.208 176.642 138.655 176.28 138.974C176.11 139.123 175.94 139.229 175.727 139.336C176.089 139.655 176.344 140.101 176.302 140.697C176.238 141.718 175.089 142.611 174.09 142.717C174.026 142.654 173.856 142.654 172.409 142.654Z" fill="#060F11"/>
<path d="M173.92 139.548H173.898L168.475 139.314C168.198 139.293 167.964 139.059 167.985 138.783C168.007 138.506 168.262 138.272 168.517 138.293L173.941 138.527C174.217 138.549 174.451 138.783 174.43 139.059C174.43 139.336 174.196 139.548 173.92 139.548Z" fill="#060F11"/>
<path d="M168.453 136.4C168.177 136.4 167.943 136.166 167.943 135.89C167.943 135.613 168.177 135.379 168.453 135.358L173.962 135.294C174.239 135.294 174.473 135.528 174.473 135.805C174.473 136.081 174.239 136.315 173.962 136.337L168.453 136.4Z" fill="#060F11"/>
<path d="M168.411 132.168C168.134 132.168 167.9 131.934 167.9 131.657C167.9 131.381 168.134 131.147 168.411 131.126L174.026 131.062C174.302 131.062 174.536 131.296 174.536 131.572C174.536 131.849 174.302 132.083 174.026 132.104L168.411 132.168Z" fill="#060F11"/>
<path d="M190.254 94.7337L192.722 85.2263C192.807 84.2266 193.615 83.4397 194.636 83.3759C195.742 83.3333 196.656 84.1628 196.72 85.2688L196.975 90.3097C196.975 90.3097 204.824 80.8448 206.844 81.8445C208.695 82.759 207.142 85.9282 207.142 85.9282C207.142 85.9282 209.099 83.4184 210.503 84.3755C212.077 85.439 209.716 88.3954 209.716 88.3954C209.716 88.3954 211.673 85.7155 213.076 86.9278C214.757 88.3742 212.247 91.0328 212.247 91.0328C212.247 91.0328 215.501 89.7779 214.948 92.9683C214.48 95.6908 200.74 106.645 200.74 106.645L190.254 94.7337Z" fill="#FFC1A4"/>
<path d="M209.716 99.5193C209.567 99.5193 209.439 99.4555 209.333 99.3491C209.142 99.1364 209.163 98.8174 209.354 98.626C213.757 94.5848 214.374 93.2661 214.438 92.9045C214.523 92.4153 214.544 91.7985 214.225 91.522C213.778 91.1604 212.757 91.4157 212.438 91.5433C212.162 91.6496 211.864 91.522 211.779 91.2455C211.673 90.9903 211.8 90.6925 212.077 90.5861C212.268 90.5223 213.906 89.9268 214.884 90.735C215.459 91.203 215.65 91.9899 215.48 93.0959C215.373 93.7766 214.672 95.1803 210.077 99.4129C209.971 99.4555 209.843 99.5193 209.716 99.5193Z" fill="#060606"/>
<path d="M212.247 91.5645C212.119 91.5645 211.992 91.5219 211.885 91.4156C211.673 91.2242 211.673 90.9051 211.864 90.6924C212.226 90.2883 213.183 89.0547 213.14 88.1188C213.119 87.7998 212.991 87.5446 212.736 87.3319C212.566 87.183 212.375 87.1192 212.162 87.1405C211.375 87.2255 210.418 88.289 210.12 88.7144C209.95 88.9484 209.631 88.9909 209.397 88.8207C209.163 88.6506 209.12 88.3315 209.29 88.0976C209.418 87.9062 210.673 86.2684 212.034 86.1195C212.545 86.0557 213.013 86.2046 213.395 86.5449C213.863 86.949 214.119 87.4595 214.14 88.055C214.225 89.629 212.672 91.3305 212.587 91.3943C212.523 91.5007 212.375 91.5645 212.247 91.5645Z" fill="#060606"/>
<path d="M209.716 88.9271C209.609 88.9271 209.482 88.8846 209.397 88.8207C209.184 88.6506 209.142 88.3103 209.312 88.0976C209.695 87.6297 210.652 86.1833 210.503 85.3113C210.46 85.0986 210.375 84.9497 210.205 84.8221C209.376 84.2691 207.972 85.7154 207.525 86.2684C207.355 86.5024 207.036 86.5237 206.802 86.3535C206.568 86.1833 206.547 85.8643 206.717 85.6303C207.546 84.5669 209.354 82.9929 210.779 83.9713C211.183 84.2478 211.439 84.652 211.524 85.1624C211.758 86.6513 210.269 88.5442 210.099 88.7569C210.014 88.842 209.865 88.9271 209.716 88.9271Z" fill="#060606"/>
<path d="M207.121 86.4387C207.036 86.4387 206.972 86.4174 206.887 86.3961C206.632 86.2685 206.525 85.9707 206.653 85.7155C206.674 85.6942 207.929 82.993 206.589 82.3337C206.334 82.2061 206.228 81.887 206.355 81.6318C206.483 81.3766 206.781 81.2702 207.057 81.3978C208.886 82.3124 208.248 84.8222 207.589 86.1622C207.504 86.3323 207.312 86.4387 207.121 86.4387Z" fill="#060606"/>
<path d="M196.975 90.8414C196.869 90.8414 196.742 90.7988 196.656 90.7138C196.444 90.5223 196.401 90.2033 196.593 89.9906C198.486 87.6935 204.866 80.2918 207.078 81.3978C207.334 81.5254 207.44 81.8444 207.312 82.0997C207.185 82.3549 206.887 82.4613 206.611 82.3336C205.632 81.8444 201.038 86.2472 197.38 90.6712C197.252 90.7776 197.103 90.8414 196.975 90.8414Z" fill="#060606"/>
<path d="M196.954 90.8414C196.678 90.8414 196.444 90.6287 196.444 90.3522L196.189 85.3114C196.146 84.5032 195.444 83.8651 194.636 83.9076C193.891 83.9502 193.275 84.5244 193.232 85.2689C193.232 85.2901 193.232 85.3327 193.211 85.3539L192.275 88.9697C192.211 89.2462 191.913 89.4164 191.637 89.3313C191.36 89.2675 191.19 88.9697 191.275 88.6932L192.19 85.12C192.317 83.8864 193.338 82.908 194.572 82.8442C195.976 82.7804 197.124 83.8438 197.188 85.2263L197.443 90.2672C197.465 90.5437 197.231 90.7989 196.954 90.7989C196.975 90.8414 196.975 90.8414 196.954 90.8414Z" fill="#060606"/>
<path d="M199.655 97.754C199.549 97.754 199.443 97.7114 199.358 97.6476C199.124 97.4775 199.081 97.1584 199.251 96.9245C199.294 96.8607 200.336 95.3931 199.762 93.5426C199.188 91.6922 196.827 90.7989 196.805 90.7989C196.529 90.6925 196.401 90.416 196.486 90.1395C196.593 89.863 196.869 89.7354 197.146 89.8205C197.252 89.863 200.017 90.884 200.74 93.2236C201.463 95.5845 200.145 97.4349 200.081 97.52C199.974 97.6689 199.826 97.754 199.655 97.754Z" fill="#060606"/>
<path d="M203.271 90.8201C203.144 90.8201 203.037 90.7775 202.931 90.6925C202.718 90.501 202.697 90.182 202.888 89.9693L206.759 85.5878C206.951 85.3751 207.27 85.3539 207.483 85.5453C207.695 85.7367 207.717 86.0557 207.525 86.2684L203.654 90.6499C203.548 90.7563 203.399 90.8201 203.271 90.8201Z" fill="#060606"/>
<path d="M205.653 93.0321C205.526 93.0321 205.398 92.9896 205.292 92.8832C205.079 92.6918 205.079 92.3515 205.292 92.16L209.354 88.0338C209.546 87.8211 209.886 87.8211 210.077 88.0338C210.29 88.2252 210.29 88.5655 210.077 88.7569L206.015 92.8832C205.909 92.9896 205.781 93.0321 205.653 93.0321Z" fill="#060606"/>
<path d="M208.503 95.5419C208.376 95.5419 208.248 95.4993 208.142 95.393C207.929 95.2016 207.929 94.8613 208.121 94.6698L211.864 90.6712C212.055 90.4585 212.375 90.4585 212.587 90.6499C212.8 90.8414 212.8 91.1817 212.608 91.3731L208.865 95.393C208.759 95.4993 208.631 95.5419 208.503 95.5419Z" fill="#060606"/>
<path d="M154.309 53.7477C154.309 53.7477 160.584 55.981 161.179 64.0846C161.775 72.1882 150.864 68.9553 150.757 68.7" fill="#060606"/>
<path d="M134.093 74.309C138.448 72.1984 140.268 66.9568 138.157 62.6016C136.047 58.2464 130.805 56.4268 126.45 58.5374C122.095 60.6479 120.275 65.8895 122.386 70.2447C124.496 74.5999 129.738 76.4195 134.093 74.309Z" fill="#060606"/>
<path d="M148.205 103.156C159.627 102.859 154.203 94.9677 151.991 90.5437L150.077 80.6534L139.038 77.7395L139.314 90.5011C139.314 90.5011 136.549 103.454 148.205 103.156Z" fill="#FFC1A4"/>
<path d="M151.268 86.779C151.268 86.779 145.525 83.2483 143.632 80.3131L150.438 82.4613L151.268 86.779Z" fill="#060606"/>
<path d="M158.699 78.9564C164.14 73.5159 164.14 64.6951 158.699 59.2546C153.259 53.814 144.438 53.814 138.998 59.2546C133.557 64.6951 133.557 73.5159 138.998 78.9564C144.438 84.3969 153.259 84.3969 158.699 78.9564Z" fill="#FFC1A4"/>
<path d="M153.501 74.9107C153.288 74.9107 153.097 74.8895 152.905 74.8682C152.629 74.8469 152.416 74.5917 152.437 74.3152C152.459 74.0387 152.714 73.826 152.99 73.8473C153.331 73.8898 153.629 73.9111 153.905 73.826C154.096 73.7622 154.309 73.6133 154.394 73.3581C154.522 72.9114 154.224 72.3584 153.905 71.8692L151.991 68.9766C151.842 68.7426 151.906 68.4236 152.14 68.2534C152.374 68.1045 152.693 68.1684 152.863 68.4023L154.777 71.295C155.224 71.9756 155.649 72.8051 155.394 73.6558C155.224 74.2088 154.798 74.6342 154.224 74.8044C153.969 74.8895 153.735 74.9107 153.501 74.9107Z" fill="#060606"/>
<path d="M150.715 77.8458C149.375 77.8458 148.056 77.3141 147.12 76.357C146.929 76.1443 146.929 75.8252 147.12 75.6338C147.333 75.4424 147.652 75.4424 147.843 75.6338C148.737 76.5484 150.14 76.995 151.395 76.7611C151.672 76.7185 151.948 76.8887 151.991 77.1652C152.033 77.4417 151.863 77.7182 151.587 77.7607C151.31 77.8245 151.012 77.8458 150.715 77.8458Z" fill="#060606"/>
<path d="M134.933 69.019C134.933 69.019 136.826 69.8273 138.995 71.5075C141.888 73.7621 140.739 68.5724 142.101 68.0832C146.907 66.3816 153.501 65.1055 157.074 60.6602C159.052 58.1929 156.032 54.0241 152.99 53.0883C149.46 51.9823 144.44 51.6632 139.293 55.4492C132.763 60.256 134.933 69.019 134.933 69.019Z" fill="#060606"/>
<path d="M148.184 70.6143C148.481 71.2949 149.119 71.6565 149.587 71.4438C150.055 71.2311 150.183 70.508 149.885 69.8486C149.587 69.168 148.949 68.7851 148.481 69.0191C148.013 69.2105 147.886 69.9337 148.184 70.6143Z" fill="#060606"/>
<path d="M155.649 67.1048C155.947 67.7854 156.585 68.147 157.053 67.9343C157.521 67.7216 157.648 66.9984 157.351 66.3391C157.053 65.6585 156.415 65.2756 155.947 65.5096C155.479 65.701 155.33 66.4242 155.649 67.1048Z" fill="#060606"/>
<path d="M137.806 76.0772C139.744 75.2319 140.63 72.9755 139.785 71.0374C138.94 69.0993 136.683 68.2135 134.745 69.0588C132.807 69.9042 131.921 72.1606 132.767 74.0987C133.612 76.0367 135.868 76.9226 137.806 76.0772Z" fill="#FFC1A4"/>
<path d="M143.994 65.3608C143.738 65.3608 143.526 65.1694 143.483 64.9354C143.441 64.6589 143.632 64.3824 143.908 64.3399C147.631 63.7443 151.076 61.6599 153.309 58.6184C153.48 58.3844 153.799 58.3419 154.033 58.5121C154.267 58.6822 154.309 59.0013 154.139 59.2352C151.736 62.4894 148.056 64.7227 144.057 65.3608C144.057 65.3395 144.015 65.3608 143.994 65.3608Z" fill="white"/>
<path d="M143.632 62.6808C143.419 62.6808 143.228 62.5532 143.143 62.3405C143.058 62.064 143.185 61.7875 143.462 61.6812C144.674 61.2558 145.801 60.639 146.801 59.852C147.014 59.6818 147.354 59.7031 147.524 59.9371C147.694 60.1498 147.673 60.4901 147.439 60.6602C146.333 61.5323 145.121 62.2129 143.781 62.6595C143.738 62.6808 143.674 62.6808 143.632 62.6808Z" fill="white"/>
<path d="M134.592 67.2962C134.316 67.2962 134.082 67.0836 134.082 66.807C133.976 64.3398 134.422 61.8513 135.358 59.5755C135.465 59.3202 135.762 59.1926 136.039 59.299C136.294 59.4053 136.422 59.7031 136.315 59.9796C135.422 62.1065 134.997 64.4461 135.103 66.7645C135.124 67.041 134.89 67.2962 134.614 67.2962H134.592Z" fill="white"/>
<path d="M129.296 88.757C129.062 88.757 128.828 88.5868 128.786 88.3316C128.127 84.9498 128.701 81.2915 130.36 78.2712C130.487 78.016 130.807 77.9309 131.062 78.0585C131.317 78.1861 131.402 78.5052 131.274 78.7604C129.722 81.5679 129.19 84.9923 129.807 88.1189C129.871 88.3954 129.679 88.6719 129.403 88.7145C129.36 88.757 129.318 88.757 129.296 88.757Z" fill="white"/>
<path d="M117.598 34.3501L114.557 55.0877C113.749 60.5964 108.644 64.4037 103.135 63.5954L97.0521 62.7021C96.3289 62.5958 95.6058 62.7872 95.0528 63.2338L91.6284 65.8712C90.4373 66.7858 88.757 66.5519 87.8637 65.3395L85.2476 61.7663C84.8222 61.192 84.1841 60.8091 83.4822 60.7028L78.2925 59.9371C72.7837 59.1289 68.9765 54.0242 69.7848 48.5155L72.8263 27.7566C73.6345 22.2478 78.7392 18.4406 84.2479 19.2488L109.091 22.8859C114.599 23.7154 118.407 28.8413 117.598 34.3501Z" fill="#FF73ED"/>
<path d="M99.3492 55.0239L104.603 55.7896C104.964 55.8534 105.305 55.5982 105.368 55.2154L107.41 41.2201C107.474 40.8585 107.219 40.5182 106.836 40.4544L101.582 39.6887C101.221 39.6249 100.881 39.8802 100.817 40.263L98.7749 54.2582C98.7324 54.6411 98.9876 54.9814 99.3492 55.0239Z" fill="white"/>
<path d="M89.2462 53.5563L94.4997 54.322C94.8613 54.3858 95.2016 54.1305 95.2654 53.7477L98.5622 31.2022C98.626 30.8406 98.3708 30.5003 97.9879 30.4365L92.7344 29.6708C92.3728 29.607 92.0325 29.8622 91.9687 30.2451L88.6719 52.7906C88.6294 53.1521 88.8846 53.4925 89.2462 53.5563Z" fill="white"/>
<path d="M79.1433 52.0675L84.3968 52.8332C84.7584 52.897 85.0987 52.6417 85.1625 52.2589L86.4387 43.4746C86.5025 43.1131 86.2472 42.7727 85.8644 42.7089L80.6109 41.9432C80.2493 41.8794 79.909 42.1347 79.8452 42.5175L78.569 51.3018C78.5265 51.6846 78.7817 52.0249 79.1433 52.0675Z" fill="white"/>
<path d="M41.0499 101.03L55.5768 100.328L54.9813 94.6487L54.3007 88.0765L52.9394 87.0981L42.2622 79.3561L41.0499 101.03Z" fill="#BC6E4F"/>
<path d="M49.3662 90.2033C51.3017 93.6915 54.9813 94.6486 54.9813 94.6486L54.3007 88.0764L52.9394 87.098C50.5785 87.5234 48.3665 88.3955 49.3662 90.2033Z" fill="black"/>
<path d="M45.091 79.3986C44.6018 86.8428 49.1748 91.8624 54.5772 92.2027C59.9796 92.543 64.2122 88.0977 64.7014 80.6747C65.1906 73.2517 61.1494 66.8709 55.7257 66.5306C50.3233 66.169 45.559 71.9543 45.091 79.3986Z" fill="#BC6E4F"/>
<path d="M64.4036 76.0593C64.4036 76.0593 65.9775 80.3345 65.6798 81.1214C65.3607 81.8871 63.2976 81.9935 63.2976 81.9935L64.4036 76.0593Z" fill="#BC6E4F"/>
<path d="M40.901 87.566C40.901 87.566 46.5373 87.9063 48.3452 83.695C48.3452 83.695 45.6653 76.9526 48.4516 76.1018C51.2379 75.251 51.2591 79.6963 51.2591 79.6963L53.2372 79.6112L53.6413 73.4219C53.6413 73.4219 58.0228 73.0177 58.9586 70.9121C58.9586 70.9121 63.2976 73.7834 66.0201 69.9337C68.7425 66.0627 66.9134 62.5958 63.5316 62.532C63.5316 62.532 66.0413 57.2146 61.7237 56.1512C57.4273 55.0877 57.406 58.4057 57.406 58.4057C57.406 58.4057 55.3641 52.1525 48.7281 53.8753C41.5178 55.7258 42.4536 63.957 42.4536 63.957C42.4536 63.957 37.0299 62.064 34.3287 68.4236C31.6275 74.7831 40.901 87.566 40.901 87.566Z" fill="#07070F"/>
<path d="M60.2561 77.0802C60.4262 77.7608 60.9367 78.2075 61.4046 78.0799C61.8725 77.9523 62.1065 77.3142 61.9576 76.6548C61.7875 75.9742 61.277 75.5276 60.8091 75.6552C60.3412 75.7615 60.1072 76.3996 60.2561 77.0802Z" fill="#060606"/>
<path d="M60.9154 86.1623C60.5113 86.1623 60.0859 86.0772 59.7031 85.9283C59.4478 85.822 59.3202 85.5242 59.4266 85.2477C59.5329 84.9924 59.8307 84.8648 60.1072 84.9712C60.7453 85.2264 61.511 85.1626 62.1065 84.801C62.3405 84.6521 62.6595 84.7159 62.8084 84.9712C62.9573 85.2051 62.8935 85.5242 62.6382 85.6731C62.1278 85.9921 61.511 86.1623 60.9154 86.1623Z" fill="#060606"/>
<path d="M61.8513 69.6147C61.4897 69.6147 61.1069 69.5509 60.7666 69.402C60.5113 69.2957 60.3837 68.9979 60.49 68.7214C60.5964 68.4662 60.8942 68.3385 61.1707 68.4449C61.6599 68.6576 62.2554 68.615 62.7233 68.3598C63.1913 68.1046 63.5316 67.6154 63.6166 67.0836C63.6592 66.8071 63.9357 66.6157 64.2122 66.6583C64.4887 66.7008 64.6801 66.9773 64.6376 67.2538C64.4887 68.1046 63.957 68.849 63.2125 69.2531C62.8084 69.4871 62.3405 69.6147 61.8513 69.6147Z" fill="white"/>
<path d="M62.1491 62.8084C62.0214 62.8084 61.8938 62.7659 61.7875 62.6596C61.5748 62.4681 61.5748 62.1278 61.7662 61.9364C62.0002 61.6812 62.1491 61.3196 62.1491 60.9793C62.1491 60.6177 61.9789 60.2774 61.7449 60.0222C61.5322 59.8307 61.5322 59.4904 61.7237 59.299C61.9151 59.0863 62.2554 59.0863 62.4468 59.2777C62.8935 59.7031 63.17 60.3199 63.17 60.958C63.1913 61.5961 62.936 62.2129 62.5106 62.6596C62.4256 62.7446 62.2767 62.8084 62.1491 62.8084Z" fill="white"/>
<path d="M44.4317 64.2548C44.1552 64.2548 43.9425 64.0421 43.9212 63.7656C43.8361 62.4894 44.1552 61.2133 44.8358 60.1286C45.5164 59.0438 46.5373 58.193 47.7072 57.7251C47.9624 57.6188 48.2814 57.7464 48.3878 58.0016C48.4941 58.2568 48.3665 58.5759 48.1113 58.6822C47.1329 59.0863 46.2821 59.7882 45.7291 60.6815C45.1761 61.5749 44.8996 62.6383 44.9634 63.7018C44.9847 63.9783 44.772 64.2335 44.4742 64.2548C44.4529 64.2548 44.4317 64.2548 44.4317 64.2548Z" fill="white"/>
<path d="M86.1834 225.902L89.1611 212.97L71.6139 210.269L68.8064 222.18" fill="#BC6E4F"/>
<path d="M94.6061 249.575L65.382 239.238C64.9566 239.089 64.6376 238.727 64.5312 238.302L68.8064 222.18L86.1834 225.881L86.4387 232.474L94.3296 244.428L96.3289 247.852C96.6905 248.958 95.6696 249.936 94.6061 249.575Z" fill="#0045DF"/>
<path d="M94.6061 249.575L65.382 239.238C64.9566 239.089 64.6376 238.727 64.5312 238.302L65.3395 235.282L93.4363 245.938C94.4785 246.32 94.6699 245.47 94.3296 244.406L96.3502 247.894C96.6905 248.958 95.6696 249.936 94.6061 249.575Z" fill="#060606"/>
<path d="M81.1851 233.516C80.8874 233.516 80.6321 233.282 80.5896 232.985C80.5683 232.666 80.8023 232.368 81.1213 232.347L86.3961 231.921C86.7364 231.9 87.0129 232.134 87.0342 232.453C87.0555 232.772 86.8215 233.07 86.5025 233.091L81.2277 233.516C81.2064 233.516 81.1851 233.516 81.1851 233.516Z" fill="black"/>
<path d="M81.887 235.707C81.5892 235.707 81.334 235.473 81.2915 235.175C81.2702 234.856 81.5042 234.559 81.8232 234.537L86.7577 234.069C87.098 234.048 87.3745 234.282 87.3958 234.601C87.417 234.92 87.1831 235.218 86.864 235.239L81.9296 235.707C81.9296 235.707 81.9083 235.707 81.887 235.707Z" fill="black"/>
<path d="M71.4438 239.918C71.3162 239.918 71.1885 239.876 71.0822 239.791C70.827 239.599 70.7844 239.216 70.9758 238.961C70.9971 238.94 72.9964 236.324 72.3158 233.729C71.5927 230.964 68.6149 230.156 66.9134 229.922C66.5944 229.879 66.3604 229.581 66.4029 229.262C66.4455 228.943 66.7432 228.709 67.0623 228.752C68.6787 228.965 72.5072 229.858 73.4431 233.431C74.2726 236.6 71.9968 239.578 71.8904 239.684C71.7841 239.833 71.6139 239.918 71.4438 239.918Z" fill="black"/>
<path d="M86.8853 222.818L70.6143 214.501L87.4596 220.351L86.8853 222.818Z" fill="black"/>
<path d="M69.2743 174.792L77.0376 175.174L75.5062 179.705L65.7223 212.991L91.8836 222.073L104.007 172.09C105.751 165.114 101.051 158.202 93.9467 157.223L22.7369 147.439V172.473L69.2743 174.792Z" fill="#2F2D53"/>
<path d="M88.7783 214.076C88.7145 214.076 88.6507 214.076 88.6081 214.055L71.9968 208.057C71.7203 207.951 71.5927 207.674 71.6777 207.398C71.7841 207.121 72.0818 206.993 72.3371 207.079L88.9485 213.077C89.225 213.183 89.3526 213.459 89.2675 213.736C89.1824 213.949 88.991 214.076 88.7783 214.076Z" fill="white"/>
<path d="M77.0376 175.174L75.5062 179.705L98.3495 174.175C98.3495 174.175 69.7422 169.432 69.6784 169.432C69.6571 169.432 69.4657 172.027 69.2743 174.813L77.0376 175.174Z" fill="black"/>
<path d="M132.87 225.859L127.893 213.566L111.962 221.435L116.514 232.793" fill="#BC6E4F"/>
<path d="M153.373 240.408L123.511 248.724C123.086 248.852 122.618 248.745 122.278 248.447L116.535 232.793L132.891 225.859L136.89 231.113L150.225 236.388L153.841 238.047C154.713 238.706 154.437 240.11 153.373 240.408Z" fill="#0045DF"/>
<path d="M153.373 240.408L123.511 248.724C123.086 248.851 122.618 248.745 122.278 248.447L121.193 245.512L150.311 238.11C151.374 237.813 151.055 237.026 150.162 236.345L153.82 238.047C154.713 238.706 154.437 240.11 153.373 240.408Z" fill="#060606"/>
<path d="M132.806 235.069C132.636 235.069 132.466 235.005 132.359 234.856C132.146 234.601 132.189 234.239 132.444 234.027L136.507 230.645C136.762 230.432 137.124 230.475 137.336 230.73C137.549 230.985 137.506 231.347 137.251 231.56L133.189 234.941C133.082 235.026 132.933 235.069 132.806 235.069Z" fill="black"/>
<path d="M134.635 236.451C134.465 236.451 134.295 236.388 134.188 236.239C133.976 235.984 133.997 235.622 134.252 235.409L138.017 232.198C138.272 231.985 138.634 232.006 138.846 232.261C139.059 232.517 139.038 232.878 138.783 233.091L135.018 236.303C134.912 236.409 134.784 236.451 134.635 236.451Z" fill="black"/>
<path d="M128.509 245.895H128.488C128.169 245.874 127.914 245.597 127.935 245.278C127.935 245.236 128.084 241.96 126.021 240.216C123.83 238.366 120.938 239.408 119.406 240.195C119.108 240.344 118.768 240.237 118.619 239.94C118.47 239.642 118.577 239.302 118.874 239.153C120.321 238.408 123.979 236.941 126.787 239.323C129.296 241.45 129.126 245.193 129.105 245.342C129.084 245.661 128.807 245.895 128.509 245.895Z" fill="black"/>
<path d="M131.679 222.945L113.578 225.455L130.721 220.585L131.679 222.945Z" fill="black"/>
<path d="M14.0165 111.962L6.27446 129.275C3.33928 135.847 7.10396 143.483 14.1228 145.142L42.9428 151.906L45.6866 135.146L24.7575 131.849L29.9473 114.025L14.0165 111.962Z" fill="#BC6E4F"/>
<path d="M11.2302 118.215L24.9702 125.34C24.9702 125.34 26.6292 113.025 26.2677 113.111C25.9061 113.196 11.2302 118.215 11.2302 118.215Z" fill="#B05645"/>
<path d="M37.0725 98.1582H30.8831C23.1836 98.1582 16.2498 102.816 13.3359 109.963L10.0604 118.024L32.1167 121.725L37.0725 98.1582Z" fill="#0045DF"/>
<path d="M133.848 220.797L109.92 226.306L98.1368 173.771L58.9799 175.302C50.2808 175.472 42.9003 169.028 41.8581 160.392L40.1991 148.141H64.1484L104.156 152.842C110.111 153.544 115.386 157.032 118.343 162.243L133.848 220.797Z" fill="#494770"/>
<path d="M69.6784 148.801L68.2108 106.73C68.1257 101.519 63.8081 97.3925 58.5971 97.5414L37.0938 98.1582C29.4368 98.3709 23.1198 104.199 22.2903 111.813L18.1215 149.928C34.9456 155.926 52.5778 155.224 69.6784 148.801Z" fill="#0045DF"/>
<path d="M58.5758 97.5414L64.3185 97.7328C71.4863 97.988 77.782 102.561 80.2493 109.282L83.7162 118.747L62.3192 127.616L58.5758 97.5414Z" fill="#0045DF"/>
<path d="M66.488 125.681L67.6153 129.849L71.4438 143.908C72.7412 148.673 76.9525 152.076 81.9083 152.331C82.0997 152.331 82.3124 152.352 82.5038 152.352C87.9701 152.352 92.6919 148.481 93.7341 143.079L101.838 99.9235L86.3536 100.562L83.7162 118.789L66.488 125.681Z" fill="#BC6E4F"/>
<path d="M66.488 125.681L68.1683 131.934L83.7162 118.768L66.488 125.681Z" fill="#B05645"/>
<path d="M112.004 89.8631C112.004 89.8631 113.174 89.7567 113.344 91.2243C113.515 92.6919 100.051 101.03 100.051 101.03L86.3536 100.54L87.9062 92.543C88.1827 91.0542 88.7357 89.6291 89.5227 88.3317L91.0116 85.8432C91.522 84.9924 92.5217 84.567 93.4788 84.801C94.3721 85.0137 94.9889 85.7156 95.1804 86.5238C95.2867 86.9917 95.2442 87.5022 95.0102 87.9914L93.734 90.6713L106.198 82.2274C107.687 81.2277 109.707 82.3975 109.516 84.1842C109.516 84.2054 109.516 84.2267 109.516 84.248C109.644 84.1842 111.451 83.0356 112.217 84.2693C112.983 85.5454 111.792 87.0981 111.792 87.0981C111.792 87.0981 112.451 87.0768 112.706 87.8638C112.898 88.6933 112.004 89.8631 112.004 89.8631Z" fill="#BC6E4F"/>
<path d="M103.135 90.565C102.965 90.565 102.816 90.4799 102.71 90.3523C102.54 90.1184 102.603 89.7993 102.837 89.6292C104.667 88.3317 107.708 86.0984 108.091 85.6093C108.708 84.8223 108.963 84.0991 108.984 84.0991C109.091 83.8226 109.388 83.695 109.644 83.8014C109.92 83.9077 110.048 84.1842 109.941 84.4607C109.92 84.5032 109.622 85.3328 108.899 86.2473C108.304 87.013 104.22 89.9057 103.412 90.4799C103.348 90.5225 103.241 90.565 103.135 90.565Z" fill="#060606"/>
<path d="M105.645 93.33C105.496 93.33 105.347 93.2661 105.241 93.1385C105.071 92.9046 105.113 92.5855 105.326 92.4154C107.559 90.65 110.026 88.6507 110.26 88.3317C110.537 87.885 111.303 86.8641 111.324 86.8215C111.494 86.5876 111.813 86.545 112.047 86.7152C112.281 86.8853 112.323 87.2044 112.153 87.4383C112.153 87.4383 111.388 88.4593 111.132 88.8847C110.856 89.3526 107.772 91.7986 105.964 93.2236C105.858 93.2874 105.751 93.33 105.645 93.33Z" fill="#060606"/>
<path d="M107.219 94.6487C107.027 94.6487 106.836 94.5424 106.751 94.3297C106.645 94.0745 106.751 93.7554 107.027 93.6491C107.793 93.33 110.26 90.9266 111.643 89.4803C111.834 89.2676 112.175 89.2676 112.366 89.459C112.579 89.6504 112.579 89.9907 112.387 90.1822C112.004 90.5863 108.623 94.0532 107.432 94.5637C107.368 94.6487 107.283 94.6487 107.219 94.6487Z" fill="#060606"/>
<path d="M64.0846 243.024C63.8506 243.024 63.6166 242.854 63.5741 242.598L51.3868 176.855C51.3442 176.578 51.5144 176.302 51.7909 176.259C52.0674 176.217 52.3439 176.387 52.3864 176.663L64.5738 242.407C64.6163 242.683 64.4462 242.96 64.1697 243.002C64.1484 243.024 64.1271 243.024 64.0846 243.024Z" fill="#060F11"/>
<path d="M90.5011 243.024C90.2884 243.024 90.0757 242.896 90.0119 242.662L68.4661 176.94C68.381 176.663 68.5299 176.387 68.7851 176.281C69.0616 176.195 69.3381 176.344 69.4444 176.6L90.969 242.343C91.0541 242.62 90.9052 242.896 90.65 243.002C90.6075 243.024 90.5436 243.024 90.5011 243.024Z" fill="#060F11"/>
<path d="M68.5511 245.704C68.5511 247.809 66.8496 249.49 64.7439 249.49C62.6595 249.49 60.958 247.788 60.958 245.704C60.958 243.598 62.6595 241.896 64.7439 241.896C66.8496 241.896 68.5511 243.598 68.5511 245.704Z" fill="#060F11"/>
<path d="M94.7975 245.704C94.7975 247.809 93.096 249.49 90.9903 249.49C88.9059 249.49 87.2043 247.788 87.2043 245.704C87.2043 243.598 88.9059 241.896 90.9903 241.896C93.096 241.896 94.7975 243.598 94.7975 245.704Z" fill="#060F11"/>
<path d="M4.29642 243.024C4.23261 243.024 4.1688 243.024 4.12626 242.981C3.84976 242.875 3.72214 242.577 3.82849 242.322L28.1606 176.578C28.267 176.302 28.5435 176.174 28.82 176.28C29.0965 176.387 29.2241 176.685 29.1178 176.94L4.78561 242.683C4.70053 242.896 4.50911 243.024 4.29642 243.024Z" fill="#060F11"/>
<path d="M0 245.704C0 247.809 1.70155 249.49 3.80721 249.49C5.89161 249.49 7.59316 247.788 7.59316 245.704C7.59316 243.598 5.89161 241.896 3.80721 241.896C1.70155 241.896 0 243.598 0 245.704Z" fill="#060F11"/>
<path d="M16.3349 243.024C16.2711 243.024 16.2073 243.024 16.1647 242.981C15.8882 242.875 15.7606 242.577 15.8669 242.322L40.1991 176.578C40.3054 176.302 40.5819 176.174 40.8584 176.28C41.1349 176.387 41.2626 176.685 41.1562 176.94L16.8241 242.683C16.739 242.896 16.5476 243.024 16.3349 243.024Z" fill="#060F11"/>
<path d="M12.0385 245.704C12.0385 247.809 13.74 249.49 15.8457 249.49C17.9301 249.49 19.6316 247.788 19.6316 245.704C19.6316 243.598 17.9301 241.896 15.8457 241.896C13.74 241.896 12.0385 243.598 12.0385 245.704Z" fill="#060F11"/>
<path d="M14.9311 131.211L16.9091 173.643C17.058 176.663 19.5465 179.045 22.5668 179.045H80.9299C83.2483 179.045 85.0987 177.174 85.0987 174.877C85.0987 172.558 83.227 170.708 80.9299 170.708H62.4256C59.0863 170.708 56.3 168.219 55.9171 164.901C54.8324 155.245 53.3435 138.804 52.5991 130.488C52.3439 127.574 49.8979 125.34 46.9627 125.34H20.5675C17.3345 125.298 14.7609 127.999 14.9311 131.211Z" fill="#E7EBFB"/>
<path d="M14.9311 131.211L16.9091 173.643C17.058 176.663 19.5465 179.046 22.5668 179.046H80.9299C83.0356 179.046 84.7796 177.493 85.0561 175.472H50.2169C33.9884 175.472 20.61 162.711 19.8656 146.503L18.9935 127.659C18.951 126.893 19.0786 126.149 19.3338 125.468C16.6964 126.021 14.7822 128.424 14.9311 131.211Z" fill="#B7BEF8"/>
<path d="M80.9299 179.556H22.5455C19.2488 179.556 16.5263 176.961 16.3774 173.664L14.3994 131.232C14.3143 129.53 14.9311 127.914 16.1009 126.68C17.2707 125.447 18.8659 124.766 20.5675 124.766H46.9627C50.1744 124.766 52.8331 127.191 53.1096 130.381C53.8965 139.144 55.3641 155.245 56.4276 164.795C56.7679 167.837 59.3415 170.155 62.4256 170.155H80.9299C83.5248 170.155 85.6304 172.261 85.6304 174.855C85.6304 177.45 83.5035 179.556 80.9299 179.556ZM20.5675 125.808C19.1424 125.808 17.8237 126.383 16.8453 127.404C15.8669 128.424 15.3565 129.786 15.4203 131.189L17.3983 173.622C17.526 176.366 19.7805 178.514 22.5242 178.514H80.8874C82.9079 178.514 84.5457 176.876 84.5457 174.855C84.5457 172.835 82.9079 171.197 80.8874 171.197H62.383C58.7885 171.197 55.7682 168.496 55.3641 164.923C54.3007 155.373 52.8331 139.251 52.0461 130.488C51.8121 127.808 49.6001 125.808 46.9202 125.808H20.5675Z" fill="#060F11"/>
<path d="M86.3536 129.722C86.1196 129.722 85.9069 129.573 85.8644 129.339L83.227 118.896C83.1632 118.619 83.3333 118.343 83.6098 118.279C83.8863 118.215 84.1628 118.385 84.2266 118.662L86.864 129.105C86.9279 129.382 86.7577 129.658 86.4812 129.722C86.4387 129.722 86.3961 129.722 86.3536 129.722Z" fill="#060606"/>
<path d="M62.3192 128.148C62.064 128.148 61.8513 127.978 61.8088 127.723L59.1075 110.898C59.065 110.622 59.2564 110.345 59.5329 110.303C59.8094 110.26 60.0859 110.452 60.1285 110.728L62.8297 127.552C62.8722 127.829 62.6808 128.105 62.4043 128.148C62.3618 128.127 62.3405 128.148 62.3192 128.148Z" fill="white"/>
<path d="M21.397 120.448C21.3757 120.448 21.3544 120.448 21.3332 120.448C21.0567 120.406 20.844 120.151 20.8865 119.874L22.2265 109.388C22.269 109.112 22.5242 108.899 22.8007 108.942C23.0773 108.984 23.2899 109.239 23.2474 109.516L21.9074 120.002C21.8649 120.257 21.6522 120.448 21.397 120.448Z" fill="white"/>
<path d="M65.4033 122.235C65.1906 122.235 64.9992 122.107 64.9141 121.895C64.8077 121.618 64.9566 121.32 65.2119 121.235L78.803 116.237C79.0795 116.131 79.356 116.28 79.4623 116.535C79.5687 116.811 79.4198 117.109 79.1646 117.194L65.5734 122.193C65.5309 122.235 65.4671 122.235 65.4033 122.235Z" fill="white"/>
<path d="M112.6 221.223C112.366 221.223 112.153 221.074 112.111 220.84C112.047 220.563 112.217 220.287 112.494 220.223C118.215 218.798 126.872 216.607 127.489 216.395C127.722 216.288 128.02 216.373 128.148 216.607C128.297 216.841 128.212 217.16 127.978 217.309C127.893 217.352 127.637 217.522 112.749 221.223C112.685 221.223 112.643 221.223 112.6 221.223Z" fill="white"/>
<path d="M195.403 68.7601L180.985 65.7002L179.298 73.648L193.716 76.7079L195.403 68.7601Z" fill="#141323"/>
<path d="M212.081 49.4822C221.235 40.3288 221.235 25.4883 212.081 16.335C202.928 7.18163 188.088 7.18163 178.934 16.335C169.781 25.4883 169.781 40.3288 178.934 49.4822C188.088 58.6355 202.928 58.6355 212.081 49.4822Z" fill="#0045DF"/>
<path d="M198.779 54.9463L183.57 51.7185L181.662 60.7066L196.871 63.9343L198.779 54.9463Z" fill="#0045DF"/>
<path d="M202.282 63.6075L176.816 58.2029L175.336 65.1728L200.803 70.5774L202.282 63.6075Z" fill="#141323"/>
<path d="M202.314 44.8358C202.208 44.8358 202.08 44.7933 201.995 44.7295C201.761 44.5593 201.74 44.219 201.91 44.0063C204.058 41.2838 205.505 38.0296 206.1 34.6053C206.398 32.9463 206.377 31.7339 206.036 30.6917C205.611 29.4156 204.654 28.4584 203.569 28.267C202.782 28.1181 201.995 28.3521 201.293 28.7562C201.421 28.9476 201.548 29.139 201.676 29.3305C202.463 30.6917 202.612 32.1593 202.08 33.2866C201.74 34.0097 201.017 34.6053 200.187 34.818C199.485 34.9881 198.805 34.8818 198.273 34.4989C197.443 33.9034 197.103 32.691 197.422 31.5425C197.72 30.5216 198.443 29.7346 199.039 29.1603C199.251 28.9689 199.485 28.7562 199.741 28.5648C198.741 27.6502 197.422 27.0334 196.082 26.9483C195.55 26.9058 194.997 26.9483 194.466 27.0759C194.7 27.7565 194.763 28.4584 194.806 29.0327C194.891 30.0536 194.997 31.2022 194.657 32.3082C194.317 33.3929 193.36 34.5202 192.02 34.6053C190.68 34.6904 189.425 33.5843 189.17 32.138C188.957 31.0108 189.361 29.7133 190.233 28.586C190.956 27.6715 191.913 26.9483 192.977 26.4804C192.573 26.0337 191.913 25.7147 190.956 25.502C189.765 25.2255 188.659 25.2042 187.723 25.4169C186.639 25.6509 185.703 26.2464 185.171 27.0334C184.256 28.3734 184.448 30.1387 184.746 31.3936C184.916 32.0742 185.15 32.7548 185.362 33.4142C185.66 34.3075 185.979 35.2008 186.149 36.1579C186.532 38.2423 186.128 40.0928 185.001 41.2626C184.809 41.4753 184.469 41.4753 184.278 41.2839C184.065 41.0924 184.065 40.7521 184.256 40.5607C185.511 39.2633 185.299 37.1789 185.15 36.3494C184.98 35.4773 184.703 34.6265 184.405 33.7545C184.171 33.0739 183.937 32.372 183.746 31.6488C183.384 30.1812 183.193 28.0969 184.32 26.4591C185.001 25.4595 186.171 24.715 187.489 24.396C188.574 24.1408 189.829 24.1833 191.169 24.4811C191.956 24.6512 193.083 24.9915 193.828 25.8848C193.891 25.9699 193.955 26.0337 193.998 26.1188C194.7 25.9486 195.423 25.8636 196.146 25.9274C197.826 26.0337 199.421 26.7782 200.591 27.9692C201.506 27.4162 202.591 27.0547 203.718 27.2673C205.185 27.5226 206.462 28.7562 206.993 30.3939C207.504 31.9466 207.312 33.5631 207.1 34.7967C206.462 38.37 204.952 41.773 202.697 44.6444C202.633 44.772 202.484 44.8358 202.314 44.8358ZM200.442 29.3305C200.208 29.5219 199.974 29.7133 199.762 29.9047C199.251 30.3939 198.656 31.032 198.422 31.819C198.252 32.4358 198.358 33.244 198.89 33.6482C199.273 33.9247 199.719 33.8608 199.932 33.797C200.442 33.6694 200.932 33.2866 201.144 32.8399C201.527 32.0104 201.4 30.9044 200.783 29.8409C200.676 29.6708 200.57 29.5006 200.442 29.3305ZM193.509 27.395C192.551 27.7778 191.701 28.4159 191.063 29.2241C190.361 30.1174 190.063 31.1171 190.212 31.9679C190.361 32.7974 191.084 33.6482 191.998 33.5843C192.849 33.5418 193.466 32.7336 193.7 32.0104C193.977 31.1171 193.891 30.1174 193.806 29.1603C193.743 28.501 193.679 27.9054 193.509 27.395Z" fill="white"/>
<path d="M203.823 0.587243L201.076 0.00439453L199.818 5.93401L202.564 6.51686L203.823 0.587243Z" fill="#0045DF"/>
<path d="M186.681 0.753205L184.011 1.62158L185.886 7.38632L188.556 6.51794L186.681 0.753205Z" fill="#0045DF"/>
<path d="M171.832 9.70452L169.954 11.7914L174.459 15.8461L176.337 13.7592L171.832 9.70452Z" fill="#0045DF"/>
<path d="M227.444 24.0119L226.576 21.3419L220.811 23.2168L221.679 25.8868L227.444 24.0119Z" fill="#0045DF"/>
<path d="M218.708 9.22819L216.621 7.35022L212.566 11.8559L214.653 13.7339L218.708 9.22819Z" fill="#0045DF"/>
</g>
<defs>
<clipPath id="clip0_34_9061">
<rect width="351.859" height="250" fill="white"/>
</clipPath>
</defs>
</svg>
