<svg width="239" height="200" viewBox="0 0 239 200" fill="none" xmlns="http://www.w3.org/2000/svg">
<g clip-path="url(#clip0_39_17876)">
<path d="M182.114 88.5723L156.856 93.9264C151.294 95.1129 145.821 91.5534 144.635 85.9916L141.313 70.3149C140.126 64.7532 143.686 59.2805 149.247 58.094L174.505 52.7399C180.067 51.5534 185.54 55.1129 186.726 60.6746L190.048 76.3513C191.235 81.9278 187.675 87.4006 182.114 88.5723Z" fill="#605EFD"/>
<path d="M170.308 71.2496L165.933 76.3367C164.583 77.9088 162.017 77.2414 161.587 75.2244L159.896 67.2748C159.466 65.2577 161.542 63.6115 163.411 64.5013L169.477 67.3638C170.975 68.0608 171.39 70.0037 170.308 71.2496Z" fill="white"/>
<path d="M183.799 78.4724L151.24 85.375L151.612 87.1306L184.171 80.2281L183.799 78.4724Z" fill="white"/>
<path d="M170.53 82.1801C170.768 83.3073 171.88 84.034 173.022 83.7967C174.149 83.5594 174.876 82.4471 174.638 81.3051C174.401 80.1779 173.289 79.4512 172.147 79.6885C171.005 79.9406 170.278 81.053 170.53 82.1801Z" fill="#030047"/>
<path d="M27.2748 143.137L14.2974 153.889C12.2655 155.565 9.26957 155.283 7.5788 153.252L1.09753 145.421C-0.578406 143.389 -0.296612 140.393 1.73528 138.702L14.7127 127.949C16.7445 126.273 19.7405 126.555 21.4312 128.587L27.9125 136.418C29.5884 138.45 29.3066 141.461 27.2748 143.137Z" fill="#0045DF"/>
<path d="M14.3715 143.137C14.3567 143.137 14.327 143.137 14.3122 143.137L3.63366 142.855C3.3222 142.84 3.07007 142.588 3.07007 142.262C3.0849 141.95 3.36669 141.698 3.66332 141.698L14.3419 141.98C14.9648 141.995 15.5135 141.55 15.6025 140.927L17.3229 130.382C17.3674 130.07 17.6641 129.863 17.9755 129.907C18.287 129.952 18.4946 130.248 18.4501 130.56L16.7297 141.105C16.5369 142.291 15.5284 143.137 14.3715 143.137Z" fill="white"/>
<path d="M16.3293 140.571C16.0326 140.571 15.7805 140.334 15.7657 140.022C15.7508 139.711 15.9881 139.444 16.3144 139.429L25.3467 138.984C25.6581 138.969 25.9251 139.207 25.9399 139.533C25.9548 139.844 25.7175 140.111 25.3912 140.126L16.3589 140.571C16.3589 140.571 16.3441 140.571 16.3293 140.571Z" fill="white"/>
<path d="M11.1235 151.902C11.079 151.902 11.0345 151.902 10.99 151.887C10.6786 151.813 10.5006 151.502 10.5747 151.19L12.7104 142.395C12.7846 142.084 13.0961 141.906 13.4075 141.98C13.719 142.054 13.8969 142.366 13.8228 142.677L11.6871 151.472C11.6278 151.724 11.3905 151.902 11.1235 151.902Z" fill="white"/>
<path d="M139.711 198.962H34.5717L25.3022 51.42C24.8721 44.4344 30.1965 38.7837 37.1672 38.7837H117.019C124.004 38.7837 130.011 44.4492 130.441 51.42L139.711 198.962Z" fill="#E6F3FC"/>
<path d="M139.711 199.392H34.5718C34.3493 199.392 34.1565 199.214 34.1417 198.991L24.8573 51.4495C24.6496 47.9494 25.8065 44.6568 28.135 42.18C30.4635 39.718 33.6671 38.3535 37.1524 38.3535H117.019C124.212 38.3535 130.426 44.2119 130.857 51.4051L140.126 198.947C140.141 199.065 140.096 199.184 140.007 199.273C139.948 199.347 139.829 199.392 139.711 199.392ZM34.9722 198.531H139.251L129.996 51.4495C129.581 44.7013 123.752 39.2137 117.004 39.2137H37.1673C33.9192 39.2137 30.9381 40.4744 28.7727 42.7732C26.6074 45.0721 25.5247 48.1422 25.7175 51.4051L34.9722 198.531Z" fill="#030047"/>
<path d="M40.7119 198.962L31.4126 50.9602C31.205 47.6231 33.7412 44.9238 37.0782 44.9238H117.849C121.186 44.9238 124.049 47.6231 124.257 50.9602L133.556 198.962H40.7119Z" fill="white"/>
<path d="M133.571 199.392H40.7267C40.5042 199.392 40.3114 199.214 40.2966 198.991L30.9974 50.9898C30.8935 49.2545 31.472 47.6231 32.6288 46.3921C33.7857 45.1611 35.3726 44.4937 37.093 44.4937H117.864C121.409 44.4937 124.479 47.3858 124.701 50.9304L134.001 198.932C134.016 199.051 133.971 199.169 133.882 199.258C133.793 199.347 133.689 199.392 133.571 199.392ZM41.1271 198.531H133.111L123.841 50.9898C123.648 47.8752 120.964 45.3539 117.864 45.3539H37.0782C35.5802 45.3539 34.2158 45.9323 33.2369 46.9853C32.2432 48.0383 31.7538 49.4473 31.8428 50.9453L41.1271 198.531Z" fill="#030047"/>
<path d="M80.8602 51.6572C80.9641 53.3183 79.7034 54.668 78.0275 54.668C76.3664 54.668 74.9426 53.3183 74.8387 51.6572C74.7349 49.9961 75.9956 48.6465 77.6715 48.6465C79.3326 48.6465 80.7564 49.9961 80.8602 51.6572Z" fill="#030047"/>
<path d="M117.953 77.0043C118.161 80.5045 116.945 83.6636 114.794 85.9624C112.644 88.2613 109.559 89.6702 106.059 89.6702H25.5988C18.5985 89.6702 12.5918 84.0047 12.1617 77.0043C11.9541 73.5041 13.1702 70.3302 15.3208 68.0462C17.4713 65.7474 20.5562 64.3384 24.0564 64.3384H104.516C111.502 64.3384 117.523 70.0039 117.953 77.0043Z" fill="white"/>
<path d="M106.059 90.1003H25.5988C18.3908 90.1003 12.1765 84.2419 11.7315 77.0339C11.5239 73.5337 12.6807 70.2263 15.0093 67.7495C17.3378 65.2727 20.5413 63.9082 24.0564 63.9082H104.516C111.724 63.9082 117.953 69.7666 118.383 76.9746C118.591 80.4748 117.434 83.7673 115.106 86.2441C112.777 88.7358 109.559 90.1003 106.059 90.1003ZM24.0415 64.7684C20.7786 64.7684 17.7827 66.0439 15.6322 68.3428C13.4668 70.6416 12.3841 73.7117 12.5918 76.9746C13.007 83.7376 18.8357 89.2401 25.5988 89.2401H106.059C109.321 89.2401 112.317 87.9646 114.483 85.6657C116.648 83.3669 117.731 80.2968 117.538 77.0339C117.123 70.2708 111.279 64.7684 104.516 64.7684H24.0415Z" fill="#030047"/>
<path d="M117.953 77.0043C118.161 80.5045 116.945 83.6636 114.794 85.9624C112.644 88.2613 109.559 89.6702 106.059 89.6702H103.537C96.537 89.6702 90.5303 84.0047 90.1002 77.0043C89.8925 73.5041 91.1087 70.3302 93.2592 68.0462C95.4098 65.7474 98.4947 64.3384 101.995 64.3384H104.516C111.502 64.3384 117.523 70.0039 117.953 77.0043Z" fill="#605EFD"/>
<path d="M106.059 90.1003H103.537C96.3293 90.1003 90.115 84.2419 89.67 77.0339C89.4624 73.5337 90.6192 70.2263 92.9477 67.7495C95.2763 65.2727 98.4798 63.9082 101.995 63.9082H104.516C111.724 63.9082 117.953 69.7666 118.383 76.9746C118.591 80.4748 117.434 83.7673 115.106 86.2441C112.777 88.7358 109.559 90.1003 106.059 90.1003ZM101.98 64.7684C98.7171 64.7684 95.7212 66.0439 93.5707 68.3428C91.4053 70.6416 90.3226 73.7117 90.5154 76.9746C90.9307 83.7376 96.7594 89.2401 103.522 89.2401H106.044C109.307 89.2401 112.303 87.9646 114.468 85.6657C116.633 83.3669 117.716 80.2968 117.523 77.0339C117.108 70.2708 111.264 64.7684 104.501 64.7684H101.98Z" fill="#030047"/>
<path d="M110.093 79.837C108.268 81.7799 105.317 82.0765 102.988 80.7121L100.408 83.4707C99.8887 84.0194 98.9989 84.0194 98.4056 83.4707C97.8272 82.9219 97.7679 82.0321 98.287 81.4833L100.882 78.7247C99.3845 76.4703 99.5031 73.5041 101.313 71.5612C103.463 69.2771 107.171 69.2771 109.588 71.5612C112.021 73.8452 112.243 77.553 110.093 79.837Z" fill="white"/>
<path d="M108.357 78.1906C107.067 79.57 104.828 79.57 103.374 78.1906C101.906 76.8113 101.772 74.5866 103.063 73.2073C104.353 71.828 106.593 71.828 108.046 73.2073C109.514 74.5718 109.648 76.8113 108.357 78.1906Z" fill="#605EFD"/>
<path d="M36.9744 81.1715C36.9447 80.7414 37.0486 80.4002 37.3007 80.1184C37.538 79.8515 37.8495 79.7032 38.2054 79.7032C38.6503 79.7032 38.9766 79.9405 39.1694 80.4299C39.3919 81.0825 40.0297 81.4088 41.0678 81.4088C41.9132 81.4088 42.8031 81.216 43.7523 80.8155C44.7015 80.4151 45.1613 79.8663 45.1168 79.1841C45.0871 78.7095 44.8795 78.3832 44.5087 78.2052C44.1379 78.0272 43.3519 77.9234 42.1357 77.9086C41.2013 77.8938 40.3856 77.6861 39.6737 77.3302C38.9618 76.9594 38.591 76.4699 38.5614 75.847C38.502 74.8088 39.0508 73.8003 40.2076 72.8363C41.3645 71.8722 42.6548 71.3828 44.0489 71.3828C44.5829 71.3828 45.2354 71.5163 45.9918 71.7684C46.7631 72.0354 47.1487 72.332 47.1783 72.6731C47.1932 72.9104 47.0893 73.1774 46.8669 73.4444C46.6444 73.7113 46.3478 73.8448 46.0067 73.8448C45.7397 73.8448 45.3837 73.7855 44.924 73.6817C44.4939 73.5778 44.1379 73.5185 43.8413 73.5185C43.1591 73.5185 42.4916 73.6965 41.8391 74.0376C41.1717 74.3787 40.8602 74.7643 40.8899 75.1796C40.9047 75.5356 41.2606 75.758 41.9429 75.8619L43.7375 75.9508C44.4494 75.9805 45.0723 76.114 45.6211 76.3661C46.1698 76.6034 46.5999 76.9446 46.8965 77.3747C47.1932 77.8048 47.3563 78.3239 47.386 78.9023C47.475 80.3706 46.852 81.5126 45.5321 82.2987C44.1972 83.0847 42.6251 83.4852 40.786 83.4852C39.6144 83.4852 38.6948 83.2627 38.0274 82.8029C37.3748 82.3431 37.0189 81.7944 36.9744 81.1715Z" fill="#605EFD"/>
<path d="M51.4498 72.8215C51.3163 74.097 51.1976 75.15 51.0938 75.9509C51.7316 75.8916 52.7549 75.8026 54.1491 75.6543C55.1428 75.5653 55.7657 75.506 56.0475 75.506C56.3293 75.506 56.5666 75.5949 56.7445 75.7581C56.9225 75.9212 57.0263 76.1437 57.0412 76.4107C57.056 76.7221 56.9818 76.9891 56.8039 77.2412C56.6259 77.4785 56.3293 77.6268 55.8992 77.6565C55.4691 77.6862 54.8165 77.7603 53.9266 77.8493C53.0367 77.9383 51.9837 78.0421 50.7527 78.1311C50.5451 79.6291 50.4561 80.6376 50.4857 81.1715C50.5006 81.3495 50.5302 81.483 50.5747 81.5423C50.6192 81.6016 50.9307 81.6313 51.5239 81.6313H52.132L54.4309 81.5868C54.505 81.5868 54.7423 81.5571 55.1428 81.5126C55.4839 81.4681 55.7805 81.5275 56.003 81.6906C56.2255 81.8537 56.3589 82.0911 56.3738 82.3877C56.4034 82.9513 56.2106 83.322 55.7805 83.5149C55.3504 83.6928 54.1342 83.7818 52.1468 83.7818C50.4709 83.7818 49.4327 83.589 49.0323 83.1886C48.6318 82.7881 48.3945 82.18 48.35 81.3347C48.2907 80.4299 48.4539 78.843 48.8246 76.5738C49.1658 74.5864 49.3141 73.2516 49.2696 72.5842C49.2547 72.0206 49.2844 71.6202 49.3289 71.368C49.3734 71.1307 49.5069 70.9231 49.6997 70.7748C49.8925 70.6116 50.1595 70.5375 50.4857 70.5375C50.723 70.5375 50.9158 70.6116 51.079 70.7451C52.2655 70.4337 53.363 70.2705 54.3567 70.2705C55.1576 70.2705 55.9585 70.3595 56.7742 70.5226C57.5899 70.7006 58.02 71.0269 58.0497 71.5163C58.0645 71.8723 57.9607 72.1837 57.7382 72.4359C57.5009 72.7028 57.2191 72.8215 56.8929 72.8215C56.7742 72.8215 56.6704 72.8067 56.5517 72.777C55.736 72.5545 54.9351 72.4359 54.1342 72.4359C53.3185 72.4507 52.4138 72.5694 51.4498 72.8215Z" fill="#605EFD"/>
<path d="M58.0052 79.2583C57.931 78.1459 58.2128 76.9149 58.8061 75.5653C59.4141 74.2156 60.2744 73.1181 61.3867 72.2579C62.499 71.4125 63.7152 70.9824 65.0055 70.9824C68.1498 70.9824 69.796 72.2727 69.9592 74.8534C70.0927 76.9298 69.4846 78.9023 68.1646 80.7266C66.8446 82.5657 65.1687 83.4852 63.1665 83.4852C61.7278 83.4852 60.5265 83.0848 59.5625 82.2987C58.5984 81.5126 58.0793 80.4893 58.0052 79.2583ZM60.2002 78.8727C60.2447 79.5846 60.571 80.1778 61.1642 80.6376C61.7575 81.0974 62.499 81.3347 63.3741 81.3347C64.6348 81.3347 65.7026 80.6673 66.5777 79.3176C67.4527 77.968 67.8383 76.5886 67.7642 75.1648C67.7197 74.4381 67.4824 73.919 67.0374 73.6076C66.5925 73.2961 65.8658 73.1478 64.8276 73.1478C63.997 73.1478 63.211 73.4592 62.4694 74.0673C61.7278 74.6754 61.1642 75.4615 60.7638 76.4255C60.3485 77.3747 60.1705 78.1904 60.2002 78.8727Z" fill="#605EFD"/>
<path d="M59.8739 187.557H53.7486C52.1172 187.557 50.723 186.237 50.6192 184.605L50.3226 179.726C50.2188 178.094 51.4646 176.774 53.096 176.774H59.2214C60.8528 176.774 62.2469 178.094 62.3508 179.726L62.6474 184.605C62.7364 186.237 61.5054 187.557 59.8739 187.557Z" fill="#0045DF"/>
<path d="M79.1101 187.557H72.9848C71.3533 187.557 69.9592 186.237 69.8554 184.605L68.2833 158.873C68.1794 157.241 69.4253 155.921 71.0567 155.921H77.182C78.8135 155.921 80.2076 157.241 80.3114 158.873L81.8836 184.605C81.9725 186.237 80.7416 187.557 79.1101 187.557Z" fill="#605EFD"/>
<path d="M98.3464 187.556H92.2211C90.5896 187.556 89.1955 186.236 89.0917 184.605L88.3056 171.717C88.2018 170.085 89.4476 168.765 91.0791 168.765H97.2044C98.8358 168.765 100.23 170.085 100.334 171.717L101.12 184.605C101.224 186.236 99.9778 187.556 98.3464 187.556Z" fill="#0045DF"/>
<path d="M117.582 187.557H111.457C109.826 187.557 108.432 186.237 108.328 184.605L106.503 154.824C106.4 153.193 107.645 151.873 109.277 151.873H115.402C117.034 151.873 118.428 153.193 118.532 154.824L120.356 184.605C120.46 186.237 119.214 187.557 117.582 187.557Z" fill="#605EFD"/>
<path d="M52.8736 169.195C52.7846 169.195 52.6808 169.166 52.6067 169.106C52.4139 168.958 52.3842 168.691 52.5325 168.498L71.5017 144.368C71.6352 144.19 71.8874 144.145 72.0802 144.279L92.4435 158.176L110.79 133.274C110.923 133.081 111.205 133.037 111.383 133.185C111.576 133.318 111.62 133.6 111.472 133.778L92.8885 159.006C92.755 159.184 92.488 159.244 92.2952 159.11L71.917 145.213L53.1851 169.032C53.1258 169.136 53.0071 169.195 52.8736 169.195Z" fill="#030047"/>
<path d="M113.578 133.526C113.667 134.876 112.629 135.958 111.294 135.958C109.944 135.958 108.788 134.861 108.713 133.526C108.624 132.191 109.663 131.094 110.997 131.094C112.332 131.094 113.489 132.191 113.578 133.526Z" fill="#030047"/>
<path d="M94.9945 158.843C95.0835 160.193 94.0453 161.275 92.7105 161.275C91.3608 161.275 90.204 160.178 90.1298 158.843C90.0408 157.508 91.079 156.411 92.4138 156.411C93.7635 156.411 94.9203 157.508 94.9945 158.843Z" fill="#030047"/>
<path d="M74.2158 145.287C74.3048 146.637 73.2666 147.72 71.9318 147.72C70.5821 147.72 69.4253 146.622 69.3511 145.287C69.2622 143.952 70.3003 142.855 71.6352 142.855C72.97 142.855 74.1268 143.938 74.2158 145.287Z" fill="#030047"/>
<path d="M55.6619 168.765C55.7508 170.115 54.7127 171.198 53.3778 171.198C52.0282 171.198 50.8713 170.1 50.7972 168.765C50.7082 167.431 51.7464 166.333 53.0812 166.333C54.416 166.333 55.5729 167.416 55.6619 168.765Z" fill="#030047"/>
<path d="M78.7542 134.194H47.0152C45.3096 134.194 43.8562 132.814 43.7523 131.109L41.9281 101.179C41.8243 99.4735 43.1146 98.0942 44.8202 98.0942H76.5592C78.2648 98.0942 79.7182 99.4735 79.822 101.179L81.6463 131.109C81.7501 132.814 80.445 134.194 78.7542 134.194Z" fill="#030047"/>
<path d="M76.4554 126.066H49.4031C49.4031 126.066 53.3779 116.322 56.4776 116.322C58.0201 116.322 59.0582 121.187 60.6155 121.187C62.9885 121.187 63.6559 113.741 66.0141 113.741C69.9296 113.756 76.4554 126.066 76.4554 126.066Z" fill="white"/>
<path d="M56.4628 110.982C56.5517 112.51 57.8717 113.756 59.3994 113.756C60.927 113.756 62.0987 112.51 61.9948 110.982C61.9058 109.455 60.5859 108.209 59.0582 108.209C57.5454 108.224 56.3738 109.455 56.4628 110.982Z" fill="white"/>
<path d="M115.269 112.881H85.8584L85.1761 101.684H114.587L115.269 112.881Z" fill="#CAE8F9"/>
<path d="M117.968 121.009H86.3478L86.0957 116.782H117.716L117.968 121.009Z" fill="#CAE8F9"/>
<path d="M97.6196 128.409H86.8076L86.5406 124.167H97.3675L97.6196 128.409Z" fill="#CAE8F9"/>
<path d="M118.754 138.732C119.125 139.354 119.659 139.977 120.386 140.585C122.996 142.78 129.477 148.52 129.477 148.52L147.734 169.803C150.701 172.992 154.898 174.712 159.244 174.534C161.023 174.46 162.759 174.074 164.375 173.392C165.992 172.71 167.49 171.746 168.795 170.545L183.715 155.951L168.973 143.389L158.22 152.94L141.535 136.329L140.615 135.291L123.278 116.218C122.506 115.372 121.335 115.105 120.326 115.461C119.896 115.61 119.511 115.847 119.184 116.203C118.339 117.122 118.205 118.487 118.858 119.555L123.708 127.4C123.708 127.4 121.32 127.964 121.201 130.293C121.201 130.293 121.186 130.293 121.142 130.293C120.801 130.322 119.08 130.634 118.947 133.333C118.413 133.511 117.123 136.032 118.754 138.732Z" fill="white"/>
<path d="M158.636 174.964C154.379 174.964 150.33 173.199 147.423 170.085L129.166 148.817C128.75 148.446 122.595 143.018 120.104 140.912C119.377 140.304 118.799 139.636 118.383 138.954C117.108 136.833 117.568 134.95 117.82 134.252C117.894 134.03 118.146 133.407 118.532 133.096C118.739 130.723 120.119 130.085 120.801 129.922C121.023 128.409 122.165 127.549 123.055 127.163L118.502 119.762C117.746 118.546 117.894 116.959 118.873 115.891C119.244 115.491 119.689 115.209 120.193 115.031C121.394 114.616 122.744 114.957 123.604 115.906L140.942 134.994L141.861 136.032L158.25 152.317L168.706 143.033C168.869 142.884 169.106 142.884 169.27 143.033L184.012 155.595C184.101 155.669 184.16 155.788 184.16 155.906C184.16 156.025 184.116 156.143 184.027 156.232L169.106 170.826C167.757 172.087 166.229 173.066 164.553 173.763C162.862 174.475 161.083 174.861 159.273 174.935C159.051 174.964 158.843 174.964 158.636 174.964ZM119.125 138.509C119.496 139.117 120.015 139.71 120.667 140.259C123.248 142.439 129.715 148.135 129.774 148.194C129.789 148.209 129.803 148.224 129.818 148.238L148.061 169.521C150.923 172.606 154.987 174.282 159.229 174.104C160.934 174.045 162.61 173.659 164.212 173.007C165.799 172.339 167.238 171.405 168.498 170.233L183.078 155.98L168.973 143.967L158.502 153.266C158.339 153.415 158.072 153.415 157.909 153.251L141.238 136.64L140.304 135.587L122.966 116.499C122.329 115.802 121.35 115.55 120.475 115.862C120.104 115.98 119.778 116.203 119.496 116.485C118.784 117.256 118.665 118.427 119.229 119.317L124.079 127.178C124.153 127.297 124.168 127.445 124.108 127.564C124.049 127.697 123.945 127.786 123.812 127.816C123.723 127.831 121.735 128.335 121.631 130.307C121.617 130.53 121.439 130.723 121.201 130.723C120.905 130.752 119.496 131.019 119.377 133.363C119.362 133.541 119.258 133.689 119.08 133.748C119.006 133.793 118.695 134.193 118.502 134.935C118.339 135.602 118.191 136.967 119.125 138.509Z" fill="#030047"/>
<path d="M125.888 138.064C125.888 138.064 127.594 143.077 122.729 141.164C122.729 141.164 121.246 140.689 118.754 138.732C117.123 136.032 118.413 133.511 118.947 133.333L125.888 138.064Z" fill="white"/>
<path d="M124.612 142.024C124.049 142.024 123.367 141.876 122.581 141.564C122.551 141.549 121.023 141.06 118.502 139.073C118.458 139.043 118.428 138.999 118.398 138.954C117.108 136.833 117.582 134.964 117.835 134.252C117.938 133.986 118.294 133.11 118.828 132.932C118.962 132.888 119.095 132.903 119.214 132.992L126.155 137.723C126.229 137.782 126.288 137.856 126.318 137.945C126.407 138.198 127.134 140.482 126.021 141.549C125.651 141.861 125.191 142.024 124.612 142.024ZM119.08 138.435C121.424 140.274 122.848 140.749 122.862 140.749C124.123 141.253 124.998 141.297 125.413 140.912C125.977 140.363 125.71 138.954 125.532 138.331L118.977 133.852C118.843 134.03 118.65 134.386 118.517 134.92C118.354 135.602 118.205 136.937 119.08 138.435Z" fill="#030047"/>
<path d="M128.676 135.024C128.647 135.024 128.632 135.024 128.617 135.024C126.422 134.965 121.201 130.278 121.201 130.278C121.305 127.949 123.708 127.386 123.708 127.386L129.729 131.627C131.198 132.666 130.486 135.039 128.676 135.024Z" fill="white"/>
<path d="M128.691 135.454C128.676 135.454 128.676 135.454 128.661 135.454C128.632 135.454 128.573 135.454 128.558 135.454C126.318 135.395 121.468 131.093 120.92 130.604C120.831 130.515 120.771 130.396 120.771 130.263C120.875 128.157 122.67 127.193 123.604 126.97C123.723 126.941 123.856 126.97 123.945 127.045L129.967 131.286C130.797 131.88 131.138 132.888 130.827 133.867C130.53 134.831 129.685 135.454 128.691 135.454ZM121.661 130.1C123.204 131.464 127.03 134.549 128.632 134.594H128.691C129.448 134.594 129.878 134.089 130.026 133.615C130.174 133.14 130.13 132.443 129.492 131.983L123.649 127.86C123.144 128.023 121.824 128.602 121.661 130.1Z" fill="#030047"/>
<path d="M127.653 137.693C125.354 139.592 118.947 133.333 118.947 133.333C119.08 130.634 120.816 130.322 121.142 130.292C121.157 130.292 129.937 135.81 127.653 137.693Z" fill="white"/>
<path d="M126.57 138.48C123.693 138.48 119.229 134.208 118.65 133.645C118.561 133.556 118.517 133.437 118.517 133.318C118.68 130.189 120.86 129.892 121.097 129.877C121.186 129.863 121.29 129.892 121.364 129.937C122.076 130.382 128.276 134.342 128.439 136.818C128.469 137.308 128.291 137.723 127.905 138.035C127.549 138.331 127.089 138.48 126.57 138.48ZM119.392 133.155C121.78 135.454 125.947 138.539 127.371 137.352C127.534 137.219 127.608 137.056 127.594 136.848C127.49 135.35 123.589 132.339 121.053 130.723C120.623 130.827 119.555 131.227 119.392 133.155Z" fill="#030047"/>
<path d="M140.63 135.276L138.317 127.089C137.783 125.206 135.855 124.078 133.941 124.538L127.653 126.066C127.015 126.229 126.644 126.911 126.897 127.534C127.49 129.032 129.047 129.922 130.634 129.699L133.808 129.254L133.437 131.079C132.948 133.467 133.333 135.958 134.535 138.079L134.876 138.672" fill="white"/>
<path d="M134.876 139.088C134.727 139.088 134.579 139.014 134.505 138.865L134.164 138.272C132.933 136.062 132.518 133.467 133.022 130.975L133.274 129.744L130.708 130.115C128.914 130.367 127.178 129.373 126.511 127.682C126.348 127.267 126.363 126.807 126.57 126.422C126.778 126.036 127.134 125.74 127.564 125.651L133.852 124.123C135.988 123.604 138.139 124.864 138.732 126.985L141.046 135.172C141.105 135.395 140.971 135.632 140.749 135.706C140.526 135.765 140.289 135.632 140.215 135.41L137.901 127.223C137.427 125.547 135.736 124.553 134.045 124.968L127.757 126.496C127.564 126.54 127.416 126.659 127.327 126.837C127.238 127.015 127.223 127.208 127.297 127.386C127.831 128.706 129.166 129.492 130.575 129.284L133.749 128.839C133.882 128.824 134.03 128.869 134.119 128.973C134.208 129.077 134.253 129.21 134.223 129.358L133.852 131.183C133.393 133.467 133.763 135.854 134.891 137.886L135.232 138.48C135.35 138.687 135.276 138.954 135.069 139.058C135.009 139.058 134.95 139.088 134.876 139.088Z" fill="#030047"/>
<path d="M164.969 142.335L168.973 147.007L173.096 151.813L181.58 161.675L197.345 129.551L188.624 128.29C185.228 127.801 181.758 128.676 178.999 130.708L164.969 142.335Z" fill="#0045DF"/>
<g opacity="0.4">
<path d="M168.973 147.007L173.096 151.813C174.624 151.427 175.751 150.033 175.751 148.402C175.751 146.444 174.164 144.872 172.221 144.872C170.767 144.857 169.522 145.747 168.973 147.007Z" fill="white"/>
</g>
<path d="M181.58 162.106C181.461 162.106 181.342 162.046 181.253 161.957L164.642 142.617C164.568 142.528 164.524 142.41 164.538 142.306C164.553 142.187 164.598 142.083 164.687 142.009L178.702 130.382C178.88 130.233 179.147 130.248 179.31 130.441C179.459 130.619 179.444 130.901 179.251 131.049L165.577 142.395L181.476 160.904L189.218 145.109C189.321 144.901 189.574 144.812 189.796 144.916C190.004 145.02 190.093 145.272 189.989 145.495L181.95 161.868C181.891 162.002 181.757 162.091 181.624 162.106C181.609 162.106 181.594 162.106 181.58 162.106Z" fill="#030047"/>
<path d="M159.6 157.849C159.422 157.849 159.244 157.73 159.184 157.538L157.82 153.044C157.746 152.821 157.879 152.584 158.102 152.51C158.324 152.436 158.561 152.569 158.636 152.792L160 157.286C160.074 157.508 159.941 157.745 159.718 157.819C159.674 157.834 159.629 157.849 159.6 157.849Z" fill="#030047"/>
<path d="M167.193 198.961H222.707L227.453 145.317C227.927 139.888 224.338 134.95 219.029 133.733C219.029 133.733 208.706 131.034 205.191 130.574C202.447 130.218 194.127 129.136 194.127 129.136C189.129 128.987 184.664 132.25 183.3 137.056L174.016 172.725L170.664 185.598L167.193 198.961Z" fill="#0045DF"/>
<path d="M234.32 199.391H22.8254C22.5881 199.391 22.3953 199.199 22.3953 198.961C22.3953 198.724 22.5881 198.531 22.8254 198.531H234.32C234.557 198.531 234.75 198.724 234.75 198.961C234.75 199.199 234.557 199.391 234.32 199.391Z" fill="white"/>
<g opacity="0.4">
<path d="M170.664 185.598C171.45 185.925 172.295 186.088 173.185 186.088C176.893 186.088 179.904 183.092 179.904 179.369C179.904 175.943 177.338 173.11 174.016 172.71L170.664 185.598Z" fill="white"/>
</g>
<g opacity="0.4">
<path d="M200.208 151.917C200.208 153.37 201.379 154.542 202.833 154.542C204.286 154.542 205.458 153.37 205.458 151.917C205.458 150.463 204.286 149.292 202.833 149.292C201.379 149.292 200.208 150.478 200.208 151.917Z" fill="white"/>
</g>
<g opacity="0.4">
<path d="M195.676 148.22C197.536 146.361 197.536 143.347 195.676 141.488C193.817 139.628 190.803 139.628 188.944 141.488C187.084 143.347 187.084 146.361 188.944 148.22C190.803 150.08 193.817 150.08 195.676 148.22Z" fill="white"/>
</g>
<g opacity="0.4">
<path d="M189.618 168.987C189.618 170.278 190.656 171.316 191.947 171.316C193.237 171.316 194.275 170.278 194.275 168.987C194.275 167.697 193.237 166.659 191.947 166.659C190.671 166.659 189.618 167.697 189.618 168.987Z" fill="white"/>
</g>
<g opacity="0.4">
<path d="M187.482 160.845C188.67 160.845 189.633 159.882 189.633 158.694C189.633 157.507 188.67 156.544 187.482 156.544C186.295 156.544 185.332 157.507 185.332 158.694C185.332 159.882 186.295 160.845 187.482 160.845Z" fill="white"/>
</g>
<g opacity="0.4">
<path d="M200.138 188.82C201.418 187.54 201.418 185.465 200.138 184.185C198.858 182.905 196.783 182.905 195.503 184.185C194.223 185.465 194.223 187.54 195.503 188.82C196.783 190.1 198.858 190.1 200.138 188.82Z" fill="white"/>
</g>
<g opacity="0.4">
<path d="M186.874 189.603C186.652 191.071 185.273 192.065 183.804 191.842C182.336 191.62 181.342 190.24 181.565 188.772C181.787 187.304 183.166 186.31 184.635 186.533C186.088 186.755 187.097 188.134 186.874 189.603Z" fill="white"/>
</g>
<g opacity="0.4">
<path d="M209.329 181.268C210.042 181.268 210.619 180.69 210.619 179.977C210.619 179.265 210.042 178.687 209.329 178.687C208.616 178.687 208.039 179.265 208.039 179.977C208.039 180.69 208.616 181.268 209.329 181.268Z" fill="white"/>
</g>
<path d="M167.193 199.392C167.164 199.392 167.119 199.392 167.089 199.377C166.867 199.318 166.719 199.08 166.778 198.858L182.885 136.952C182.944 136.73 183.181 136.581 183.404 136.641C183.626 136.7 183.775 136.937 183.715 137.16L167.608 199.065C167.564 199.258 167.386 199.392 167.193 199.392Z" fill="#030047"/>
<path d="M201.706 139.755C206.022 141.031 213.496 138.598 215.573 134.46L217.976 119.407L203.901 118.265L199.095 129.744C199.095 129.744 194.468 136.537 201.706 139.755Z" fill="white"/>
<path d="M204.257 140.512C203.293 140.512 202.373 140.393 201.572 140.156C201.557 140.156 201.542 140.141 201.513 140.141C199.303 139.162 197.924 137.738 197.419 135.944C196.559 132.933 198.458 129.922 198.71 129.536L203.5 118.087C203.574 117.909 203.738 117.805 203.93 117.82L218.005 118.962C218.124 118.977 218.228 119.036 218.302 119.125C218.376 119.214 218.406 119.333 218.391 119.451L215.988 134.505C215.988 134.549 215.973 134.594 215.944 134.624C214.149 138.228 208.632 140.512 204.257 140.512ZM201.854 139.355C205.858 140.512 213.126 138.257 215.158 134.327L217.486 119.792L204.182 118.71L199.496 129.907C199.481 129.937 199.466 129.967 199.451 129.981C199.436 130.011 197.464 132.948 198.25 135.721C198.695 137.249 199.896 138.48 201.854 139.355Z" fill="#030047"/>
<path d="M217.516 121.112C223.463 115.017 224.902 106.162 224.902 106.162L209.981 93.9116C209.522 94.1193 198.22 95.7062 193.652 108.016C189.915 118.116 196.366 125.576 209.047 125.487" fill="white"/>
<path d="M208.825 125.932C202.062 125.932 196.856 123.812 194.142 119.941C191.858 116.678 191.546 112.51 193.252 107.883C195.996 100.482 201.78 95.4096 209.537 93.6002C209.685 93.5705 209.774 93.5409 209.833 93.5261C209.982 93.4519 210.145 93.4816 210.263 93.5854L225.184 105.836C225.302 105.94 225.362 106.088 225.332 106.236C225.273 106.607 223.804 115.298 217.827 121.409C217.664 121.572 217.397 121.587 217.219 121.409C217.056 121.246 217.041 120.979 217.204 120.801C222.44 115.432 224.145 107.779 224.427 106.325L209.878 94.3863C209.833 94.4011 209.789 94.4159 209.729 94.4159C202.254 96.166 196.693 101.046 194.053 108.165C192.451 112.51 192.718 116.396 194.839 119.422C197.39 123.055 202.343 125.043 208.825 125.043C208.899 125.043 208.988 125.043 209.062 125.043C209.299 125.043 209.492 125.235 209.492 125.473C209.492 125.71 209.299 125.903 209.062 125.903C208.973 125.932 208.899 125.932 208.825 125.932Z" fill="#030047"/>
<path d="M223.967 100.156C223.967 100.156 228.595 100.156 230.004 105.658C231.428 111.16 222.099 116.945 222.099 116.945L216.804 114.127C216.804 114.127 215.706 115.358 214.609 113.889C213.511 112.421 218.02 108.431 216.656 107.082C217.753 104.19 199.867 102.573 200.771 94.0747C201.661 85.6061 212.71 89.3287 217.026 91.4644C225.91 95.8545 223.967 100.156 223.967 100.156Z" fill="#030047"/>
<path d="M206.437 108.076C207.46 108.15 208.335 108.906 208.691 109.974L206.437 108.076Z" fill="white"/>
<path d="M208.676 110.389C208.498 110.389 208.32 110.271 208.261 110.093C207.965 109.188 207.238 108.565 206.392 108.491C206.155 108.476 205.977 108.268 205.992 108.031C206.007 107.794 206.214 107.616 206.452 107.631C207.638 107.72 208.676 108.58 209.077 109.826C209.151 110.048 209.032 110.286 208.795 110.36C208.765 110.389 208.721 110.389 208.676 110.389Z" fill="#030047"/>
<path d="M199.911 107.186C199.511 107.853 198.799 108.179 198.354 107.912C197.909 107.645 197.864 106.874 198.28 106.192C198.695 105.51 199.392 105.183 199.837 105.465C200.282 105.747 200.311 106.503 199.911 107.186Z" fill="#030047"/>
<path d="M206.748 111.501C206.333 112.184 205.636 112.495 205.176 112.228C204.731 111.961 204.687 111.19 205.102 110.508C205.517 109.826 206.214 109.499 206.674 109.781C207.119 110.048 207.164 110.819 206.748 111.501Z" fill="#030047"/>
<path d="M199.6 103.76C200.623 103.834 201.498 104.59 201.854 105.658L199.6 103.76Z" fill="white"/>
<path d="M201.839 106.088C201.661 106.088 201.483 105.969 201.424 105.791C201.127 104.887 200.4 104.264 199.555 104.19C199.318 104.175 199.14 103.967 199.155 103.73C199.17 103.493 199.392 103.315 199.614 103.329C200.801 103.418 201.839 104.279 202.24 105.525C202.314 105.747 202.195 105.984 201.958 106.058C201.928 106.073 201.884 106.088 201.839 106.088Z" fill="#030047"/>
<path d="M216.804 114.127C216.804 114.127 222.47 111.546 224.472 113.222C226.474 114.898 222.573 122.714 219.548 122.462C216.522 122.195 214.713 120.297 214.713 120.297" fill="white"/>
<path d="M219.696 122.892C219.637 122.892 219.577 122.892 219.518 122.877C216.359 122.61 214.49 120.653 214.416 120.578C214.253 120.4 214.268 120.133 214.431 119.97C214.609 119.807 214.876 119.822 215.039 119.985C215.054 120 216.774 121.78 219.592 122.017C221.075 122.15 222.989 119.777 223.967 117.404C224.709 115.595 224.813 114.038 224.205 113.533C222.736 112.302 218.495 113.815 216.982 114.498C216.774 114.601 216.507 114.498 216.418 114.29C216.314 114.067 216.418 113.815 216.626 113.726C217.234 113.445 222.603 111.086 224.754 112.881C225.688 113.667 225.688 115.476 224.754 117.731C223.686 120.341 221.624 122.892 219.696 122.892Z" fill="#030047"/>
<path d="M220.645 118.917C220.541 118.917 220.423 118.873 220.349 118.798C220.185 118.635 220.185 118.353 220.349 118.19C220.719 117.82 221.016 117.36 221.224 116.87C221.327 116.603 221.357 116.411 221.298 116.307C221.253 116.233 221.164 116.173 221.046 116.158C220.912 116.129 220.764 116.158 220.571 116.218C220.289 116.307 220.007 116.455 219.785 116.663C219.607 116.811 219.34 116.796 219.177 116.618C219.029 116.44 219.043 116.173 219.221 116.01C219.533 115.728 219.918 115.521 220.319 115.402C220.645 115.298 220.927 115.283 221.194 115.328C221.565 115.387 221.876 115.61 222.054 115.906C222.247 116.262 222.247 116.677 222.039 117.211C221.802 117.805 221.431 118.368 220.986 118.813C220.853 118.887 220.749 118.917 220.645 118.917Z" fill="#030047"/>
<path d="M201.557 109.736C200.92 110.686 200.267 111.62 199.629 112.569C199.244 113.133 198.843 113.726 198.799 114.393C198.754 115.061 199.155 115.832 199.911 116.069" fill="white"/>
<path d="M199.896 116.514C199.852 116.514 199.807 116.514 199.763 116.499C198.754 116.173 198.295 115.179 198.354 114.379C198.413 113.578 198.873 112.925 199.259 112.347L201.187 109.514C201.32 109.321 201.587 109.262 201.78 109.395C201.973 109.529 202.032 109.796 201.899 109.988L199.97 112.821C199.614 113.34 199.244 113.874 199.214 114.438C199.184 114.898 199.451 115.491 200.03 115.684C200.252 115.758 200.371 115.995 200.312 116.218C200.252 116.396 200.089 116.514 199.896 116.514Z" fill="#030047"/>
<g opacity="0.4">
<path d="M177.516 140.912C177.516 141.787 176.804 142.484 175.944 142.484C175.069 142.484 174.372 141.772 174.372 140.912C174.372 140.037 175.083 139.34 175.944 139.34C176.819 139.34 177.516 140.052 177.516 140.912Z" fill="white"/>
</g>
<path d="M209.892 103.137C207.193 102.143 199.822 100.467 198.146 98.1238C196.47 95.7805 195.936 92.4731 197.405 89.9814C197.983 89.0174 198.917 88.172 200.03 88.083C200.89 88.0237 201.72 88.4093 202.581 88.4093C203.99 88.3945 205.146 87.3118 206.155 86.3329C207.164 85.3392 208.38 84.3159 209.789 84.39C211.153 84.479 212.221 85.5914 212.918 86.763C213.6 87.9347 214.075 89.2695 214.965 90.2929C215.855 91.3162 217.1 91.954 218.346 92.4731C219.592 92.9922 220.897 93.4223 222.054 94.1194C223.211 94.8164 224.234 95.8546 224.59 97.1598C224.931 98.4649 224.427 100.052 223.211 100.645" fill="#030047"/>
<g opacity="0.4">
<path d="M228.535 146.474C228.224 147.26 227.349 147.631 226.563 147.334C225.777 147.023 225.406 146.148 225.703 145.361C226.014 144.575 226.889 144.205 227.675 144.501C228.461 144.813 228.847 145.688 228.535 146.474Z" fill="white"/>
</g>
<g opacity="0.4">
<path d="M213.556 195.343C216.324 195.343 218.569 193.098 218.569 190.33C218.569 187.561 216.324 185.317 213.556 185.317C210.787 185.317 208.543 187.561 208.543 190.33C208.543 193.098 210.787 195.343 213.556 195.343Z" fill="white"/>
</g>
<g opacity="0.4">
<path d="M215.721 167.534C215.721 168.736 214.742 169.714 213.541 169.714C212.34 169.714 211.361 168.736 211.361 167.534C211.361 166.333 212.34 165.354 213.541 165.354C214.742 165.354 215.721 166.333 215.721 167.534Z" fill="white"/>
</g>
<path d="M172.562 155.684L172.458 155.981L172.369 155.847L172.562 155.684Z" fill="white"/>
<path d="M172.458 156.411C172.325 156.411 172.191 156.352 172.117 156.233L172.013 156.099C171.88 155.921 171.91 155.654 172.088 155.521L172.28 155.358C172.429 155.239 172.636 155.224 172.799 155.328C172.963 155.432 173.022 155.64 172.963 155.818L172.859 156.114C172.799 156.263 172.681 156.381 172.518 156.396C172.503 156.411 172.488 156.411 172.458 156.411Z" fill="#030047"/>
<path d="M233.979 164.805L223.33 191.22C221.298 196.262 216.403 199.57 210.96 199.57C208.914 199.57 206.911 199.095 205.117 198.22C203.322 197.345 201.721 196.07 200.46 194.453L180.868 167.46C180.868 167.46 171.331 163.203 168.958 160.489C166.585 157.775 165.547 155.773 166.289 154.186C167.03 152.599 169.136 153.474 169.136 153.474C169.136 153.474 167.861 150.478 169.121 149.04C170.323 147.66 172.043 148.965 172.177 149.084C172.088 148.921 170.768 146.518 172.117 145.228C173.511 143.893 175.202 145.124 175.202 145.124C175.202 145.08 175.187 145.05 175.187 145.02C174.817 142.944 177.56 141.832 178.791 143.552L184.323 150.523C183.315 147.631 183.938 144.16 184.679 143.76C188.788 141.535 191.962 154.453 191.962 154.453L208.217 170.931L212.458 159.496L233.979 164.805Z" fill="white"/>
<path d="M210.975 200C208.899 200 206.808 199.525 204.939 198.606C203.07 197.701 201.409 196.351 200.134 194.705L180.601 167.786C179.488 167.282 170.946 163.381 168.647 160.741C165.947 157.671 165.132 155.654 165.918 153.978C166.452 152.836 167.579 152.673 168.484 152.821C168.172 151.754 167.816 149.87 168.825 148.728C169.581 147.853 170.545 147.838 171.346 148.105C170.99 146.948 170.99 145.702 171.85 144.887C172.814 143.967 173.956 144.056 174.757 144.368C174.846 143.537 175.38 142.796 176.211 142.454C177.115 142.069 178.361 142.187 179.147 143.27L183.478 148.728C183.152 146.296 183.626 143.804 184.472 143.344C185.169 142.959 185.895 142.929 186.622 143.255C189.826 144.679 192.065 153.059 192.347 154.201L208.053 170.115L212.058 159.318C212.132 159.11 212.355 158.991 212.562 159.051L234.082 164.375C234.201 164.405 234.305 164.479 234.364 164.598C234.423 164.701 234.423 164.835 234.379 164.953L223.73 191.368C221.624 196.618 216.611 200 210.975 200ZM167.905 153.652C167.431 153.652 166.941 153.8 166.674 154.364C166.066 155.669 166.867 157.464 169.27 160.193C171.554 162.803 180.942 167.015 181.031 167.06C181.105 167.089 181.164 167.134 181.209 167.193L200.801 194.186C201.987 195.714 203.56 196.974 205.31 197.82C207.06 198.68 209.017 199.125 210.96 199.125C216.255 199.125 220.957 195.951 222.929 191.042L233.385 165.087L212.71 159.97L208.602 171.049C208.558 171.183 208.439 171.286 208.291 171.316C208.157 171.346 207.994 171.301 207.89 171.197L191.635 154.72C191.576 154.661 191.546 154.601 191.531 154.527C190.908 151.991 188.743 145.139 186.266 144.041C185.792 143.834 185.332 143.849 184.872 144.101C184.398 144.397 183.745 147.556 184.724 150.345C184.798 150.537 184.709 150.76 184.531 150.864C184.353 150.968 184.116 150.923 183.982 150.76L178.45 143.789C177.901 143.018 177.071 143.018 176.537 143.24C176.018 143.463 175.454 144.027 175.617 144.916C175.632 144.976 175.632 145.02 175.647 145.05C175.662 145.213 175.588 145.391 175.439 145.465C175.291 145.554 175.113 145.539 174.965 145.435C174.905 145.391 173.541 144.442 172.429 145.495C171.39 146.489 172.355 148.446 172.562 148.832C172.666 149.01 172.621 149.232 172.458 149.366C172.295 149.499 172.073 149.499 171.924 149.381C171.776 149.262 170.397 148.209 169.448 149.292C168.558 150.3 169.21 152.51 169.537 153.281C169.611 153.444 169.566 153.622 169.448 153.756C169.329 153.874 169.136 153.919 168.973 153.845C168.943 153.845 168.454 153.652 167.905 153.652Z" fill="#030047"/>
<path d="M175.202 145.125C175.202 145.125 176.596 147.69 179.236 150.108L175.202 145.125Z" fill="white"/>
<path d="M179.251 150.538C179.147 150.538 179.043 150.493 178.954 150.419C176.285 147.987 174.891 145.421 174.831 145.317C174.713 145.109 174.802 144.843 175.009 144.739C175.217 144.62 175.484 144.709 175.588 144.917C175.603 144.946 176.982 147.453 179.533 149.796C179.711 149.959 179.726 150.226 179.563 150.404C179.474 150.493 179.355 150.538 179.251 150.538Z" fill="#030047"/>
<path d="M172.206 149.069C172.206 149.069 173.882 151.769 176.567 153.786L172.206 149.069Z" fill="white"/>
<path d="M176.567 154.216C176.478 154.216 176.389 154.186 176.314 154.127C173.585 152.08 171.91 149.411 171.835 149.292C171.717 149.084 171.776 148.832 171.969 148.699C172.176 148.58 172.429 148.639 172.562 148.832C172.577 148.862 174.223 151.487 176.819 153.43C177.011 153.578 177.041 153.845 176.908 154.023C176.819 154.157 176.7 154.216 176.567 154.216Z" fill="#030047"/>
<path d="M169.136 153.475C169.136 153.475 169.64 154.973 173.022 157.524L169.136 153.475Z" fill="white"/>
<path d="M173.022 157.954C172.933 157.954 172.844 157.924 172.77 157.865C169.329 155.269 168.765 153.682 168.736 153.608C168.662 153.385 168.78 153.133 169.003 153.059C169.225 152.985 169.462 153.104 169.537 153.326C169.551 153.356 170.115 154.794 173.274 157.167C173.467 157.316 173.497 157.583 173.363 157.761C173.289 157.894 173.155 157.954 173.022 157.954Z" fill="#030047"/>
<path d="M210.619 161.261L218.851 165.087L228.091 169.388L233.815 172.058L237.879 159.214C237.939 158.991 237.998 158.769 238.057 158.532C240.386 149.173 235.061 139.577 226.014 136.225L220.126 134.03L210.619 161.261Z" fill="#0045DF"/>
<g opacity="0.4">
<path d="M218.954 164.79C218.91 164.894 218.88 164.998 218.851 165.102L228.09 169.403C228.254 169.136 228.402 168.854 228.521 168.557C229.559 165.917 228.268 162.936 225.628 161.898C222.974 160.845 219.993 162.15 218.954 164.79Z" fill="white"/>
</g>
<g opacity="0.4">
<path d="M218.91 151.546C218.406 152.807 219.029 154.231 220.289 154.735C221.55 155.239 222.974 154.616 223.478 153.356C223.982 152.095 223.359 150.671 222.099 150.167C220.823 149.678 219.399 150.286 218.91 151.546Z" fill="white"/>
</g>
<g opacity="0.4">
<path d="M235.521 155.476C235.017 156.767 233.548 157.405 232.258 156.885C230.968 156.381 230.33 154.913 230.849 153.623C231.368 152.332 232.822 151.694 234.112 152.214C235.387 152.718 236.025 154.186 235.521 155.476Z" fill="white"/>
</g>
<path d="M233.815 172.503C233.756 172.503 233.697 172.488 233.637 172.458L210.441 161.646C210.234 161.557 210.145 161.32 210.219 161.112L216.789 143.226C216.863 143.003 217.115 142.885 217.338 142.974C217.56 143.063 217.679 143.3 217.59 143.522L211.153 161.038L233.548 171.464L237.464 159.08C237.538 158.858 237.775 158.724 237.998 158.799C238.22 158.873 238.354 159.11 238.28 159.332L234.216 172.176C234.186 172.295 234.097 172.384 233.979 172.443C233.919 172.488 233.86 172.503 233.815 172.503Z" fill="#030047"/>
<path d="M211.376 174.119C211.272 174.119 211.168 174.09 211.094 174.015L207.935 171.242C207.757 171.079 207.742 170.812 207.89 170.634C208.053 170.456 208.32 170.441 208.498 170.589L211.657 173.363C211.835 173.526 211.85 173.793 211.702 173.971C211.613 174.075 211.494 174.119 211.376 174.119Z" fill="#030047"/>
<path d="M202.67 120.46C202.462 120.46 202.254 120.445 202.047 120.385C201.809 120.341 201.676 120.104 201.72 119.881C201.765 119.644 202.002 119.51 202.225 119.555C203.055 119.733 203.99 119.362 204.464 118.65C204.598 118.457 204.865 118.398 205.057 118.531C205.25 118.665 205.31 118.932 205.176 119.125C204.627 119.97 203.648 120.46 202.67 120.46Z" fill="#030047"/>
<path d="M86.2143 3.14423L86.2439 0.0593252L80.3262 0L80.2966 3.08491C78.5317 3.44086 76.8854 4.10827 75.4171 5.04264L73.2665 2.83278L69.0396 6.97071L71.1902 9.18057C70.2261 10.634 69.5142 12.2655 69.1286 14.0156L66.0437 13.9859L65.9844 19.9036L69.0693 19.9333C69.4252 21.6982 70.0926 23.3445 71.027 24.8128L68.8172 26.9633L72.9551 31.1902L75.1649 29.0248C76.6184 29.9889 78.2499 30.7008 80 31.0864L79.9703 34.1713L85.888 34.2306L85.9176 31.1457C87.6826 30.7898 89.3288 30.1224 90.7971 29.188L92.9477 31.3979L97.1746 27.2599L95.0092 25.0649C95.9732 23.6263 96.6852 21.9948 97.0708 20.2299L100.156 20.2595L100.215 14.3419L97.1449 14.327C96.789 12.5621 96.1216 10.9158 95.1872 9.44753L97.3971 7.28217L93.2591 3.05525L91.0493 5.22062M83.9451 24.2343C79.2584 24.7683 75.3578 20.7935 76.0103 16.1216C76.4404 12.9329 79.0507 10.3819 82.2543 10.026C86.941 9.49203 90.8416 13.4668 90.189 18.1387C89.7441 21.3126 87.1486 23.8636 83.9451 24.2343Z" fill="#0045DF"/>
</g>
<defs>
<clipPath id="clip0_39_17876">
<rect width="238.591" height="200" fill="white"/>
</clipPath>
</defs>
</svg>
