<svg width="269" height="200" viewBox="0 0 269 200" fill="none" xmlns="http://www.w3.org/2000/svg">
<g clip-path="url(#clip0_39_16906)">
<path d="M268.369 200H30.0016C29.7328 200 29.5114 199.779 29.5114 199.51C29.5114 199.241 29.7328 199.02 30.0016 199.02H268.369C268.638 199.02 268.86 199.241 268.86 199.51C268.86 199.779 268.638 200 268.369 200Z" fill="white"/>
<path d="M150.957 108.683C159.465 101.076 167.12 92.1083 171.058 81.3856C174.996 70.6786 174.743 57.9948 168.385 48.5056C162.423 39.6174 152.159 34.6989 142.069 31.1721C120.291 23.5649 96.9318 20.5442 73.9364 22.363C59.0543 23.5491 43.9032 26.9178 31.7413 35.5845C20.4808 43.6029 12.3992 56.0337 9.94782 69.6348C7.48064 83.236 10.7386 97.8177 18.9783 108.92C27.8823 120.892 42.1161 128.373 56.8876 130.476C71.659 132.595 86.8733 129.654 100.554 123.691" fill="#1B2A48"/>
<path d="M150.957 109.173C150.83 109.173 150.688 109.126 150.593 109.015C150.419 108.809 150.435 108.509 150.625 108.335C151.589 107.465 152.554 106.595 153.456 105.725C153.645 105.536 153.962 105.552 154.136 105.741C154.325 105.931 154.31 106.247 154.12 106.421C153.203 107.291 152.254 108.177 151.273 109.047C151.178 109.126 151.068 109.173 150.957 109.173Z" fill="#030047"/>
<path d="M66.7405 131.647C66.4716 131.647 66.2502 131.425 66.2502 131.156C66.2502 130.887 66.4716 130.666 66.7405 130.666C69.2551 130.666 71.833 130.524 74.4109 130.255C74.6798 130.223 74.917 130.413 74.9486 130.682C74.9803 130.951 74.7905 131.188 74.5216 131.22C71.8963 131.504 69.2868 131.631 66.7405 131.647ZM59.0227 131.235C59.0068 131.235 58.991 131.235 58.9752 131.235C58.2477 131.156 57.536 131.061 56.8085 130.967C54.9581 130.698 53.1077 130.35 51.289 129.923C51.0359 129.859 50.862 129.606 50.9252 129.338C50.9885 129.085 51.2415 128.911 51.5104 128.974C53.2975 129.401 55.1321 129.749 56.9509 130.002C57.6625 130.097 58.3742 130.192 59.0859 130.271C59.3548 130.302 59.5446 130.54 59.5129 130.808C59.4813 131.046 59.2599 131.235 59.0227 131.235ZM82.0971 130.049C81.8757 130.049 81.6701 129.891 81.6227 129.67C81.5752 129.401 81.7334 129.148 82.0023 129.1C84.4694 128.594 86.9841 127.977 89.4671 127.234C89.7201 127.155 89.989 127.297 90.068 127.566C90.1471 127.819 90.0048 128.088 89.7359 128.167C87.2371 128.911 84.6908 129.543 82.192 130.049C82.1762 130.049 82.1446 130.049 82.0971 130.049ZM43.9981 127.693C43.9349 127.693 43.8874 127.677 43.8242 127.661C41.3728 126.744 38.9847 125.684 36.7073 124.482C36.4701 124.356 36.3752 124.071 36.5017 123.834C36.6282 123.597 36.9129 123.502 37.1501 123.628C39.3959 124.814 41.7524 125.858 44.1563 126.76C44.4093 126.855 44.5359 127.123 44.441 127.376C44.3777 127.566 44.2037 127.693 43.9981 127.693ZM30.3654 120.481C30.2705 120.481 30.1756 120.449 30.0807 120.386C27.9456 118.868 25.9213 117.191 24.0709 115.404C23.8811 115.215 23.8653 114.914 24.0551 114.724C24.2449 114.534 24.5454 114.519 24.7351 114.708C26.5539 116.448 28.5308 118.093 30.6342 119.595C30.8556 119.753 30.9031 120.054 30.7449 120.275C30.6659 120.418 30.5077 120.481 30.3654 120.481ZM19.2631 109.79C19.1207 109.79 18.9784 109.727 18.8835 109.6C18.7886 109.474 18.6779 109.331 18.583 109.205C17.1438 107.259 15.8311 105.188 14.6766 103.021C14.5501 102.784 14.645 102.499 14.8822 102.372C15.1194 102.246 15.4041 102.341 15.5306 102.578C16.6535 104.697 17.9504 106.738 19.3579 108.635L19.6426 109.015C19.8008 109.221 19.7691 109.537 19.5477 109.695C19.4686 109.758 19.3738 109.79 19.2631 109.79ZM159.165 100.981C159.054 100.981 158.944 100.933 158.849 100.854C158.643 100.68 158.627 100.364 158.801 100.174C160.557 98.1973 162.17 96.1729 163.609 94.1802C163.767 93.9588 164.068 93.9113 164.289 94.0695C164.511 94.2276 164.558 94.5281 164.4 94.7495C162.945 96.7739 161.316 98.8141 159.529 100.823C159.434 100.933 159.307 100.981 159.165 100.981ZM12.0197 96.1887C11.8141 96.1887 11.6401 96.0622 11.561 95.8566C10.707 93.4211 10.0427 90.8748 9.55247 88.3127C9.50503 88.0439 9.67899 87.7908 9.93204 87.7434C10.2009 87.6959 10.4539 87.8699 10.5014 88.1229C10.9758 90.6376 11.6401 93.1206 12.4625 95.5245C12.5574 95.7775 12.415 96.0464 12.162 96.1413C12.1304 96.1887 12.0671 96.1887 12.0197 96.1887ZM168.101 88.4076C168.022 88.4076 167.942 88.3918 167.879 88.3443C167.642 88.2178 167.563 87.9173 167.689 87.6959C168.828 85.5767 169.809 83.3942 170.599 81.2275C170.663 81.0535 170.726 80.8795 170.789 80.6898C170.884 80.4367 171.153 80.3102 171.406 80.3893C171.659 80.4842 171.786 80.753 171.706 81.0061C171.643 81.1958 171.58 81.3698 171.517 81.5438C170.71 83.7421 169.714 85.9721 168.543 88.1229C168.449 88.3127 168.275 88.4076 168.101 88.4076ZM9.1729 81.0377C8.91986 81.0377 8.69845 80.8321 8.68263 80.5791C8.651 79.9306 8.651 79.2822 8.651 78.6338C8.651 76.6727 8.76171 74.7116 8.98312 72.7821C9.01475 72.5133 9.25198 72.3393 9.52084 72.3551C9.7897 72.3867 9.97948 72.624 9.94785 72.8928C9.72644 74.7907 9.61573 76.7201 9.61573 78.6338C9.61573 79.2664 9.63155 79.899 9.64736 80.5316C9.66318 80.8005 9.44176 81.0219 9.18872 81.0377H9.1729ZM173.146 73.8417C173.114 73.8417 173.098 73.8417 173.067 73.8417C172.798 73.7943 172.624 73.5571 172.671 73.2882C173.003 71.169 173.177 69.0497 173.177 66.9621C173.177 66.5351 173.177 66.1081 173.162 65.6811C173.146 65.4122 173.367 65.1908 173.636 65.175C173.905 65.175 174.126 65.3806 174.142 65.6494C174.158 66.0923 174.158 66.5351 174.158 66.9621C174.158 69.0972 173.984 71.2797 173.636 73.4464C173.573 73.6836 173.367 73.8417 173.146 73.8417ZM10.9442 65.7285C10.8968 65.7285 10.8651 65.7285 10.8177 65.7127C10.5646 65.6494 10.4065 65.3806 10.4856 65.1117C11.1656 62.6287 12.0513 60.1615 13.0951 57.7576C13.2058 57.5204 13.4905 57.4097 13.7277 57.5046C13.9649 57.6153 14.0756 57.8999 13.9807 58.1372C12.9528 60.4778 12.0829 62.9134 11.4187 65.3489C11.3396 65.5862 11.1498 65.7285 10.9442 65.7285ZM172.561 58.5009C172.339 58.5009 172.149 58.3586 172.086 58.1372C171.453 55.6225 170.52 53.2344 169.334 51.0519C169.208 50.8147 169.287 50.53 169.524 50.4035C169.761 50.277 170.046 50.3561 170.172 50.5933C171.39 52.8391 172.355 55.3062 173.003 57.8999C173.067 58.153 172.908 58.4218 172.655 58.4851C172.64 58.4851 172.608 58.5009 172.561 58.5009ZM17.1438 51.6213C17.0489 51.6213 16.9698 51.5896 16.8908 51.5422C16.6693 51.3999 16.5903 51.0994 16.7326 50.878C18.1085 48.6796 19.6426 46.5604 21.319 44.5677C21.493 44.3621 21.7935 44.3304 21.9991 44.5044C22.2047 44.6784 22.2363 44.9789 22.0624 45.1845C20.4176 47.1297 18.9151 49.2174 17.555 51.384C17.4601 51.5422 17.302 51.6213 17.1438 51.6213ZM165.238 45.0579C165.112 45.0579 164.985 45.0105 164.89 44.8998C163.23 43.1285 161.284 41.4679 159.118 39.9338C158.896 39.7756 158.849 39.4751 159.007 39.2537C159.165 39.0323 159.465 38.9849 159.687 39.143C161.917 40.7087 163.925 42.4326 165.618 44.2355C165.807 44.4253 165.792 44.7416 165.602 44.9156C165.475 45.0263 165.349 45.0579 165.238 45.0579ZM27.06 39.8073C26.9335 39.8073 26.7911 39.7598 26.6962 39.6491C26.5223 39.4435 26.5381 39.143 26.7279 38.9691C28.2303 37.6248 29.8277 36.3437 31.4566 35.1892C31.9311 34.8571 32.4214 34.525 32.8958 34.1928C33.1172 34.0505 33.4177 34.0979 33.5601 34.3194C33.7024 34.5408 33.655 34.8413 33.4335 34.9836C32.9591 35.2999 32.4846 35.632 32.0102 35.9642C30.4128 37.1029 28.8471 38.3523 27.3763 39.6807C27.2972 39.7756 27.1707 39.8073 27.06 39.8073ZM152.728 36.0907C152.649 36.0907 152.586 36.0749 152.507 36.0432C150.372 34.9678 148.063 33.9556 145.469 32.9592C145.216 32.8644 145.089 32.5797 145.2 32.3266C145.295 32.0736 145.58 31.9471 145.833 32.0578C148.458 33.07 150.783 34.0979 152.95 35.1892C153.187 35.3157 153.282 35.6004 153.171 35.8376C153.076 35.9958 152.902 36.0907 152.728 36.0907ZM39.8704 31.2354C39.6964 31.2354 39.5224 31.1405 39.4433 30.9665C39.3326 30.7293 39.4275 30.4446 39.6648 30.3181C41.9263 29.211 44.3303 28.183 46.8291 27.2816C47.0821 27.1867 47.351 27.329 47.4459 27.5662C47.5408 27.8193 47.3984 28.0881 47.1612 28.183C44.694 29.0687 42.3217 30.0809 40.0918 31.1721C40.0127 31.2196 39.9494 31.2354 39.8704 31.2354ZM138.352 30.413C138.305 30.413 138.257 30.413 138.21 30.3972C135.774 29.6064 133.291 28.8631 130.824 28.1989C130.571 28.1356 130.413 27.8667 130.492 27.5979C130.555 27.3448 130.824 27.1867 131.093 27.2657C133.576 27.9458 136.075 28.6891 138.526 29.4799C138.779 29.559 138.921 29.8278 138.842 30.0809C138.747 30.2865 138.558 30.413 138.352 30.413ZM123.438 26.3485C123.407 26.3485 123.375 26.3485 123.328 26.3326C120.829 25.7791 118.282 25.273 115.768 24.8302C115.499 24.7828 115.325 24.5297 115.372 24.2767C115.42 24.0078 115.673 23.8497 115.926 23.8813C118.456 24.3241 121.019 24.8302 123.533 25.3995C123.786 25.4628 123.96 25.7159 123.897 25.9689C123.849 26.2061 123.66 26.3485 123.438 26.3485ZM54.3888 25.9531C54.1674 25.9531 53.9776 25.8107 53.9143 25.5893C53.8511 25.3363 54.0092 25.0674 54.2623 25.0042C56.682 24.3874 59.2441 23.8338 61.8694 23.3752C62.1383 23.3436 62.3755 23.5017 62.4229 23.7706C62.4704 24.0394 62.2964 24.2767 62.0276 24.3241C59.4339 24.7828 56.9034 25.3205 54.4995 25.9373C54.4679 25.9531 54.4204 25.9531 54.3888 25.9531ZM108.192 23.6915C108.177 23.6915 108.145 23.6915 108.129 23.6915C105.583 23.3594 103.005 23.0905 100.459 22.8849C100.19 22.8691 100 22.6319 100.016 22.363C100.032 22.0942 100.269 21.8886 100.538 21.9202C103.1 22.1258 105.694 22.3946 108.256 22.7268C108.524 22.7584 108.714 22.9956 108.667 23.2645C108.651 23.5017 108.43 23.6915 108.192 23.6915ZM69.6031 23.2645C69.3658 23.2645 69.1444 23.0747 69.1286 22.8375C69.097 22.5686 69.2868 22.3314 69.5556 22.2998C70.9632 22.1416 72.4182 22.0151 73.889 21.8886C75.0119 21.7937 76.1506 21.7146 77.2893 21.6513C77.5582 21.6355 77.7796 21.8411 77.7954 22.11C77.8112 22.3788 77.6056 22.6002 77.3367 22.6161C76.2139 22.6793 75.091 22.7584 73.9681 22.8533C72.5131 22.964 71.0581 23.1063 69.6505 23.2645C69.6505 23.2487 69.6347 23.2645 69.6031 23.2645ZM92.7883 22.4421H92.7724C90.2262 22.3472 87.6325 22.3156 85.0546 22.3472C84.7857 22.3472 84.5643 22.1416 84.5643 21.8727C84.5643 21.6039 84.7699 21.3825 85.0388 21.3825C87.6167 21.3508 90.2262 21.3825 92.7883 21.4774C93.0571 21.4932 93.2627 21.7146 93.2469 21.9834C93.2627 22.2365 93.0413 22.4421 92.7883 22.4421Z" fill="#030047"/>
<path d="M96.9793 125.653C96.7895 125.653 96.5997 125.542 96.5365 125.352C96.4416 125.099 96.5681 124.83 96.8053 124.72C97.9914 124.261 99.1776 123.771 100.364 123.249C100.601 123.138 100.886 123.249 100.996 123.502C101.107 123.739 100.996 124.024 100.743 124.135C99.5572 124.656 98.3394 125.147 97.1532 125.621C97.09 125.637 97.0267 125.653 96.9793 125.653Z" fill="#030047"/>
<path d="M154.23 199.209H57.3777L46.3229 71.1528C45.5796 61.8692 51.9373 54.3569 60.525 54.3569H126.269C134.857 54.3569 142.416 61.885 143.16 71.1528L154.23 199.209Z" fill="white"/>
<path d="M154.231 199.684H57.3778C57.1247 199.684 56.9191 199.494 56.9033 199.241L45.8484 71.1846C45.4689 66.3768 46.9713 61.7271 49.992 58.4533C52.7281 55.48 56.4763 53.8511 60.525 53.8511H126.269C135.094 53.8511 142.891 61.5847 143.65 71.1055L154.705 199.162C154.721 199.304 154.673 199.431 154.578 199.526C154.484 199.636 154.357 199.684 154.231 199.684ZM57.8206 198.719H153.709L142.701 71.1846C141.974 62.1541 134.62 54.8158 126.285 54.8158H60.525C56.7452 54.8158 53.25 56.3341 50.6879 59.1176C47.857 62.1857 46.4336 66.5666 46.7974 71.1055L57.8206 198.719Z" fill="#030047"/>
<path d="M102.91 153.867C94.512 153.867 87.0946 147.05 86.3671 138.652L82.2551 91.3647C81.5276 82.9668 87.7431 76.1504 96.141 76.1504C104.539 76.1504 111.956 82.9668 112.684 91.3647L116.796 138.652C117.539 147.05 111.324 153.867 102.91 153.867Z" fill="#030047"/>
<path d="M113.144 150.373C118.708 144.562 118.078 134.93 111.737 128.859C105.397 122.788 95.7466 122.577 90.183 128.388C84.6194 134.198 85.2492 143.83 91.5897 149.901C97.9302 155.972 107.58 156.183 113.144 150.373Z" fill="#0045DF"/>
<path d="M85.181 63.4036C85.2917 64.6214 84.3744 65.6177 83.1566 65.6177C81.9389 65.6177 80.8634 64.6214 80.7527 63.4036C80.642 62.1858 81.5593 61.1895 82.7771 61.1895C83.9948 61.2053 85.0703 62.1858 85.181 63.4036Z" fill="#030047"/>
<path d="M104.223 65.2064H88.8185C87.9013 65.2064 87.0947 64.4631 87.0156 63.5458L86.9682 63.0239C86.8891 62.1066 87.5692 61.3633 88.4706 61.3633H103.875C104.792 61.3633 105.599 62.1066 105.678 63.0239L105.725 63.5458C105.82 64.4631 105.14 65.2064 104.223 65.2064Z" fill="#030047"/>
<g opacity="0.4">
<path d="M178.444 193.421C179.833 193.421 180.958 192.295 180.958 190.906C180.958 189.517 179.833 188.392 178.444 188.392C177.055 188.392 175.929 189.517 175.929 190.906C175.929 192.295 177.055 193.421 178.444 193.421Z" fill="white"/>
</g>
<path d="M245.674 96.3465C242.907 105.045 253.376 111.703 256.286 120.607C259.197 129.527 260.999 141.61 241.594 140.819C222.173 140.044 219.01 133.07 220.892 116.78C222.79 100.474 228.246 94.4961 228.246 94.4961" fill="#030047"/>
<path d="M204.744 58.2002C204.744 58.2002 195.255 60.6674 192.472 66.9619C189.673 73.2563 195.619 87.411 186.082 95.0023C176.562 102.594 159.877 118.583 176.166 130.792C192.456 143.002 218.077 116.258 218.077 116.258L218.33 90.8904L204.744 58.2002Z" fill="#030047"/>
<path d="M137.071 118.266L132.611 114.17L110.817 89.8303C109.853 88.7391 108.366 88.4069 107.085 88.834C106.547 89.0079 106.041 89.3242 105.63 89.7671C104.555 90.9216 104.365 92.6613 105.187 94.0056L111.26 104.001C111.26 104.001 108.224 104.681 108.066 107.638C108.066 107.638 108.05 107.638 107.987 107.638C107.56 107.67 105.377 108.05 105.171 111.466C104.491 111.687 102.815 114.866 104.871 118.314C105.33 119.104 105.409 120.196 106.326 120.971C109.616 123.77 116.416 130.713 116.416 130.713L120.575 135.03" fill="white"/>
<path d="M120.576 135.537C120.449 135.537 120.322 135.489 120.228 135.394L116.068 131.077C116.005 131.013 109.236 124.118 106.01 121.366C105.314 120.765 105.045 120.053 104.808 119.405C104.697 119.105 104.586 118.82 104.444 118.583C102.847 115.91 103.448 113.553 103.78 112.668C103.985 112.13 104.317 111.529 104.697 111.213C104.966 108.16 106.816 107.417 107.607 107.243C107.892 105.282 109.378 104.207 110.517 103.748L104.776 94.2587C103.843 92.7247 104.049 90.7478 105.282 89.4351C105.757 88.9448 106.31 88.5811 106.943 88.3755C108.461 87.8694 110.122 88.3122 111.181 89.4983L132.975 113.822L137.403 117.887C137.593 118.061 137.609 118.377 137.435 118.567C137.261 118.757 136.944 118.772 136.755 118.598L132.295 114.502L110.47 90.1468C109.663 89.2453 108.398 88.9132 107.243 89.2927C106.769 89.4509 106.342 89.7198 105.978 90.0993C105.045 91.0957 104.887 92.5981 105.598 93.7527L111.672 103.748C111.751 103.874 111.766 104.048 111.703 104.191C111.64 104.333 111.513 104.444 111.371 104.475C111.26 104.507 108.682 105.124 108.556 107.67C108.54 107.923 108.35 108.113 108.097 108.129C107.67 108.16 105.851 108.477 105.662 111.513C105.646 111.703 105.519 111.877 105.33 111.94C105.235 111.988 104.823 112.462 104.57 113.395C104.317 114.281 104.08 116.068 105.282 118.077C105.472 118.393 105.598 118.725 105.709 119.057C105.931 119.642 106.136 120.18 106.626 120.623C109.884 123.406 116.685 130.333 116.748 130.397L120.908 134.714C121.097 134.904 121.082 135.204 120.892 135.394C120.813 135.489 120.686 135.537 120.576 135.537Z" fill="#030047"/>
<path d="M113.917 117.555C113.917 117.555 115.752 122.474 110.074 122.379C110.074 122.379 108.683 122.015 106.753 120.908C103.859 119.247 102.689 115.546 104.27 112.589C104.602 111.956 104.966 111.545 105.172 111.482L113.917 117.555Z" fill="white"/>
<path d="M110.248 122.853C110.185 122.853 110.122 122.853 110.074 122.853C110.043 122.853 109.995 122.853 109.964 122.837C109.9 122.821 108.493 122.458 106.532 121.319C103.384 119.5 102.182 115.483 103.859 112.352C104.096 111.925 104.555 111.166 105.029 111.007C105.171 110.96 105.33 110.976 105.456 111.071L114.202 117.144C114.281 117.207 114.344 117.286 114.376 117.365C114.408 117.46 115.23 119.69 114.091 121.319C113.364 122.347 112.067 122.853 110.248 122.853ZM110.137 121.888C111.687 121.888 112.747 121.525 113.285 120.781C113.996 119.769 113.648 118.314 113.506 117.855L105.187 112.083C105.077 112.225 104.887 112.462 104.697 112.826C103.258 115.499 104.286 118.947 106.99 120.497C108.635 121.43 109.884 121.809 110.137 121.888Z" fill="#030047"/>
<path d="M116.147 117.096C113.395 121.382 104.476 113.095 104.476 113.095C103.843 108.84 107.56 107.702 107.971 107.654C107.987 107.654 118.187 113.933 116.147 117.096Z" fill="white"/>
<path d="M113.822 118.804C109.979 118.804 104.412 113.664 104.159 113.442C104.08 113.363 104.033 113.268 104.017 113.158C103.78 111.529 104.096 110.137 104.982 109.014C106.01 107.717 107.528 107.195 107.955 107.164C108.066 107.148 108.161 107.18 108.256 107.227C108.572 107.417 116.052 112.067 116.843 115.546C117.001 116.226 116.906 116.827 116.574 117.349C116.052 118.171 115.293 118.646 114.329 118.772C114.155 118.804 113.981 118.804 113.822 118.804ZM104.934 112.841C105.82 113.632 111.055 118.203 114.186 117.807C114.866 117.728 115.372 117.396 115.752 116.827C115.942 116.526 115.989 116.178 115.894 115.767C115.325 113.268 110.074 109.52 107.892 108.16C107.496 108.271 106.437 108.698 105.678 109.663C105.045 110.517 104.792 111.592 104.934 112.841Z" fill="#030047"/>
<path d="M117.049 114.249C117.017 114.249 117.065 114.265 117.049 114.249C114.265 114.154 106.959 108.239 106.959 108.239C106.69 104.697 111.26 104.001 111.26 104.001L118.836 109.441C120.702 110.77 119.342 114.281 117.049 114.249Z" fill="white"/>
<path d="M117.049 114.739C117.033 114.739 117.017 114.739 117.001 114.739C116.985 114.739 116.985 114.739 116.97 114.739C114.155 114.629 107.417 109.236 106.658 108.619C106.547 108.54 106.484 108.413 106.484 108.287C106.247 105.124 109.457 103.795 111.197 103.542C111.324 103.526 111.45 103.558 111.545 103.621L119.121 109.062C120.085 109.758 120.433 111.054 120.006 112.367C119.611 113.553 118.567 114.755 117.065 114.755C117.065 114.739 117.049 114.739 117.049 114.739ZM117.065 113.775C118.093 113.775 118.82 112.921 119.105 112.067C119.342 111.339 119.326 110.374 118.567 109.837L111.15 104.523C110.359 104.681 107.401 105.456 107.433 108.002C109.552 109.71 114.961 113.696 117.065 113.775Z" fill="#030047"/>
<path d="M125.289 118.377L124.877 117.618C123.391 114.914 122.932 111.767 123.565 108.73L124.055 106.437L120.022 106.974C117.998 107.243 116.052 106.105 115.309 104.191C115.009 103.416 115.467 102.53 116.274 102.341L124.261 100.474C126.68 99.905 129.116 101.36 129.78 103.748L132.627 114.139L137.087 118.235" fill="white"/>
<path d="M125.289 118.867C125.115 118.867 124.956 118.772 124.862 118.614L124.45 117.855C122.916 115.04 122.426 111.782 123.09 108.651L123.438 107.022L120.085 107.465C117.824 107.765 115.673 106.5 114.85 104.381C114.661 103.875 114.692 103.321 114.93 102.831C115.183 102.356 115.625 102.008 116.147 101.882L124.134 100.016C126.823 99.383 129.495 100.98 130.223 103.637L133.038 113.901L137.387 117.903C137.577 118.077 137.593 118.393 137.419 118.583C137.245 118.772 136.929 118.788 136.739 118.614L132.279 114.518C132.216 114.455 132.168 114.376 132.137 114.297L129.29 103.906C128.705 101.755 126.522 100.458 124.355 100.964L116.369 102.831C116.116 102.894 115.894 103.052 115.784 103.289C115.657 103.527 115.641 103.795 115.736 104.033C116.4 105.741 118.124 106.753 119.943 106.516L123.976 105.978C124.134 105.946 124.292 106.01 124.387 106.136C124.498 106.247 124.545 106.405 124.514 106.563L124.023 108.856C123.407 111.766 123.865 114.803 125.289 117.412L125.7 118.172C125.826 118.409 125.747 118.693 125.51 118.82C125.447 118.852 125.368 118.867 125.289 118.867Z" fill="#030047"/>
<path d="M194.923 118.788L181.069 119.69C173.557 120.18 166.962 124.846 163.989 131.757L159.07 142.812L138.115 113.854L117.065 134.714L147.05 171.738C150.103 176.293 155.211 179.013 160.683 179.013C167.499 179.013 173.604 174.806 176.04 168.433L194.923 118.788Z" fill="#605EFD"/>
<path d="M147.05 172.212C146.908 172.212 146.766 172.149 146.671 172.038L116.685 135.015C116.527 134.825 116.543 134.54 116.717 134.366L137.767 113.506C137.862 113.411 138.004 113.364 138.146 113.364C138.289 113.38 138.415 113.443 138.494 113.569L159.434 142.543C159.592 142.764 159.544 143.065 159.323 143.223C159.102 143.381 158.801 143.334 158.643 143.112L138.051 114.597L117.713 134.746L147.43 171.437C147.604 171.643 147.572 171.944 147.351 172.118C147.272 172.181 147.161 172.212 147.05 172.212Z" fill="#030047"/>
<path d="M259.323 135.648L255.67 199.193H168.021L177.653 132.912C178.934 126.032 184.264 120.607 191.127 119.216C201.708 117.081 205.44 116.954 211.798 116.843C218.994 116.701 228.088 115.784 239.665 116.907C241.278 117.065 242.938 117.255 244.646 117.508C253.535 118.773 259.94 126.696 259.323 135.648Z" fill="#605EFD"/>
<path d="M168.037 199.684C168.021 199.684 167.99 199.684 167.974 199.684C167.705 199.652 167.531 199.399 167.563 199.13L177.194 132.848C177.226 132.58 177.479 132.406 177.748 132.437C178.017 132.469 178.191 132.722 178.159 132.991L168.528 199.273C168.48 199.51 168.274 199.684 168.037 199.684Z" fill="#030047"/>
<path d="M202.625 117.539L206.801 93.6265L228.436 93.4209L224.34 118.314C224.34 118.314 217.855 125.146 208.983 122.853C201.835 121.019 202.625 117.539 202.625 117.539Z" fill="white"/>
<path d="M212.589 123.802C211.403 123.802 210.153 123.66 208.857 123.328C201.518 121.43 202.088 117.761 202.151 117.444L206.326 93.5317C206.374 93.2944 206.563 93.1363 206.801 93.1363L228.436 92.9307C228.578 92.9623 228.72 92.9939 228.8 93.1046C228.894 93.2153 228.926 93.3577 228.91 93.5L224.814 118.393C224.798 118.488 224.751 118.583 224.688 118.646C224.609 118.694 219.674 123.802 212.589 123.802ZM203.1 117.634C203.084 117.697 202.609 120.718 209.094 122.379C216.986 124.419 223.027 118.899 223.881 118.061L227.866 93.8954L207.212 94.0852L203.116 117.602C203.1 117.618 203.1 117.634 203.1 117.634Z" fill="#030047"/>
<path d="M228.151 95.192C236.644 84.3269 233.165 68.0213 233.165 68.0213L204.223 58.6587C203.732 59.1331 193.911 68.5907 193.532 86.0033C193.231 100.348 207.528 107.227 221.667 100.648" fill="white"/>
<path d="M210.881 103.653C207.038 103.653 203.416 102.657 200.38 100.696C195.524 97.5328 192.931 92.3137 193.057 86.0034C193.421 68.9546 202.815 59.3705 203.875 58.3267C204.001 58.2002 204.191 58.1527 204.365 58.2002L233.307 67.5628C233.465 67.6103 233.592 67.7526 233.623 67.9266C233.655 68.0847 237.039 84.5801 228.515 95.4926C228.357 95.6982 228.04 95.7456 227.835 95.5717C227.629 95.4135 227.582 95.0972 227.756 94.8916C235.41 85.102 233.133 70.5519 232.738 68.401L204.349 59.2282C202.657 60.952 194.354 70.1723 194.022 86.0351C193.895 91.9974 196.331 96.916 200.901 99.8892C206.453 103.511 214.139 103.637 221.461 100.221C221.699 100.111 221.983 100.206 222.11 100.459C222.22 100.696 222.11 100.98 221.872 101.107C218.203 102.799 214.439 103.653 210.881 103.653Z" fill="#030047"/>
<path d="M228.246 94.4962L225.463 83.8367C225.463 83.8367 220.481 85.6238 214.186 78.4911C207.892 71.3584 203.321 62.8815 203.701 58.1527C204.096 53.4239 227.724 51.0516 240.519 62.7866C253.313 74.5215 248.442 87.6798 245.674 96.3624" fill="#030047"/>
<path d="M224.276 84.8804C224.276 84.8804 230.254 79.0762 233.544 80.2781C236.834 81.4959 235.41 93.1201 231.472 94.1481C227.534 95.1761 224.403 93.5788 224.403 93.5788" fill="white"/>
<path d="M228.752 94.9865C226.127 94.9865 224.292 94.0692 224.181 94.0218C223.944 93.8953 223.849 93.6106 223.976 93.3734C224.102 93.1361 224.387 93.0412 224.624 93.1678C224.656 93.1836 227.661 94.6702 231.362 93.6897C233.354 93.1678 234.714 89.2772 234.873 85.8137C234.999 83.1092 234.414 81.1323 233.37 80.737C230.903 79.8355 226.206 83.6628 224.608 85.2285C224.419 85.4183 224.118 85.4025 223.928 85.2127C223.739 85.0229 223.754 84.7224 223.944 84.5326C224.197 84.2796 230.191 78.5228 233.718 79.8355C235.205 80.389 235.995 82.6348 235.837 85.8611C235.647 89.72 234.129 93.9585 231.599 94.6228C230.587 94.8916 229.638 94.9865 228.752 94.9865Z" fill="#030047"/>
<path d="M228.641 86.462C228.879 86.035 229.211 85.6713 229.606 85.3708C229.843 85.181 230.128 85.0387 230.428 84.9754C230.729 84.928 231.061 84.9754 231.283 85.181C231.615 85.4657 231.662 85.9401 231.646 86.383C231.615 87.1737 231.425 87.9487 231.093 88.6604" fill="white"/>
<path d="M231.077 89.1506C231.014 89.1506 230.935 89.1348 230.871 89.1032C230.634 88.9925 230.523 88.7078 230.65 88.4548C230.966 87.8063 231.14 87.0788 231.156 86.3671C231.172 85.9559 231.109 85.6871 230.95 85.5447C230.84 85.4499 230.666 85.4182 230.492 85.4498C230.302 85.4815 230.096 85.5764 229.875 85.7503C229.543 86.0034 229.258 86.3197 229.053 86.6834C228.926 86.9207 228.626 86.9997 228.388 86.8732C228.151 86.7467 228.072 86.4462 228.199 86.209C228.467 85.7345 228.847 85.3075 229.29 84.9754C229.638 84.7065 229.97 84.5642 230.318 84.5009C230.776 84.4219 231.251 84.5326 231.583 84.8172C231.963 85.1494 232.137 85.6713 232.121 86.3988C232.089 87.2528 231.883 88.1068 231.52 88.866C231.425 89.0399 231.267 89.1506 231.077 89.1506Z" fill="#030047"/>
<path d="M187.822 133.228L175.913 149.17C175.913 149.17 168.591 142.132 166.566 138.605C164.542 135.078 166.329 130.144 166.329 130.144C166.329 130.144 159.086 125.083 158.485 123.217C157.378 119.848 160.667 118.773 160.667 118.773C158.801 114.93 162.897 113.838 162.897 113.838C162.518 113.032 162.533 112.273 162.723 111.608C163.229 109.9 165.364 109.299 166.772 110.406L169.982 112.905L167.484 108.588C167.231 108.145 167.104 107.639 167.104 107.148C167.104 106.453 167.357 105.741 167.847 105.203C169.002 103.954 170.963 103.97 172.102 105.219L178.222 112.019L178.618 109.805C178.807 108.746 179.535 107.844 180.547 107.449C180.927 107.307 181.306 107.227 181.686 107.227C183.331 107.227 184.786 108.54 184.801 110.311L184.944 122.363C185.023 123.66 184.801 124.956 184.295 126.19L183.204 128.8L187.822 133.228Z" fill="white"/>
<path d="M175.913 149.66C175.787 149.66 175.676 149.612 175.581 149.518C175.281 149.233 168.18 142.385 166.155 138.842C164.336 135.679 165.38 131.567 165.76 130.334C164.257 129.274 158.611 125.178 158.026 123.375C157.378 121.398 158.105 120.117 158.817 119.389C159.228 118.962 159.687 118.694 160.035 118.52C159.608 117.428 159.592 116.432 159.987 115.562C160.509 114.423 161.616 113.807 162.265 113.538C162.059 112.858 162.059 112.162 162.265 111.466C162.549 110.533 163.245 109.821 164.194 109.505C165.175 109.189 166.25 109.378 167.057 110.011L168.29 110.976L167.041 108.809C166.74 108.303 166.598 107.718 166.598 107.133C166.598 106.279 166.914 105.488 167.468 104.871C168.1 104.175 169.002 103.78 169.935 103.78H169.951C170.9 103.78 171.801 104.191 172.434 104.887L177.89 110.96L178.112 109.726C178.333 108.509 179.187 107.465 180.342 107.006C180.753 106.848 181.196 106.753 181.654 106.753C183.615 106.753 185.228 108.35 185.26 110.311L185.402 122.363C185.402 122.379 185.402 122.394 185.402 122.41C185.466 123.77 185.244 125.115 184.707 126.38L183.742 128.673L188.138 132.848C188.312 133.022 188.344 133.291 188.186 133.481L176.277 149.423C176.198 149.533 176.071 149.597 175.929 149.612C175.945 149.66 175.929 149.66 175.913 149.66ZM165.143 110.343C164.922 110.343 164.7 110.375 164.479 110.454C163.83 110.659 163.356 111.134 163.182 111.767C162.992 112.415 163.04 113.048 163.324 113.649C163.388 113.775 163.388 113.933 163.324 114.06C163.261 114.186 163.15 114.281 163.008 114.329C162.992 114.329 161.411 114.771 160.857 116.005C160.525 116.717 160.62 117.587 161.094 118.599C161.158 118.725 161.158 118.868 161.11 118.994C161.063 119.121 160.952 119.215 160.81 119.263C160.525 119.358 158.01 120.291 158.928 123.106C159.339 124.355 163.846 127.866 166.598 129.78C166.772 129.907 166.851 130.128 166.772 130.334C166.756 130.381 165.096 135.11 166.978 138.384C168.686 141.341 174.3 146.94 175.85 148.458L187.174 133.307L182.84 129.195C182.698 129.053 182.651 128.847 182.73 128.657L183.821 126.048C184.311 124.893 184.517 123.675 184.438 122.426C184.438 122.394 184.438 122.363 184.438 122.331L184.295 110.359C184.28 108.92 183.093 107.749 181.654 107.749C181.322 107.749 181.006 107.813 180.705 107.923C179.851 108.256 179.219 109.015 179.06 109.916L178.665 112.13C178.633 112.304 178.507 112.462 178.317 112.51C178.143 112.557 177.953 112.51 177.827 112.367L171.706 105.567C171.248 105.061 170.615 104.776 169.935 104.776C169.255 104.776 168.622 105.045 168.164 105.551C167.768 105.994 167.547 106.563 167.547 107.164C167.547 107.591 167.658 108.002 167.863 108.366L170.362 112.684C170.473 112.889 170.441 113.142 170.267 113.285C170.093 113.427 169.84 113.443 169.65 113.301L166.44 110.802C166.092 110.501 165.617 110.343 165.143 110.343Z" fill="#030047"/>
<path d="M259.718 145.326L246.718 171.089L241.657 181.132L238.051 188.296C234.667 194.986 227.803 199.209 220.307 199.209C217.349 199.209 214.487 200.427 211.877 199.209C209.268 197.991 206.927 194.322 205.045 192.06L169.856 150.909L187.316 129.527L219.943 161.142L239.158 116.906C240.772 117.064 242.432 117.254 244.14 117.507C244.979 117.618 245.817 117.808 246.671 118.061C258.184 121.414 264.099 134.177 259.718 145.326Z" fill="#605EFD"/>
<g opacity="0.4">
<path d="M246.718 171.089L241.657 181.132C239.491 180.341 237.941 178.254 237.941 175.818C237.941 172.687 240.471 170.156 243.603 170.156C244.741 170.156 245.817 170.504 246.718 171.089Z" fill="white"/>
</g>
<g opacity="0.4">
<path d="M244.631 151.953C246.517 151.953 248.047 150.424 248.047 148.537C248.047 146.651 246.517 145.121 244.631 145.121C242.744 145.121 241.214 146.651 241.214 148.537C241.214 150.424 242.744 151.953 244.631 151.953Z" fill="white"/>
</g>
<g opacity="0.4">
<path d="M224.166 193.136C227.389 193.136 230.002 190.523 230.002 187.3C230.002 184.077 227.389 181.464 224.166 181.464C220.943 181.464 218.33 184.077 218.33 187.3C218.33 190.523 220.943 193.136 224.166 193.136Z" fill="white"/>
</g>
<g opacity="0.4">
<path d="M247.462 190.922C249.462 190.922 251.083 189.301 251.083 187.3C251.083 185.3 249.462 183.679 247.462 183.679C245.461 183.679 243.84 185.3 243.84 187.3C243.84 189.301 245.461 190.922 247.462 190.922Z" fill="white"/>
</g>
<g opacity="0.4">
<path d="M249.423 177.969C250.324 178.76 251.7 178.665 252.475 177.763C253.266 176.862 253.171 175.486 252.269 174.711C251.368 173.92 249.992 174.015 249.217 174.917C248.426 175.818 248.521 177.178 249.423 177.969Z" fill="white"/>
</g>
<g opacity="0.4">
<path d="M206.612 174.253C207.07 173.796 207.07 173.055 206.612 172.598C206.155 172.141 205.414 172.141 204.957 172.598C204.5 173.055 204.5 173.796 204.957 174.253C205.414 174.71 206.155 174.71 206.612 174.253Z" fill="white"/>
</g>
<g opacity="0.4">
<path d="M188.328 162.217C190.136 162.217 191.602 160.752 191.602 158.944C191.602 157.136 190.136 155.67 188.328 155.67C186.52 155.67 185.054 157.136 185.054 158.944C185.054 160.752 186.52 162.217 188.328 162.217Z" fill="white"/>
</g>
<g opacity="0.4">
<path d="M228.305 137.766C228.869 135.378 227.39 132.984 225.002 132.42C222.613 131.856 220.219 133.335 219.655 135.724C219.091 138.112 220.57 140.506 222.959 141.07C225.348 141.634 227.741 140.155 228.305 137.766Z" fill="white"/>
</g>
<g opacity="0.4">
<path d="M249.154 133.765C250.088 133.765 250.846 133.008 250.846 132.073C250.846 131.138 250.088 130.381 249.154 130.381C248.219 130.381 247.462 131.138 247.462 132.073C247.462 133.008 248.219 133.765 249.154 133.765Z" fill="white"/>
</g>
<g opacity="0.4">
<path d="M209.331 140.487C210.021 140.487 210.58 139.928 210.58 139.238C210.58 138.548 210.021 137.988 209.331 137.988C208.641 137.988 208.082 138.548 208.082 139.238C208.082 139.928 208.641 140.487 209.331 140.487Z" fill="white"/>
</g>
<g opacity="0.4">
<path d="M213.696 132.2C214.386 132.2 214.945 131.641 214.945 130.951C214.945 130.261 214.386 129.701 213.696 129.701C213.006 129.701 212.447 130.261 212.447 130.951C212.447 131.641 213.006 132.2 213.696 132.2Z" fill="white"/>
</g>
<g opacity="0.4">
<path d="M196.789 133.513C198.982 133.513 200.759 131.735 200.759 129.543C200.759 127.351 198.982 125.573 196.789 125.573C194.597 125.573 192.82 127.351 192.82 129.543C192.82 131.735 194.597 133.513 196.789 133.513Z" fill="white"/>
</g>
<g opacity="0.4">
<path d="M178.918 184.422C180.552 184.422 181.876 183.098 181.876 181.464C181.876 179.831 180.552 178.507 178.918 178.507C177.285 178.507 175.961 179.831 175.961 181.464C175.961 183.098 177.285 184.422 178.918 184.422Z" fill="white"/>
</g>
<g opacity="0.4">
<path d="M175.312 169.951C176.072 169.951 176.688 169.335 176.688 168.575C176.688 167.815 176.072 167.199 175.312 167.199C174.552 167.199 173.936 167.815 173.936 168.575C173.936 169.335 174.552 169.951 175.312 169.951Z" fill="white"/>
</g>
<path d="M220.307 199.683C220.038 199.683 219.816 199.462 219.816 199.193C219.816 198.924 220.038 198.703 220.307 198.703C227.661 198.703 234.303 194.622 237.609 188.059L259.291 145.105C259.418 144.868 259.703 144.773 259.94 144.883C260.177 145.01 260.272 145.295 260.161 145.532L238.478 188.486C234.983 195.397 228.025 199.683 220.307 199.683Z" fill="#030047"/>
<path d="M220.449 161.632C220.386 161.632 220.323 161.616 220.243 161.585C220.006 161.474 219.896 161.189 220.006 160.952L233.465 130.966C233.576 130.729 233.86 130.618 234.098 130.729C234.335 130.84 234.446 131.125 234.335 131.362L220.876 161.348C220.813 161.522 220.639 161.632 220.449 161.632Z" fill="#030047"/>
<path d="M205.551 192.535C205.409 192.535 205.282 192.472 205.187 192.361L169.998 151.226C169.84 151.052 169.84 150.783 169.998 150.609L187.458 129.227C187.537 129.116 187.664 129.053 187.806 129.053C187.949 129.037 188.075 129.1 188.17 129.195L225.352 165.618C225.542 165.807 225.542 166.108 225.352 166.298C225.162 166.487 224.861 166.487 224.672 166.298L187.87 130.255L171.01 150.909L205.931 191.744C206.105 191.95 206.073 192.251 205.883 192.425C205.772 192.504 205.662 192.535 205.551 192.535Z" fill="#030047"/>
<path d="M175.518 118.298C175.407 118.298 175.296 118.251 175.202 118.172L169.666 113.269C169.461 113.095 169.445 112.795 169.619 112.589C169.793 112.383 170.093 112.368 170.299 112.541L175.834 117.444C176.04 117.618 176.056 117.934 175.882 118.124C175.787 118.251 175.644 118.298 175.518 118.298Z" fill="#030047"/>
<path d="M173.082 122.869C172.972 122.869 172.861 122.837 172.766 122.758L162.565 114.218C162.36 114.044 162.328 113.744 162.502 113.538C162.676 113.332 162.976 113.301 163.182 113.475L173.383 122.015C173.588 122.189 173.62 122.489 173.446 122.695C173.367 122.822 173.225 122.869 173.082 122.869Z" fill="#030047"/>
<path d="M169.413 126.759C169.302 126.759 169.192 126.728 169.097 126.649L160.351 119.168C160.145 118.994 160.13 118.693 160.304 118.488C160.478 118.282 160.778 118.266 160.984 118.44L169.729 125.921C169.935 126.095 169.951 126.395 169.777 126.601C169.682 126.696 169.54 126.759 169.413 126.759Z" fill="#030047"/>
<path d="M200.49 79.4714C200.063 80.3571 199.257 80.8315 198.656 80.5627C198.07 80.278 197.928 79.3449 198.339 78.4593C198.766 77.5736 199.573 77.0991 200.174 77.368C200.775 77.6369 200.917 78.5858 200.49 79.4714Z" fill="#030047"/>
<path d="M199.684 75.3124C200.933 75.2808 202.119 76.0874 202.688 77.3526L199.684 75.3124Z" fill="white"/>
<path d="M202.688 77.8269C202.499 77.8269 202.325 77.7162 202.246 77.5422C201.771 76.451 200.775 75.7551 199.699 75.7867C199.431 75.7867 199.209 75.5811 199.209 75.3123C199.209 75.0434 199.415 74.822 199.684 74.822C201.139 74.8062 202.499 75.7076 203.131 77.1626C203.242 77.3999 203.131 77.6845 202.878 77.7953C202.815 77.8269 202.752 77.8269 202.688 77.8269Z" fill="#030047"/>
<path d="M209.79 83.884C209.363 84.7697 208.556 85.2441 207.955 84.9753C207.354 84.7064 207.227 83.7575 207.639 82.8719C208.066 81.9862 208.872 81.5117 209.473 81.7806C210.074 82.0653 210.217 82.9984 209.79 83.884Z" fill="#030047"/>
<path d="M208.983 79.7245C210.232 79.6929 211.418 80.4995 211.988 81.7647L208.983 79.7245Z" fill="white"/>
<path d="M211.972 82.2552C211.782 82.2552 211.608 82.1445 211.529 81.9705C211.055 80.8792 210.043 80.1834 208.983 80.215C208.714 80.215 208.493 80.0094 208.493 79.7405C208.493 79.4717 208.698 79.2503 208.967 79.2503C210.422 79.2028 211.782 80.1359 212.415 81.5909C212.526 81.8282 212.415 82.1128 212.162 82.2235C212.114 82.2394 212.051 82.2552 211.972 82.2552Z" fill="#030047"/>
<path d="M203.969 80.8633C203.368 82.1443 201.66 85.5762 201.059 86.8415C200.696 87.6164 200.332 88.4072 200.395 89.2296C200.458 90.052 201.107 90.906 202.087 91.0483" fill="white"/>
<path d="M202.103 91.5545C202.072 91.5545 202.056 91.5545 202.024 91.5545C200.759 91.3647 200 90.2735 199.921 89.2929C199.842 88.3282 200.253 87.4426 200.617 86.6518C200.917 86.0192 201.502 84.833 202.072 83.6469C202.641 82.4766 203.226 81.2904 203.527 80.6578C203.637 80.4206 203.922 80.3099 204.175 80.4206C204.412 80.5313 204.523 80.816 204.412 81.069C204.112 81.7016 203.527 82.8878 202.957 84.0739C202.388 85.2442 201.803 86.4146 201.502 87.063C201.186 87.743 200.822 88.5022 200.885 89.2139C200.933 89.799 201.407 90.4791 202.167 90.6056C202.435 90.6531 202.609 90.8903 202.578 91.1592C202.546 91.3806 202.341 91.5545 202.103 91.5545Z" fill="#030047"/>
<path d="M206.041 94.591C205.551 94.591 205.045 94.5277 204.57 94.3854C204.317 94.3063 204.175 94.0375 204.238 93.7844C204.317 93.5314 204.586 93.389 204.839 93.4523C205.899 93.7686 207.069 93.6421 208.05 93.1202C209.03 92.5983 209.774 91.681 210.09 90.6214C210.169 90.3683 210.438 90.226 210.691 90.3051C210.944 90.3841 211.086 90.653 211.007 90.906C210.612 92.2029 209.695 93.3258 208.493 93.9742C207.765 94.3854 206.911 94.591 206.041 94.591Z" fill="#030047"/>
<path d="M48.9917 46.2998C56.4278 38.8636 56.4278 26.8073 48.9917 19.3711C41.5556 11.935 29.4992 11.935 22.0631 19.3711C14.6269 26.8073 14.6269 38.8636 22.0631 46.2998C29.4992 53.7359 41.5556 53.7359 48.9917 46.2998Z" fill="white"/>
<path d="M35.4895 52.3646C31.678 52.3646 27.9456 51.2417 24.7035 49.075C20.3701 46.1808 17.4126 41.7683 16.3846 36.66C14.2654 26.0954 21.1292 15.7996 31.6938 13.6804C42.2426 11.5611 52.5542 18.4408 54.6734 28.9896C55.7014 34.0979 54.6734 39.3169 51.7792 43.6503C48.885 47.9837 44.4725 50.9412 39.3642 51.9692C38.0674 52.238 36.7705 52.3646 35.4895 52.3646ZM35.5369 14.2655C34.335 14.2655 33.1172 14.3763 31.8836 14.6293C21.8567 16.6378 15.325 26.4433 17.3335 36.4702C18.3141 41.3255 21.1134 45.5165 25.2412 48.2684C29.369 51.0203 34.3191 52.0008 39.1744 51.0203C44.0297 50.0397 48.2208 47.2404 50.9726 43.1126C53.7245 38.9848 54.705 34.0346 53.7245 29.1794C51.969 20.3702 44.1879 14.2655 35.5369 14.2655Z" fill="#030047"/>
<path d="M39.2627 51.5009C43.9216 50.5677 46.0241 41.4522 43.9587 31.1409C41.8932 20.8296 36.4421 13.2272 31.7832 14.1604C27.1242 15.0936 25.0218 24.2091 27.0872 34.5204C29.1526 44.8317 34.6038 52.4341 39.2627 51.5009Z" fill="white"/>
<path d="M38.4627 52.0638C33.7023 52.0638 28.6256 44.7097 26.6171 34.6195C25.6049 29.5586 25.5416 24.6243 26.4431 20.7179C27.3762 16.6692 29.2424 14.1862 31.6938 13.6959C36.6914 12.6837 42.29 20.3225 44.4409 31.0611C45.453 36.122 45.5163 41.0564 44.6148 44.9627C43.6817 49.0114 41.8155 51.4944 39.3642 51.9847C39.0637 52.0322 38.7632 52.0638 38.4627 52.0638ZM27.566 34.4139C29.5429 44.2827 34.8568 51.874 39.1744 51.02C41.2304 50.6088 42.8277 48.3788 43.6659 44.7255C44.5358 40.9456 44.4725 36.1536 43.492 31.2351C41.515 21.3663 36.2011 13.775 31.8835 14.629C29.8276 15.0402 28.2302 17.2702 27.392 20.9235C26.5222 24.7034 26.5854 29.4954 27.566 34.4139Z" fill="#030047"/>
<path d="M39.2694 51.9848C39.0479 51.9848 38.8423 51.8267 38.7949 51.5895L31.3143 14.2496C31.2668 13.9807 31.425 13.7277 31.6938 13.6802C31.9627 13.6328 32.2157 13.7909 32.2632 14.0598L39.7438 51.3997C39.7913 51.6685 39.6331 51.9216 39.3642 51.969C39.3326 51.9848 39.301 51.9848 39.2694 51.9848Z" fill="#030047"/>
<path d="M16.859 37.0553C16.6376 37.0553 16.432 36.8971 16.3846 36.6599C16.3371 36.391 16.4953 36.138 16.7642 36.0906L54.104 28.6099C54.3729 28.5625 54.6259 28.7206 54.6734 28.9895C54.7208 29.2584 54.5627 29.5114 54.2938 29.5588L16.9539 37.0395C16.9223 37.0395 16.8907 37.0553 16.859 37.0553Z" fill="#030047"/>
<path d="M29.5904 22.9481C26.5697 22.9481 23.6122 22.2364 20.8603 20.8605C20.6231 20.7339 20.5282 20.4493 20.6389 20.212C20.7654 19.9748 21.0501 19.8799 21.2873 19.9906C25.0198 21.8726 29.1634 22.442 33.2753 21.6038C37.3873 20.7814 40.9932 18.6621 43.7134 15.4991C43.8874 15.2935 44.1879 15.2777 44.3935 15.4516C44.5991 15.6256 44.6149 15.9261 44.4409 16.1317C41.5784 19.4687 37.7827 21.6987 33.4493 22.5685C32.1841 22.8216 30.8872 22.9481 29.5904 22.9481Z" fill="#030047"/>
<path d="M26.965 50.3244C26.8543 50.3244 26.7436 50.2928 26.6487 50.2137C26.4431 50.0398 26.4273 49.7393 26.6013 49.5337C29.4639 46.1966 33.2595 43.9667 37.5929 43.0969C41.9105 42.227 46.2755 42.8122 50.2135 44.8049C50.4507 44.9314 50.5456 45.2161 50.4349 45.4533C50.3084 45.6906 50.0237 45.7854 49.7865 45.6747C46.0541 43.7927 41.9105 43.2392 37.7985 44.0616C33.6865 44.884 30.0807 47.0032 27.3604 50.1663C27.2339 50.2612 27.1074 50.3244 26.965 50.3244Z" fill="#030047"/>
<path d="M30.5862 34.6746C30.9032 32.9211 29.7387 31.2426 27.9852 30.9256C26.2317 30.6086 24.5532 31.7731 24.2362 33.5266C23.9192 35.2802 25.0837 36.9586 26.8372 37.2756C28.5908 37.5926 30.2692 36.4281 30.5862 34.6746Z" fill="#0045DF"/>
<path d="M42.1161 27.8506C43.8979 27.8506 45.3424 26.4061 45.3424 24.6243C45.3424 22.8424 43.8979 21.3979 42.1161 21.3979C40.3342 21.3979 38.8898 22.8424 38.8898 24.6243C38.8898 26.4061 40.3342 27.8506 42.1161 27.8506Z" fill="#0045DF"/>
<path d="M47.256 41.8474C47.6039 43.5871 46.4811 45.2793 44.7256 45.6431C42.9859 45.991 41.2936 44.8681 40.9299 43.1126C40.582 41.373 41.7048 39.6807 43.4603 39.317C45.2 38.969 46.8923 40.1077 47.256 41.8474Z" fill="#605EFD"/>
<path d="M120.813 42.3692L92.5509 45.6429C90.0047 45.9434 87.7115 44.1247 87.4268 41.5784L83.9633 11.7033C83.6628 9.15707 85.4815 6.86386 88.0278 6.57918L116.29 3.30542C118.836 3.00493 121.129 4.82369 121.414 7.36995L124.877 37.245C125.162 39.7755 123.343 42.0687 120.813 42.3692Z" fill="#030047"/>
<path d="M176.198 60.7781L150.134 51.8741C147.794 51.0675 146.544 48.5212 147.335 46.1806L156.745 18.6303C157.552 16.2897 160.098 15.0403 162.439 15.831L188.502 24.735C190.843 25.5416 192.092 28.0879 191.302 30.4285L181.876 57.9946C181.085 60.3352 178.539 61.5846 176.198 60.7781Z" fill="#030047"/>
<path d="M24.3555 125.795C12.9369 127.123 2.24577 118.963 0.506086 107.576L0.237227 105.804C-1.50245 94.4173 6.35774 84.1216 17.7922 82.7931C29.2266 81.4646 39.9019 89.6253 41.6416 100.996L41.9105 102.784C43.6502 114.155 35.79 124.466 24.3555 125.795Z" fill="#030047"/>
<path d="M105.314 39.6016C106.694 39.6016 107.813 38.4829 107.813 37.1028C107.813 35.7228 106.694 34.604 105.314 34.604C103.934 34.604 102.815 35.7228 102.815 37.1028C102.815 38.4829 103.934 39.6016 105.314 39.6016Z" fill="#0045DF"/>
<path d="M109.536 29.1793C108.398 30.1599 107.828 31.6307 107.987 33.1173L108.002 33.3071L101.898 33.9555L101.882 33.7657C101.724 32.2475 100.806 30.9506 99.478 30.2073C97.0583 28.863 95.3028 26.3958 94.9864 23.4226C94.4487 18.3617 98.276 13.8543 103.448 13.6487C107.923 13.4747 111.877 16.7485 112.526 21.1768C112.968 24.324 111.735 27.2815 109.536 29.1793Z" fill="white"/>
<path d="M103.606 33.4493C103.448 33.4493 103.305 33.3386 103.289 33.1647L102.341 25.9687C102.008 25.9371 101.66 25.9054 101.328 25.8422L99.9524 25.5891C99.5571 25.5259 99.2249 25.3045 99.0035 24.9723C98.7821 24.6402 98.703 24.2607 98.7821 23.8653C98.8612 23.4383 99.1459 23.0587 99.5254 22.8531C99.9208 22.6475 100.364 22.6159 100.775 22.7898C101.866 23.2485 102.657 24.1974 102.894 25.3361C103.669 25.3519 104.444 25.2728 105.187 25.0831C105.187 23.9127 105.757 22.8057 106.721 22.1414C107.085 21.8884 107.528 21.8093 107.955 21.9358C108.382 22.0623 108.714 22.3628 108.904 22.7582C109.062 23.122 109.062 23.5173 108.92 23.8811C108.777 24.2448 108.493 24.5295 108.129 24.6877L106.832 25.2254C106.516 25.3519 106.199 25.4626 105.867 25.5733L106.468 32.8167C106.484 32.9907 106.358 33.1488 106.168 33.1647C105.994 33.1805 105.836 33.054 105.82 32.8642L105.219 25.7315C104.476 25.9055 103.732 25.9687 102.973 25.9687L103.906 33.054C103.922 33.2279 103.811 33.3861 103.622 33.4177C103.637 33.4493 103.622 33.4493 103.606 33.4493ZM100.205 23.3276C100.079 23.3276 99.9366 23.3592 99.8259 23.4225C99.6045 23.5332 99.4622 23.7388 99.4147 23.9918C99.3673 24.2132 99.4147 24.4346 99.5412 24.6086C99.6678 24.7826 99.8575 24.9091 100.063 24.9565L101.439 25.2096C101.692 25.257 101.961 25.2887 102.214 25.3203C101.977 24.4663 101.344 23.7546 100.506 23.4066C100.427 23.3592 100.316 23.3276 100.205 23.3276ZM107.575 22.5526C107.417 22.5526 107.243 22.6001 107.117 22.6949C106.373 23.2169 105.915 24.0392 105.867 24.9249C106.12 24.8458 106.358 24.7509 106.611 24.656L107.908 24.1183C108.113 24.0392 108.271 23.8811 108.35 23.6755C108.429 23.4699 108.429 23.2485 108.35 23.0429C108.255 22.8215 108.066 22.6475 107.828 22.5842C107.718 22.5526 107.639 22.5526 107.575 22.5526Z" fill="#030047"/>
<path d="M109.885 36.3751L100.68 37.3557C100.538 37.3715 100.427 37.2766 100.411 37.1343L100.032 33.5758C100.016 33.4335 100.111 33.3228 100.253 33.307L109.458 32.3264C109.6 32.3106 109.711 32.4055 109.726 32.5478L110.106 36.1063C110.122 36.2328 110.027 36.3593 109.885 36.3751Z" fill="#0045DF"/>
<path d="M102.863 9.81864L101.904 9.92139L102.116 11.9028L103.075 11.8L102.863 9.81864Z" fill="white"/>
<path d="M95.2258 12.5046L94.4464 13.0732L95.6209 14.6832L96.4003 14.1145L95.2258 12.5046Z" fill="white"/>
<path d="M110.824 11.3281L109.942 10.9375L109.135 12.7594L110.017 13.1501L110.824 11.3281Z" fill="white"/>
<path d="M23.4699 117.697C22.4893 118.33 21.2557 118.393 20.2277 117.856C15.9102 115.578 4.8711 108.714 7.49643 99.0196C7.93926 97.3906 8.95144 95.9514 10.359 95.0025C14.0123 92.5195 17.9187 92.7725 20.7496 94.5755C23.2643 92.5986 26.8701 91.9343 30.6026 93.7215C32.1683 94.4806 33.9396 96.4733 34.4931 98.1181C37.5771 107.354 27.4869 115.072 23.4699 117.697Z" fill="white"/>
<path d="M20.7813 110.628C20.4966 110.628 20.2436 110.438 20.1645 110.169L18.0927 103.495L17.381 106.247C17.3178 106.516 17.0806 106.706 16.8117 106.722L13.6961 106.959C13.3323 106.99 13.0318 106.722 13.0002 106.358C12.9686 106.01 13.2374 105.694 13.6012 105.662L16.2423 105.472L17.3969 100.965C17.4759 100.68 17.7132 100.49 17.9978 100.475C18.2825 100.459 18.5514 100.649 18.6304 100.933L20.7339 107.75L22.2521 102.673C22.3312 102.42 22.5684 102.23 22.8373 102.214C23.1062 102.198 23.3592 102.357 23.4699 102.61L24.6561 105.425L25.3203 104.397C25.431 104.223 25.605 104.112 25.8106 104.112L29.1951 103.859C29.543 103.843 29.8593 104.096 29.8909 104.46C29.9226 104.808 29.6537 105.124 29.2899 105.156L26.2218 105.377L25.0673 107.164C24.9407 107.37 24.7035 107.481 24.4663 107.449C24.2291 107.433 24.0235 107.275 23.9286 107.054L22.9796 104.776L21.3823 110.154C21.3032 110.438 21.066 110.628 20.7813 110.628Z" fill="#030047"/>
<path d="M127.661 181.133H81.6384C79.3136 181.133 77.3525 179.393 77.0836 177.068L76.4036 171.185C76.0873 168.464 78.2223 166.061 80.9584 166.061H126.981C129.306 166.061 131.267 167.8 131.536 170.125L132.216 176.008C132.548 178.729 130.413 181.133 127.661 181.133Z" fill="#605EFD"/>
<path d="M176.309 39.57L164.368 33.8765L166.867 28.6258C168.433 25.3362 172.387 23.9287 175.676 25.4944C177.273 26.2535 178.475 27.5978 179.061 29.2584C179.646 30.919 179.567 32.7062 178.792 34.3035L176.309 39.57ZM166.74 33.0383L175.455 37.1977L177.194 33.5602C177.748 32.3898 177.811 31.0772 177.384 29.8752C176.957 28.6574 176.071 27.6769 174.917 27.1234C172.513 25.9847 169.619 26.9968 168.48 29.4008L166.74 33.0383Z" fill="#0045DF"/>
<path d="M171.596 51.8266L157.805 45.2474C157.315 45.0102 157.109 44.4409 157.346 43.9506L163.214 31.6305C163.451 31.1402 164.02 30.9346 164.51 31.1718L178.301 37.751C178.792 37.9882 178.997 38.5576 178.76 39.0478L172.893 51.3679C172.671 51.8582 172.086 52.0638 171.596 51.8266Z" fill="white"/>
<path d="M165.048 43.2074L166.82 41.7683C166.25 41.0882 166.108 40.1076 166.519 39.2536C167.073 38.0833 168.496 37.5772 169.682 38.1307C170.868 38.7001 171.359 40.1076 170.805 41.2938C170.394 42.1478 169.556 42.6539 168.67 42.6381V44.9155C168.67 45.3741 168.195 45.6746 167.768 45.4848L165.191 44.2671C164.748 44.0615 164.684 43.4921 165.048 43.2074Z" fill="#030047"/>
<path d="M43.4287 179.519L40.3448 181.464C38.8898 182.366 36.9919 181.939 36.0905 180.499L34.1452 177.416C33.2437 175.976 33.6707 174.078 35.1099 173.177L38.1939 171.232C39.6331 170.33 41.5309 170.757 42.4482 172.196L44.3935 175.296C45.2949 176.72 44.8679 178.617 43.4287 179.519Z" fill="#0045DF"/>
<path d="M217.871 44.6937L214.787 46.639C213.332 47.5405 211.434 47.1135 210.533 45.6743L208.588 42.5903C207.686 41.1511 208.113 39.2533 209.552 38.3518L212.636 36.4065C214.076 35.5051 215.973 35.9321 216.891 37.3713L218.836 40.471C219.737 41.8786 219.295 43.7764 217.871 44.6937Z" fill="#0045DF"/>
<path d="M70.3306 7.08512L67.8476 8.65083C66.6773 9.37833 65.1432 9.0304 64.4157 7.87588L62.85 5.37707C62.1225 4.22255 62.4704 2.68847 63.6249 1.94515L66.1079 0.363624C67.2624 -0.363878 68.7965 -0.0159423 69.5398 1.13857L71.1055 3.63739C71.8488 4.82353 71.5009 6.35761 70.3306 7.08512Z" fill="#0045DF"/>
<path d="M160.035 77.8745L157.552 79.4402C156.381 80.1677 154.847 79.8198 154.12 78.6652L152.554 76.1822C151.827 75.0277 152.175 73.4936 153.329 72.7503L155.812 71.1688C156.967 70.4413 158.501 70.7892 159.244 71.9437L160.81 74.4426C161.553 75.6129 161.205 77.147 160.035 77.8745Z" fill="#0045DF"/>
</g>
<defs>
<clipPath id="clip0_39_16906">
<rect width="268.86" height="200" fill="white"/>
</clipPath>
</defs>
</svg>
