<svg width="213" height="200" viewBox="0 0 213 200" fill="none" xmlns="http://www.w3.org/2000/svg">
<g clip-path="url(#clip0_39_16481)">
<path d="M122.561 48.2644V160.906C122.561 165.799 118.597 169.763 113.719 169.763H9.27592C4.38364 169.763 0.418945 165.799 0.418945 160.906V48.2644C0.418945 43.3721 4.38364 39.4224 9.27592 39.4224H113.719C118.597 39.4224 122.561 43.3871 122.561 48.2644Z" fill="white"/>
<path d="M113.719 170.197H9.27588C4.15919 170.197 0 166.038 0 160.921V48.2644C0 43.1477 4.15919 38.9885 9.27588 38.9885H113.719C118.836 38.9885 122.995 43.1477 122.995 48.2644V160.907C122.98 166.038 118.821 170.197 113.719 170.197ZM9.27588 39.8413C4.63794 39.8413 0.852783 43.6265 0.852783 48.2644V160.907C0.852783 165.544 4.63794 169.33 9.27588 169.33H113.719C118.357 169.33 122.142 165.544 122.142 160.907V48.2644C122.142 43.6265 118.372 39.8413 113.719 39.8413H9.27588Z" fill="#030047"/>
<path d="M122.561 49.1024V48.2795C122.561 43.3872 118.597 39.4375 113.719 39.4375H9.27592C4.38364 39.4375 0.418945 43.4022 0.418945 48.2795V49.1024H122.561Z" fill="#030047"/>
<path d="M122.561 49.5213H0.418911C0.179533 49.5213 0 49.3268 0 49.1024V48.2795C0 43.1628 4.15919 39.0037 9.27588 39.0037H113.719C118.836 39.0037 122.995 43.1628 122.995 48.2795V49.1024C122.98 49.3268 122.801 49.5213 122.561 49.5213ZM0.852783 48.6685H122.142V48.2646C122.142 43.6266 118.372 39.8415 113.719 39.8415H9.27588C4.63794 39.8415 0.852783 43.6266 0.852783 48.2646V48.6685Z" fill="#030047"/>
<path d="M10.9815 44.9131C10.9815 45.7958 10.2633 46.5139 9.38062 46.5139C8.49792 46.5139 7.77979 45.7958 7.77979 44.9131C7.77979 44.0304 8.49792 43.3123 9.38062 43.3123C10.2633 43.3123 10.9815 44.0304 10.9815 44.9131Z" fill="white"/>
<path d="M16.9658 44.9131C16.9658 45.7958 16.2477 46.5139 15.365 46.5139C14.4823 46.5139 13.7642 45.7958 13.7642 44.9131C13.7642 44.0304 14.4823 43.3123 15.365 43.3123C16.2477 43.3123 16.9658 44.0304 16.9658 44.9131Z" fill="white"/>
<path d="M22.9503 44.9131C22.9503 45.7958 22.2322 46.5139 21.3495 46.5139C20.4668 46.5139 19.7487 45.7958 19.7487 44.9131C19.7487 44.0304 20.4668 43.3123 21.3495 43.3123C22.2472 43.3123 22.9503 44.0304 22.9503 44.9131Z" fill="white"/>
<path d="M114.168 126.377L96.4692 139.737L93.8061 136.146L79.2939 116.487C78.486 115.395 78.486 113.839 79.3986 112.837C80.6404 111.505 82.69 111.67 83.7224 113.061C82.8097 111.819 80.8947 109.231 83.2735 107.75C84.5901 106.927 86.2657 107.092 87.1784 108.333L85.5027 106.074C84.4106 104.578 85.009 102.364 86.954 101.721C88.076 101.347 89.3028 101.795 90.006 102.753V102.768L91.4273 104.713C90.6045 103.187 91.3824 101.122 93.2825 100.628C94.3597 100.344 95.5117 100.793 96.17 101.706H96.185L106.209 115.395" fill="white"/>
<path d="M96.4692 140.156C96.4543 140.156 96.4243 140.156 96.4094 140.156C96.3047 140.141 96.1999 140.081 96.1251 139.991L78.9498 116.741C77.9923 115.44 78.0371 113.674 79.0844 112.552C79.7577 111.834 80.6853 111.46 81.6428 111.505C81.8522 111.52 82.0467 111.55 82.2412 111.595C81.8373 110.832 81.568 109.964 81.7325 109.141C81.8672 108.438 82.3011 107.84 83.0342 107.391C83.8421 106.882 84.7397 106.718 85.5476 106.867L85.1437 106.314C84.5303 105.476 84.3507 104.399 84.6649 103.411C84.9941 102.409 85.7571 101.646 86.8044 101.317C88.076 100.898 89.4973 101.376 90.3352 102.498C90.3501 102.513 90.3501 102.528 90.3651 102.543L90.6942 103.007C90.7391 102.693 90.8139 102.394 90.9486 102.095C91.3525 101.167 92.1604 100.479 93.1778 100.224C94.3747 99.9102 95.7062 100.374 96.4842 101.406C96.4991 101.421 96.5141 101.436 96.5291 101.451L106.553 115.141C106.688 115.335 106.658 115.589 106.463 115.739C106.269 115.874 106.014 115.844 105.865 115.649L95.8708 102.005C95.8558 101.99 95.8409 101.975 95.8259 101.96C95.2574 101.182 94.2699 100.808 93.3872 101.047C92.6242 101.242 92.0407 101.735 91.7265 102.439C91.4273 103.112 91.4573 103.89 91.7864 104.518C91.8911 104.713 91.8313 104.967 91.6368 105.087C91.4423 105.206 91.2029 105.162 91.0683 104.982L89.647 103.037C89.632 103.022 89.632 103.007 89.617 102.992C89.0036 102.184 87.9863 101.855 87.0587 102.154C86.2807 102.409 85.7122 102.977 85.4728 103.71C85.2334 104.443 85.3681 105.236 85.8169 105.85L87.4926 108.109C87.6272 108.303 87.5973 108.558 87.4028 108.707C87.2083 108.842 86.954 108.812 86.8044 108.618C86.0563 107.615 84.65 107.406 83.468 108.154C82.9444 108.483 82.6452 108.872 82.5554 109.336C82.331 110.518 83.4381 112.014 84.0365 112.837C84.0365 112.837 84.0365 112.837 84.0365 112.852C84.1712 113.046 84.1263 113.3 83.9468 113.435C83.7523 113.57 83.4979 113.54 83.3633 113.345C82.9444 112.777 82.3011 112.418 81.5829 112.388C80.8648 112.343 80.1915 112.627 79.6978 113.151C78.9498 113.959 78.9049 115.305 79.623 116.263L96.544 139.153L113.899 126.062C114.093 125.928 114.348 125.957 114.497 126.152C114.632 126.346 114.602 126.601 114.408 126.75L96.7086 140.111C96.6488 140.126 96.559 140.156 96.4692 140.156Z" fill="#030047"/>
<path d="M91.2628 114.288C91.1281 114.288 91.0084 114.228 90.9187 114.108L86.8193 108.573C86.6847 108.378 86.7146 108.124 86.9091 107.974C87.1036 107.84 87.3579 107.869 87.5075 108.064L91.6069 113.6C91.7415 113.794 91.7116 114.048 91.5171 114.198C91.4423 114.258 91.3525 114.288 91.2628 114.288Z" fill="#030047"/>
<path d="M95.7511 110.966C95.6164 110.966 95.4968 110.907 95.407 110.787L91.0832 104.937C90.9486 104.743 90.9785 104.488 91.173 104.339C91.3675 104.204 91.6218 104.234 91.7715 104.428L96.0952 110.278C96.2299 110.473 96.1999 110.727 96.0054 110.877C95.9306 110.952 95.8409 110.966 95.7511 110.966Z" fill="#030047"/>
<path d="M86.7744 117.609C86.6398 117.609 86.5201 117.549 86.4303 117.43L82.3459 111.909C82.2113 111.715 82.2412 111.46 82.4357 111.311C82.6302 111.176 82.8845 111.206 83.0341 111.4L87.1185 116.921C87.2532 117.116 87.2232 117.37 87.0288 117.52C86.939 117.594 86.8492 117.609 86.7744 117.609Z" fill="#030047"/>
<path d="M123.968 116.891H69.21C64.9461 116.891 61.4901 113.435 61.4901 109.171V67.7587C61.4901 63.4948 64.9461 60.0388 69.21 60.0388H123.968C128.232 60.0388 131.688 63.4948 131.688 67.7587V109.186C131.688 113.435 128.232 116.891 123.968 116.891Z" fill="#0045DF"/>
<path d="M103.92 118.806L108.393 111.296C109.425 109.351 111.924 108.722 113.749 109.949C114.437 110.413 114.931 111.071 115.2 111.804C115.5 112.642 115.5 113.585 115.141 114.467L113.345 118.836C112.896 119.868 111.505 122.053 113.046 124.252" fill="white"/>
<path d="M113.046 124.671C112.911 124.671 112.777 124.611 112.702 124.491C111.206 122.337 112.223 120.197 112.777 119.045C112.852 118.896 112.911 118.761 112.956 118.656L114.752 114.288C115.066 113.54 115.081 112.702 114.812 111.924C114.572 111.251 114.123 110.682 113.525 110.278C112.747 109.755 111.789 109.59 110.892 109.829C109.994 110.054 109.216 110.667 108.782 111.49L104.279 119.016C104.159 119.21 103.89 119.285 103.695 119.165C103.501 119.045 103.426 118.791 103.546 118.582L108.019 111.071C108.558 110.054 109.53 109.291 110.667 109.007C111.804 108.722 113.016 108.932 113.989 109.575C114.737 110.084 115.305 110.802 115.604 111.64C115.949 112.612 115.919 113.659 115.53 114.602L113.734 118.971C113.674 119.105 113.615 119.24 113.54 119.405C113.001 120.542 112.178 122.247 113.405 123.998C113.54 124.192 113.495 124.461 113.3 124.596C113.211 124.641 113.121 124.671 113.046 124.671Z" fill="#030047"/>
<path d="M93.2825 139.647L111.804 164.019C114.707 168.911 119.734 172.187 125.374 172.861L125.928 172.92C130.999 173.534 136.086 171.993 139.976 168.686L164.273 148.04L165.26 130.984L155.595 128.905C155.566 128.905 155.551 128.89 155.521 128.89C151.99 128.142 148.309 129.054 145.437 131.224L128.965 143.612L113.689 123.25L93.2825 139.647Z" fill="#605EFD"/>
<path d="M109.111 160.637C108.977 160.637 108.857 160.578 108.767 160.473L92.9384 139.901C92.8038 139.722 92.8337 139.452 93.0132 139.303L113.42 122.906C113.51 122.831 113.63 122.801 113.734 122.816C113.854 122.831 113.959 122.891 114.019 122.98L133.139 148.833C133.274 149.028 133.244 149.282 133.049 149.432C132.855 149.566 132.6 149.536 132.451 149.342L113.6 123.848L93.866 139.707L109.441 159.949C109.59 160.129 109.545 160.398 109.366 160.548C109.291 160.607 109.201 160.637 109.111 160.637Z" fill="#030047"/>
<g opacity="0.4">
<path d="M136.834 159.8C136.281 159.8 135.757 159.425 135.667 158.902C135.622 158.677 135.772 158.453 135.996 158.408C136.236 158.363 136.445 158.513 136.49 158.737C136.52 158.857 136.715 158.962 136.894 158.932C137.104 158.902 137.313 158.722 137.448 158.468C137.582 158.244 137.657 157.959 137.732 157.675L137.777 157.495C137.837 157.301 138.001 156.718 138.54 156.568C138.809 156.493 139.123 156.553 139.393 156.747C139.512 156.822 139.617 156.927 139.707 157.017C139.752 157.062 139.782 157.092 139.826 157.121C140.051 157.316 140.32 157.451 140.589 157.466C140.859 157.481 141.098 157.391 141.263 157.226C141.427 157.047 141.517 156.732 141.517 156.269C141.517 155.551 141.367 154.832 141.083 154.174C140.993 153.965 141.083 153.71 141.308 153.621C141.517 153.531 141.771 153.621 141.861 153.845C142.19 154.608 142.37 155.461 142.37 156.284C142.37 156.718 142.325 157.346 141.891 157.81C141.562 158.169 141.068 158.348 140.545 158.318C140.096 158.288 139.647 158.094 139.288 157.765C139.243 157.72 139.183 157.675 139.138 157.63C139.063 157.57 139.004 157.496 138.929 157.451C138.854 157.391 138.794 157.391 138.779 157.391C138.779 157.391 138.704 157.421 138.615 157.72L138.57 157.884C138.48 158.214 138.39 158.543 138.211 158.857C137.941 159.336 137.507 159.665 137.044 159.74C136.969 159.8 136.894 159.8 136.834 159.8Z" fill="white"/>
</g>
<g opacity="0.4">
<path d="M113.435 155.446C113.241 155.446 113.046 155.431 112.852 155.416C112.418 155.371 111.789 155.266 111.37 154.788C111.056 154.429 110.907 153.905 110.996 153.396C111.071 152.962 111.311 152.529 111.67 152.199C111.715 152.155 111.774 152.11 111.819 152.065C111.894 152.005 111.969 151.945 112.029 151.87C112.089 151.796 112.104 151.736 112.104 151.721C112.104 151.721 112.089 151.646 111.789 151.526L111.625 151.466C111.311 151.347 110.981 151.212 110.682 151.003C110.218 150.688 109.949 150.225 109.919 149.761C109.874 149.117 110.338 148.534 110.922 148.489C111.161 148.459 111.37 148.639 111.385 148.878C111.415 149.117 111.236 149.327 110.996 149.342C110.877 149.357 110.742 149.551 110.757 149.716C110.772 149.925 110.922 150.15 111.161 150.314C111.385 150.464 111.64 150.569 111.924 150.673L112.089 150.733C112.268 150.808 112.837 151.032 112.926 151.586C112.971 151.87 112.882 152.17 112.657 152.424C112.567 152.529 112.463 152.618 112.358 152.723C112.313 152.753 112.268 152.798 112.238 152.828C112.014 153.037 111.864 153.292 111.819 153.546C111.774 153.8 111.834 154.07 111.984 154.234C112.148 154.429 112.448 154.533 112.911 154.578C113.615 154.653 114.363 154.563 115.051 154.354C115.275 154.279 115.515 154.399 115.59 154.623C115.664 154.848 115.545 155.087 115.32 155.162C114.722 155.356 114.078 155.446 113.435 155.446Z" fill="white"/>
</g>
<g opacity="0.4">
<path d="M101.481 143.866C101.002 143.866 100.554 143.597 100.389 143.163C100.299 142.938 100.419 142.699 100.628 142.609C100.853 142.52 101.092 142.639 101.182 142.849C101.227 142.968 101.451 143.028 101.616 142.983C101.81 142.909 101.99 142.714 102.095 142.43C102.184 142.175 102.214 141.906 102.244 141.607L102.259 141.427C102.274 141.233 102.349 140.62 102.858 140.395C103.112 140.275 103.426 140.29 103.725 140.425C103.86 140.485 103.965 140.56 104.084 140.634C104.129 140.664 104.174 140.694 104.219 140.724C104.473 140.889 104.773 140.964 105.027 140.934C105.281 140.904 105.521 140.784 105.64 140.59C105.775 140.38 105.805 140.066 105.73 139.617C105.61 138.914 105.341 138.226 104.937 137.627C104.803 137.433 104.862 137.163 105.057 137.044C105.251 136.909 105.521 136.969 105.64 137.163C106.104 137.867 106.418 138.66 106.553 139.482C106.628 139.916 106.688 140.545 106.344 141.068C106.074 141.472 105.61 141.742 105.102 141.786C104.653 141.831 104.189 141.712 103.77 141.457C103.71 141.427 103.651 141.383 103.606 141.353C103.531 141.293 103.456 141.248 103.366 141.203C103.277 141.158 103.217 141.158 103.202 141.173C103.202 141.173 103.127 141.203 103.097 141.532L103.082 141.697C103.052 142.026 103.007 142.385 102.888 142.729C102.693 143.253 102.334 143.642 101.885 143.791C101.751 143.851 101.616 143.866 101.481 143.866Z" fill="white"/>
</g>
<g opacity="0.4">
<path d="M125.748 165.919C125.554 165.919 125.359 165.904 125.165 165.889C124.731 165.844 124.117 165.739 123.683 165.26C123.369 164.901 123.22 164.378 123.309 163.869C123.384 163.435 123.624 163.001 123.983 162.672C124.028 162.627 124.087 162.582 124.132 162.538C124.207 162.478 124.282 162.418 124.342 162.343C124.402 162.268 124.417 162.208 124.417 162.193C124.417 162.193 124.402 162.119 124.102 161.999L123.938 161.939C123.624 161.819 123.294 161.7 122.995 161.475C122.531 161.161 122.262 160.697 122.232 160.234C122.187 159.59 122.651 159.007 123.235 158.962C123.474 158.947 123.683 159.111 123.698 159.351C123.728 159.59 123.549 159.8 123.309 159.815C123.19 159.83 123.055 160.024 123.07 160.189C123.085 160.398 123.235 160.623 123.474 160.787C123.683 160.937 123.953 161.041 124.237 161.146L124.402 161.206C124.581 161.281 125.15 161.505 125.239 162.059C125.284 162.343 125.195 162.642 124.97 162.897C124.88 163.001 124.776 163.091 124.671 163.196C124.626 163.226 124.581 163.271 124.551 163.301C124.327 163.51 124.177 163.764 124.132 164.019C124.087 164.273 124.147 164.542 124.297 164.707C124.461 164.901 124.761 165.006 125.224 165.051C125.928 165.126 126.676 165.036 127.364 164.827C127.588 164.752 127.828 164.872 127.903 165.096C127.977 165.32 127.858 165.56 127.633 165.635C127.02 165.814 126.376 165.919 125.748 165.919Z" fill="white"/>
</g>
<g opacity="0.4">
<path d="M122.756 152.409C122.576 152.409 122.412 152.364 122.262 152.289C122.053 152.169 121.978 151.915 122.098 151.706C122.217 151.496 122.472 151.421 122.681 151.541C122.786 151.601 123.01 151.511 123.1 151.362C123.205 151.182 123.22 150.913 123.115 150.643C123.025 150.389 122.861 150.165 122.696 149.91L122.591 149.761C122.487 149.596 122.143 149.087 122.382 148.579C122.502 148.324 122.756 148.13 123.07 148.04C123.205 148.01 123.339 147.98 123.489 147.965C123.549 147.965 123.594 147.95 123.654 147.95C123.953 147.906 124.222 147.771 124.402 147.591C124.581 147.412 124.686 147.157 124.656 146.933C124.626 146.679 124.447 146.424 124.102 146.125C123.564 145.661 122.906 145.302 122.217 145.093C121.993 145.018 121.873 144.794 121.933 144.569C122.008 144.345 122.232 144.21 122.457 144.285C123.25 144.524 124.013 144.943 124.641 145.482C124.97 145.766 125.419 146.215 125.494 146.843C125.554 147.322 125.359 147.831 125 148.205C124.686 148.519 124.252 148.728 123.773 148.803C123.713 148.818 123.639 148.818 123.579 148.833C123.489 148.848 123.384 148.848 123.295 148.878C123.205 148.908 123.16 148.938 123.145 148.953C123.145 148.953 123.115 149.028 123.295 149.297L123.384 149.432C123.579 149.716 123.773 150 123.893 150.344C124.087 150.868 124.058 151.406 123.803 151.81C123.579 152.184 123.16 152.409 122.756 152.409Z" fill="white"/>
</g>
<g opacity="0.4">
<path d="M111.7 141.966C111.565 141.966 111.43 141.906 111.355 141.786C110.877 141.098 110.533 140.305 110.368 139.497C110.278 139.078 110.203 138.45 110.533 137.896C110.787 137.478 111.236 137.193 111.759 137.133C112.193 137.074 112.672 137.178 113.106 137.418C113.166 137.448 113.226 137.493 113.271 137.522C113.345 137.567 113.435 137.627 113.525 137.657C113.615 137.702 113.674 137.687 113.689 137.687C113.689 137.687 113.764 137.642 113.779 137.328L113.794 137.163C113.824 136.819 113.839 136.475 113.959 136.131C114.123 135.592 114.482 135.203 114.916 135.024C115.515 134.8 116.203 135.069 116.442 135.607C116.532 135.817 116.427 136.071 116.218 136.161C115.993 136.251 115.754 136.146 115.664 135.937C115.619 135.817 115.395 135.757 115.23 135.817C115.036 135.892 114.871 136.101 114.782 136.385C114.707 136.64 114.677 136.924 114.662 137.223L114.647 137.403C114.632 137.597 114.587 138.211 114.078 138.465C113.824 138.6 113.51 138.585 113.211 138.465C113.076 138.405 112.956 138.345 112.837 138.271C112.792 138.241 112.747 138.211 112.702 138.181C112.433 138.031 112.148 137.971 111.894 138.001C111.64 138.031 111.4 138.181 111.296 138.36C111.161 138.57 111.146 138.899 111.236 139.348C111.385 140.051 111.67 140.724 112.089 141.323C112.223 141.517 112.178 141.786 111.984 141.921C111.864 141.936 111.774 141.966 111.7 141.966Z" fill="white"/>
</g>
<path d="M199.491 199.566L204.159 148.07C204.339 145.377 202.753 142.894 200.239 141.906C200.239 141.906 188.719 135.622 183.603 134.216C178.441 132.78 162.508 130.595 162.508 130.595C159.456 130.072 156.493 131.882 155.581 134.829L137.717 199.566H199.491Z" fill="#605EFD"/>
<g opacity="0.4">
<path d="M165.59 164.153C165.41 164.153 165.245 164.034 165.186 163.869C165.111 163.645 165.23 163.405 165.455 163.33C165.575 163.285 165.649 163.076 165.605 162.911C165.545 162.717 165.35 162.522 165.081 162.418C164.841 162.313 164.557 162.283 164.258 162.238L164.078 162.208C163.884 162.178 163.271 162.089 163.061 161.565C162.956 161.311 162.986 160.996 163.136 160.697C163.196 160.578 163.286 160.458 163.36 160.338C163.39 160.293 163.42 160.248 163.45 160.203C163.615 159.949 163.704 159.665 163.689 159.411C163.675 159.156 163.555 158.902 163.375 158.782C163.166 158.633 162.852 158.588 162.403 158.648C161.7 158.737 160.996 158.977 160.368 159.351C160.174 159.47 159.904 159.411 159.785 159.201C159.665 158.992 159.725 158.737 159.934 158.618C160.652 158.184 161.475 157.914 162.298 157.81C162.732 157.75 163.36 157.72 163.869 158.094C164.258 158.378 164.512 158.857 164.542 159.366C164.572 159.814 164.423 160.278 164.153 160.682C164.108 160.742 164.078 160.787 164.034 160.847C163.974 160.922 163.914 160.996 163.884 161.086C163.839 161.176 163.839 161.236 163.839 161.251C163.839 161.251 163.869 161.326 164.198 161.37L164.363 161.4C164.692 161.445 165.036 161.505 165.38 161.64C165.904 161.849 166.263 162.238 166.397 162.687C166.577 163.3 166.263 163.974 165.694 164.153C165.679 164.153 165.634 164.153 165.59 164.153Z" fill="white"/>
</g>
<path d="M141.098 189.393C141.068 189.393 141.023 189.393 140.993 189.378C140.769 189.318 140.634 189.078 140.694 188.854L153.396 140.305C153.456 140.081 153.681 139.946 153.92 140.006C154.144 140.066 154.279 140.305 154.219 140.53L141.517 189.078C141.457 189.273 141.293 189.393 141.098 189.393Z" fill="#030047"/>
<path d="M174.94 116.278L173.429 131.867C173.429 131.867 163.181 139.707 172.606 143.911C186.101 149.925 189.213 136.864 189.213 136.864L191.577 116.906L174.94 116.278Z" fill="white"/>
<path d="M179.129 145.916C177.08 145.916 174.851 145.377 172.412 144.3C169.839 143.148 168.432 141.622 168.208 139.737C167.774 136.056 172.128 132.361 173.01 131.643L174.506 116.233C174.521 116.008 174.716 115.844 174.94 115.844L191.562 116.472C191.682 116.472 191.786 116.532 191.876 116.622C191.951 116.711 191.996 116.831 191.981 116.951L189.617 136.909C189.557 137.193 188.211 142.624 183.543 144.928C182.211 145.586 180.73 145.916 179.129 145.916ZM175.314 116.711L173.833 131.912C173.818 132.032 173.758 132.136 173.669 132.211C173.624 132.256 168.627 136.116 169.046 139.647C169.225 141.203 170.482 142.519 172.756 143.537C176.84 145.362 180.341 145.571 183.154 144.18C187.463 142.056 188.764 136.819 188.779 136.774L191.083 117.325L175.314 116.711Z" fill="#030047"/>
<path d="M184.126 95.0927C183.797 97.5763 181.074 99.2669 178.067 98.848C175.06 98.444 172.891 96.0951 173.235 93.6116C173.564 91.128 178.321 86.0113 181.329 86.4302C184.336 86.8342 184.455 92.6092 184.126 95.0927Z" fill="#030047"/>
<path d="M191.876 120.272C192.564 119.659 193.223 118.986 193.821 118.267C196.514 115.021 198.639 111.071 201.481 107.166L182.256 90.5295C181.792 90.739 172.427 96.3045 167.938 109.006C164.856 117.729 167.789 122.442 174.252 124.282C177.304 125.15 180.461 125.209 183.438 124.551" fill="white"/>
<path d="M179.384 125.434C177.603 125.434 175.838 125.194 174.132 124.701C170.811 123.758 168.507 122.083 167.295 119.749C165.874 117.011 165.964 113.36 167.534 108.872C172.217 95.5865 181.972 90.2004 182.077 90.1556C182.226 90.0808 182.406 90.1107 182.525 90.2154L201.751 106.852C201.915 107.002 201.945 107.241 201.81 107.421C200.628 109.051 199.551 110.697 198.519 112.298C197.068 114.527 195.706 116.637 194.12 118.552C193.507 119.285 192.849 119.973 192.131 120.616C191.951 120.766 191.682 120.751 191.532 120.586C191.382 120.407 191.397 120.138 191.562 119.988C192.235 119.39 192.879 118.716 193.462 118.028C195.003 116.158 196.365 114.078 197.801 111.864C198.773 110.368 199.776 108.812 200.883 107.271L182.181 91.0981C180.7 91.9958 172.472 97.4267 168.327 109.201C166.831 113.45 166.727 116.876 168.043 119.405C169.135 121.529 171.26 123.055 174.357 123.938C177.259 124.761 180.371 124.865 183.333 124.207C183.558 124.162 183.797 124.297 183.842 124.536C183.887 124.761 183.752 125 183.513 125.045C182.166 125.284 180.775 125.434 179.384 125.434Z" fill="#030047"/>
<path d="M190.619 127.005L190.47 123.399L189.258 115.171C188.63 115.784 187.582 115.47 187.403 114.602C187.089 113.061 189.303 108.618 191.741 106.014C191.741 106.014 175.03 100.434 177.199 92.5494C181.014 78.7253 188.734 80.5356 196.843 92.0108C200.853 97.696 212.148 103.411 203.695 112.178C206.149 120.347 195.392 127.543 190.619 127.005Z" fill="#030047"/>
<path d="M187.134 121.499C187.134 121.499 188.989 123.444 192.101 123.698C195.213 123.953 199.192 115.919 197.128 114.198C195.063 112.478 189.258 115.156 189.258 115.156" fill="white"/>
<path d="M192.235 124.132C192.175 124.132 192.116 124.132 192.056 124.132C188.824 123.863 186.894 121.873 186.819 121.798C186.655 121.634 186.67 121.365 186.834 121.2C186.999 121.035 187.268 121.05 187.433 121.215C187.448 121.23 189.228 123.055 192.131 123.295C193.672 123.414 195.631 120.976 196.619 118.537C197.382 116.667 197.472 115.066 196.843 114.557C195.317 113.301 190.979 114.871 189.423 115.575C189.213 115.679 188.959 115.575 188.854 115.365C188.749 115.156 188.854 114.901 189.063 114.797C189.677 114.512 195.168 112.059 197.382 113.899C198.339 114.692 198.339 116.547 197.397 118.851C196.32 121.514 194.21 124.132 192.235 124.132Z" fill="#030047"/>
<path d="M190.859 117.071C191.412 116.577 192.086 116.218 192.789 115.993C193.238 115.859 193.702 115.769 194.165 115.844C194.629 115.919 195.063 116.173 195.302 116.577C195.631 117.145 195.467 117.878 195.228 118.492C194.794 119.614 193.941 120.676 192.684 120.96" fill="white"/>
<path d="M192.669 121.394C192.475 121.394 192.295 121.26 192.25 121.065C192.205 120.841 192.34 120.601 192.579 120.557C193.941 120.257 194.599 118.911 194.824 118.342C195.093 117.654 195.123 117.145 194.928 116.801C194.779 116.532 194.465 116.338 194.09 116.278C193.761 116.218 193.372 116.263 192.909 116.412C192.265 116.622 191.637 116.966 191.128 117.415C190.949 117.564 190.679 117.549 190.53 117.37C190.38 117.19 190.395 116.921 190.575 116.771C191.173 116.248 191.891 115.844 192.654 115.604C193.238 115.425 193.761 115.365 194.225 115.455C194.853 115.56 195.377 115.919 195.661 116.397C195.991 116.981 195.976 117.729 195.602 118.671C195.033 120.138 193.986 121.125 192.744 121.394C192.744 121.379 192.699 121.394 192.669 121.394Z" fill="#030047"/>
<path d="M179.578 109.53C179.234 110.263 179.354 111.056 179.847 111.281C180.341 111.505 181.014 111.101 181.373 110.368C181.718 109.635 181.598 108.842 181.104 108.618C180.596 108.378 179.922 108.797 179.578 109.53Z" fill="#030047"/>
<path d="M176.586 108.468C176.332 109.216 174.731 111.385 174.058 111.789C173.384 112.208 171.649 112.343 171.424 113.106C171.23 113.809 171.409 114.617 171.888 115.171" fill="white"/>
<path d="M171.903 115.589C171.783 115.589 171.664 115.545 171.589 115.44C171.005 114.782 170.796 113.824 171.035 112.986C171.245 112.268 172.142 111.999 172.95 111.759C173.294 111.655 173.668 111.55 173.863 111.43C174.446 111.071 175.987 108.977 176.212 108.333C176.287 108.109 176.526 107.989 176.75 108.064C176.975 108.139 177.095 108.378 177.02 108.603C176.736 109.455 175.09 111.685 174.312 112.163C174.028 112.343 173.624 112.463 173.205 112.582C172.696 112.732 171.933 112.956 171.858 113.226C171.694 113.794 171.843 114.452 172.232 114.886C172.382 115.066 172.367 115.335 172.202 115.485C172.098 115.56 171.993 115.589 171.903 115.589Z" fill="#030047"/>
<path d="M176.526 119.24C176.077 119.24 175.628 119.15 175.224 118.971C175.015 118.881 174.91 118.626 175 118.417C175.09 118.208 175.344 118.103 175.554 118.193C176.152 118.462 176.885 118.462 177.484 118.193C178.082 117.923 178.576 117.4 178.785 116.771C178.86 116.547 179.099 116.427 179.324 116.502C179.548 116.577 179.668 116.816 179.593 117.041C179.309 117.893 178.651 118.612 177.828 118.971C177.439 119.15 176.99 119.24 176.526 119.24Z" fill="#030047"/>
<path d="M182.885 108.767C182.72 108.767 182.57 108.678 182.496 108.528C182.181 107.855 181.688 107.256 180.251 107.301C180.027 107.316 179.818 107.122 179.803 106.897C179.788 106.658 179.982 106.463 180.207 106.448C181.703 106.388 182.675 106.927 183.259 108.154C183.363 108.363 183.274 108.618 183.064 108.722C183.019 108.752 182.959 108.767 182.885 108.767Z" fill="#030047"/>
<path d="M172.906 105.97C172.561 106.703 172.681 107.496 173.175 107.72C173.669 107.944 174.342 107.54 174.701 106.807C175.045 106.074 174.925 105.281 174.432 105.057C173.923 104.818 173.25 105.221 172.906 105.97Z" fill="#030047"/>
<path d="M176.212 105.192C176.077 105.192 175.943 105.132 175.853 104.997C175.284 104.159 174.521 103.74 173.549 103.725C173.309 103.725 173.13 103.531 173.13 103.291C173.13 103.052 173.324 102.873 173.549 102.873C174.806 102.888 175.823 103.456 176.541 104.518C176.676 104.713 176.616 104.982 176.421 105.102C176.376 105.177 176.302 105.192 176.212 105.192Z" fill="#030047"/>
<g opacity="0.4">
<path d="M173.803 159.441C173.28 159.441 172.786 159.111 172.651 158.618C172.591 158.393 172.726 158.154 172.95 158.094C173.175 158.034 173.414 158.169 173.474 158.393C173.504 158.513 173.713 158.603 173.893 158.573C174.102 158.528 174.297 158.348 174.417 158.079C174.536 157.84 174.596 157.555 174.656 157.271L174.686 157.107C174.731 156.912 174.865 156.314 175.389 156.134C175.658 156.044 175.973 156.089 176.257 156.254C176.376 156.329 176.481 156.418 176.601 156.508C176.646 156.538 176.691 156.583 176.721 156.613C176.96 156.792 177.244 156.897 177.499 156.912C177.753 156.897 178.007 156.807 178.142 156.643C178.306 156.448 178.366 156.134 178.336 155.685C178.292 154.967 178.097 154.264 177.768 153.621C177.663 153.411 177.738 153.157 177.947 153.052C178.157 152.947 178.411 153.022 178.516 153.232C178.89 153.98 179.129 154.803 179.174 155.64C179.204 156.074 179.189 156.703 178.785 157.196C178.486 157.57 177.992 157.78 177.469 157.78C177.02 157.78 176.571 157.615 176.182 157.316C176.122 157.271 176.077 157.226 176.032 157.196C175.958 157.136 175.883 157.077 175.808 157.032C175.718 156.987 175.658 156.972 175.643 156.987C175.643 156.987 175.569 157.017 175.494 157.331L175.464 157.496C175.389 157.825 175.329 158.169 175.165 158.498C174.925 159.007 174.521 159.351 174.058 159.455C173.983 159.426 173.893 159.441 173.803 159.441Z" fill="white"/>
</g>
<g opacity="0.4">
<path d="M166.158 152.962C165.934 152.962 165.739 152.783 165.739 152.558C165.724 152.319 165.904 152.124 166.143 152.109C166.263 152.109 166.397 151.915 166.397 151.735C166.397 151.526 166.248 151.302 166.023 151.122C165.814 150.957 165.56 150.853 165.275 150.733L165.111 150.658C164.931 150.583 164.378 150.329 164.303 149.776C164.273 149.491 164.378 149.207 164.602 148.953C164.692 148.848 164.812 148.758 164.916 148.668C164.961 148.638 165.006 148.594 165.051 148.564C165.275 148.369 165.44 148.115 165.5 147.861C165.56 147.606 165.5 147.337 165.365 147.172C165.201 146.978 164.916 146.858 164.453 146.783C163.749 146.679 163.001 146.723 162.313 146.918C162.089 146.978 161.849 146.843 161.789 146.619C161.73 146.394 161.864 146.155 162.089 146.095C162.897 145.871 163.749 145.811 164.572 145.931C165.006 145.99 165.62 146.125 166.023 146.619C166.323 146.993 166.442 147.516 166.338 148.025C166.248 148.459 165.994 148.878 165.62 149.192C165.575 149.237 165.515 149.282 165.47 149.312C165.395 149.372 165.32 149.431 165.26 149.491C165.201 149.566 165.171 149.626 165.186 149.641C165.186 149.641 165.201 149.716 165.5 149.85L165.649 149.925C165.964 150.06 166.278 150.194 166.577 150.419C167.026 150.763 167.28 151.227 167.28 151.691C167.295 152.334 166.801 152.887 166.218 152.932C166.173 152.962 166.173 152.962 166.158 152.962Z" fill="white"/>
</g>
<g opacity="0.4">
<path d="M160.757 141.816C160.234 141.816 159.74 141.487 159.605 140.993C159.545 140.769 159.68 140.53 159.904 140.47C160.129 140.41 160.368 140.545 160.428 140.769C160.458 140.889 160.667 140.978 160.847 140.949C161.056 140.904 161.251 140.724 161.371 140.455C161.49 140.215 161.55 139.946 161.61 139.647L161.655 139.467C161.7 139.273 161.834 138.674 162.358 138.495C162.627 138.405 162.927 138.45 163.226 138.615C163.345 138.689 163.45 138.779 163.57 138.869C163.615 138.899 163.66 138.944 163.704 138.974C163.944 139.153 164.228 139.258 164.482 139.273C164.767 139.273 164.991 139.168 165.126 139.004C165.29 138.809 165.35 138.495 165.32 138.046C165.275 137.328 165.081 136.625 164.752 135.981C164.647 135.772 164.722 135.518 164.931 135.413C165.141 135.308 165.395 135.383 165.5 135.592C165.874 136.341 166.113 137.163 166.158 138.001C166.188 138.435 166.173 139.063 165.769 139.557C165.47 139.931 164.976 140.141 164.453 140.141C164.004 140.141 163.555 139.976 163.166 139.677C163.106 139.632 163.061 139.587 163.016 139.557C162.941 139.497 162.867 139.438 162.792 139.393C162.702 139.348 162.642 139.333 162.627 139.348C162.627 139.348 162.552 139.378 162.478 139.692L162.448 139.856C162.373 140.186 162.313 140.53 162.149 140.859C161.909 141.367 161.505 141.712 161.041 141.816C160.937 141.816 160.847 141.816 160.757 141.816Z" fill="white"/>
</g>
<g opacity="0.4">
<path d="M148.818 178.486C148.295 178.486 147.801 178.157 147.666 177.663C147.606 177.439 147.741 177.199 147.965 177.139C148.19 177.08 148.429 177.214 148.489 177.439C148.519 177.558 148.743 177.648 148.908 177.618C149.117 177.573 149.312 177.394 149.432 177.125C149.551 176.885 149.611 176.601 149.671 176.317L149.701 176.137C149.746 175.943 149.88 175.344 150.404 175.165C150.673 175.075 150.988 175.12 151.272 175.284C151.392 175.359 151.496 175.449 151.616 175.539C151.661 175.569 151.706 175.613 151.736 175.643C151.975 175.823 152.259 175.928 152.514 175.943C152.783 175.943 153.022 175.838 153.157 175.673C153.321 175.479 153.381 175.165 153.351 174.716C153.307 173.998 153.112 173.294 152.783 172.651C152.678 172.442 152.753 172.187 152.962 172.083C153.172 171.978 153.426 172.053 153.531 172.262C153.905 173.01 154.144 173.833 154.189 174.671C154.219 175.105 154.204 175.733 153.8 176.227C153.501 176.601 153.007 176.81 152.484 176.81C152.035 176.81 151.586 176.646 151.197 176.347C151.137 176.302 151.092 176.257 151.047 176.227C150.973 176.167 150.898 176.107 150.823 176.062C150.733 176.017 150.673 176.002 150.658 176.017C150.658 176.017 150.584 176.047 150.509 176.362L150.479 176.526C150.404 176.855 150.344 177.199 150.18 177.528C149.94 178.037 149.536 178.381 149.073 178.486C149.013 178.471 148.908 178.486 148.818 178.486Z" fill="white"/>
</g>
<g opacity="0.4">
<path d="M163.36 181.418C163.226 181.418 163.076 181.388 162.956 181.329C162.747 181.239 162.642 180.984 162.747 180.76C162.837 180.551 163.091 180.446 163.315 180.551C163.435 180.596 163.63 180.491 163.704 180.341C163.794 180.147 163.779 179.877 163.645 179.623C163.525 179.384 163.345 179.159 163.166 178.935L163.046 178.8C162.926 178.651 162.537 178.172 162.732 177.648C162.837 177.379 163.061 177.169 163.375 177.05C163.51 177.005 163.645 176.975 163.779 176.945C163.839 176.93 163.884 176.93 163.944 176.915C164.243 176.84 164.497 176.691 164.662 176.481C164.827 176.287 164.901 176.017 164.856 175.808C164.812 175.569 164.602 175.314 164.228 175.06C163.645 174.656 162.971 174.357 162.253 174.207C162.029 174.162 161.879 173.938 161.924 173.698C161.969 173.474 162.193 173.324 162.433 173.369C163.256 173.534 164.049 173.878 164.722 174.357C165.081 174.611 165.56 175.015 165.694 175.628C165.799 176.092 165.664 176.616 165.335 177.02C165.051 177.364 164.632 177.618 164.168 177.738C164.108 177.753 164.034 177.768 163.974 177.783C163.884 177.798 163.794 177.813 163.704 177.858C163.615 177.888 163.57 177.932 163.57 177.947C163.57 177.947 163.54 178.022 163.749 178.277L163.854 178.411C164.064 178.666 164.288 178.935 164.453 179.279C164.692 179.788 164.707 180.311 164.497 180.745C164.243 181.149 163.794 181.418 163.36 181.418Z" fill="white"/>
</g>
<g opacity="0.4">
<path d="M183.124 178.86C182.944 178.86 182.78 178.74 182.72 178.576C182.645 178.351 182.765 178.112 182.989 178.037C183.184 177.977 183.289 177.663 183.229 177.424C183.154 177.154 182.9 176.915 182.541 176.765C182.241 176.646 181.897 176.586 181.523 176.541L181.314 176.511C181.059 176.466 180.401 176.376 180.162 175.793C180.042 175.494 180.072 175.15 180.237 174.82C180.311 174.671 180.416 174.521 180.506 174.401C180.551 174.342 180.581 174.297 180.626 174.237C180.835 173.923 180.955 173.564 180.925 173.22C180.91 172.875 180.745 172.561 180.506 172.397C180.237 172.202 179.848 172.142 179.264 172.217C178.396 172.322 177.544 172.621 176.795 173.07C176.601 173.19 176.332 173.13 176.212 172.92C176.092 172.726 176.152 172.457 176.362 172.337C177.214 171.828 178.187 171.499 179.159 171.364C179.668 171.305 180.401 171.26 181 171.693C181.448 172.023 181.733 172.561 181.763 173.16C181.792 173.668 181.628 174.222 181.314 174.686C181.269 174.746 181.224 174.82 181.179 174.88C181.104 174.97 181.044 175.075 180.985 175.179C180.925 175.299 180.91 175.404 180.94 175.449C180.955 175.494 181.044 175.583 181.433 175.643L181.643 175.673C182.047 175.733 182.451 175.793 182.855 175.957C183.453 176.197 183.887 176.631 184.037 177.154C184.216 177.768 183.947 178.591 183.259 178.815C183.214 178.86 183.169 178.86 183.124 178.86Z" fill="white"/>
</g>
<g opacity="0.4">
<path d="M192.879 169.554C192.579 169.554 192.265 169.494 191.966 169.33C191.517 169.075 191.203 168.612 191.098 168.058C191.023 167.594 191.113 167.071 191.353 166.607C191.382 166.547 191.427 166.487 191.457 166.412C191.502 166.323 191.562 166.233 191.607 166.128C191.652 166.023 191.637 165.949 191.622 165.919C191.607 165.904 191.547 165.829 191.188 165.814H191.008C190.649 165.799 190.26 165.799 189.886 165.679C189.318 165.515 188.869 165.156 188.675 164.692C188.435 164.138 188.615 163.345 189.228 163.061C189.438 162.956 189.692 163.061 189.797 163.271C189.901 163.48 189.797 163.734 189.587 163.839C189.452 163.899 189.378 164.168 189.467 164.363C189.557 164.587 189.812 164.767 190.126 164.856C190.41 164.931 190.724 164.946 191.053 164.961H191.248C191.457 164.976 192.101 164.991 192.385 165.515C192.534 165.769 192.534 166.098 192.415 166.427C192.355 166.562 192.295 166.697 192.22 166.831C192.19 166.876 192.16 166.936 192.131 166.996C191.981 167.295 191.921 167.624 191.966 167.909C192.011 168.193 192.175 168.462 192.4 168.582C192.654 168.716 192.998 168.731 193.492 168.612C194.255 168.432 194.988 168.073 195.616 167.594C195.811 167.46 196.065 167.49 196.215 167.669C196.35 167.864 196.32 168.118 196.14 168.268C195.422 168.821 194.584 169.21 193.701 169.435C193.447 169.494 193.163 169.554 192.879 169.554Z" fill="white"/>
</g>
<g opacity="0.4">
<path d="M189.318 183.782C189.108 183.782 188.929 183.618 188.899 183.408C188.794 182.51 188.869 181.583 189.123 180.715C189.258 180.266 189.497 179.638 190.081 179.294C190.53 179.039 191.098 178.995 191.622 179.189C192.071 179.354 192.46 179.698 192.744 180.132C192.789 180.191 192.819 180.251 192.849 180.311C192.894 180.401 192.953 180.491 193.013 180.58C193.088 180.67 193.163 180.7 193.178 180.7C193.193 180.7 193.298 180.685 193.492 180.386L193.597 180.221C193.791 179.907 193.986 179.593 194.27 179.324C194.704 178.905 195.228 178.71 195.736 178.77C196.409 178.86 196.918 179.458 196.858 180.072C196.828 180.311 196.619 180.476 196.394 180.461C196.155 180.431 195.991 180.236 196.005 179.997C196.02 179.847 195.826 179.653 195.617 179.623C195.377 179.593 195.093 179.713 194.853 179.937C194.644 180.147 194.479 180.401 194.3 180.685L194.195 180.85C194.076 181.029 193.731 181.583 193.148 181.553C192.849 181.538 192.564 181.388 192.34 181.119C192.25 180.999 192.16 180.865 192.101 180.745C192.071 180.7 192.041 180.64 192.011 180.595C191.831 180.311 191.577 180.087 191.308 179.982C191.038 179.877 190.724 179.892 190.515 180.027C190.26 180.176 190.081 180.476 189.931 180.954C189.707 181.703 189.632 182.51 189.737 183.288C189.767 183.528 189.602 183.737 189.363 183.767C189.363 183.767 189.348 183.782 189.318 183.782Z" fill="white"/>
</g>
<g opacity="0.4">
<path d="M165.171 196.709C165.081 196.709 164.991 196.679 164.901 196.619C164.722 196.469 164.692 196.2 164.827 196.02C165.111 195.661 165.066 195.422 165.006 195.272C164.752 194.569 163.33 193.926 162.418 193.731C162.193 193.686 162.044 193.462 162.089 193.223C162.134 192.998 162.358 192.849 162.597 192.893C163.345 193.043 165.365 193.731 165.814 194.988C165.949 195.347 165.993 195.916 165.5 196.544C165.425 196.649 165.305 196.709 165.171 196.709Z" fill="white"/>
</g>
<g opacity="0.4">
<path d="M152.289 195.871C152.244 195.871 152.199 195.871 152.155 195.871C151.721 195.856 151.092 195.796 150.643 195.347C150.299 195.018 150.12 194.494 150.18 193.986C150.225 193.537 150.434 193.103 150.763 192.744C150.808 192.699 150.853 192.654 150.898 192.594C150.958 192.534 151.032 192.46 151.092 192.385C151.152 192.31 151.152 192.25 151.152 192.235C151.152 192.235 151.137 192.16 150.823 192.056L150.658 192.011C150.329 191.906 150 191.816 149.686 191.622C149.207 191.338 148.893 190.904 148.833 190.44C148.743 189.812 149.162 189.183 149.746 189.093C149.97 189.063 150.195 189.213 150.24 189.437C150.284 189.662 150.12 189.886 149.895 189.931C149.776 189.946 149.656 190.156 149.686 190.32C149.716 190.53 149.88 190.739 150.135 190.889C150.359 191.023 150.629 191.113 150.928 191.188L151.092 191.233C151.287 191.293 151.87 191.472 152.005 192.011C152.065 192.28 152.005 192.594 151.81 192.864C151.736 192.983 151.631 193.073 151.526 193.178C151.481 193.223 151.451 193.253 151.406 193.297C151.197 193.522 151.077 193.791 151.047 194.046C151.017 194.3 151.107 194.569 151.272 194.719C151.451 194.898 151.766 194.988 152.214 194.988C152.918 195.003 153.651 194.868 154.324 194.599C154.548 194.509 154.788 194.614 154.877 194.838C154.967 195.063 154.862 195.302 154.638 195.392C153.875 195.721 153.082 195.871 152.289 195.871Z" fill="white"/>
</g>
<g opacity="0.4">
<path d="M172.038 194.853C171.454 194.853 170.871 194.764 170.317 194.614C169.898 194.494 169.315 194.27 168.986 193.716C168.746 193.297 168.701 192.759 168.881 192.28C169.031 191.861 169.345 191.487 169.764 191.233C169.824 191.203 169.883 191.158 169.943 191.128C170.018 191.083 170.108 191.038 170.183 190.978C170.257 190.919 170.287 190.859 170.287 190.844C170.287 190.844 170.287 190.769 170.018 190.589L169.868 190.5C169.584 190.32 169.285 190.141 169.031 189.871C168.642 189.467 168.447 188.974 168.507 188.51C168.582 187.881 169.15 187.388 169.734 187.448C169.973 187.463 170.138 187.672 170.123 187.911C170.108 188.151 169.898 188.315 169.659 188.3C169.539 188.27 169.375 188.465 169.36 188.629C169.33 188.839 169.435 189.093 169.644 189.288C169.824 189.482 170.078 189.632 170.332 189.781L170.482 189.871C170.646 189.976 171.17 190.305 171.155 190.859C171.155 191.143 171.005 191.412 170.736 191.637C170.631 191.726 170.512 191.801 170.392 191.861C170.347 191.891 170.302 191.921 170.257 191.951C170.003 192.115 169.809 192.34 169.719 192.579C169.629 192.819 169.644 193.088 169.749 193.282C169.883 193.507 170.153 193.656 170.587 193.791C171.275 193.986 172.008 194.045 172.726 193.956C172.965 193.926 173.175 194.09 173.205 194.33C173.235 194.569 173.07 194.778 172.831 194.808C172.546 194.838 172.292 194.853 172.038 194.853Z" fill="white"/>
</g>
<g opacity="0.4">
<path d="M185.817 196.664C185.637 196.664 185.473 196.544 185.413 196.364C185.219 195.766 184.919 195.197 184.53 194.704C184.381 194.524 184.426 194.255 184.605 194.105C184.785 193.956 185.054 194 185.204 194.18C185.652 194.763 185.997 195.407 186.221 196.11C186.296 196.334 186.161 196.574 185.952 196.649C185.907 196.649 185.862 196.664 185.817 196.664Z" fill="white"/>
</g>
<g opacity="0.4">
<path d="M146.439 137.477C145.916 137.477 145.422 137.148 145.287 136.655C145.228 136.43 145.362 136.191 145.587 136.131C145.811 136.071 146.05 136.206 146.11 136.43C146.14 136.55 146.35 136.64 146.529 136.61C146.739 136.565 146.933 136.385 147.053 136.116C147.173 135.877 147.232 135.607 147.292 135.308L147.337 135.129C147.382 134.934 147.517 134.336 148.04 134.156C148.31 134.066 148.624 134.111 148.908 134.276C149.028 134.351 149.132 134.44 149.237 134.53C149.282 134.56 149.327 134.605 149.372 134.635C149.611 134.814 149.895 134.919 150.15 134.934C150.15 134.934 150.15 134.934 150.165 134.934C150.419 134.934 150.673 134.829 150.808 134.665C150.973 134.47 151.032 134.156 151.003 133.707C150.958 132.989 150.763 132.286 150.434 131.643C150.329 131.433 150.404 131.179 150.614 131.074C150.823 130.969 151.077 131.044 151.182 131.254C151.556 132.002 151.795 132.825 151.84 133.662C151.87 134.096 151.855 134.725 151.451 135.218C151.152 135.592 150.658 135.802 150.135 135.802C149.686 135.802 149.237 135.637 148.848 135.338C148.788 135.293 148.743 135.248 148.699 135.203C148.624 135.144 148.549 135.084 148.474 135.039C148.384 134.994 148.325 134.979 148.31 134.994C148.31 134.994 148.235 135.024 148.16 135.338L148.13 135.503C148.055 135.832 147.995 136.176 147.831 136.505C147.591 137.014 147.187 137.358 146.724 137.462C146.619 137.462 146.529 137.477 146.439 137.477Z" fill="white"/>
</g>
<path d="M142.938 168.223L138.794 188.63L131.882 187.448L116.936 185.533C116.293 185.368 115.814 184.829 115.575 184.261C115.41 183.872 115.35 183.453 115.425 183.019C115.634 181.912 116.682 181.119 117.789 181.284L121.559 181.703L114.527 180.865C113.719 180.775 113.001 180.281 112.657 179.548V179.533C112.478 179.144 112.418 178.725 112.508 178.291C112.702 177.199 113.764 176.406 114.856 176.571L122.038 177.379L111.311 176.122C110.667 175.943 110.204 175.404 109.949 174.85C109.785 174.461 109.725 174.042 109.815 173.609C110.009 172.516 111.056 171.783 112.163 171.948L122.546 173.025L115.006 172.172C114.363 172.008 113.884 171.469 113.645 170.886C113.48 170.512 113.405 170.078 113.51 169.644C113.704 168.552 114.752 167.819 115.844 167.983L128.74 169.345L123.983 166.248C123.683 166.008 123.459 165.709 123.294 165.365C123.04 164.767 123.04 164.048 123.354 163.405C123.983 162.163 125.539 161.774 126.691 162.552L142.938 168.223Z" fill="white"/>
<path d="M138.779 189.063C138.749 189.063 138.734 189.063 138.704 189.063L131.792 187.882L116.861 185.967C116.113 185.772 115.485 185.203 115.156 184.44C114.946 183.947 114.886 183.438 114.976 182.959C115.081 182.361 115.395 181.852 115.829 181.493L114.467 181.329C113.51 181.224 112.657 180.625 112.268 179.758C112.253 179.728 112.238 179.698 112.238 179.653C112.044 179.189 111.999 178.695 112.089 178.232C112.193 177.648 112.507 177.139 112.926 176.765L111.266 176.571C111.251 176.571 111.221 176.571 111.206 176.556C110.518 176.361 109.904 175.793 109.56 175.045C109.351 174.566 109.291 174.043 109.396 173.549C109.635 172.232 110.877 171.35 112.223 171.544L113.6 171.694C113.465 171.514 113.345 171.305 113.256 171.08C113.031 170.601 112.986 170.093 113.091 169.584C113.33 168.297 114.587 167.4 115.904 167.594L127.005 168.761L123.728 166.637C123.354 166.338 123.085 165.993 122.89 165.575C122.576 164.826 122.591 163.974 122.95 163.256C123.309 162.567 123.938 162.059 124.686 161.864C125.419 161.67 126.212 161.804 126.87 162.208L143.073 167.834C143.267 167.908 143.387 168.118 143.357 168.327L139.213 188.734C139.153 188.914 138.989 189.063 138.779 189.063ZM117.49 181.688C116.697 181.688 115.978 182.271 115.829 183.094C115.769 183.408 115.799 183.752 115.949 184.081C116.128 184.485 116.502 184.979 117.026 185.114L131.927 187.014L138.45 188.136L142.445 168.507L126.541 162.986C126.511 162.971 126.481 162.956 126.436 162.941C125.987 162.642 125.419 162.537 124.895 162.672C124.372 162.807 123.953 163.151 123.713 163.63C123.474 164.123 123.444 164.722 123.668 165.215C123.803 165.5 123.983 165.739 124.222 165.934L128.95 169.001C129.114 169.105 129.189 169.315 129.114 169.494C129.054 169.674 128.86 169.794 128.665 169.779L115.769 168.417C114.886 168.282 114.048 168.881 113.899 169.734C113.809 170.153 113.914 170.497 114.004 170.721C114.228 171.26 114.617 171.634 115.066 171.768L122.576 172.621C122.816 172.651 122.98 172.861 122.95 173.085C122.92 173.324 122.711 173.474 122.487 173.459L112.104 172.382C111.206 172.247 110.383 172.831 110.218 173.698C110.144 174.028 110.189 174.372 110.323 174.686C110.548 175.209 110.952 175.584 111.385 175.718L122.083 176.975C122.322 177.005 122.487 177.214 122.457 177.454C122.427 177.693 122.217 177.858 121.993 177.828L114.811 177.005C113.944 176.87 113.091 177.499 112.926 178.381C112.852 178.71 112.896 179.04 113.046 179.369C113.061 179.399 113.061 179.429 113.076 179.443C113.36 179.997 113.929 180.386 114.572 180.446L121.604 181.284C121.843 181.314 122.008 181.523 121.978 181.762C121.948 182.002 121.738 182.166 121.514 182.136L117.744 181.718C117.654 181.703 117.564 181.688 117.49 181.688Z" fill="#030047"/>
<path d="M193.821 138.6L198.594 140.754C205.491 143.716 207.495 148.908 208.184 156.373C208.647 161.43 207.211 166.487 204.159 170.557L188.27 190.38C184.366 194.868 178.381 196.963 172.516 195.916L134.77 188.989L139.288 165.32L172.741 171.768L193.821 138.6Z" fill="#605EFD"/>
<g opacity="0.4">
<path d="M189.827 151.945C189.797 151.945 189.752 151.945 189.722 151.93C189.497 151.87 189.363 151.631 189.423 151.406C189.662 150.524 190.081 149.671 190.649 148.938C190.949 148.564 191.412 148.055 192.086 147.935C192.594 147.845 193.163 148.01 193.582 148.369C193.941 148.683 194.195 149.147 194.3 149.671C194.315 149.746 194.33 149.82 194.33 149.88C194.345 149.985 194.36 150.09 194.39 150.194C194.42 150.299 194.479 150.359 194.494 150.374C194.524 150.389 194.629 150.404 194.928 150.179L195.078 150.06C195.377 149.835 195.691 149.596 196.065 149.446C196.619 149.207 197.202 149.207 197.651 149.431C198.25 149.746 198.519 150.494 198.235 151.062C198.13 151.272 197.876 151.346 197.666 151.242C197.457 151.137 197.367 150.883 197.487 150.673C197.561 150.524 197.442 150.284 197.262 150.179C197.053 150.06 196.724 150.075 196.409 150.209C196.125 150.329 195.871 150.524 195.601 150.733L195.437 150.853C195.242 150.987 194.734 151.376 194.195 151.152C193.911 151.032 193.701 150.793 193.597 150.449C193.552 150.299 193.522 150.149 193.507 150C193.492 149.94 193.492 149.88 193.477 149.82C193.417 149.491 193.253 149.192 193.043 148.997C192.819 148.803 192.519 148.713 192.265 148.758C191.966 148.818 191.682 149.027 191.353 149.446C190.859 150.075 190.485 150.823 190.275 151.601C190.201 151.81 190.021 151.945 189.827 151.945Z" fill="white"/>
</g>
<g opacity="0.4">
<path d="M191.367 171.02H191.353C190.874 171.02 190.41 170.781 190.111 170.377C189.841 170.033 189.707 169.584 189.707 169.12C189.707 169.06 189.707 168.986 189.707 168.926C189.707 168.836 189.722 168.746 189.707 168.656C189.692 168.582 189.677 168.537 189.662 168.522C189.662 168.522 189.587 168.492 189.318 168.627L189.168 168.701C188.869 168.851 188.57 169.001 188.211 169.075C187.672 169.195 187.163 169.105 186.804 168.806C186.311 168.417 186.206 167.699 186.565 167.235C186.715 167.056 186.984 167.011 187.163 167.16C187.343 167.31 187.388 167.579 187.238 167.759C187.163 167.849 187.223 168.043 187.343 168.133C187.493 168.253 187.747 168.297 188.031 168.238C188.286 168.178 188.54 168.058 188.794 167.923L188.944 167.849C189.123 167.759 189.662 167.504 190.111 167.804C190.35 167.953 190.5 168.223 190.545 168.552C190.56 168.686 190.56 168.821 190.545 168.956C190.545 169.001 190.545 169.06 190.545 169.105C190.545 169.39 190.634 169.659 190.784 169.853C190.934 170.048 191.158 170.168 191.367 170.168C191.592 170.168 191.891 170.033 192.235 169.734C192.759 169.27 193.193 168.701 193.492 168.073C193.597 167.864 193.851 167.774 194.06 167.878C194.27 167.983 194.36 168.238 194.255 168.447C193.911 169.18 193.402 169.838 192.789 170.377C192.475 170.646 191.981 171.02 191.367 171.02Z" fill="white"/>
</g>
<g opacity="0.4">
<path d="M180.984 178.516C180.91 178.516 180.835 178.501 180.76 178.486C180.536 178.426 180.386 178.202 180.446 177.977C180.506 177.753 180.73 177.603 180.955 177.663C181.059 177.678 181.224 177.558 181.254 177.409C181.299 177.214 181.224 176.975 181.059 176.751C180.91 176.541 180.685 176.376 180.461 176.182L180.326 176.077C180.177 175.958 179.713 175.569 179.788 175.03C179.832 174.746 179.997 174.506 180.281 174.327C180.401 174.252 180.521 174.207 180.64 174.147C180.685 174.132 180.73 174.102 180.79 174.087C181.044 173.968 181.254 173.788 181.373 173.564C181.493 173.354 181.508 173.1 181.418 172.906C181.314 172.681 181.074 172.487 180.67 172.307C180.042 172.023 179.339 171.873 178.636 171.858C178.396 171.858 178.217 171.664 178.217 171.424C178.217 171.185 178.426 170.99 178.651 171.005C179.458 171.02 180.281 171.2 181.014 171.529C181.403 171.709 181.942 171.993 182.196 172.561C182.391 172.995 182.361 173.519 182.136 173.968C181.942 174.357 181.598 174.671 181.164 174.865C181.104 174.895 181.044 174.91 180.984 174.94C180.895 174.97 180.82 175 180.745 175.06C180.685 175.105 180.655 175.15 180.64 175.15C180.64 175.15 180.64 175.224 180.88 175.419L181.014 175.524C181.269 175.733 181.538 175.943 181.748 176.242C182.077 176.676 182.211 177.184 182.092 177.633C181.957 178.142 181.478 178.516 180.984 178.516Z" fill="white"/>
</g>
<g opacity="0.4">
<path d="M186.49 186.026C186.026 186.026 185.592 185.727 185.488 185.293C185.428 185.069 185.577 184.829 185.802 184.784C186.026 184.725 186.266 184.874 186.311 185.099C186.311 185.129 186.415 185.188 186.52 185.173C186.655 185.144 186.789 185.024 186.879 184.844C186.969 184.665 187.014 184.455 187.074 184.246L187.104 184.111C187.148 183.947 187.268 183.453 187.732 183.303C187.971 183.228 188.241 183.273 188.48 183.423C188.57 183.483 188.659 183.558 188.749 183.632L188.839 183.707C189.004 183.842 189.198 183.917 189.393 183.932C189.572 183.932 189.737 183.872 189.826 183.767C189.931 183.632 189.991 183.408 189.976 183.079C189.961 182.54 189.826 181.987 189.587 181.493C189.482 181.284 189.572 181.029 189.782 180.924C189.991 180.82 190.245 180.91 190.35 181.119C190.634 181.717 190.799 182.376 190.829 183.034C190.844 183.588 190.739 184.006 190.47 184.306C190.2 184.605 189.797 184.784 189.363 184.769C189.004 184.755 188.63 184.605 188.315 184.366C188.27 184.336 188.226 184.291 188.196 184.261C188.151 184.216 188.091 184.171 188.031 184.126C188.016 184.111 188.001 184.111 187.986 184.096C187.986 184.111 187.956 184.171 187.926 184.291L187.896 184.425C187.837 184.68 187.777 184.964 187.642 185.218C187.433 185.637 187.089 185.907 186.7 185.996C186.64 186.026 186.565 186.026 186.49 186.026Z" fill="white"/>
</g>
<g opacity="0.4">
<path d="M167.43 188.091C167.355 188.091 167.28 188.076 167.205 188.031C167.011 187.911 166.936 187.642 167.056 187.448C167.071 187.418 167.041 187.298 166.951 187.253C166.831 187.178 166.652 187.178 166.472 187.238C166.293 187.298 166.113 187.418 165.919 187.537L165.799 187.612C165.649 187.702 165.215 187.971 164.782 187.747C164.557 187.627 164.408 187.418 164.333 187.133C164.303 187.029 164.303 186.909 164.288 186.789L164.273 186.67C164.243 186.46 164.168 186.266 164.034 186.131C163.914 186.011 163.749 185.936 163.6 185.951C163.435 185.966 163.241 186.086 163.016 186.34C162.657 186.744 162.358 187.223 162.193 187.747C162.119 187.971 161.879 188.091 161.655 188.016C161.43 187.941 161.311 187.702 161.385 187.477C161.595 186.849 161.939 186.251 162.388 185.772C162.762 185.368 163.136 185.144 163.525 185.114C163.929 185.084 164.348 185.248 164.647 185.562C164.901 185.832 165.066 186.191 165.111 186.595C165.111 186.655 165.126 186.699 165.126 186.759C165.126 186.834 165.141 186.894 165.156 186.969C165.156 186.984 165.171 187.014 165.171 187.014C165.186 186.999 165.245 186.984 165.335 186.909L165.455 186.834C165.679 186.684 165.919 186.535 166.203 186.445C166.637 186.295 167.086 186.34 167.415 186.55C167.879 186.849 168.043 187.462 167.774 187.896C167.714 188.016 167.564 188.091 167.43 188.091Z" fill="white"/>
</g>
<g opacity="0.4">
<path d="M176.526 193.312C176.002 193.312 175.509 192.983 175.374 192.49C175.314 192.265 175.449 192.026 175.673 191.966C175.898 191.906 176.137 192.041 176.197 192.265C176.227 192.385 176.436 192.475 176.616 192.445C176.825 192.4 177.02 192.22 177.139 191.951C177.259 191.712 177.319 191.442 177.379 191.143L177.424 190.964C177.469 190.769 177.603 190.171 178.127 189.991C178.396 189.901 178.71 189.946 178.995 190.111C179.114 190.186 179.219 190.275 179.339 190.365C179.384 190.395 179.429 190.44 179.473 190.47C179.713 190.649 179.997 190.754 180.251 190.769C180.506 190.754 180.76 190.664 180.91 190.5C181.074 190.305 181.134 189.991 181.104 189.542C181.059 188.824 180.865 188.121 180.536 187.478C180.431 187.268 180.506 187.014 180.715 186.909C180.925 186.804 181.179 186.879 181.284 187.089C181.658 187.837 181.897 188.659 181.942 189.497C181.972 189.931 181.957 190.56 181.553 191.053C181.254 191.427 180.73 191.637 180.236 191.637C179.788 191.637 179.339 191.472 178.95 191.173C178.89 191.128 178.845 191.083 178.8 191.053C178.725 190.993 178.651 190.934 178.576 190.889C178.486 190.844 178.426 190.829 178.411 190.844C178.411 190.844 178.336 190.874 178.262 191.188L178.232 191.352C178.157 191.682 178.097 192.026 177.932 192.355C177.693 192.864 177.289 193.208 176.825 193.312C176.706 193.297 176.616 193.312 176.526 193.312Z" fill="white"/>
</g>
<g opacity="0.4">
<path d="M151.302 184.53C151.167 184.53 151.032 184.5 150.913 184.455C150.703 184.366 150.598 184.111 150.688 183.902C150.778 183.692 151.032 183.588 151.242 183.677C151.361 183.722 151.556 183.617 151.631 183.453C151.721 183.258 151.691 182.989 151.556 182.735C151.436 182.495 151.257 182.286 151.062 182.062L150.943 181.927C150.808 181.777 150.419 181.313 150.598 180.775C150.688 180.506 150.913 180.296 151.227 180.161C151.361 180.117 151.496 180.072 151.631 180.042C151.691 180.027 151.735 180.012 151.795 179.997C152.095 179.922 152.334 179.758 152.498 179.563C152.663 179.354 152.723 179.099 152.678 178.875C152.618 178.635 152.409 178.381 152.035 178.127C151.436 177.723 150.763 177.454 150.045 177.319C149.82 177.274 149.656 177.05 149.701 176.825C149.746 176.601 149.97 176.436 150.194 176.481C151.017 176.631 151.81 176.96 152.498 177.424C152.858 177.663 153.351 178.067 153.501 178.68C153.606 179.144 153.486 179.668 153.157 180.087C152.887 180.431 152.469 180.7 152.005 180.82C151.945 180.835 151.87 180.85 151.81 180.865C151.721 180.88 151.631 180.91 151.541 180.939C151.451 180.969 151.406 181.029 151.406 181.029C151.406 181.029 151.376 181.104 151.586 181.358L151.691 181.493C151.915 181.747 152.139 182.017 152.304 182.346C152.558 182.84 152.588 183.378 152.379 183.812C152.199 184.261 151.75 184.53 151.302 184.53Z" fill="white"/>
</g>
<g opacity="0.4">
<path d="M163.719 178.92C163.48 178.92 163.226 178.905 162.986 178.875C162.313 178.785 161.834 178.576 161.52 178.217C161.206 177.843 161.086 177.319 161.191 176.81C161.281 176.376 161.52 175.958 161.894 175.628C161.939 175.584 161.999 175.539 162.044 175.494C162.118 175.434 162.193 175.374 162.253 175.299C162.313 175.224 162.328 175.165 162.328 175.15C162.328 175.15 162.313 175.075 162.014 174.94L161.849 174.88C161.535 174.746 161.221 174.626 160.922 174.402C160.473 174.072 160.203 173.609 160.188 173.13C160.159 172.487 160.637 171.918 161.221 171.873C161.46 171.858 161.655 172.038 161.67 172.262C161.685 172.502 161.505 172.696 161.281 172.711C161.161 172.726 161.026 172.92 161.026 173.085C161.041 173.294 161.176 173.519 161.415 173.698C161.625 173.848 161.894 173.968 162.163 174.072L162.328 174.147C162.507 174.222 163.076 174.461 163.151 175.015C163.196 175.299 163.091 175.584 162.867 175.838C162.777 175.943 162.672 176.032 162.552 176.122C162.507 176.152 162.463 176.197 162.433 176.227C162.208 176.436 162.059 176.691 161.999 176.945C161.954 177.199 161.999 177.469 162.148 177.633C162.313 177.828 162.612 177.947 163.061 178.007C163.764 178.097 164.512 178.037 165.2 177.828C165.425 177.768 165.664 177.888 165.724 178.112C165.784 178.336 165.664 178.576 165.44 178.636C164.901 178.83 164.303 178.92 163.719 178.92Z" fill="white"/>
</g>
<g opacity="0.4">
<path d="M195.781 164.183C195.257 164.183 194.764 163.854 194.629 163.36C194.569 163.136 194.704 162.896 194.928 162.837C195.153 162.777 195.392 162.911 195.452 163.136C195.482 163.255 195.706 163.345 195.871 163.315C196.08 163.27 196.275 163.091 196.394 162.822C196.514 162.582 196.574 162.313 196.634 162.014L196.679 161.834C196.724 161.64 196.858 161.041 197.382 160.862C197.651 160.772 197.965 160.817 198.25 160.981C198.369 161.056 198.474 161.146 198.594 161.236C198.639 161.266 198.683 161.31 198.728 161.34C198.968 161.52 199.252 161.625 199.506 161.64C199.506 161.64 199.506 161.64 199.521 161.64C199.776 161.64 200.03 161.535 200.165 161.37C200.329 161.176 200.389 160.862 200.359 160.413C200.314 159.695 200.12 158.992 199.791 158.348C199.686 158.139 199.761 157.884 199.97 157.78C200.18 157.675 200.434 157.75 200.539 157.959C200.913 158.707 201.152 159.53 201.197 160.368C201.227 160.802 201.212 161.43 200.808 161.924C200.509 162.298 200.015 162.507 199.491 162.507C199.042 162.507 198.594 162.343 198.205 162.044C198.145 161.999 198.1 161.954 198.055 161.924C197.98 161.864 197.905 161.804 197.831 161.759C197.741 161.714 197.681 161.699 197.666 161.714C197.666 161.714 197.591 161.744 197.516 162.059L197.487 162.223C197.412 162.552 197.352 162.896 197.187 163.226C196.948 163.734 196.544 164.078 196.08 164.183C195.975 164.183 195.871 164.183 195.781 164.183Z" fill="white"/>
</g>
<path d="M172.741 172.187C172.666 172.187 172.576 172.172 172.502 172.113C172.307 171.978 172.247 171.724 172.382 171.529L183.303 154.773C183.438 154.578 183.692 154.518 183.887 154.653C184.081 154.788 184.141 155.042 184.007 155.236L173.085 171.993C173.025 172.128 172.891 172.187 172.741 172.187Z" fill="#030047"/>
<path d="M175.494 196.589C174.476 196.589 173.459 196.499 172.457 196.32L134.71 189.393C134.605 189.378 134.5 189.303 134.44 189.213C134.381 189.123 134.351 189.004 134.381 188.899L138.899 165.245C138.914 165.141 138.989 165.036 139.078 164.976C139.168 164.916 139.288 164.886 139.393 164.916L176.691 172.307C176.915 172.352 177.065 172.576 177.02 172.801C176.975 173.025 176.75 173.175 176.526 173.13L139.647 165.814L135.293 188.63L172.621 195.482C178.291 196.514 184.186 194.435 187.971 190.096L203.845 170.287C203.995 170.108 204.264 170.078 204.443 170.227C204.623 170.377 204.653 170.646 204.503 170.826L188.615 190.649C185.293 194.449 180.461 196.589 175.494 196.589Z" fill="#030047"/>
<path d="M123.16 104.384H71.9629C71.9629 104.384 76.152 83.1238 83.8121 83.1238C88.6894 83.1238 94.8833 95.2273 99.7307 95.5415C102.693 95.736 104.862 87.0436 107.84 87.0436C113.914 87.0436 123.16 104.384 123.16 104.384Z" fill="white"/>
<path d="M105.251 80.6103C105.177 82.8993 103.247 84.7545 100.958 84.7545C98.6685 84.7545 96.8732 82.8993 96.9629 80.6103C97.0377 78.3212 98.9677 76.4661 101.257 76.4661C103.546 76.4661 105.341 78.3212 105.251 80.6103Z" fill="white"/>
<path d="M55.6254 79.2937H7.82471C7.36091 79.2937 6.97192 78.9197 6.97192 78.4409C6.97192 77.9771 7.34595 77.5881 7.82471 77.5881H55.6105C56.0743 77.5881 56.4632 77.9622 56.4632 78.4409C56.4632 78.9047 56.0892 79.2937 55.6254 79.2937Z" fill="#030047"/>
<path d="M55.6254 91.532H7.82471C7.36091 91.532 6.97192 91.1579 6.97192 90.6792C6.97192 90.2154 7.34595 89.8264 7.82471 89.8264H55.6105C56.0743 89.8264 56.4632 90.2004 56.4632 90.6792C56.4632 91.1579 56.0892 91.532 55.6254 91.532Z" fill="#030047"/>
<path d="M55.6254 103.785H7.82471C7.36091 103.785 6.97192 103.411 6.97192 102.932C6.97192 102.454 7.34595 102.08 7.82471 102.08H55.6105C56.0743 102.08 56.4632 102.454 56.4632 102.932C56.4632 103.411 56.0892 103.785 55.6254 103.785Z" fill="#030047"/>
<path d="M28.7404 82.7349C31.1118 82.7349 33.0342 80.8125 33.0342 78.4411C33.0342 76.0696 31.1118 74.1472 28.7404 74.1472C26.369 74.1472 24.4465 76.0696 24.4465 78.4411C24.4465 80.8125 26.369 82.7349 28.7404 82.7349Z" fill="#0045DF"/>
<path d="M28.7403 83.1538C26.1371 83.1538 24.0276 81.0443 24.0276 78.441C24.0276 75.8378 26.1371 73.7283 28.7403 73.7283C31.3436 73.7283 33.4531 75.8378 33.4531 78.441C33.468 81.0443 31.3436 83.1538 28.7403 83.1538ZM28.7403 74.5811C26.6009 74.5811 24.8804 76.3165 24.8804 78.441C24.8804 80.5805 26.6159 82.301 28.7403 82.301C30.8798 82.301 32.6003 80.5655 32.6003 78.441C32.6153 76.3165 30.8798 74.5811 28.7403 74.5811Z" fill="#030047"/>
<path d="M41.8014 94.9732C44.1728 94.9732 46.0952 93.0507 46.0952 90.6793C46.0952 88.3079 44.1728 86.3855 41.8014 86.3855C39.43 86.3855 37.5076 88.3079 37.5076 90.6793C37.5076 93.0507 39.43 94.9732 41.8014 94.9732Z" fill="#605EFD"/>
<path d="M41.8014 95.4069C39.1981 95.4069 37.0886 93.2974 37.0886 90.6942C37.0886 88.091 39.1981 85.9814 41.8014 85.9814C44.4046 85.9814 46.5141 88.091 46.5141 90.6942C46.5141 93.2825 44.3896 95.4069 41.8014 95.4069ZM41.8014 86.8193C39.6619 86.8193 37.9414 88.5547 37.9414 90.6792C37.9414 92.8187 39.6769 94.5392 41.8014 94.5392C43.9408 94.5392 45.6613 92.8037 45.6613 90.6792C45.6613 88.5547 43.9258 86.8193 41.8014 86.8193Z" fill="#030047"/>
<path d="M20.9486 103.623C21.4936 101.315 20.0644 99.002 17.7566 98.4571C15.4487 97.9121 13.136 99.3413 12.5911 101.649C12.0461 103.957 13.4753 106.27 15.7831 106.815C18.091 107.36 20.4037 105.93 20.9486 103.623Z" fill="#0045DF"/>
<path d="M16.7715 107.346C14.1682 107.346 12.0587 105.236 12.0587 102.633C12.0587 100.03 14.1682 97.9204 16.7715 97.9204C19.3747 97.9204 21.4842 100.03 21.4842 102.633C21.4842 105.236 19.3747 107.346 16.7715 107.346ZM16.7715 98.7582C14.632 98.7582 12.9115 100.494 12.9115 102.618C12.9115 104.758 14.647 106.478 16.7715 106.478C18.9109 106.478 20.6314 104.743 20.6314 102.618C20.6314 100.494 18.8959 98.7582 16.7715 98.7582Z" fill="#030047"/>
<path d="M160.443 32.8248L160.488 28.4262L152.035 28.3364L151.99 32.735C149.476 33.2287 147.127 34.2012 145.033 35.5327L141.951 32.3759L135.907 38.2856L138.989 41.4424C137.612 43.507 136.595 45.8409 136.041 48.3394L131.643 48.2945L131.553 56.7326L135.952 56.7775C136.445 59.2909 137.418 61.6548 138.749 63.7344L135.607 66.8164L141.517 72.8607L144.659 69.7787C146.724 71.1551 149.057 72.1725 151.556 72.726L151.511 77.1246L159.964 77.2143L160.009 72.8158C162.522 72.3221 164.871 71.3496 166.966 70.0181L170.048 73.1748L176.092 67.2652L173.01 64.1084C174.387 62.0438 175.404 59.7248 175.958 57.2113L180.356 57.2562L180.446 48.8182L176.047 48.7733C175.554 46.2598 174.581 43.9109 173.25 41.8164L176.391 38.7344L170.482 32.6901L167.34 35.7721M157.211 62.9265C150.524 63.6895 144.958 58.0192 145.871 51.3316C146.499 46.7835 150.209 43.1479 154.773 42.6243C161.475 41.8613 167.026 47.5465 166.113 54.2191C165.5 58.7673 161.774 62.4029 157.211 62.9265Z" fill="#605EFD"/>
<path d="M130.416 2.94734L130.446 0.0748055L124.91 0L124.88 2.87253C123.235 3.20168 121.694 3.83004 120.332 4.69779L118.312 2.63315L114.363 6.49312L116.382 8.55775C115.485 9.90425 114.811 11.4303 114.452 13.076L111.58 13.0461L111.52 18.5667L114.393 18.5966C114.722 20.2424 115.35 21.7834 116.218 23.1448L114.153 25.1795L118.013 29.1293L120.078 27.1095C121.424 28.0072 122.95 28.6804 124.596 29.0395L124.566 31.927L130.087 31.9868L130.117 29.0993C131.762 28.7702 133.303 28.1418 134.665 27.2741L136.685 29.3387L140.634 25.4788L138.615 23.4141C139.512 22.0676 140.185 20.5416 140.545 18.8959L143.417 18.9258L143.477 13.4051L140.604 13.3752C140.275 11.7295 139.647 10.1885 138.779 8.82705L140.844 6.8073L136.984 2.85757L134.919 4.87732M128.291 22.6361C123.908 23.1448 120.272 19.4195 120.871 15.0509C121.275 12.0736 123.713 9.69479 126.691 9.35069C131.074 8.85697 134.71 12.5673 134.111 16.936C133.707 19.9132 131.284 22.292 128.291 22.6361Z" fill="#0045DF"/>
<path d="M63.854 160.727H13.7492C10.8169 160.727 8.453 158.348 8.453 155.431V125.389C8.453 122.457 10.8318 120.093 13.7492 120.093H63.854C66.7863 120.093 69.1502 122.472 69.1502 125.389V155.431C69.1502 158.363 66.7714 160.727 63.854 160.727Z" fill="#E6F3FC"/>
<path d="M21.918 151.017C21.7684 151.017 21.6337 150.942 21.5589 150.808C21.4392 150.613 21.4991 150.344 21.7085 150.224L57.7798 128.486C57.9742 128.366 58.2435 128.426 58.3632 128.635C58.4829 128.83 58.4231 129.099 58.2136 129.219L22.1424 150.957C22.0676 151.002 21.9928 151.017 21.918 151.017Z" fill="#030047"/>
<path d="M58.0042 151.017C57.9294 151.017 57.8546 151.002 57.7798 150.957L21.7086 129.219C21.5141 129.099 21.4393 128.83 21.559 128.635C21.6787 128.441 21.948 128.366 22.1425 128.486L58.2286 150.224C58.4231 150.344 58.4979 150.613 58.3783 150.808C58.2885 150.942 58.1389 151.017 58.0042 151.017Z" fill="#030047"/>
<path d="M44.6847 26.6708C50.4748 20.8808 50.4748 11.4933 44.6847 5.70323C38.8947 -0.0868068 29.5072 -0.0868061 23.7172 5.70323C17.9271 11.4933 17.9271 20.8808 23.7172 26.6708C29.5072 32.4608 38.8947 32.4608 44.6847 26.6708Z" fill="#605EFD"/>
<path d="M36.4452 10.6224C36.8492 12.4627 35.6972 14.273 33.8719 14.6919C32.0317 15.0958 30.2214 13.9438 29.8025 12.1186C29.3986 10.2783 30.5506 8.46805 32.3758 8.04914C34.216 7.63023 36.0413 8.78223 36.4452 10.6224Z" fill="white"/>
<path d="M40.9335 22.636C42.5344 22.2769 43.2076 20.3918 42.2052 19.0902C40.38 16.7264 37.298 15.4846 34.1861 16.1878C31.0742 16.876 28.815 19.3146 28.1717 22.2321C27.8276 23.8329 29.2339 25.2542 30.8348 24.8951L40.9335 22.636Z" fill="white"/>
<path d="M212.208 200H2.31894C2.07956 200 1.90002 199.805 1.90002 199.581C1.90002 199.342 2.09452 199.162 2.31894 199.162H212.223C212.463 199.162 212.642 199.357 212.642 199.581C212.642 199.805 212.448 200 212.208 200Z" fill="white"/>
<path d="M154.728 110.996L152.274 112.537C151.122 113.255 149.611 112.911 148.893 111.774L147.352 109.321C146.634 108.184 146.978 106.673 148.115 105.954L150.568 104.398C151.706 103.68 153.217 104.024 153.95 105.161L155.491 107.615C156.209 108.767 155.865 110.278 154.728 110.996Z" fill="#0045DF"/>
<path d="M208.618 135.757L206.987 136.774C206.224 137.253 205.221 137.029 204.743 136.266L203.725 134.635C203.247 133.872 203.471 132.87 204.234 132.391L205.865 131.359C206.628 130.88 207.63 131.104 208.109 131.867L209.126 133.498C209.605 134.276 209.381 135.278 208.618 135.757Z" fill="#0045DF"/>
<path d="M197.741 77.9474L196.634 78.6506C196.11 78.9797 195.422 78.8151 195.093 78.3065L194.39 77.1993C194.06 76.6757 194.225 75.9875 194.734 75.6733L195.841 74.9701C196.364 74.641 197.053 74.8056 197.382 75.3142L198.085 76.4363C198.414 76.945 198.25 77.6332 197.741 77.9474Z" fill="#0045DF"/>
<path d="M83.0491 27.9173L81.4632 28.9197C80.7152 29.3835 79.7427 29.1591 79.264 28.426L78.2616 26.8401C77.7978 26.0921 78.0222 25.1196 78.7553 24.6558L80.3412 23.6534C81.0892 23.1896 82.0617 23.414 82.5404 24.1471L83.5428 25.748C84.0216 26.4661 83.7972 27.4535 83.0491 27.9173Z" fill="#0045DF"/>
<path d="M160.129 19.2847L158.543 20.2871C157.795 20.7509 156.822 20.5265 156.344 19.7934L155.341 18.2075C154.877 17.4595 155.102 16.487 155.835 16.0232L157.421 15.0208C158.169 14.557 159.141 14.7815 159.62 15.5146L160.622 17.1154C161.101 17.8485 160.877 18.821 160.129 19.2847Z" fill="#0045DF"/>
</g>
<defs>
<clipPath id="clip0_39_16481">
<rect width="212.642" height="200" fill="white"/>
</clipPath>
</defs>
</svg>
