<svg width="266" height="250" viewBox="0 0 266 250" fill="none" xmlns="http://www.w3.org/2000/svg">
<g clip-path="url(#clip0_34_8583)">
<path d="M18.2381 68.3758C18.1177 68.3758 17.9972 68.3242 17.9112 68.221C16.9305 66.9994 16.552 65.2616 16.8961 63.4206C17.2058 61.7516 17.9972 60.2547 18.7371 58.9643C21.5244 54.095 24.9484 49.6387 28.9401 45.6986C29.1122 45.5266 29.3703 45.5266 29.5423 45.6986C29.7144 45.8707 29.6972 46.1288 29.5423 46.3008C25.6022 50.1721 22.2299 54.5768 19.4769 59.3772C18.7887 60.5988 18.0145 62.0269 17.7392 63.5582C17.4467 65.1584 17.7564 66.6553 18.5822 67.6704C18.7371 67.8597 18.7027 68.1178 18.5134 68.2726C18.4274 68.3414 18.3242 68.3758 18.2381 68.3758Z" fill="white"/>
<path d="M21.6793 66.7241C21.49 66.7241 21.318 66.6036 21.2663 66.4144C20.5265 63.8335 21.0083 60.9946 22.5568 58.8094C22.6944 58.6202 22.9525 58.5685 23.1418 58.7062C23.331 58.8438 23.3827 59.1019 23.245 59.3084C21.8685 61.2526 21.4212 63.8851 22.075 66.1907C22.1438 66.4144 22.0062 66.6553 21.7825 66.7241C21.7653 66.7241 21.7309 66.7241 21.6793 66.7241Z" fill="white"/>
<path d="M51.6001 39.9174C51.4453 39.9174 51.2904 39.8314 51.2044 39.6765C51.1012 39.4701 51.2044 39.212 51.4109 39.1088C53.5616 38.128 55.2994 37.1989 56.7447 35.8913C58.4136 34.3772 59.4116 32.5189 59.532 30.6779C59.5492 30.437 59.7557 30.265 59.9794 30.2822C60.2202 30.2994 60.3923 30.5059 60.3751 30.7295C60.2374 32.7942 59.1535 34.8417 57.3125 36.5107C55.7811 37.8871 53.9917 38.8507 51.755 39.883C51.7034 39.9002 51.6518 39.9174 51.6001 39.9174Z" fill="white"/>
<path d="M51.0668 36.3386C50.8603 36.3386 50.671 36.1837 50.6366 35.96C50.6022 35.7192 50.7743 35.5127 51.0151 35.4783C53.0626 35.2374 54.8692 33.6889 55.437 31.7102C55.5059 31.4865 55.7295 31.3489 55.9704 31.4177C56.1941 31.4865 56.3317 31.7102 56.2629 31.9511C55.6091 34.2567 53.4928 36.0461 51.1184 36.3386C51.1012 36.3386 51.084 36.3386 51.0668 36.3386Z" fill="white"/>
<path d="M199.209 219.942H116.053C104.301 219.942 94.8899 210.41 95.0275 198.658L97.1266 30.1102C97.2643 18.3587 106.917 8.82666 118.668 8.82666H201.824C213.575 8.82666 222.987 18.3587 222.849 30.1102L220.767 198.658C220.613 210.41 210.96 219.942 199.209 219.942Z" fill="#0045DF"/>
<path d="M116.053 220.372C110.255 220.372 104.835 218.118 100.774 214.006C96.7309 209.911 94.5286 204.456 94.5974 198.658L96.6965 30.093C96.8513 18.1177 106.693 8.39648 118.668 8.39648H201.824C207.622 8.39648 213.042 10.6504 217.103 14.7626C221.146 18.8576 223.348 24.3118 223.279 30.1102L221.197 198.658C221.043 210.633 211.184 220.354 199.226 220.354L116.053 220.372ZM118.668 9.25677C107.158 9.25677 97.6944 18.6167 97.5568 30.1102L95.4749 198.658C95.4061 204.233 97.5052 209.463 101.394 213.403C105.282 217.343 110.496 219.511 116.07 219.511H199.226C210.736 219.511 220.2 210.151 220.354 198.658L222.436 30.1102C222.505 24.5355 220.406 19.3049 216.518 15.3648C212.629 11.4247 207.416 9.25677 201.841 9.25677H118.668Z" fill="#060F11"/>
<path d="M212.715 31.779L210.668 196.989C210.547 206.865 202.426 214.9 192.55 214.9H117.808C116.965 214.9 116.122 214.831 115.313 214.728C114.642 214.642 114.006 214.504 113.369 214.35C110.582 213.627 108.069 212.268 106.005 210.392C104.904 209.412 103.923 208.276 103.097 207.054C101.187 204.181 100.086 200.723 100.12 197.006L102.168 31.7962C102.288 21.9201 110.427 13.885 120.286 13.885H195.028C196.679 13.885 198.262 14.1087 199.776 14.5216C200.465 14.7109 201.136 14.9346 201.789 15.2099C204.508 16.3282 206.882 18.1176 208.723 20.3544C209.102 20.8189 209.463 21.3007 209.79 21.7997C211.683 24.6558 212.749 28.097 212.715 31.779Z" fill="white"/>
<path d="M192.533 215.313H117.791C116.948 215.313 116.087 215.262 115.244 215.141C114.556 215.038 113.885 214.918 113.248 214.746C110.461 214.023 107.846 212.629 105.695 210.702C104.577 209.704 103.579 208.551 102.719 207.278C100.688 204.233 99.6387 200.671 99.6731 196.989L101.721 31.7792C101.858 21.6794 110.186 13.4551 120.286 13.4551H195.028C196.679 13.4551 198.314 13.6788 199.88 14.1089C200.568 14.2982 201.273 14.539 201.944 14.8143C204.697 15.9499 207.158 17.7737 209.05 20.0793C209.446 20.5439 209.807 21.0428 210.151 21.5762C212.147 24.5872 213.197 28.1316 213.145 31.7792L211.098 196.989C210.96 207.089 202.65 215.313 192.533 215.313ZM120.286 14.2982C110.65 14.2982 102.701 22.144 102.581 31.7792L100.533 196.989C100.482 200.499 101.497 203.889 103.424 206.796C104.233 208.001 105.179 209.102 106.263 210.048C108.31 211.889 110.805 213.214 113.455 213.902C114.057 214.057 114.694 214.178 115.365 214.281C116.173 214.401 116.999 214.453 117.791 214.453H192.533C202.168 214.453 210.117 206.607 210.237 196.972L212.285 31.762C212.337 28.2693 211.339 24.9141 209.429 22.0236C209.102 21.5246 208.758 21.06 208.379 20.6127C206.573 18.4103 204.233 16.6726 201.617 15.5886C200.981 15.3305 200.31 15.0896 199.656 14.9176C198.159 14.5046 196.593 14.2982 195.028 14.2982H120.286Z" fill="#060F11"/>
<path d="M224.381 64.2808L224.071 88.6614C224.036 90.8465 222.247 92.6187 220.062 92.6187C217.877 92.6187 216.122 90.8465 216.156 88.6614L216.466 64.2808C216.5 62.0957 218.29 60.3235 220.475 60.3235C221.576 60.3235 222.557 60.7708 223.262 61.4763C223.95 62.1989 224.398 63.1796 224.381 64.2808Z" fill="#363ECE"/>
<path d="M220.062 93.0318C218.892 93.0318 217.791 92.5672 216.982 91.7413C216.156 90.9155 215.726 89.8143 215.726 88.6271L216.036 64.2465C216.07 61.8377 218.049 59.8762 220.458 59.8762C221.628 59.8762 222.729 60.3408 223.555 61.1667C224.381 61.9925 224.811 63.0937 224.794 64.2637L224.484 88.6443C224.467 91.0703 222.488 93.0318 220.062 93.0318ZM220.475 60.7537C218.531 60.7537 216.913 62.3366 216.896 64.2809L216.586 88.6615C216.569 89.6078 216.93 90.4853 217.584 91.1563C218.238 91.8274 219.116 92.1887 220.062 92.1887C222.006 92.1887 223.624 90.6057 223.641 88.6443L223.95 64.2637C223.968 63.3174 223.606 62.4399 222.953 61.7689C222.299 61.115 221.404 60.7537 220.475 60.7537Z" fill="#060F11"/>
<path d="M224.226 77.4089H216.604C216.363 77.4089 216.173 77.2196 216.173 76.9787C216.173 76.7378 216.363 76.5486 216.604 76.5486H224.226C224.467 76.5486 224.656 76.7378 224.656 76.9787C224.656 77.2196 224.449 77.4089 224.226 77.4089Z" fill="#060F11"/>
<path d="M167.653 22.0579C167.636 22.8149 167.326 23.4859 166.844 23.9677C166.345 24.4667 165.657 24.7592 164.917 24.7592H153.321C151.824 24.7592 150.619 23.5548 150.637 22.0407C150.654 21.2836 150.964 20.6126 151.445 20.1308C151.944 19.6491 152.632 19.3394 153.372 19.3394H164.969C166.466 19.3394 167.67 20.561 167.653 22.0579Z" fill="#141323"/>
<path d="M191.208 122.247H121.61C117.154 122.247 113.541 118.634 113.541 114.178V82.5534C113.541 78.0971 117.154 74.4839 121.61 74.4839H191.208C195.664 74.4839 199.277 78.0971 199.277 82.5534V114.178C199.277 118.617 195.664 122.247 191.208 122.247ZM121.61 75.3442C117.636 75.3442 114.384 78.5789 114.384 82.5706V114.195C114.384 118.169 117.619 121.421 121.61 121.421H191.208C195.182 121.421 198.434 118.187 198.434 114.195V82.5534C198.434 78.5789 195.2 75.327 191.208 75.327H121.61V75.3442Z" fill="#060F11"/>
<path d="M194.787 50.4819C194.787 54.0263 193.341 57.2437 191.019 59.5665C188.696 61.8893 185.478 63.3346 181.934 63.3346H97.4191C90.3131 63.3346 84.5664 57.5879 84.5664 50.4819C84.5664 46.9375 86.0117 43.72 88.3345 41.3972C90.6573 39.0744 93.8747 37.6292 97.4191 37.6292H181.934C189.023 37.6292 194.787 43.3759 194.787 50.4819Z" fill="white"/>
<path d="M181.934 63.7647H97.4191C90.0895 63.7647 84.1363 57.8115 84.1363 50.4818C84.1363 46.9374 85.5127 43.5995 88.0248 41.0875C90.5196 38.5754 93.8575 37.199 97.4191 37.199H181.934C189.246 37.199 195.2 43.1522 195.2 50.4818C195.2 54.0262 193.823 57.3642 191.311 59.8762C188.816 62.371 185.478 63.7647 181.934 63.7647ZM97.4191 38.0593C94.0984 38.0593 90.9842 39.3497 88.627 41.7069C86.2698 44.0469 84.9793 47.1783 84.9793 50.499C84.9793 57.3469 90.554 62.9216 97.4019 62.9216H181.917C185.237 62.9216 188.352 61.6312 190.709 59.274C193.049 56.934 194.339 53.8026 194.339 50.4818C194.339 43.6339 188.765 38.0593 181.917 38.0593H97.4191Z" fill="#060F11"/>
<path d="M194.787 50.4819C194.787 54.0263 193.341 57.2437 191.019 59.5665C188.696 61.8893 185.478 63.3346 181.934 63.3346H174.036C166.93 63.3346 161.184 57.5879 161.184 50.4819C161.184 46.9375 162.629 43.72 164.952 41.3972C167.275 39.0744 170.492 37.6292 174.036 37.6292H181.934C189.023 37.6292 194.787 43.3759 194.787 50.4819Z" fill="#4A4DDC"/>
<path d="M181.934 63.7647H174.036C166.707 63.7647 160.754 57.8115 160.754 50.4818C160.754 46.9374 162.13 43.5995 164.642 41.0875C167.137 38.5754 170.475 37.199 174.036 37.199H181.934C189.246 37.199 195.2 43.1522 195.2 50.4818C195.2 54.0262 193.823 57.3642 191.311 59.8762C188.816 62.371 185.478 63.7647 181.934 63.7647ZM174.036 38.0593C170.716 38.0593 167.602 39.3497 165.244 41.7069C162.887 44.0469 161.597 47.1783 161.597 50.499C161.597 57.3469 167.171 62.9216 174.019 62.9216H181.917C185.237 62.9216 188.352 61.6312 190.709 59.274C193.049 56.934 194.339 53.8026 194.339 50.4818C194.339 43.6339 188.765 38.0593 181.917 38.0593H174.036Z" fill="#060F11"/>
<path d="M184.635 53.4584C187.13 50.9635 187.13 46.9202 184.635 44.4253C182.14 41.9305 178.097 41.9305 175.602 44.4253C173.469 46.5588 173.159 49.8107 174.656 52.2712L171.06 55.8672C170.475 56.4522 170.475 57.4157 171.06 58.0007C171.645 58.5857 172.608 58.5857 173.193 58.0007L176.789 54.4047C179.25 55.8844 182.502 55.5747 184.635 53.4584ZM177.512 51.5313C176.067 50.086 176.084 47.7632 177.512 46.318C178.957 44.8727 181.28 44.8727 182.725 46.318C184.171 47.7632 184.171 50.086 182.725 51.5313C181.28 52.9766 178.94 52.9766 177.512 51.5313Z" fill="white"/>
<path d="M44.1156 24.759C39.4701 26.5312 36.6311 31.4349 33.2588 35.0997C28.3207 40.4507 24.7247 46.3523 19.7866 51.7033C17.8424 53.8196 15.8809 55.9359 14.4012 58.3963C12.9215 60.8568 11.9408 63.6957 12.1129 66.5519C12.3537 70.3888 14.7626 73.916 17.9972 75.9806C21.2319 78.0453 25.2237 78.7508 29.0606 78.4239C32.9146 78.097 36.9236 76.5828 39.0743 73.3654C40.4336 71.3351 40.8981 68.8747 41.7756 66.6035C42.6359 64.3323 44.15 62.044 46.49 61.3901C48.7612 60.7707 51.1872 61.8891 52.9422 63.4892C54.68 65.0894 55.9532 67.1197 57.5533 68.8402C59.3255 70.7501 61.5795 72.3158 64.1087 72.9524C66.638 73.589 69.4941 73.2449 71.6104 71.6964C71.6277 71.6792 71.6449 71.662 71.6793 71.6448C74.3634 69.6317 73.7096 65.4163 70.5781 64.1775C67.3778 62.9215 64.7453 59.9449 63.3173 56.7102C61.373 52.2711 61.0805 47.3158 60.2202 42.5498C59.3427 37.7838 57.6566 32.8113 53.7853 29.9036" fill="#060606"/>
<path d="M49.2085 70.5437C57.1404 70.7502 56.1425 63.9367 53.9229 59.8245L51.8238 50.5334L43.1349 44.821L39.6937 58.0351C39.6765 58.0351 38.1624 70.2512 49.2085 70.5437Z" fill="#FFC1A4"/>
<path d="M53.1142 56.2973C53.1142 56.2973 48.3827 53.9917 46.49 51.2732L52.1851 52.2367L53.1142 56.2973Z" fill="#060606"/>
<path d="M43.1349 39.5905C42.1542 46.7997 44.9243 53.3207 51.5485 54.2154C58.1727 55.1101 64.3324 50 65.3131 42.7908C66.2939 35.5815 61.6999 29.0089 55.0757 28.1142C48.4515 27.2195 44.1156 32.3813 43.1349 39.5905Z" fill="#FFC1A4"/>
<path d="M62.0612 47.247C61.7171 47.247 61.4074 47.161 61.1149 47.0921C60.8913 47.0233 60.7536 46.7996 60.8052 46.576C60.874 46.3523 61.0977 46.2146 61.3214 46.2663C61.6139 46.3523 61.9236 46.4211 62.1989 46.3867C62.3882 46.3695 62.6462 46.249 62.7667 45.991C62.9732 45.5608 62.7667 44.993 62.5258 44.4769L61.1838 41.483C61.0805 41.2766 61.1837 41.0185 61.3902 40.9153C61.5967 40.812 61.8548 40.9153 61.958 41.1217L63.3001 44.1155C63.6098 44.8038 63.8851 45.6124 63.5237 46.3523C63.3001 46.8168 62.8355 47.1437 62.3021 47.2126C62.2161 47.2298 62.1473 47.247 62.0612 47.247Z" fill="#060606"/>
<path d="M58.276 50.3614C56.7791 50.3614 55.3166 49.6043 54.4563 48.3827C54.3186 48.1935 54.3703 47.9182 54.5595 47.7977C54.7488 47.6601 55.0241 47.7117 55.1445 47.901C55.85 48.8989 57.106 49.5527 58.3448 49.5183C58.5685 49.5011 58.7749 49.7076 58.7749 49.9313C58.7749 50.1721 58.5857 50.3614 58.362 50.3614C58.3448 50.3614 58.3104 50.3614 58.276 50.3614Z" fill="#060606"/>
<path d="M41.5864 44.3565C41.5864 44.3565 57.8286 42.3778 61.8204 33.5513C63.0592 30.8155 64.3152 29.2842 62.629 26.8066C60.4095 23.5375 50.757 21.1287 45.3888 23.8816C38.5237 27.3744 41.5864 44.3565 41.5864 44.3565Z" fill="#060606"/>
<path d="M57.0544 42.3433C57.2436 43.0143 57.7598 43.4617 58.2244 43.3412C58.6889 43.2208 58.9298 42.567 58.7577 41.8959C58.5685 41.2249 58.0523 40.7776 57.5877 40.898C57.1232 41.0185 56.8823 41.6723 57.0544 42.3433Z" fill="#060606"/>
<path d="M62.9387 40.5713C63.128 41.2424 63.6442 41.6897 64.1087 41.5693C64.5733 41.4488 64.8142 40.795 64.6421 40.124C64.4529 39.4529 63.9367 39.0056 63.4721 39.126C62.9904 39.2465 62.7667 39.9003 62.9387 40.5713Z" fill="#060606"/>
<path d="M48.1912 43.5447C48.975 41.4536 47.9152 39.1231 45.8242 38.3392C43.7331 37.5554 41.4026 38.6152 40.6188 40.7062C39.8349 42.7973 40.8947 45.1278 42.9857 45.9117C45.0768 46.6955 47.4073 45.6357 48.1912 43.5447Z" fill="#FFC1A4"/>
<path d="M59.5836 32.7081C59.5836 32.7081 60.788 34.1706 64.6593 36.2181C64.6593 36.2181 65.7949 31.0219 63.8507 27.9937C61.8892 24.9655 58.1727 26.4968 58.1727 26.4968L59.5836 32.7081Z" fill="#060606"/>
<path d="M54.4563 226.015C62.1645 230.076 69.735 233.586 75.2581 227.942L70.819 202.374L51.1528 202.34L54.4563 226.015Z" fill="#FFC1A4"/>
<path d="M75.2065 227.512C75.2065 227.512 77.0131 230.781 79.9553 231.521C82.9147 232.244 85.4267 233.379 86.8032 235.84C88.1624 238.317 88.4549 244.374 88.4549 244.374L55.4542 247.712L53.1831 225.361C53.1831 225.361 54.4735 223.933 58.7233 225.379C62.956 226.841 68.4962 229.525 75.2065 227.512Z" fill="#0045DF"/>
<path d="M76.1356 233.913C76.0324 233.913 75.9463 233.878 75.8603 233.827C75.6366 233.672 75.585 233.362 75.7399 233.156L77.6669 230.385C77.8218 230.162 78.1143 230.11 78.3379 230.265C78.5616 230.42 78.6132 230.73 78.4584 230.936L76.5313 233.706C76.4453 233.827 76.2904 233.913 76.1356 233.913Z" fill="black"/>
<path d="M78.1487 234.79C78.0454 234.79 77.9594 234.756 77.8734 234.704C77.6497 234.549 77.5981 234.24 77.7529 234.033L79.68 231.263C79.8348 231.039 80.1273 230.988 80.351 231.142C80.5747 231.297 80.6263 231.607 80.4714 231.814L78.5444 234.584C78.4584 234.721 78.3035 234.79 78.1487 234.79Z" fill="black"/>
<path d="M80.1617 235.685C80.0585 235.685 79.9725 235.65 79.8865 235.599C79.6628 235.444 79.6112 235.134 79.766 234.928L81.6931 232.158C81.8479 231.934 82.1404 231.882 82.3641 232.037C82.5878 232.192 82.6394 232.502 82.4845 232.708L80.5575 235.478C80.4715 235.616 80.3166 235.685 80.1617 235.685Z" fill="black"/>
<path d="M68.6511 231.349C64.2464 231.349 60.9601 230.041 58.6201 228.837C55.7467 227.375 53.7164 228.51 53.6992 228.527C53.4584 228.665 53.1659 228.579 53.0282 228.355C52.8906 228.114 52.9766 227.822 53.2003 227.684C53.3035 227.633 55.6951 226.273 59.0502 227.977C62.5258 229.749 68.1349 231.779 76.5657 229.026C76.8238 228.94 77.0991 229.078 77.1851 229.336C77.2712 229.594 77.1335 229.869 76.8754 229.955C73.7784 230.971 71.0599 231.349 68.6511 231.349Z" fill="black"/>
<path d="M64.3496 244.099C64.1604 244.099 63.9883 243.995 63.9023 243.806C61.1149 237.388 54.7316 237.991 54.4563 238.008C54.1982 238.042 53.9573 237.836 53.9229 237.578C53.8885 237.302 54.095 237.079 54.3531 237.044C54.4219 237.044 61.7171 236.339 64.797 243.41C64.9002 243.651 64.797 243.944 64.5389 244.047C64.4873 244.081 64.4184 244.099 64.3496 244.099Z" fill="black"/>
<path d="M55.4542 105.816L76.1184 217.154L48.8988 221.043L34.3083 118.617L55.4542 105.816Z" fill="#141323"/>
<path d="M48.6924 131.59L43.6855 184.463L40.1411 159.962L48.6924 131.59Z" fill="#07070F"/>
<path d="M63.1968 209.033C62.9732 209.033 62.8011 208.878 62.7667 208.655L54.9725 131.624C54.8692 130.626 54.2842 129.783 53.3895 129.336C52.6841 128.992 51.8926 128.957 51.1528 129.215C50.4129 129.491 49.8279 130.024 49.5182 130.747L48.5891 132.863C48.5031 133.087 48.245 133.173 48.0213 133.087C47.7977 132.984 47.7116 132.743 47.7977 132.519L48.7268 130.403C49.1397 129.474 49.8968 128.768 50.8431 128.407C51.8066 128.063 52.8218 128.114 53.7509 128.562C54.9037 129.129 55.6779 130.231 55.8156 131.521L63.627 208.534C63.6442 208.775 63.4721 208.981 63.2485 208.999C63.2313 209.033 63.214 209.033 63.1968 209.033Z" fill="white"/>
<path d="M88.1624 241.191C88.3861 242.946 88.4549 244.374 88.4549 244.374L55.4542 247.712L55.1273 244.529L88.1624 241.191Z" fill="#060606"/>
<path d="M7.51892 223.193C13.8506 229.164 20.1996 234.584 27.0303 230.626L31.2973 205.265L10.6676 199.484L7.51892 223.193Z" fill="#FFC1A4"/>
<path d="M27.0991 230.213C27.0991 230.213 27.9594 233.844 30.6091 235.341C33.2588 236.838 35.3923 238.593 36.0461 241.346C36.6999 244.098 35.3407 250 35.3407 250L2.64969 244.374L6.45217 222.247C6.45217 222.247 8.06951 221.215 11.786 223.744C15.4852 226.273 20.0964 230.351 27.0991 230.213Z" fill="#0045DF"/>
<path d="M35.9085 246.851C35.6504 248.606 35.3407 250 35.3407 250L2.64969 244.374L3.20027 241.225L35.9085 246.851Z" fill="#060606"/>
<path d="M26.669 233.035C18.307 233.035 13.6098 229.646 10.7536 227.048C8.39642 224.88 6.19408 225.396 6.09085 225.43C5.83276 225.499 5.57468 225.344 5.50585 225.086C5.43703 224.828 5.59188 224.57 5.84997 224.501C5.97041 224.467 8.6373 223.813 11.4074 226.342C14.2808 228.975 19.15 232.433 27.9938 232.054C28.2691 232.037 28.4928 232.244 28.4928 232.519C28.51 232.794 28.3035 233.018 28.0282 233.018C27.5809 233.035 27.1163 233.035 26.669 233.035Z" fill="black"/>
<path d="M26.4109 236.631C26.2732 236.631 26.1356 236.58 26.0323 236.459C25.8603 236.253 25.8947 235.943 26.1012 235.771L28.6992 233.62C28.9057 233.448 29.2154 233.483 29.3875 233.689C29.5595 233.895 29.5251 234.205 29.3186 234.377L26.7206 236.528C26.6345 236.597 26.5313 236.631 26.4109 236.631Z" fill="black"/>
<path d="M28.1142 238.025C27.9766 238.025 27.8389 237.973 27.7357 237.853C27.5637 237.646 27.5981 237.337 27.8045 237.164L30.4026 235.014C30.6091 234.842 30.9188 234.876 31.0908 235.083C31.2629 235.289 31.2285 235.599 31.022 235.771L28.4239 237.922C28.3379 237.99 28.2175 238.025 28.1142 238.025Z" fill="black"/>
<path d="M29.8004 239.419C29.6628 239.419 29.5251 239.367 29.4219 239.246C29.2498 239.04 29.2842 238.73 29.4907 238.558L32.0888 236.408C32.2953 236.235 32.605 236.27 32.777 236.476C32.9491 236.683 32.9147 236.993 32.7082 237.165L30.1101 239.315C30.0241 239.384 29.9209 239.419 29.8004 239.419Z" fill="black"/>
<path d="M12.3193 243.29C12.0785 243.29 11.872 243.118 11.8376 242.877C10.874 235.926 4.37026 234.773 4.30144 234.756C4.04335 234.704 3.85409 234.463 3.90571 234.188C3.95732 233.93 4.1982 233.741 4.4735 233.792C4.54232 233.809 11.7515 235.083 12.8183 242.739C12.8527 242.997 12.6634 243.255 12.4054 243.29C12.371 243.29 12.3537 243.29 12.3193 243.29Z" fill="black"/>
<path d="M20.3028 80.3337L6.46938 118.737L19.4942 123.555L33.2588 84.704L20.3028 80.3337Z" fill="#FFC1A4"/>
<path d="M19.4942 82.0887L30.6091 91.2422L33.2588 84.704L20.3028 80.3337L19.6834 82.0199" fill="#F7B094"/>
<path d="M40.9498 56.848C33.7577 56.3834 27.0303 60.4268 24.0365 66.9822L17.4467 81.4522L34.9105 86.9409L40.9498 56.848Z" fill="#0045DF"/>
<path d="M19.6146 123.658L20.905 132.295C21.1975 133.138 20.8018 134.067 19.9931 134.463C19.1156 134.893 18.0489 134.515 17.6359 133.637L15.6573 129.611C15.6573 129.611 12.543 140.09 10.5471 139.969C8.70613 139.866 8.87818 136.752 8.87818 136.752C8.87818 136.752 8.15554 139.487 6.65864 139.178C5.00688 138.851 5.90158 135.616 5.90158 135.616C5.90158 135.616 5.23056 138.489 3.66483 137.99C1.80661 137.388 2.92498 134.343 2.92498 134.343C2.92498 134.343 0.705438 136.476 0.0344124 133.689C-0.533378 131.297 6.89952 117.567 6.89952 117.567L19.6146 123.658Z" fill="#FFC1A4"/>
<path d="M15.468 130.041C14.8142 130.041 12.7667 129.921 11.5795 128.51C10.1858 126.841 10.616 124.88 10.6332 124.794C10.6848 124.57 10.9257 124.415 11.1493 124.467C11.373 124.518 11.5279 124.742 11.4763 124.983C11.4763 125 11.1321 126.617 12.2505 127.96C13.3689 129.302 15.6228 129.181 15.6573 129.181C15.8809 129.164 16.0874 129.353 16.1046 129.577C16.1218 129.818 15.9326 130.007 15.7089 130.024C15.6573 130.024 15.5884 130.041 15.468 130.041Z" fill="#060606"/>
<path d="M8.87818 137.147C8.82657 137.147 8.79215 137.147 8.74054 137.13C8.51686 137.061 8.39642 136.82 8.46524 136.597L10.0998 131.676C10.1686 131.452 10.4095 131.332 10.6332 131.401C10.8568 131.469 10.9773 131.71 10.9085 131.934L9.27392 136.855C9.2223 137.044 9.05024 137.147 8.87818 137.147Z" fill="#060606"/>
<path d="M5.90159 136.029C5.84997 136.029 5.79835 136.012 5.74673 135.995C5.52306 135.908 5.41982 135.668 5.50585 135.444L7.39849 130.661C7.48452 130.437 7.7254 130.334 7.94907 130.42C8.17275 130.506 8.27598 130.747 8.18995 130.97L6.29732 135.754C6.2285 135.926 6.07364 136.029 5.90159 136.029Z" fill="#060606"/>
<path d="M2.92499 134.756C2.87337 134.756 2.82175 134.756 2.77013 134.721C2.54646 134.635 2.44322 134.394 2.51205 134.171L4.18101 129.611C4.26704 129.388 4.50792 129.284 4.73159 129.353C4.95527 129.439 5.0585 129.68 4.98968 129.904L3.32072 134.463C3.25189 134.652 3.09704 134.756 2.92499 134.756Z" fill="#060606"/>
<path d="M53.2863 106.229L31.022 221.955L6.02202 217.326L23.9504 104.904L53.2863 106.229Z" fill="#141323"/>
<path d="M49.3978 57.9148C47.7632 57.6395 46.0599 57.347 44.4081 57.0545C36.9408 55.7641 29.852 60.8398 28.6648 68.3415C26.17 84.2568 22.4019 108.465 22.6084 108.534C22.9181 108.655 57.7254 111.855 57.7254 111.855L60.4955 72.0751C60.9945 65.21 56.1941 59.0848 49.3978 57.9148Z" fill="#0045DF"/>
<path d="M57.0027 83.5858L66.9305 90.4509C71.0771 93.3242 76.6862 92.7908 80.2306 89.1776L94.6146 72.6773L94.6662 72.7461L99.2085 68.1178C99.2085 68.1178 98.7268 70.1652 100.361 70.4061C102.374 70.6986 104.749 66.1563 105.85 64.3841C107.123 62.3538 105.299 60.3579 104.56 60.444C104.749 58.104 102.977 57.433 102.977 57.433C103.579 54.2155 100.034 54.6284 100.361 55.0586L104.577 47.8321C104.68 47.6085 104.732 47.3676 104.732 47.1267C104.732 46.4385 104.319 45.7674 103.63 45.4749C102.753 45.0964 101.738 45.4749 101.308 46.3352C99.914 49.1742 91.7412 58.4309 91.7412 58.4309C91.724 58.4481 91.724 58.4481 91.7068 58.4653C91.6896 58.4825 91.6724 58.4997 91.6724 58.4997L73.5031 74.7764L65.3476 68.7716L57.0027 83.5858Z" fill="#FFC1A4"/>
<path d="M68.3414 70.9912L63.042 87.7668L59.6008 85.3752L68.3414 70.9912Z" fill="#F7B094"/>
<path d="M50.7915 58.345L53.596 59.2913C55.9532 60.0828 58.1383 61.3216 60.031 62.9045L69.0124 69.8728C69.0124 69.8728 58.5685 87.1647 58.4481 87.1647C58.3792 87.1647 54.0606 83.2589 50.2237 79.7834C46.7137 76.6003 45.5437 71.5934 47.2815 67.1887L50.7915 58.345Z" fill="#0045DF"/>
<path d="M51.4625 212.526C51.2388 212.526 51.0495 212.354 51.0323 212.13C51.0151 211.889 51.1872 211.7 51.4281 211.683L69.5114 210.461C69.7522 210.444 69.9415 210.616 69.9587 210.857C69.9759 211.098 69.8038 211.287 69.563 211.304L51.4797 212.526C51.4797 212.526 51.4797 212.526 51.4625 212.526Z" fill="white"/>
<path d="M23.2106 123.073C23.0041 123.073 22.8321 122.918 22.7977 122.712C22.7633 122.488 22.9181 122.264 23.1418 122.23C25.499 121.851 27.7529 120.578 29.3015 118.772C30.85 116.948 31.7619 114.539 31.7619 112.147C31.7619 111.907 31.9511 111.717 32.192 111.717C32.4329 111.717 32.6222 111.907 32.6222 112.147C32.605 114.746 31.6414 117.361 29.9553 119.322C28.2691 121.284 25.8431 122.66 23.2794 123.073C23.245 123.073 23.2278 123.073 23.2106 123.073Z" fill="white"/>
<path d="M57.4845 121.765C57.4501 121.765 57.4157 121.765 57.3813 121.748C56.0392 121.438 54.8348 120.337 54.1466 118.823C53.5444 117.498 53.3723 116.07 53.2175 114.694C53.1831 114.453 53.3551 114.246 53.596 114.212C53.8369 114.177 54.0434 114.35 54.0778 114.59C54.2326 115.915 54.4047 117.275 54.9381 118.479C55.5231 119.752 56.5038 120.664 57.5878 120.922C57.8114 120.974 57.9663 121.197 57.8975 121.438C57.8458 121.628 57.6738 121.765 57.4845 121.765Z" fill="white"/>
<path d="M21.0943 208.276C21.0771 208.276 21.0427 208.276 21.0255 208.276C20.8018 208.242 20.6469 208.018 20.6813 207.777L35.031 125.602C35.0654 125.379 35.2891 125.224 35.5299 125.258C35.7536 125.293 35.9085 125.516 35.8741 125.757L21.5072 207.915C21.4728 208.121 21.2835 208.276 21.0943 208.276Z" fill="white"/>
<path d="M28.2691 214.195C28.2519 214.195 28.2347 214.195 28.2347 214.195L10.3407 212.526C10.0998 212.509 9.92774 212.302 9.96215 212.061C9.97935 211.82 10.1858 211.648 10.4267 211.683L28.3207 213.352C28.5616 213.369 28.7337 213.575 28.6992 213.816C28.6648 214.023 28.4756 214.195 28.2691 214.195Z" fill="white"/>
<path d="M26.2044 84.6182C26.1872 84.6182 26.17 84.6182 26.1528 84.6182C25.9119 84.5838 25.7571 84.3773 25.7743 84.1536L26.9443 73.8129C26.9787 73.5721 27.1851 73.4172 27.4088 73.4344C27.6497 73.4688 27.8045 73.6753 27.7873 73.899L26.6173 84.2396C26.6001 84.4633 26.4109 84.6182 26.2044 84.6182Z" fill="white"/>
<path d="M58.4481 87.5948C58.3448 87.5948 58.2416 87.5603 58.1556 87.4915L48.159 78.5101C47.9869 78.3552 47.9697 78.08 48.1246 77.9079C48.2794 77.7358 48.5547 77.7186 48.7268 77.8735L58.7233 86.8549C58.8954 87.0098 58.9126 87.285 58.7578 87.4571C58.6889 87.5431 58.5685 87.5948 58.4481 87.5948Z" fill="white"/>
<path d="M100.551 70.8533C100.465 70.8533 100.379 70.8533 100.292 70.8361C99.7591 70.7501 99.329 70.5092 99.0537 70.0963C98.4859 69.2704 98.7612 68.0832 98.7784 68.0316C98.83 67.8079 99.0537 67.653 99.2945 67.7219C99.5182 67.7735 99.6731 67.9972 99.6043 68.238C99.5526 68.4789 99.4666 69.2016 99.7591 69.6317C99.8968 69.8382 100.103 69.9586 100.413 69.993C101.91 70.2167 103.906 66.81 104.99 64.9861C105.179 64.6764 105.334 64.4011 105.489 64.1603C106.142 63.1107 105.798 62.1816 105.523 61.717C105.179 61.1148 104.732 60.874 104.594 60.8568C104.473 60.8568 104.336 60.8223 104.25 60.7191C104.164 60.6331 104.112 60.5126 104.112 60.3922C104.284 58.3963 102.805 57.8113 102.805 57.8113C102.615 57.7425 102.495 57.536 102.529 57.3296C102.684 56.4693 102.546 55.8499 102.082 55.4886C101.583 55.0928 100.826 55.1272 100.619 55.2305C100.447 55.3165 100.258 55.2649 100.12 55.1272C100 54.9896 99.9656 54.7831 100.069 54.6283L104.147 47.6255C104.215 47.4534 104.25 47.2814 104.25 47.1093C104.25 46.5587 103.923 46.0598 103.407 45.8361C102.736 45.5608 101.961 45.8361 101.635 46.4899C101.153 47.4707 99.8795 49.2601 97.8321 51.7893C95.148 55.1272 92.0337 58.6544 91.9993 58.6888C91.8444 58.8609 91.5692 58.8781 91.3971 58.7232C91.225 58.5684 91.2078 58.2931 91.3627 58.121C91.3971 58.0866 94.4941 54.5766 97.161 51.2387C99.1397 48.7955 100.413 47.0061 100.86 46.0942C101.376 45.0446 102.632 44.5629 103.716 45.0274C104.542 45.3888 105.076 46.1802 105.076 47.0749C105.076 47.3674 105.007 47.6599 104.886 47.9524C104.886 47.9696 104.869 47.9868 104.869 48.004L101.204 54.3014C101.652 54.3358 102.151 54.4734 102.564 54.8003C103.028 55.1616 103.527 55.8499 103.39 57.1403C104.061 57.536 104.938 58.4652 104.955 60.0481C105.368 60.2029 105.816 60.5987 106.16 61.132C106.487 61.6482 107.14 63.0247 106.177 64.556C106.039 64.7797 105.867 65.055 105.695 65.3647C104.439 67.6014 102.512 70.8533 100.551 70.8533Z" fill="#060606"/>
<path d="M99.1741 68.6165C99.1053 68.6165 99.0537 68.5993 98.9849 68.5821C98.7784 68.4789 98.6751 68.2208 98.7784 68.0143C99.0193 67.5154 99.3118 67.0336 99.6731 66.6035C99.8279 66.4142 100.086 66.397 100.275 66.5346C100.465 66.6895 100.482 66.9476 100.344 67.1368C100.034 67.5154 99.7763 67.9283 99.5526 68.3757C99.4838 68.5305 99.329 68.6165 99.1741 68.6165Z" fill="#060F11"/>
<path d="M101.497 64.7281C101.411 64.7281 101.308 64.6937 101.239 64.642C101.05 64.5044 101.015 64.2291 101.17 64.0398L104.233 60.1857C104.387 59.9965 104.646 59.9793 104.835 60.1169C105.024 60.2546 105.058 60.5299 104.904 60.7191L101.841 64.5732C101.738 64.6764 101.617 64.7281 101.497 64.7281Z" fill="#060606"/>
<path d="M99.1741 62.457C99.0709 62.457 98.9849 62.4226 98.8988 62.3538C98.7096 62.1989 98.6924 61.9408 98.8472 61.7515L102.632 57.1576C102.787 56.9683 103.045 56.9511 103.235 57.106C103.424 57.2608 103.441 57.5189 103.286 57.7082L99.501 62.3021C99.415 62.4054 99.2946 62.457 99.1741 62.457Z" fill="#060606"/>
<path d="M96.5416 59.9105C96.4384 59.9105 96.3524 59.876 96.2663 59.8072C96.0943 59.6524 96.0599 59.3943 96.2147 59.205L100.12 54.5939C100.275 54.4218 100.533 54.3874 100.723 54.5423C100.895 54.6971 100.929 54.9552 100.774 55.1445L96.8685 59.7556C96.7825 59.8588 96.6621 59.9105 96.5416 59.9105Z" fill="#060606"/>
<path d="M251.686 161.493L250.843 155.953C250.465 153.475 248.589 151.497 246.129 150.998L243.789 150.516C242.567 147.712 240.984 145.045 239.023 142.601L239.694 140.313C240.399 137.904 239.522 135.323 237.509 133.826L233.001 130.489C230.988 129.009 228.269 128.923 226.17 130.316L224.174 131.641C221.249 130.489 218.238 129.766 215.193 129.422L214.023 127.305C212.818 125.12 210.375 123.899 207.897 124.277L202.357 125.103C199.88 125.482 197.901 127.357 197.402 129.817L196.92 132.157C194.116 133.379 191.432 134.979 188.988 136.941L186.7 136.27C184.291 135.564 181.71 136.442 180.231 138.455L176.91 142.963C175.413 144.976 175.344 147.694 176.738 149.793L178.045 151.789C176.893 154.714 176.17 157.725 175.826 160.771L173.727 161.923C171.524 163.128 170.32 165.571 170.699 168.049L171.542 173.589C171.92 176.067 173.778 178.045 176.239 178.544L178.596 179.026C179.818 181.831 181.418 184.515 183.362 186.958L182.691 189.263C182.003 191.672 182.863 194.236 184.876 195.733L189.384 199.071C191.397 200.568 194.116 200.636 196.215 199.26L198.211 197.935C201.118 199.071 204.147 199.811 207.175 200.155L208.328 202.254C209.532 204.456 211.975 205.661 214.453 205.282L220.01 204.456C222.488 204.095 224.467 202.219 224.966 199.759L225.447 197.402C228.252 196.18 230.936 194.58 233.379 192.636L235.668 193.29C238.076 193.995 240.657 193.118 242.154 191.122L245.475 186.614C246.955 184.601 247.023 181.865 245.664 179.766L244.339 177.787C245.492 174.862 246.232 171.834 246.559 168.789L248.658 167.636C250.86 166.431 252.065 163.988 251.686 161.493Z" fill="white"/>
<path d="M213.575 205.747C211.27 205.747 209.085 204.491 207.949 202.426L206.9 200.516C203.923 200.155 201.015 199.449 198.245 198.383L196.421 199.587C194.184 201.05 191.242 200.964 189.109 199.381L184.601 196.043C182.467 194.46 181.521 191.672 182.261 189.109L182.88 187.027C181.039 184.687 179.491 182.123 178.286 179.37L176.153 178.94C173.555 178.39 171.524 176.256 171.129 173.624L170.286 168.083C169.89 165.434 171.198 162.801 173.537 161.528L175.447 160.478C175.809 157.502 176.514 154.577 177.598 151.807L176.411 150C174.948 147.78 175.017 144.838 176.6 142.688L179.921 138.18C181.504 136.029 184.291 135.083 186.855 135.84L188.919 136.442C191.259 134.601 193.84 133.052 196.576 131.831L197.023 129.697C197.557 127.082 199.69 125.052 202.323 124.656L207.863 123.83C210.496 123.434 213.128 124.725 214.418 127.065L215.468 128.975C218.445 129.336 221.352 130.041 224.122 131.125L225.929 129.921C228.166 128.441 231.108 128.527 233.242 130.11L237.749 133.448C239.9 135.031 240.847 137.836 240.089 140.399L239.487 142.481C241.328 144.821 242.877 147.385 244.081 150.12L246.215 150.568C248.83 151.101 250.86 153.235 251.256 155.867L252.099 161.407C252.495 164.057 251.187 166.69 248.847 167.98L246.937 169.03C246.576 172.006 245.871 174.931 244.787 177.701L245.991 179.508C247.454 181.745 247.368 184.687 245.802 186.838L242.464 191.345C240.881 193.496 238.094 194.425 235.53 193.685L233.448 193.083C231.108 194.924 228.544 196.473 225.791 197.694L225.361 199.828C224.828 202.443 222.694 204.473 220.045 204.852L214.487 205.678C214.195 205.73 213.885 205.747 213.575 205.747ZM198.193 197.488C198.245 197.488 198.297 197.505 198.348 197.522C201.187 198.641 204.164 199.381 207.209 199.725C207.347 199.742 207.467 199.828 207.536 199.948L208.689 202.047C209.807 204.078 212.078 205.196 214.367 204.869L219.924 204.043C222.213 203.699 224.071 201.944 224.535 199.69L225.017 197.333C225.052 197.195 225.138 197.075 225.258 197.023C228.08 195.802 230.712 194.202 233.087 192.309C233.19 192.223 233.345 192.189 233.465 192.24L235.754 192.894C237.973 193.548 240.399 192.739 241.776 190.881L245.096 186.373C246.456 184.498 246.524 181.951 245.268 180.024L243.944 178.045C243.875 177.925 243.858 177.787 243.909 177.65C245.028 174.811 245.767 171.817 246.111 168.754C246.129 168.617 246.215 168.496 246.335 168.427L248.434 167.275C250.465 166.173 251.6 163.885 251.256 161.579L250.413 156.039C250.069 153.751 248.297 151.893 246.043 151.445L243.703 150.964C243.565 150.929 243.462 150.843 243.393 150.723C242.171 147.901 240.588 145.268 238.679 142.894C238.593 142.791 238.558 142.636 238.61 142.515L239.281 140.227C239.935 138.008 239.109 135.582 237.251 134.205L232.743 130.867C230.884 129.491 228.338 129.422 226.394 130.695L224.398 132.02C224.277 132.089 224.14 132.106 224.002 132.054C221.163 130.936 218.187 130.196 215.124 129.852C214.986 129.835 214.866 129.749 214.797 129.628L213.627 127.512C212.509 125.482 210.22 124.363 207.949 124.707L202.409 125.533C200.12 125.877 198.279 127.632 197.815 129.904L197.333 132.244C197.299 132.381 197.213 132.485 197.092 132.553C194.27 133.775 191.638 135.375 189.246 137.268C189.143 137.354 188.988 137.388 188.868 137.337L186.579 136.666C184.36 136.012 181.934 136.838 180.575 138.696L177.237 143.204C175.86 145.062 175.791 147.608 177.065 149.553L178.372 151.549C178.441 151.669 178.458 151.807 178.407 151.944C177.288 154.783 176.549 157.777 176.204 160.822C176.187 160.96 176.101 161.081 175.981 161.149L173.882 162.302C171.851 163.403 170.733 165.692 171.06 167.98L171.903 173.52C172.247 175.809 174.002 177.667 176.256 178.131L178.613 178.613C178.751 178.648 178.871 178.734 178.923 178.854C180.145 181.676 181.727 184.308 183.637 186.683C183.723 186.786 183.758 186.941 183.706 187.061L183.035 189.367C182.398 191.586 183.207 193.995 185.065 195.372L189.573 198.71C191.432 200.086 193.978 200.155 195.905 198.882L197.901 197.557C198.039 197.505 198.107 197.488 198.193 197.488Z" fill="black"/>
<path d="M230.525 184.11C241.208 173.426 241.208 156.105 230.525 145.421C219.841 134.738 202.52 134.738 191.836 145.421C181.153 156.105 181.153 173.426 191.836 184.11C202.52 194.793 219.841 194.793 230.525 184.11Z" fill="#E7EBFB"/>
<path d="M227.848 181.433C237.054 172.228 237.054 157.303 227.848 148.098C218.643 138.893 203.718 138.893 194.513 148.098C185.308 157.303 185.308 172.228 194.513 181.433C203.718 190.639 218.643 190.639 227.848 181.433Z" fill="white"/>
<path d="M211.132 188.765C206.039 188.765 201.101 187.147 196.937 184.068C186.287 176.204 184.033 161.149 191.879 150.516C199.742 139.866 214.797 137.612 225.43 145.458C230.592 149.26 233.947 154.852 234.911 161.184C235.857 167.516 234.291 173.847 230.489 179.009C226.686 184.171 221.094 187.526 214.763 188.489C213.541 188.679 212.337 188.765 211.132 188.765ZM211.218 141.638C204.112 141.638 197.109 144.89 192.567 151.032C184.979 161.304 187.182 175.826 197.436 183.396C202.409 187.061 208.517 188.575 214.625 187.664C220.733 186.752 226.118 183.5 229.8 178.527C233.465 173.555 234.979 167.447 234.067 161.339C233.156 155.231 229.904 149.845 224.931 146.163C220.802 143.101 215.984 141.638 211.218 141.638Z" fill="black"/>
<path d="M185.444 114.384H130.11C127.701 114.384 126.394 111.58 127.925 109.721L140.451 94.6834C141.535 93.393 143.479 93.307 144.666 94.5114L150.516 100.482C151.652 101.635 153.527 101.617 154.628 100.43L165.726 88.4377C166.896 87.1817 168.892 87.2333 169.993 88.541L187.629 109.721C189.16 111.58 187.853 114.384 185.444 114.384Z" fill="#00C09A"/>
<path d="M185.444 114.814H130.11C128.837 114.814 127.701 114.092 127.151 112.939C126.6 111.786 126.772 110.444 127.598 109.463L140.124 94.4253C140.709 93.7199 141.586 93.2897 142.498 93.2553C143.427 93.2209 144.322 93.5822 144.959 94.2361L150.809 100.206C151.273 100.688 151.893 100.946 152.564 100.929C153.235 100.912 153.854 100.637 154.301 100.155L165.399 88.1624C166.036 87.4742 166.93 87.0957 167.877 87.1129C168.823 87.1301 169.701 87.5602 170.303 88.2829L187.939 109.463C188.765 110.444 188.937 111.786 188.386 112.939C187.853 114.092 186.717 114.814 185.444 114.814ZM142.636 94.0812C142.602 94.0812 142.567 94.0812 142.533 94.0812C141.844 94.1156 141.208 94.4253 140.778 94.9415L128.252 109.979C127.65 110.702 127.512 111.7 127.925 112.543C128.321 113.403 129.164 113.937 130.11 113.937H185.444C186.39 113.937 187.233 113.403 187.629 112.543C188.025 111.683 187.904 110.702 187.302 109.979L169.666 88.8162C169.219 88.2829 168.565 87.9732 167.877 87.956C167.189 87.9387 166.518 88.214 166.036 88.7302L154.938 100.723C154.319 101.394 153.493 101.755 152.581 101.772C151.669 101.789 150.826 101.445 150.206 100.791L144.356 94.8211C143.909 94.3565 143.273 94.0812 142.636 94.0812Z" fill="black"/>
<path d="M151.411 92.7394C154.176 92.7394 156.418 90.4977 156.418 87.7325C156.418 84.9672 154.176 82.7256 151.411 82.7256C148.646 82.7256 146.404 84.9672 146.404 87.7325C146.404 90.4977 148.646 92.7394 151.411 92.7394Z" fill="#FFD400"/>
<path d="M151.411 93.1695C148.417 93.1695 145.991 90.7435 145.991 87.7497C145.991 84.7558 148.417 82.3298 151.411 82.3298C154.405 82.3298 156.831 84.7558 156.831 87.7497C156.831 90.7263 154.405 93.1695 151.411 93.1695ZM151.411 83.1557C148.882 83.1557 146.834 85.2032 146.834 87.7324C146.834 90.2617 148.882 92.3092 151.411 92.3092C153.94 92.3092 155.988 90.2617 155.988 87.7324C155.988 85.2204 153.94 83.1557 151.411 83.1557Z" fill="#060F11"/>
<path d="M229.181 164.849C229.181 169.735 227.202 174.157 224.002 177.374L218.273 171.645C219.924 169.942 220.957 167.602 220.957 165.038C220.957 164.969 220.957 164.9 220.957 164.849H229.181Z" fill="#F93121"/>
<path d="M229.181 164.849H220.957C220.905 162.268 219.821 159.928 218.083 158.242L224.002 152.323C227.202 155.54 229.181 159.962 229.181 164.849Z" fill="#0045DF"/>
<path d="M224.002 152.34L218.083 158.259C216.38 156.607 214.04 155.575 211.476 155.575V147.161C216.38 147.144 220.802 149.122 224.002 152.34Z" fill="#FFBC00"/>
<path d="M204.68 171.645L198.95 177.374C197.35 175.774 196.043 173.864 195.148 171.748C194.253 169.632 193.754 167.292 193.754 164.849H201.979C201.979 164.917 201.979 164.986 201.979 165.038C202.013 167.619 203.028 169.942 204.68 171.645Z" fill="#0081FF"/>
<path d="M211.493 147.144V155.557C208.93 155.557 206.607 156.573 204.886 158.242L198.968 152.323C202.168 149.122 206.59 147.144 211.493 147.144Z" fill="#FFD400"/>
<path d="M204.886 158.242C203.166 159.928 202.065 162.25 202.013 164.849H193.789C193.789 159.962 195.767 155.54 198.968 152.323L204.886 158.242Z" fill="#4A4DDC"/>
<path d="M216.07 164.195C216.294 165.554 215.881 166.999 214.849 168.032C213.128 169.752 210.341 169.752 208.62 168.032C206.9 166.311 206.9 163.524 208.62 161.803C209.67 160.753 211.098 160.341 212.457 160.581L221.198 155.454L216.07 164.195Z" fill="#141323"/>
<path d="M211.717 169.769C210.427 169.769 209.205 169.27 208.293 168.359C207.381 167.447 206.882 166.225 206.882 164.935C206.882 163.644 207.381 162.423 208.293 161.511C209.36 160.444 210.857 159.945 212.354 160.134L220.974 155.076C221.146 154.972 221.352 155.007 221.49 155.144C221.628 155.282 221.662 155.489 221.559 155.661L216.5 164.281C216.707 165.76 216.191 167.275 215.124 168.341C214.229 169.253 213.008 169.769 211.717 169.769ZM211.717 160.96C210.668 160.96 209.652 161.373 208.913 162.13C208.156 162.887 207.743 163.885 207.743 164.952C207.743 166.019 208.156 167.016 208.913 167.774C209.67 168.531 210.668 168.944 211.734 168.944C212.801 168.944 213.799 168.531 214.556 167.774C215.468 166.862 215.881 165.571 215.674 164.298C215.657 164.195 215.674 164.091 215.726 164.005L220.028 156.676L212.681 160.977C212.595 161.029 212.491 161.046 212.388 161.029C212.164 160.977 211.941 160.96 211.717 160.96Z" fill="#060F11"/>
<path d="M211.579 167.034C212.739 167.034 213.679 166.094 213.679 164.935C213.679 163.775 212.739 162.835 211.579 162.835C210.42 162.835 209.48 163.775 209.48 164.935C209.48 166.094 210.42 167.034 211.579 167.034Z" fill="white"/>
<path d="M211.579 167.447C210.186 167.447 209.05 166.311 209.05 164.917C209.05 163.524 210.186 162.388 211.579 162.388C212.973 162.388 214.109 163.524 214.109 164.917C214.092 166.311 212.956 167.447 211.579 167.447ZM211.579 163.248C210.65 163.248 209.911 164.006 209.911 164.917C209.911 165.847 210.668 166.586 211.579 166.586C212.491 166.586 213.248 165.829 213.248 164.917C213.248 164.006 212.491 163.248 211.579 163.248Z" fill="#060F11"/>
<path d="M161.098 138.128H113.73C113.334 138.128 113.008 137.801 113.008 137.405C113.008 137.01 113.334 136.683 113.73 136.683H161.098C161.493 136.683 161.82 137.01 161.82 137.405C161.82 137.801 161.493 138.128 161.098 138.128Z" fill="#FFD400"/>
<path d="M161.098 147.832H143.462C143.066 147.832 142.739 147.505 142.739 147.11C142.739 146.714 143.066 146.387 143.462 146.387H161.098C161.493 146.387 161.82 146.714 161.82 147.11C161.82 147.505 161.493 147.832 161.098 147.832Z" fill="#B7BEF8"/>
<path d="M136.545 147.832H126.721C126.325 147.832 125.998 147.505 125.998 147.11C125.998 146.714 126.325 146.387 126.721 146.387H136.545C136.941 146.387 137.268 146.714 137.268 147.11C137.268 147.505 136.941 147.832 136.545 147.832Z" fill="#0045DF"/>
<path d="M121.696 147.832H113.73C113.334 147.832 113.008 147.505 113.008 147.11C113.008 146.714 113.334 146.387 113.73 146.387H121.714C122.109 146.387 122.436 146.714 122.436 147.11C122.436 147.505 122.109 147.832 121.696 147.832Z" fill="#B7BEF8"/>
<path d="M161.098 157.519H154.129C153.734 157.519 153.407 157.192 153.407 156.796C153.407 156.401 153.734 156.074 154.129 156.074H161.098C161.493 156.074 161.82 156.401 161.82 156.796C161.82 157.192 161.493 157.519 161.098 157.519Z" fill="#00C09A"/>
<path d="M144.632 157.519H125.189C124.794 157.519 124.467 157.192 124.467 156.796C124.467 156.401 124.794 156.074 125.189 156.074H144.649C145.045 156.074 145.372 156.401 145.372 156.796C145.372 157.192 145.045 157.519 144.632 157.519Z" fill="#B7BEF8"/>
<path d="M130.471 152.374H124.966C124.57 152.374 124.243 152.048 124.243 151.652C124.243 151.256 124.57 150.929 124.966 150.929H130.471C130.867 150.929 131.194 151.256 131.194 151.652C131.194 152.048 130.884 152.374 130.471 152.374Z" fill="#FF73ED"/>
<path d="M161.098 167.223H140.502C140.107 167.223 139.78 166.896 139.78 166.5C139.78 166.105 140.107 165.778 140.502 165.778H161.098C161.493 165.778 161.82 166.105 161.82 166.5C161.82 166.896 161.493 167.223 161.098 167.223Z" fill="#B7BEF8"/>
<path d="M134.257 167.223H126.48C126.084 167.223 125.757 166.896 125.757 166.5C125.757 166.105 126.084 165.778 126.48 165.778H134.257C134.652 165.778 134.979 166.105 134.979 166.5C134.979 166.896 134.652 167.223 134.257 167.223Z" fill="#0045DF"/>
<path d="M161.098 176.91H157.863C157.467 176.91 157.14 176.583 157.14 176.187C157.14 175.792 157.467 175.465 157.863 175.465H161.098C161.493 175.465 161.82 175.792 161.82 176.187C161.82 176.6 161.493 176.91 161.098 176.91Z" fill="#B7BEF8"/>
<path d="M153.682 176.91H142.292C141.896 176.91 141.569 176.583 141.569 176.187C141.569 175.792 141.896 175.465 142.292 175.465H153.682C154.078 175.465 154.405 175.792 154.405 176.187C154.405 176.6 154.078 176.91 153.682 176.91Z" fill="#B7BEF8"/>
<path d="M138.438 176.91H135.478C135.083 176.91 134.756 176.583 134.756 176.187C134.756 175.792 135.083 175.465 135.478 175.465H138.438C138.833 175.465 139.16 175.792 139.16 176.187C139.178 176.6 138.851 176.91 138.438 176.91Z" fill="#FFD400"/>
<path d="M132.811 176.91H128.183C127.787 176.91 127.46 176.583 127.46 176.187C127.46 175.792 127.787 175.465 128.183 175.465H132.811C133.207 175.465 133.534 175.792 133.534 176.187C133.534 176.6 133.207 176.91 132.811 176.91Z" fill="#B7BEF8"/>
<path d="M124.501 176.91H113.73C113.334 176.91 113.008 176.583 113.008 176.187C113.008 175.792 113.334 175.465 113.73 175.465H124.501C124.897 175.465 125.224 175.792 125.224 176.187C125.224 176.6 124.897 176.91 124.501 176.91Z" fill="#4A4DDC"/>
<path d="M161.098 186.614H152.718C152.323 186.614 151.996 186.287 151.996 185.891C151.996 185.496 152.323 185.169 152.718 185.169H161.098C161.493 185.169 161.82 185.496 161.82 185.891C161.82 186.287 161.493 186.614 161.098 186.614Z" fill="#B7BEF8"/>
<path d="M141.001 186.614H130.076C129.68 186.614 129.353 186.287 129.353 185.891C129.353 185.496 129.68 185.169 130.076 185.169H141.019C141.414 185.169 141.741 185.496 141.741 185.891C141.741 186.287 141.414 186.614 141.001 186.614Z" fill="#00C09A"/>
<path d="M125.103 186.614H113.73C113.334 186.614 113.008 186.287 113.008 185.891C113.008 185.496 113.334 185.169 113.73 185.169H125.12C125.516 185.169 125.843 185.496 125.843 185.891C125.843 186.287 125.516 186.614 125.103 186.614Z" fill="#B7BEF8"/>
<path d="M161.098 196.318H113.73C113.334 196.318 113.008 195.991 113.008 195.595C113.008 195.2 113.334 194.873 113.73 194.873H161.098C161.493 194.873 161.82 195.2 161.82 195.595C161.82 195.991 161.493 196.318 161.098 196.318Z" fill="#B7BEF8"/>
<path d="M89.0915 10.7191C89.8142 14.1259 89.1087 17.5326 87.3882 20.2683C85.5816 23.1589 82.6566 25.3268 79.0606 26.0839C75.4129 26.8581 71.8169 26.0151 68.978 24.0364C66.3455 22.2126 64.384 19.4252 63.6786 16.0701C62.1989 9.06736 66.6896 2.16784 73.6924 0.705347C80.7467 -0.77435 87.629 3.71636 89.0915 10.7191Z" fill="#FF73ED"/>
<path d="M76.4281 26.8066C73.7096 26.8066 71.0255 25.9807 68.7715 24.415C65.9498 22.4707 64.0055 19.5457 63.3001 16.1734C62.5602 12.6634 63.2312 9.08461 65.1927 6.0908C67.137 3.097 70.1308 1.0323 73.6407 0.292453C77.1507 -0.447396 80.7295 0.22363 83.7233 2.18509C86.7171 4.12934 88.7818 7.14035 89.5217 10.6331C90.2443 14.0399 89.6249 17.5499 87.7667 20.5092C85.8224 23.6235 82.777 25.757 79.181 26.5141C78.2519 26.7033 77.34 26.8066 76.4281 26.8066ZM76.4281 0.843038C75.5506 0.843038 74.6903 0.929067 73.8128 1.11833C70.5265 1.80656 67.722 3.73361 65.8809 6.53815C64.0571 9.34269 63.4205 12.6978 64.1087 15.9841C64.7798 19.1328 66.5864 21.8685 69.2361 23.6923C72.1094 25.6882 75.5678 26.3936 78.9917 25.671C82.3641 24.9655 85.2202 22.9697 87.044 20.0447C88.7818 17.2746 89.3668 14.0055 88.6786 10.8052C87.9904 7.51888 86.0633 4.71434 83.2588 2.89053C81.1941 1.54847 78.8369 0.843038 76.4281 0.843038Z" fill="#060F11"/>
<path d="M79.5595 9.51493C80.0069 11.6656 78.6476 13.7648 76.4969 14.2121C74.3462 14.6595 72.2471 13.3002 71.7997 11.1495C71.3524 8.99875 72.7116 6.89965 74.8624 6.4523C76.9959 6.00495 79.1122 7.38141 79.5595 9.51493Z" fill="white"/>
<path d="M75.671 14.7282C74.828 14.7282 74.0021 14.4873 73.2794 14.0056C72.2987 13.369 71.6277 12.371 71.3696 11.2354C71.1287 10.0827 71.3524 8.91266 71.989 7.93193C72.6256 6.9512 73.6235 6.28017 74.7591 6.02209C75.9119 5.7812 77.0819 6.00488 78.0626 6.64149C79.0434 7.27811 79.7144 8.27604 79.9725 9.41162C80.2134 10.5644 79.9897 11.7344 79.3531 12.7151C78.7165 13.6959 77.7185 14.3669 76.5829 14.625C76.2732 14.711 75.9635 14.7282 75.671 14.7282ZM75.6882 6.79635C75.4474 6.79635 75.1893 6.81355 74.9484 6.88237C74.0193 7.07164 73.2278 7.62222 72.7116 8.41369C72.1955 9.20516 72.0234 10.1515 72.2127 11.0806C72.4019 12.0097 72.9525 12.8012 73.744 13.3173C74.5355 13.8335 75.4818 14.0056 76.4109 13.8163C77.34 13.627 78.1315 13.0765 78.6476 12.285C79.1638 11.4935 79.3359 10.5472 79.1466 9.61809C78.9573 8.68898 78.4068 7.89752 77.6153 7.38134C77.0303 6.98561 76.3593 6.79635 75.6882 6.79635Z" fill="#060F11"/>
<path d="M87.4054 20.2854C85.5988 23.176 82.6738 25.3439 79.0778 26.101C75.4301 26.8752 71.8341 26.0321 68.9952 24.0535C70.1136 20.4747 73.0902 17.5841 77.0303 16.7582C81.0048 15.9151 84.9277 17.3948 87.4054 20.2854Z" fill="white"/>
<path d="M76.4281 26.8065C73.7096 26.8065 71.0255 25.9806 68.7715 24.4149C68.6166 24.3116 68.5478 24.1224 68.6166 23.9331C69.821 20.079 73.0213 17.1712 76.9614 16.3453C80.9532 15.5023 85.0826 16.9131 87.7495 20.0102C87.8699 20.1478 87.8871 20.3543 87.7839 20.5091C85.8396 23.6234 82.7942 25.7569 79.1982 26.514C78.2519 26.7032 77.34 26.8065 76.4281 26.8065ZM69.5113 23.8815C72.3159 25.7397 75.6882 26.3763 78.9917 25.6881C82.2608 24.9999 85.0482 23.1072 86.872 20.3199C84.4116 17.6186 80.7123 16.4142 77.1163 17.1712C73.5719 17.9111 70.6813 20.4747 69.5113 23.8815Z" fill="#060F11"/>
<path d="M264.745 93.7199L256.762 105.127C254.646 108.156 250.482 108.895 247.454 106.779L233.775 97.2126C230.747 95.0963 230.007 90.9325 232.123 87.9043L240.107 76.4969C242.223 73.4686 246.387 72.7288 249.415 74.8451L263.076 84.4115C266.122 86.5106 266.862 90.6916 264.745 93.7199Z" fill="#FFD400"/>
<path d="M248.159 100.826L251.187 102.942C251.428 103.114 251.772 103.045 251.944 102.804L257.725 94.5456C257.897 94.3047 257.829 93.9606 257.588 93.7885L254.56 91.6722C254.319 91.5002 253.975 91.569 253.802 91.8099L248.021 100.069C247.849 100.327 247.901 100.654 248.159 100.826Z" fill="white"/>
<path d="M242.12 96.6105L245.148 98.7268C245.389 98.8989 245.733 98.8301 245.905 98.5892L255.248 85.2375C255.42 84.9966 255.351 84.6525 255.11 84.4804L252.082 82.3641C251.841 82.1921 251.497 82.2609 251.325 82.5018L241.982 95.8535C241.81 96.1115 241.879 96.4385 242.12 96.6105Z" fill="white"/>
<path d="M236.08 92.3951L239.109 94.5114C239.35 94.6834 239.694 94.6146 239.866 94.3737L243.462 89.2292C243.634 88.9883 243.565 88.6442 243.324 88.4721L240.296 86.3558C240.055 86.1838 239.711 86.2526 239.539 86.4935L235.943 91.638C235.788 91.8789 235.84 92.223 236.08 92.3951Z" fill="white"/>
</g>
<defs>
<clipPath id="clip0_34_8583">
<rect width="265.95" height="250" fill="white"/>
</clipPath>
</defs>
</svg>
