<svg width="224" height="200" viewBox="0 0 224 200" fill="none" xmlns="http://www.w3.org/2000/svg">
<g clip-path="url(#clip0_39_15117)">
<path d="M102.813 92.0556C97.3929 103.828 85.4967 111.993 71.6931 111.993C52.7716 111.993 37.4451 96.6522 37.4451 77.7444C37.4451 58.8229 52.7854 43.4963 71.6931 43.4963C83.411 43.4963 93.7431 49.369 99.9176 58.3427C96.3364 60.8536 91.6163 64.1604 87.0609 67.33C83.6031 62.2532 77.703 58.9876 71.1031 59.2071C60.8534 59.5364 52.8128 68.0984 53.1421 78.3481C53.4714 88.5979 62.0334 96.6385 72.2832 96.3092C79.5554 96.0759 85.7025 91.6989 88.5565 85.5106L102.813 92.0556Z" fill="#605EFD"/>
<path d="M114.407 77.0445C114.407 82.8074 113.145 88.2684 110.881 93.1669L94.8271 85.7849C96.1443 82.9309 96.8304 79.7338 96.7344 76.3721C96.6109 72.2558 95.2936 68.455 93.1394 65.2854C98.2711 61.7179 103.595 57.9995 107.629 55.1592C111.896 61.3886 114.407 68.9215 114.407 77.0445Z" fill="#0045DF"/>
<path d="M107.396 70.1017C107.327 70.1017 107.245 70.088 107.176 70.0468C106.984 69.9233 106.915 69.6763 107.039 69.4842L122.324 44.0452C122.393 43.9217 122.53 43.8394 122.681 43.8394H147.64C147.873 43.8394 148.052 44.0315 148.052 44.251C148.052 44.4843 147.86 44.6626 147.64 44.6626H122.914L107.752 69.9096C107.67 70.0331 107.533 70.1017 107.396 70.1017Z" fill="#030047"/>
<path d="M127.84 120.76L108.823 139.27L79.6102 138.515L83.4522 156.023L109.221 161.882C113.611 162.884 118.194 161.567 121.391 158.397L140.67 139.27L127.84 120.76Z" fill="white"/>
<path d="M112.157 162.637C111.155 162.637 110.14 162.527 109.125 162.294L83.3562 156.435C83.2052 156.394 83.0817 156.271 83.0406 156.12L79.1986 138.611C79.1712 138.488 79.1986 138.351 79.281 138.255C79.3633 138.159 79.4868 138.117 79.6103 138.104L108.658 138.858L127.538 120.472C127.621 120.39 127.744 120.348 127.868 120.362C127.991 120.376 128.101 120.445 128.17 120.541L140.985 139.05C141.095 139.215 141.081 139.435 140.93 139.586L121.652 158.713C119.1 161.251 115.683 162.637 112.157 162.637ZM83.7952 155.681L109.303 161.471C113.57 162.445 117.975 161.183 121.089 158.095L140.121 139.215L127.785 121.391L109.125 139.558C109.042 139.64 108.932 139.682 108.823 139.682L80.1317 138.941L83.7952 155.681Z" fill="#030047"/>
<path d="M150.247 127.635L140.436 152.154L128.238 138.488L123.916 133.644L117.591 127.127L130.214 115.779C132.67 113.762 135.867 112.871 139.023 113.365L145.102 114.311L150.247 127.635Z" fill="#0045DF"/>
<g opacity="0.4">
<path d="M130.859 135.044C130.859 136.691 129.748 138.076 128.238 138.502L123.916 133.658C124.451 132.341 125.741 131.422 127.25 131.422C129.254 131.422 130.859 133.041 130.859 135.044Z" fill="white"/>
</g>
<path d="M140.436 152.58C140.326 152.58 140.203 152.525 140.134 152.443L117.289 127.415C117.22 127.333 117.179 127.223 117.179 127.113C117.179 127.003 117.234 126.894 117.316 126.825L129.94 115.478C130.104 115.327 130.379 115.34 130.53 115.505C130.68 115.67 130.667 115.944 130.502 116.095L118.194 127.154L140.313 151.386L149.876 127.484C149.959 127.264 150.206 127.168 150.412 127.25C150.631 127.333 150.727 127.58 150.645 127.786L140.834 152.305C140.779 152.443 140.67 152.539 140.519 152.566C140.491 152.58 140.464 152.58 140.436 152.58Z" fill="#030047"/>
<path d="M141.932 113.955L180.969 115.217C186.512 115.395 191.081 120.294 190.834 125.769L187.953 194.086H123.93L141.932 113.955Z" fill="#0045DF"/>
<g opacity="0.4">
<path d="M171.707 171.529C174.276 171.529 176.358 169.446 176.358 166.877C176.358 164.308 174.276 162.226 171.707 162.226C169.138 162.226 167.055 164.308 167.055 166.877C167.055 169.446 169.138 171.529 171.707 171.529Z" fill="white"/>
</g>
<path d="M124.067 193.853C124.04 193.853 124.012 193.853 123.971 193.839C123.751 193.784 123.6 193.565 123.655 193.345L138.557 127.017C138.611 126.798 138.831 126.647 139.051 126.702C139.27 126.756 139.421 126.976 139.366 127.195L124.465 193.524C124.437 193.716 124.259 193.853 124.067 193.853Z" fill="#030047"/>
<path d="M223.436 194.127H18.6196C18.3864 194.127 18.208 193.935 18.208 193.716C18.208 193.483 18.4001 193.304 18.6196 193.304H223.436C223.669 193.304 223.847 193.496 223.847 193.716C223.861 193.935 223.669 194.127 223.436 194.127Z" fill="white"/>
<g opacity="0.4">
<path d="M149.135 136.05C149.735 135.45 149.735 134.477 149.135 133.877C148.535 133.277 147.562 133.277 146.962 133.877C146.362 134.477 146.362 135.45 146.962 136.05C147.562 136.65 148.535 136.65 149.135 136.05Z" fill="white"/>
</g>
<g opacity="0.4">
<path d="M142.093 153.453C142.886 152.66 142.886 151.374 142.093 150.581C141.3 149.788 140.014 149.788 139.221 150.581C138.428 151.374 138.428 152.66 139.221 153.453C140.014 154.246 141.3 154.246 142.093 153.453Z" fill="white"/>
</g>
<g opacity="0.4">
<path d="M185.062 182.113C185.855 181.32 185.855 180.034 185.062 179.241C184.269 178.448 182.983 178.448 182.19 179.241C181.397 180.034 181.397 181.32 182.19 182.113C182.983 182.906 184.269 182.906 185.062 182.113Z" fill="white"/>
</g>
<g opacity="0.4">
<path d="M157.596 189.168C160.002 186.762 160.002 182.861 157.596 180.455C155.19 178.049 151.289 178.049 148.883 180.455C146.477 182.861 146.477 186.762 148.883 189.168C151.289 191.574 155.19 191.574 157.596 189.168Z" fill="white"/>
</g>
<g opacity="0.4">
<path d="M155.829 143.501C157.347 143.255 158.378 141.824 158.132 140.305C157.886 138.787 156.455 137.756 154.936 138.002C153.418 138.248 152.387 139.679 152.633 141.198C152.88 142.716 154.31 143.747 155.829 143.501Z" fill="white"/>
</g>
<g opacity="0.4">
<path d="M154.826 152.417C155.414 150.995 154.74 149.366 153.318 148.777C151.897 148.189 150.268 148.863 149.679 150.285C149.09 151.706 149.765 153.335 151.186 153.924C152.608 154.513 154.237 153.838 154.826 152.417Z" fill="white"/>
</g>
<g opacity="0.4">
<path d="M130.859 124.095C131.655 124.095 132.3 123.45 132.3 122.654C132.3 121.858 131.655 121.213 130.859 121.213C130.063 121.213 129.418 121.858 129.418 122.654C129.418 123.45 130.063 124.095 130.859 124.095Z" fill="white"/>
</g>
<g opacity="0.4">
<path d="M134.934 130.356C135.492 129.798 135.492 128.895 134.934 128.338C134.377 127.78 133.474 127.78 132.916 128.338C132.359 128.895 132.359 129.798 132.916 130.356C133.474 130.913 134.377 130.913 134.934 130.356Z" fill="white"/>
</g>
<g opacity="0.4">
<path d="M172.199 154.924C173.019 154.104 173.019 152.775 172.199 151.955C171.379 151.135 170.05 151.135 169.23 151.955C168.41 152.775 168.41 154.104 169.23 154.924C170.05 155.744 171.379 155.744 172.199 154.924Z" fill="white"/>
</g>
<g opacity="0.4">
<path d="M141.317 174.416C141.761 173.345 141.252 172.117 140.181 171.673C139.11 171.229 137.882 171.738 137.438 172.809C136.994 173.88 137.503 175.108 138.574 175.552C139.645 175.996 140.873 175.487 141.317 174.416Z" fill="white"/>
</g>
<g opacity="0.4">
<path d="M152.607 170.445C154.267 170.445 155.612 169.099 155.612 167.44C155.612 165.78 154.267 164.435 152.607 164.435C150.947 164.435 149.602 165.78 149.602 167.44C149.602 169.099 150.947 170.445 152.607 170.445Z" fill="white"/>
</g>
<g opacity="0.4">
<path d="M148.93 124.199C149.808 123.321 149.808 121.896 148.93 121.017C148.051 120.138 146.626 120.138 145.747 121.017C144.868 121.896 144.868 123.321 145.747 124.199C146.626 125.078 148.051 125.078 148.93 124.199Z" fill="white"/>
</g>
<g opacity="0.4">
<path d="M160.949 129.35C162.192 129.35 163.2 128.342 163.2 127.099C163.2 125.857 162.192 124.849 160.949 124.849C159.707 124.849 158.699 125.857 158.699 127.099C158.699 128.342 159.707 129.35 160.949 129.35Z" fill="white"/>
</g>
<path d="M128.17 66.0951C121.734 36.2103 92.3024 17.2065 62.4176 23.628C32.5329 30.0632 13.529 59.4952 19.9643 89.3799C26.3995 119.265 55.8315 138.269 85.7162 131.833C115.587 125.412 134.605 95.9661 128.17 66.0951ZM83.6031 122.078C59.1108 127.346 34.989 111.773 29.72 87.2806C24.4511 62.7883 40.0384 38.6664 64.517 33.3975C89.0093 28.1285 113.131 43.7021 118.414 68.1944C123.683 92.6867 108.095 116.809 83.6031 122.078Z" fill="white"/>
<path d="M112.184 161.608C112.184 161.608 98.1888 155.53 96.2403 160.469C95.4857 162.377 104.363 170.321 104.363 170.321" fill="white"/>
<path d="M104.35 170.733C104.254 170.733 104.158 170.692 104.075 170.623C101.948 168.716 95.0467 162.335 95.8425 160.318C96.1581 159.523 96.7618 158.919 97.6537 158.562C101.99 156.765 111.924 161.046 112.349 161.238C112.555 161.334 112.651 161.567 112.569 161.787C112.473 161.992 112.239 162.088 112.02 162.006C111.924 161.965 101.976 157.684 97.9693 159.344C97.2969 159.619 96.8578 160.044 96.6246 160.634C96.2267 161.649 100.467 166.287 104.638 170.019C104.802 170.17 104.83 170.431 104.665 170.609C104.583 170.678 104.473 170.733 104.35 170.733Z" fill="#030047"/>
<path d="M101.18 199.808C96.5696 200.796 92.0142 197.86 91.0262 193.249L77.8127 131.861C76.8248 127.251 79.7612 122.695 84.3715 121.707C88.9818 120.719 93.5372 123.656 94.5252 128.266L107.739 189.654C108.727 194.265 105.79 198.806 101.18 199.808Z" fill="white"/>
<path d="M74.9863 151.317C75.7958 154.473 76.8661 158.74 81.4352 160.785C84.9341 162.349 92.0828 158.809 87.349 154.103C87.349 154.103 88.6251 152.786 87.8842 150.576C87.1432 148.367 85.8534 148.765 85.8534 148.765C85.8534 148.765 87.9802 146.995 86.9511 145.17C85.922 143.345 84.4402 143.524 84.4402 143.524C84.4402 143.524 86.5669 142.769 85.0988 139.819C83.6169 136.855 76.8661 139.915 75.686 140.807C72.9967 142.879 74.3276 148.738 74.9863 151.317Z" fill="white"/>
<path d="M83.3699 161.581C82.6152 161.581 81.888 161.444 81.2568 161.169C76.5368 159.042 75.4116 154.665 74.5883 151.468L74.5746 151.427C73.0927 145.637 73.3672 142.069 75.4253 140.491C76.2761 139.846 80.804 137.624 83.6032 138.268C84.4813 138.474 85.1125 138.941 85.4555 139.641C86.0455 140.821 86.169 141.836 85.8397 142.659C85.7437 142.906 85.6065 143.126 85.4555 143.29C86.0318 143.51 86.7316 143.976 87.3079 144.978C88.1037 146.378 87.349 147.709 86.7316 148.463C87.253 148.669 87.8567 149.204 88.2684 150.467C88.8721 152.264 88.2546 153.526 87.8842 154.089C90.011 156.394 89.3249 158.219 88.6937 159.111C87.6646 160.62 85.4144 161.581 83.3699 161.581ZM75.3842 151.221L75.3979 151.262C76.18 154.295 77.2365 158.452 81.5999 160.414C83.5757 161.293 86.8139 160.401 88.0214 158.631C88.8858 157.368 88.5565 155.9 87.0472 154.405C86.8825 154.24 86.8825 153.979 87.0472 153.815C87.0883 153.773 88.1312 152.635 87.4863 150.714C86.8962 148.957 86.0044 149.163 85.9632 149.177C85.7711 149.232 85.579 149.136 85.483 148.971C85.4006 148.793 85.4281 148.587 85.579 148.463C85.5927 148.45 87.4177 146.885 86.5807 145.39C85.7162 143.853 84.5225 143.949 84.4676 143.949C84.2618 143.976 84.0697 143.826 84.0148 143.62C83.9736 143.414 84.0834 143.208 84.2755 143.139C84.2892 143.126 84.8244 142.934 85.0576 142.33C85.2909 141.74 85.1674 140.958 84.6871 140.011C84.4402 139.531 84.0148 139.215 83.3836 139.078C81.051 138.543 76.8249 140.45 75.9056 141.15C74.2042 142.481 74.0121 145.87 75.3842 151.221Z" fill="#030047"/>
<path d="M82.629 155.585C82.4369 155.585 82.2722 155.447 82.2311 155.255C82.1762 155.036 82.3271 154.802 82.5466 154.761L87.2667 153.691C87.4863 153.636 87.7195 153.787 87.7607 154.007C87.8156 154.226 87.6646 154.459 87.4451 154.501L82.725 155.571C82.6839 155.585 82.6564 155.585 82.629 155.585Z" fill="#030047"/>
<path d="M79.6103 150.604C79.4182 150.604 79.2535 150.467 79.2124 150.275C79.1575 150.055 79.3084 149.822 79.528 149.781L85.7711 148.367C85.9906 148.312 86.2102 148.45 86.2651 148.683C86.32 148.902 86.169 149.136 85.9495 149.177L79.7063 150.59C79.6652 150.604 79.6377 150.604 79.6103 150.604Z" fill="#030047"/>
<path d="M78.4166 145.307C78.2245 145.307 78.0598 145.17 78.0186 144.978C77.9638 144.759 78.1147 144.525 78.3342 144.484L84.3578 143.126C84.5774 143.071 84.7969 143.222 84.8518 143.441C84.9067 143.661 84.7558 143.894 84.5362 143.935L78.5126 145.294C78.4715 145.308 78.444 145.307 78.4166 145.307Z" fill="#030047"/>
<path d="M104.35 166.219L93.0432 164.929C90.7244 164.339 89.1602 167.302 90.9851 168.839C91.0125 168.867 91.0537 168.894 91.0811 168.922C91.0811 168.922 88.7074 169.086 88.4741 171.254C88.2271 173.436 91.3555 174.561 91.3555 174.561C91.3555 174.561 88.6936 174.588 88.6525 176.756C88.6113 178.924 91.9044 180.612 91.9044 180.612C91.9044 180.612 89.4209 181.38 89.9423 183.301C90.4637 185.222 92.81 186.21 96.8577 186.841C100.905 187.473 115.272 183.247 115.272 183.247L166.506 184.303C171.926 184.138 176.77 180.9 178.993 175.947L194.457 141.493L172.571 130.955L155.598 159.372L112.171 161.622" fill="white"/>
<path d="M97.8457 187.322C97.4478 187.322 97.1047 187.294 96.8029 187.253C92.2474 186.553 90.0795 185.401 89.5444 183.411C89.1739 182.012 90.0932 181.065 90.9988 180.557C89.9697 179.885 88.1997 178.485 88.2409 176.743C88.2683 175.398 89.1602 174.698 90.0658 174.369C89.0916 173.779 87.8978 172.722 88.0762 171.199C88.2409 169.69 89.3386 168.949 90.2716 168.661C89.6267 167.783 89.6953 166.699 90.0932 165.917C90.5872 164.97 91.7123 164.16 93.1256 164.517L104.404 165.807C104.638 165.834 104.802 166.04 104.775 166.26C104.747 166.493 104.542 166.644 104.322 166.63L93.0158 165.34C93.0021 165.34 92.9747 165.34 92.9609 165.327C91.9044 165.052 91.1497 165.683 90.8342 166.301C90.5323 166.905 90.4637 167.838 91.2732 168.524C91.3281 168.565 91.3693 168.592 91.3967 168.633C91.5065 168.743 91.5477 168.922 91.4928 169.072C91.4379 169.223 91.3007 169.333 91.136 169.347C91.0537 169.347 89.1053 169.512 88.9132 171.309C88.7074 173.134 91.4928 174.163 91.5202 174.177C91.7123 174.245 91.8221 174.437 91.7809 174.63C91.7535 174.822 91.5751 174.973 91.383 174.973C91.287 174.973 89.119 175.027 89.0916 176.77C89.0504 178.664 92.0828 180.228 92.124 180.242C92.2749 180.324 92.3572 180.475 92.3435 180.639C92.3298 180.804 92.22 180.955 92.0553 180.996C91.973 181.024 89.956 181.669 90.3676 183.178C90.793 184.783 92.8237 185.771 96.9538 186.416C100.864 187.02 115.052 182.876 115.189 182.835C115.23 182.821 115.272 182.821 115.313 182.821L166.548 183.878C171.748 183.713 176.509 180.53 178.636 175.768L193.935 141.685L172.75 131.476L155.969 159.577C155.9 159.701 155.777 159.77 155.639 159.783L112.212 162.034C111.979 162.047 111.786 161.869 111.773 161.636C111.759 161.402 111.937 161.21 112.171 161.197L155.379 158.96L172.228 130.735C172.338 130.557 172.571 130.475 172.763 130.571L194.649 141.109C194.854 141.205 194.937 141.452 194.841 141.658L179.377 176.111C177.113 181.161 172.064 184.536 166.534 184.715L115.34 183.672C114.27 183.974 102.717 187.322 97.8457 187.322Z" fill="#030047"/>
<path d="M91.095 168.922C91.095 168.922 94.1822 170.143 98.2437 170.321L91.095 168.922Z" fill="white"/>
<path d="M98.2437 170.733H98.2299C94.141 170.555 91.0675 169.361 90.944 169.306C90.7245 169.224 90.6284 168.977 90.7107 168.771C90.7931 168.551 91.04 168.455 91.2459 168.538C91.2733 168.551 94.3331 169.731 98.2711 169.896C98.5044 169.91 98.6827 170.102 98.669 170.335C98.6553 170.555 98.4632 170.733 98.2437 170.733Z" fill="#030047"/>
<path d="M91.3693 174.561C91.3693 174.561 94.7858 175.686 98.6003 175.48L91.3693 174.561Z" fill="white"/>
<path d="M97.6124 175.919C94.1958 175.919 91.3556 175 91.2321 174.959C91.0125 174.89 90.9028 174.657 90.9714 174.438C91.04 174.218 91.2732 174.108 91.4928 174.177C91.5202 174.191 94.8819 175.274 98.5729 175.069C98.8062 175.055 98.9982 175.233 99.012 175.467C99.0257 175.7 98.8473 175.892 98.6141 175.906C98.2848 175.906 97.9417 175.919 97.6124 175.919Z" fill="#030047"/>
<path d="M91.9182 180.612C91.9182 180.612 93.4413 181.545 98.2574 181.298L91.9182 180.612Z" fill="white"/>
<path d="M96.7069 181.751C93.0296 181.751 91.7535 180.996 91.6986 180.955C91.5065 180.832 91.4379 180.585 91.5614 180.379C91.6849 180.187 91.9319 180.118 92.124 180.242C92.1514 180.255 93.6882 181.106 98.2299 180.873C98.4632 180.845 98.6553 181.038 98.669 181.271C98.6827 181.504 98.5044 181.696 98.2711 181.71C97.7085 181.751 97.1871 181.751 96.7069 181.751Z" fill="#030047"/>
<path d="M199.149 130.365C199.149 132.012 198.889 133.672 198.34 135.277L189.243 163.022L185.648 159.715L175.686 152.017L162.418 142.124L177.483 115.107L183.191 114.929C186.635 114.819 190.025 115.862 192.824 117.906C196.885 120.856 199.149 125.535 199.149 130.365Z" fill="#0045DF"/>
<g opacity="0.4">
<path d="M187.473 153.65C187.171 155.79 185.949 157.574 184.275 158.644L174.026 151.111C174.835 147.613 178.128 145.252 181.668 145.746C185.414 146.282 188.021 149.822 187.473 153.65Z" fill="white"/>
</g>
<path d="M189.256 163.433C189.16 163.433 189.078 163.406 188.996 163.351L162.171 142.44C162.006 142.316 161.965 142.083 162.061 141.905L173.93 120.994C174.04 120.801 174.3 120.719 174.492 120.843C174.698 120.952 174.767 121.213 174.643 121.405L162.953 142.001L189.037 162.322L197.805 135.716C197.873 135.497 198.106 135.373 198.326 135.456C198.546 135.524 198.655 135.758 198.587 135.977L189.627 163.145C189.586 163.269 189.476 163.378 189.352 163.42C189.339 163.433 189.297 163.433 189.256 163.433Z" fill="#030047"/>
<g opacity="0.4">
<path d="M187.929 126.404C188.124 125.578 187.613 124.75 186.787 124.555C185.961 124.36 185.133 124.872 184.938 125.698C184.743 126.524 185.255 127.351 186.081 127.547C186.907 127.742 187.734 127.23 187.929 126.404Z" fill="white"/>
</g>
<g opacity="0.4">
<path d="M190.615 137.206C190.751 136.368 190.182 135.579 189.344 135.443C188.506 135.307 187.717 135.876 187.581 136.714C187.445 137.552 188.014 138.341 188.851 138.477C189.689 138.613 190.479 138.044 190.615 137.206Z" fill="white"/>
</g>
<g opacity="0.4">
<path d="M180.987 138.637C182.766 136.858 182.766 133.974 180.987 132.195C179.208 130.416 176.324 130.416 174.545 132.195C172.766 133.974 172.766 136.858 174.545 138.637C176.324 140.416 179.208 140.416 180.987 138.637Z" fill="white"/>
</g>
<path d="M152.25 114.86L153.128 103.142L170.06 99.616L170.705 114.778C170.705 114.778 166.397 121.611 158.548 121.172C152.25 120.801 152.25 114.86 152.25 114.86Z" fill="white"/>
<path d="M159.276 121.597C159.029 121.597 158.782 121.584 158.535 121.57C151.907 121.199 151.839 114.915 151.839 114.86C151.839 114.846 151.839 114.846 151.839 114.833L152.717 103.115C152.731 102.936 152.868 102.772 153.046 102.744L169.978 99.2181C170.102 99.1906 170.225 99.2181 170.321 99.3004C170.417 99.369 170.472 99.4925 170.486 99.616L171.131 114.778C171.131 114.86 171.117 114.943 171.062 115.011C171.021 115.052 166.808 121.597 159.276 121.597ZM152.662 114.874C152.662 115.258 152.84 120.417 158.576 120.747C165.546 121.145 169.717 115.491 170.294 114.654L169.676 100.124L153.526 103.485L152.662 114.874Z" fill="#030047"/>
<path d="M170.266 102.072C179.404 94.5667 179.528 80.2555 179.528 80.2555L157.039 67.0283C156.545 67.3302 146.556 73.4224 143.002 87.9394C140.08 99.9043 150.768 108.315 163.831 105.448" fill="white"/>
<path d="M158.74 106.422C153.677 106.422 149.122 104.707 145.993 101.496C142.522 97.9421 141.315 93.0848 142.604 87.8296C146.089 73.6144 155.735 67.3301 156.819 66.6715C156.957 66.5892 157.121 66.5892 157.259 66.6578L179.748 79.885C179.871 79.9536 179.953 80.1045 179.953 80.2417C179.953 80.3927 179.72 94.8274 170.541 102.374C170.362 102.525 170.102 102.498 169.951 102.319C169.8 102.141 169.827 101.88 170.006 101.729C178.252 94.9509 179.034 82.3548 179.103 80.475L157.039 67.4948C155.296 68.6199 146.625 74.7944 143.4 88.0217C142.179 92.9887 143.318 97.5579 146.583 100.906C150.549 104.967 156.97 106.504 163.749 105.022C163.968 104.981 164.188 105.118 164.243 105.338C164.297 105.557 164.147 105.777 163.927 105.832C162.157 106.23 160.414 106.422 158.74 106.422Z" fill="#030047"/>
<path d="M151.948 83.4524C151.55 84.2757 150.796 84.7148 150.247 84.4541C149.698 84.1934 149.575 83.3152 149.973 82.492C150.37 81.6687 151.125 81.2296 151.674 81.4903C152.223 81.751 152.346 82.6292 151.948 83.4524Z" fill="#030047"/>
<path d="M150.782 79.5695C151.935 79.3911 153.128 80.0086 153.787 81.12L150.782 79.5695Z" fill="white"/>
<path d="M153.787 81.5316C153.65 81.5316 153.513 81.463 153.43 81.3258C152.854 80.3516 151.839 79.8302 150.851 79.9811C150.617 80.0086 150.412 79.8577 150.384 79.6381C150.357 79.4049 150.508 79.199 150.727 79.1716C152.058 78.9795 153.403 79.6656 154.144 80.9142C154.267 81.1063 154.199 81.367 153.993 81.4767C153.924 81.5179 153.856 81.5316 153.787 81.5316Z" fill="#030047"/>
<path d="M178.911 66.7675C181.312 69.7862 177.607 73.5321 177.607 73.5321C177.607 73.5321 182.876 72.8735 185.277 78.9519C187.678 85.0304 177.854 92.9476 177.854 92.9476L172.475 89.1468C172.475 89.1468 172.201 90.1896 170.733 88.6665C170.733 88.6665 166.891 80.8455 170.664 78.4305C170.664 78.4305 147.873 78.2659 149.918 61.4163C151.523 48.2302 174.973 61.8142 178.911 66.7675Z" fill="#030047"/>
<path d="M160.812 88.6941C160.552 89.5586 159.866 90.1211 159.289 89.9565C158.699 89.7781 158.439 88.9411 158.699 88.063C158.96 87.1848 159.646 86.6359 160.222 86.8006C160.799 86.9653 161.073 87.8297 160.812 88.6941Z" fill="#030047"/>
<path d="M159.481 84.9893C160.634 84.7835 161.841 85.3597 162.528 86.4437L159.481 84.9893Z" fill="white"/>
<path d="M162.527 86.8554C162.39 86.8554 162.253 86.7868 162.171 86.6633C161.567 85.7165 160.538 85.2089 159.55 85.3872C159.317 85.4284 159.111 85.2775 159.07 85.0579C159.029 84.8384 159.18 84.6188 159.399 84.5777C160.716 84.3444 162.088 84.9893 162.871 86.2242C162.994 86.4163 162.939 86.677 162.747 86.8005C162.678 86.8417 162.61 86.8554 162.527 86.8554Z" fill="#030047"/>
<path d="M172.201 89.2291C172.201 89.2291 178.293 85.4832 180.818 87.1023C183.342 88.7351 179.994 98.2028 176.509 98.34C173.024 98.4772 170.692 96.5562 170.692 96.5562" fill="white"/>
<path d="M176.153 98.7516C172.75 98.7516 170.513 96.9404 170.417 96.8581C170.239 96.7072 170.211 96.4465 170.362 96.2681C170.513 96.0897 170.774 96.0623 170.952 96.2132C170.98 96.2269 173.203 98.0107 176.496 97.9146C178.252 97.846 180.118 94.8411 180.9 91.9734C181.518 89.7368 181.394 87.9668 180.598 87.4454C178.705 86.2242 174.053 88.5705 172.42 89.5721C172.228 89.6956 171.968 89.627 171.844 89.4349C171.721 89.2428 171.789 88.9821 171.981 88.8586C172.242 88.694 178.321 84.9893 181.037 86.7456C182.176 87.4865 182.423 89.5173 181.696 92.1929C180.818 95.3899 178.76 98.6556 176.509 98.7516C176.4 98.7516 176.276 98.7516 176.153 98.7516Z" fill="#030047"/>
<path d="M178.087 93.5651C178.005 93.5651 177.923 93.5377 177.854 93.4965C177.662 93.373 177.621 93.1123 177.744 92.9202C178.197 92.2753 178.471 91.5206 178.554 90.7248C178.568 90.5876 178.581 90.4504 178.54 90.3543C178.526 90.2857 178.485 90.2583 178.471 90.2446C178.43 90.2309 178.293 90.272 178.238 90.2857L175.727 91.0404C175.508 91.109 175.274 90.9855 175.206 90.766C175.137 90.5464 175.261 90.3132 175.48 90.2446L177.991 89.4899C178.156 89.435 178.417 89.3664 178.691 89.435C178.993 89.5173 179.226 89.7643 179.322 90.0936C179.405 90.3406 179.391 90.5876 179.363 90.7934C179.267 91.7127 178.938 92.6046 178.417 93.3593C178.348 93.5102 178.225 93.5651 178.087 93.5651Z" fill="#030047"/>
<path d="M154.281 86.4438C153.43 87.4455 152.593 88.4471 151.743 89.4625C151.235 90.0662 150.713 90.6974 150.576 91.4521C150.439 92.2067 150.809 93.1261 151.66 93.4965" fill="white"/>
<path d="M151.674 93.9219C151.619 93.9219 151.564 93.9082 151.509 93.8807C150.425 93.4005 150.027 92.2616 150.178 91.3835C150.329 90.5053 150.919 89.8055 151.441 89.1881L153.979 86.1694C154.13 85.991 154.391 85.9773 154.569 86.1145C154.748 86.2655 154.761 86.5262 154.624 86.7045L152.086 89.7232C151.633 90.2583 151.125 90.8621 151.015 91.5207C150.919 92.0695 151.18 92.8242 151.852 93.1123C152.058 93.2084 152.154 93.4554 152.072 93.6612C151.99 93.8258 151.839 93.9219 151.674 93.9219Z" fill="#030047"/>
<path d="M154.898 99.2044C153.965 99.2044 153.046 98.93 152.25 98.4223C152.058 98.2988 152.003 98.0381 152.127 97.846C152.25 97.6539 152.511 97.599 152.703 97.7225C153.567 98.2988 154.651 98.5046 155.681 98.2851C156.696 98.0793 157.615 97.4618 158.192 96.5974C158.315 96.4053 158.576 96.3504 158.768 96.4876C158.96 96.6111 159.015 96.8718 158.878 97.0639C158.178 98.1067 157.08 98.8614 155.845 99.1083C155.543 99.1769 155.214 99.2044 154.898 99.2044Z" fill="#030047"/>
<g opacity="0.3">
<path d="M74.0669 123.12C99.135 123.12 119.457 102.799 119.457 77.7307C119.457 52.6627 99.135 32.3411 74.0669 32.3411C48.9989 32.3411 28.6772 52.6627 28.6772 77.7307C28.6772 102.799 48.9989 123.12 74.0669 123.12Z" fill="url(#paint0_linear_39_15117)"/>
</g>
<path d="M147.503 49.2317H127.525C127.291 49.2317 127.113 49.0396 127.113 48.8201C127.113 48.5868 127.305 48.4084 127.525 48.4084H147.503C147.736 48.4084 147.914 48.6005 147.914 48.8201C147.914 49.0396 147.736 49.2317 147.503 49.2317Z" fill="#030047"/>
<path d="M147.503 53.7461H133.96C133.727 53.7461 133.548 53.554 133.548 53.3345C133.548 53.1012 133.74 52.9229 133.96 52.9229H147.503C147.736 52.9229 147.914 53.1149 147.914 53.3345C147.914 53.5677 147.736 53.7461 147.503 53.7461Z" fill="#030047"/>
<path d="M31.1334 117.357H9.17946C8.9462 117.357 8.76782 117.165 8.76782 116.946C8.76782 116.712 8.95992 116.534 9.17946 116.534H31.1334C32.8485 116.534 34.4539 115.628 35.332 114.16L49.0669 91.3008C49.1904 91.1087 49.4374 91.0401 49.6432 91.1636C49.8353 91.2871 49.9039 91.5341 49.7804 91.7262L36.0455 114.572C35.0165 116.287 33.1366 117.357 31.1334 117.357Z" fill="#030047"/>
<path d="M29.3084 112.774H9.31666C9.0834 112.774 8.90503 112.582 8.90503 112.363C8.90503 112.13 9.09713 111.951 9.31666 111.951H29.3084C29.5417 111.951 29.7201 112.143 29.7201 112.363C29.7201 112.596 29.528 112.774 29.3084 112.774Z" fill="#030047"/>
<path d="M22.8595 108.26H9.31666C9.0834 108.26 8.90503 108.068 8.90503 107.849C8.90503 107.615 9.09713 107.437 9.31666 107.437H22.8595C23.0927 107.437 23.2711 107.629 23.2711 107.849C23.2711 108.068 23.079 108.26 22.8595 108.26Z" fill="#030047"/>
<path d="M194.127 92.4947C193.469 92.083 193.002 91.5068 192.728 90.7521C192.44 89.9288 192.508 89.1879 192.947 88.5155C193.455 87.7471 194.155 87.1846 195.047 86.8141C196.131 86.3613 197.146 86.4299 198.079 87.0062C198.861 87.5002 199.286 88.1725 199.355 89.0232C199.396 89.7093 199.19 90.3816 198.779 91.0265C198.326 91.7126 197.709 92.2477 196.94 92.6045C195.925 93.071 194.992 93.0435 194.127 92.4947ZM210.469 85.5106C210.346 85.5106 208.96 85.5792 206.312 85.689C204.624 85.7439 203.252 85.9222 202.195 86.2104C201.249 86.4574 200.439 86.375 199.767 85.9634C199.108 85.5518 198.683 84.948 198.491 84.1796C198.299 83.3975 198.408 82.6978 198.806 82.094C199.396 81.1884 200.81 80.6396 203.046 80.4612C205.049 80.3789 207.053 80.2828 209.07 80.1731C211.292 79.9947 212.692 79.4596 213.282 78.5677C213.968 77.5111 214.078 76.1939 213.584 74.5885C213.09 72.9832 212.253 71.8169 211.073 71.0759C210.442 70.6917 209.358 70.4996 207.821 70.5133C206.271 70.5271 205.283 70.3899 204.83 70.1154C204.144 69.6901 203.732 69.0863 203.581 68.3042C203.43 67.5221 203.554 66.8223 203.952 66.2323C204.693 65.1072 206.38 64.6956 209.029 65.0249C211.265 65.2993 212.953 65.7795 214.092 66.493C216.603 68.0573 218.29 70.3899 219.127 73.4634C219.978 76.5369 219.635 79.2537 218.098 81.5863C216.561 83.8915 214.023 85.195 210.469 85.5106Z" fill="white"/>
<path d="M196.487 100.604C196.487 100.055 196.666 99.561 197.022 99.1082C197.42 98.6142 197.901 98.381 198.477 98.381C199.149 98.381 199.767 98.5731 200.329 98.9573C201.029 99.4238 201.372 100.041 201.372 100.81C201.372 101.455 201.125 101.962 200.617 102.333C200.206 102.621 199.726 102.758 199.163 102.758C198.559 102.758 198.01 102.593 197.489 102.278C196.817 101.88 196.487 101.317 196.487 100.604ZM207.066 107.506C207.011 107.437 206.449 106.641 205.365 105.132C204.679 104.158 204.048 103.43 203.471 102.923C202.95 102.456 202.689 101.948 202.689 101.4C202.689 100.851 202.895 100.371 203.307 99.9589C203.718 99.5473 204.185 99.3415 204.706 99.3415C205.488 99.3415 206.367 99.9589 207.341 101.194C208.164 102.333 209.001 103.472 209.824 104.61C210.785 105.845 211.649 106.463 212.431 106.463C213.351 106.463 214.201 106.01 214.997 105.104C215.793 104.199 216.191 103.252 216.191 102.278C216.191 101.756 215.889 101.057 215.285 100.151C214.682 99.2454 214.38 98.6142 214.38 98.2438C214.38 97.6812 214.599 97.201 215.025 96.8168C215.45 96.4326 215.93 96.2405 216.452 96.2405C217.44 96.2405 218.331 97.0775 219.141 98.7515C219.841 100.165 220.184 101.345 220.184 102.292C220.184 104.363 219.402 106.257 217.824 107.931C216.26 109.619 214.448 110.456 212.418 110.456C210.414 110.442 208.631 109.468 207.066 107.506Z" fill="white"/>
<path d="M67.8924 143.537L71.1444 178.801H15.6833L12.4314 143.537H67.8924Z" fill="white"/>
<path d="M68.5922 151.153L71.1444 178.801H15.6833L13.8173 158.548C14.3936 158.123 17.3299 156.325 21.8579 159.687C25.7547 162.582 26.6191 169.484 32.4506 169.415C38.2821 169.347 41.0127 158.493 47.1049 159.262C52.1543 159.893 53.3068 167.042 57.7662 165.395C65.2305 162.651 61.5396 150.947 68.5922 151.153Z" fill="#605EFD"/>
<path d="M71.1443 179.212H15.6832C15.4637 179.212 15.2853 179.048 15.2716 178.842L12.0197 143.579C12.006 143.455 12.0471 143.345 12.1295 143.263C12.2118 143.181 12.3216 143.126 12.4313 143.126H67.8924C68.1119 143.126 68.2903 143.29 68.304 143.496L71.5559 178.76C71.5696 178.883 71.5285 178.993 71.4462 179.075C71.3775 179.158 71.2541 179.212 71.1443 179.212ZM16.0537 178.389H70.6915L67.5219 143.949H12.8841L16.0537 178.389Z" fill="#030047"/>
<path d="M59.6048 173.011C59.399 173.011 59.2069 172.846 59.1932 172.64L57.135 151.194C57.1076 150.961 57.2859 150.768 57.5055 150.741C57.7387 150.727 57.9308 150.892 57.9583 151.112L60.0164 172.558C60.0439 172.791 59.8655 172.983 59.646 173.011C59.6323 173.011 59.6185 173.011 59.6048 173.011Z" fill="#030047"/>
<path d="M49.3002 173.011C49.0944 173.011 48.9023 172.846 48.8886 172.64L46.8304 151.194C46.803 150.961 46.9814 150.768 47.2009 150.741C47.4342 150.727 47.6263 150.892 47.6537 151.112L49.7119 172.558C49.7393 172.791 49.561 172.983 49.3414 173.011C49.3277 173.011 49.314 173.011 49.3002 173.011Z" fill="#030047"/>
<path d="M38.9956 173.011C38.7897 173.011 38.5976 172.846 38.5839 172.64L36.5257 151.194C36.4983 150.961 36.6767 150.768 36.8962 150.741C37.1295 150.727 37.3216 150.892 37.349 151.112L39.4072 172.558C39.4346 172.791 39.2563 172.983 39.0367 173.011C39.023 173.011 39.0093 173.011 38.9956 173.011Z" fill="#030047"/>
<path d="M28.691 173.011C28.4852 173.011 28.2931 172.846 28.2794 172.64L26.2212 151.194C26.1937 150.961 26.3721 150.768 26.5917 150.741C26.8249 150.727 27.017 150.892 27.0445 151.112L29.1026 172.558C29.1301 172.791 28.9517 172.983 28.7322 173.011C28.7184 173.011 28.7047 173.011 28.691 173.011Z" fill="#030047"/>
<path d="M160.332 162.651C160.263 162.651 160.181 162.637 160.112 162.596L155.392 159.715C155.2 159.591 155.132 159.344 155.255 159.138C155.379 158.946 155.626 158.878 155.831 159.001L160.552 161.883C160.744 162.006 160.812 162.253 160.689 162.459C160.606 162.582 160.469 162.651 160.332 162.651Z" fill="#030047"/>
<path d="M140.587 19.6213L140.656 13.8996L137.678 13.8721C137.335 12.1707 136.69 10.579 135.785 9.15203L137.925 7.06641L133.919 2.9775L131.778 5.06312C130.365 4.11636 128.787 3.4303 127.086 3.0461L127.113 0.0686059L121.391 0L121.364 2.9775C119.662 3.32053 118.071 3.96542 116.644 4.87102L114.544 2.74424L110.455 6.75082L112.541 8.89133C111.608 10.2909 110.922 11.8688 110.538 13.5703L107.56 13.5428L107.492 19.2645L110.469 19.292C110.812 21.0071 111.457 22.5988 112.363 24.0121L110.222 26.0977L114.229 30.1866L116.369 28.101C117.769 29.034 119.347 29.7201 121.048 30.1043L121.021 33.0955L126.743 33.1641L126.77 30.1729C128.471 29.8299 130.063 29.185 131.49 28.2794L133.576 30.4199L137.665 26.4133L135.579 24.2728C136.512 22.8732 137.198 21.2953 137.582 19.5939L140.587 19.6213ZM124.561 23.4907C120.294 23.7788 116.795 20.2113 117.179 15.944C117.481 12.5823 120.239 9.89297 123.6 9.67344C127.881 9.38529 131.367 12.9665 130.982 17.2338C130.667 20.5681 127.923 23.2711 124.561 23.4907Z" fill="#0045DF"/>
<path d="M217.879 142.44L214.956 144.278C213.584 145.129 211.773 144.731 210.922 143.359L209.083 140.436C208.219 139.064 208.631 137.267 210.003 136.402L212.939 134.55C214.297 133.686 216.109 134.097 216.973 135.469L218.812 138.406C219.662 139.778 219.251 141.575 217.879 142.44Z" fill="#0045DF"/>
<path d="M198.381 58.9325L196.432 60.1674C195.513 60.7437 194.306 60.4693 193.743 59.55L192.508 57.6016C191.932 56.696 192.206 55.4885 193.126 54.9122L195.074 53.6773C195.98 53.101 197.187 53.3754 197.763 54.2948L198.985 56.2569C199.575 57.1625 199.3 58.3699 198.381 58.9325Z" fill="#0045DF"/>
<path d="M165.834 43.9352L163.886 45.1701C162.967 45.7464 161.759 45.472 161.197 44.5527L159.962 42.6042C159.385 41.6987 159.66 40.4912 160.579 39.9149L162.527 38.68C163.433 38.1037 164.641 38.3781 165.217 39.2974L166.438 41.2596C167.028 42.1515 166.754 43.3589 165.834 43.9352Z" fill="#0045DF"/>
<path d="M189.339 29.0751L187.39 30.31C186.471 30.8863 185.263 30.6119 184.701 29.6925L183.466 27.7441C182.89 26.8385 183.164 25.6311 184.083 25.0548L186.032 23.8199C186.937 23.2436 188.145 23.518 188.721 24.4373L189.942 26.3995C190.532 27.2913 190.258 28.4988 189.339 29.0751Z" fill="#0045DF"/>
<path d="M6.17448 71.6933L4.22607 72.9282C3.30675 73.5045 2.09929 73.23 1.53672 72.3107L0.301815 70.3623C-0.274475 69.4567 -5.15628e-05 68.2492 0.919268 67.673L2.86768 66.438C3.77327 65.8618 4.98074 66.1362 5.55703 67.0555L6.77822 69.0176C7.35451 69.9232 7.08008 71.1307 6.17448 71.6933Z" fill="#0045DF"/>
</g>
<defs>
<linearGradient id="paint0_linear_39_15117" x1="22.4965" y1="123.12" x2="119.457" y2="123.12" gradientUnits="userSpaceOnUse">
<stop stop-color="#0045DF"/>
<stop offset="1" stop-color="#0194FF"/>
</linearGradient>
<clipPath id="clip0_39_15117">
<rect width="223.861" height="200" fill="white"/>
</clipPath>
</defs>
</svg>
