<svg width="20" height="20" viewBox="0 0 20 20" fill="none" xmlns="http://www.w3.org/2000/svg">
<path d="M10.0001 0.0253906C4.47724 0.0253906 0 4.50263 0 10.0255C0 14.9788 3.60522 19.081 8.3322 19.8753V12.1117H5.91994V9.31789H8.3322V7.25789C8.3322 4.86766 9.7921 3.56512 11.9247 3.56512C12.9461 3.56512 13.8238 3.64122 14.0786 3.67475V6.17318L12.5995 6.1739C11.44 6.1739 11.2165 6.72478 11.2165 7.53346V9.31649H13.9832L13.6223 12.1103H11.2165V19.9421C16.1642 19.34 20 15.1333 20 10.0226C20 4.50263 15.5228 0.0253906 10.0001 0.0253906Z" fill="white"/>
</svg>
