<svg width="20" height="21" viewBox="0 0 20 21" fill="none" xmlns="http://www.w3.org/2000/svg">
<path d="M20 20.9834V13.6584C20 10.0584 19.225 7.3084 15.025 7.3084C13 7.3084 11.65 8.4084 11.1 9.4584H11.05V7.6334H7.075V20.9834H11.225V14.3584C11.225 12.6084 11.55 10.9334 13.7 10.9334C15.825 10.9334 15.85 12.9084 15.85 14.4584V20.9584H20V20.9834ZM0.325001 7.6334H4.475V20.9834H0.325001V7.6334ZM2.4 0.983398C1.075 0.983398 0 2.0584 0 3.3834C0 4.7084 1.075 5.8084 2.4 5.8084C3.725 5.8084 4.8 4.7084 4.8 3.3834C4.8 2.0584 3.725 0.983398 2.4 0.983398Z" fill="white"/>
</svg>
