<svg width="20" height="18" viewBox="0 0 20 18" fill="none" xmlns="http://www.w3.org/2000/svg">
<path d="M20 2.78215C19.2563 3.1084 18.4637 3.32465 17.6375 3.42965C18.4875 2.92215 19.1363 2.12465 19.4412 1.1634C18.6488 1.6359 17.7738 1.96965 16.8412 2.1559C16.0887 1.35465 15.0162 0.858398 13.8462 0.858398C11.5763 0.858398 9.7487 2.7009 9.7487 4.95965C9.7487 5.28465 9.7762 5.59715 9.8438 5.89465C6.435 5.7284 3.4188 4.09465 1.3925 1.6059C1.0387 2.21965 0.831299 2.92215 0.831299 3.6784C0.831299 5.0984 1.5625 6.35715 2.6525 7.0859C1.9937 7.0734 1.3475 6.8822 0.800003 6.5809V6.6259C0.800003 8.6184 2.2212 10.2734 4.085 10.6546C3.7512 10.7459 3.3875 10.7896 3.01 10.7896C2.7475 10.7896 2.4825 10.7747 2.2337 10.7196C2.765 12.3434 4.2725 13.5372 6.065 13.5759C4.67 14.6672 2.8988 15.3246 0.9813 15.3246C0.644997 15.3246 0.322502 15.3097 0 15.2684C1.8162 16.4397 3.9688 17.1084 6.29 17.1084C13.835 17.1084 17.96 10.8584 17.96 5.4409C17.96 5.25965 17.9538 5.08465 17.945 4.9109C18.7588 4.3334 19.4425 3.61215 20 2.78215Z" fill="white"/>
</svg>
