<svg width="20" height="21" viewBox="0 0 20 21" fill="none" xmlns="http://www.w3.org/2000/svg">
<path d="M19.945 6.86348C19.898 5.80077 19.727 5.07023 19.48 4.43713C19.226 3.76517 18.836 3.16356 18.324 2.66342C17.824 2.15551 17.218 1.76082 16.554 1.51085C15.917 1.26471 15.19 1.0928 14.128 1.04599C13.057 0.995118 12.717 0.983398 10.002 0.983398C7.287 0.983398 6.947 0.995118 5.88 1.04201C4.817 1.08889 4.087 1.26088 3.454 1.50686C2.782 1.76082 2.18 2.15152 1.68 2.66342C1.172 3.16352 0.778 3.76911 0.527 4.43331C0.280998 5.07023 0.109001 5.79686 0.0619965 6.85949C0.012001 7.93013 0 8.27001 0 10.9854C0 13.7008 0.012001 14.0407 0.0589981 15.1073C0.105003 16.17 0.277 16.9006 0.524002 17.5336C0.778 18.2056 1.172 18.8072 1.68 19.3074C2.18 19.8153 2.786 20.21 3.45 20.4599C4.087 20.7061 4.813 20.878 5.876 20.9248C6.943 20.9718 7.283 20.9834 9.998 20.9834C12.713 20.9834 13.053 20.9718 14.12 20.9248C15.183 20.8779 15.913 20.7061 16.546 20.4599C17.211 20.2029 17.815 19.8099 18.319 19.3059C18.822 18.802 19.216 18.1984 19.473 17.5336C19.719 16.8968 19.891 16.17 19.938 15.1073C19.984 14.0407 19.996 13.7008 19.996 10.9854C19.996 8.27001 19.992 7.9301 19.945 6.86348ZM18.144 15.0292C18.101 16.0059 17.937 16.5334 17.8 16.885C17.464 17.7563 16.773 18.4478 15.902 18.7839C15.55 18.9206 15.019 19.0847 14.046 19.1276C12.991 19.1746 12.674 19.1862 10.006 19.1862C7.337 19.1862 7.017 19.1746 5.966 19.1276C4.989 19.0847 4.462 18.9206 4.11 18.7839C3.677 18.6236 3.282 18.3697 2.961 18.0376C2.629 17.7133 2.375 17.3226 2.215 16.889C2.078 16.5374 1.914 16.0059 1.871 15.0332C1.824 13.9783 1.813 13.6617 1.813 10.9932C1.813 8.32463 1.824 8.00429 1.871 6.95338C1.914 5.97662 2.078 5.44917 2.215 5.09754C2.375 4.66378 2.629 4.26921 2.965 3.94876C3.29 3.61666 3.68 3.3627 4.114 3.20263C4.466 3.06588 4.997 2.90179 5.97 2.85877C7.025 2.81189 7.341 2.80017 10.01 2.80017C12.682 2.80017 12.999 2.81189 14.05 2.85877C15.026 2.90183 15.554 3.06585 15.905 3.20259C16.339 3.3627 16.734 3.61666 17.054 3.94876C17.386 4.27308 17.64 4.66378 17.8 5.09754C17.937 5.44917 18.101 5.98041 18.144 6.95338C18.191 8.00828 18.203 8.32463 18.203 10.9932C18.203 13.6617 18.191 13.9743 18.144 15.0292Z" fill="white"/>
<path d="M10.002 5.84786C7.16602 5.84786 4.86401 8.14902 4.86401 10.9856C4.86401 13.8221 7.16602 16.1233 10.002 16.1233C12.838 16.1233 15.14 13.8221 15.14 10.9856C15.14 8.14902 12.838 5.84786 10.002 5.84786ZM10.002 14.3183C8.16202 14.3183 6.66901 12.8258 6.66901 10.9856C6.66901 9.14534 8.16202 7.6529 10.002 7.6529C11.842 7.6529 13.335 9.14534 13.335 10.9856C13.335 12.8258 11.842 14.3183 10.002 14.3183ZM16.542 5.64469C16.542 6.30709 16.005 6.84415 15.343 6.84415C14.68 6.84415 14.143 6.30709 14.143 5.64469C14.143 4.98221 14.68 4.44531 15.343 4.44531C16.005 4.44531 16.542 4.98217 16.542 5.64469Z" fill="white"/>
</svg>
