<svg id="visual" viewBox="0 0 960 540" width="960" height="540" xmlns="http://www.w3.org/2000/svg" xmlns:xlink="http://www.w3.org/1999/xlink" version="1.1"><rect x="0" y="0" width="960" height="540" fill="#0066ff"></rect><path d="M0 130L20 127.8C40 125.7 80 121.3 120 110.7C160 100 200 83 240 77.5C280 72 320 78 360 90.8C400 103.7 440 123.3 480 135.2C520 147 560 151 600 148C640 145 680 135 720 120.5C760 106 800 87 840 77C880 67 920 66 940 65.5L960 65L960 0L940 0C920 0 880 0 840 0C800 0 760 0 720 0C680 0 640 0 600 0C560 0 520 0 480 0C440 0 400 0 360 0C320 0 280 0 240 0C200 0 160 0 120 0C80 0 40 0 20 0L0 0Z" fill="#002233" stroke-linecap="round" stroke-linejoin="miter"></path></svg>